  0
SECTION
  2
HEADER
  9
$ANGBASE
  50
0.0
  9
$ANGDIR
  70
1
  9
$MEASUREMENT
  70
1
  0
ENDSEC
  0
SECTION
  2
TABLES
  0
TABLE
  2
LTYPE
  70
4
  0
LTYPE
  5
40F
  2
CONTINUOUS
  70
0
  3
Solid line
  72
65
  73
0
  40
0.0
  0
LTYPE
  5
410
  2
DASHDOT
 70
0
  3
Dash Dot ____ _ ____ _
 72
65
 73
4
 40
2.0
 49
1.25
 49
-0.25
 49
0.25
 49
-0.25
  0
LTYPE
  5
411
  2
DASHED
 70
0
  3
Dashed __ __ __ __ __
 72
65
 73
2
 40
0.75
 49
0.5
 49
-0.25
  0
LTYPE
  5
43B
  2
DOTTED
 70
0
  3
Dotted .  .  .  .
 72
65
 73
2
 40
0.2
 49
0.0
 49
-0.2
  0
ENDTAB
  0
TABLE
  2
STYLE
  70
4
  0
STYLE
  2
KICAD
  70
0
  40
0
  41
1
  42
1
  50
0
  71
0
  3
isocp.shx
  0
STYLE
  2
KICADB
  70
0
  40
0
  41
1
  42
1
  50
0
  71
0
  3
isocp.shx
  0
STYLE
  2
KICADI
  70
0
  40
0
  41
1
  42
1
  50
15
  71
0
  3
isocp.shx
  0
STYLE
  2
KICADBI
  70
0
  40
0
  41
1
  42
1
  50
15
  71
0
  3
isocp.shx
  0
ENDTAB
  0
TABLE
  2
LAYER
  70
1
  0
LAYER
  2
BLACK
  70
0
  62
7
  6
CONTINUOUS
  0
ENDTAB
  0
ENDSEC
  0
SECTION
  2
ENTITIES
0
LINE
8
BLACK
6
CONTINUOUS
10
36
20
-33
11
40.5
21
-33
0
LINE
8
BLACK
6
CONTINUOUS
10
40.5
20
-33
11
40.5
21
-48
0
LINE
8
BLACK
6
CONTINUOUS
10
40.5
20
-48
11
36
21
-48
0
LINE
8
BLACK
6
CONTINUOUS
10
36
20
-48
11
36
21
-33
0
LINE
8
BLACK
6
CONTINUOUS
10
20
20
-57
11
36
21
-57
0
LINE
8
BLACK
6
CONTINUOUS
10
36
20
-57
11
36
21
-59
0
LINE
8
BLACK
6
CONTINUOUS
10
36
20
-59
11
20
21
-59
0
LINE
8
BLACK
6
CONTINUOUS
10
20
20
-59
11
20
21
-57
0
LINE
8
BLACK
6
CONTINUOUS
10
-40.5
20
-33.5
11
-36
21
-33.5
0
LINE
8
BLACK
6
CONTINUOUS
10
-36
20
-33.5
11
-36
21
-48.5
0
LINE
8
BLACK
6
CONTINUOUS
10
-36
20
-48.5
11
-40.5
21
-48.5
0
LINE
8
BLACK
6
CONTINUOUS
10
-40.5
20
-48.5
11
-40.5
21
-33.5
0
LINE
8
BLACK
6
CONTINUOUS
10
-36
20
-57
11
-20
21
-57
0
LINE
8
BLACK
6
CONTINUOUS
10
-20
20
-57
11
-20
21
-59
0
LINE
8
BLACK
6
CONTINUOUS
10
-20
20
-59
11
-36
21
-59
0
LINE
8
BLACK
6
CONTINUOUS
10
-36
20
-59
11
-36
21
-57
0
LINE
8
BLACK
6
CONTINUOUS
10
-27.0003
20
-82.656
11
-21.3624
21
-67.1667
0
ARC
8
BLACK
10
151.722
20
-62.918
40
3.00002
50
-99.9118
51
-10.1574
0
LINE
8
BLACK
6
CONTINUOUS
10
-22
20
3e-06
11
-22
21
-20.6
0
LINE
8
BLACK
6
CONTINUOUS
10
-33.4
20
-20.6
11
-33.4
21
-9e-06
0
LINE
8
BLACK
6
CONTINUOUS
10
120.73
20
-5.67893
11
100
21
-3.84999
0
ARC
8
BLACK
10
120.467
20
-8.66733
40
3.00002
50
-4.99896
51
84.9576
0
LINE
8
BLACK
6
CONTINUOUS
10
-22
20
-20.6
11
-33.4
21
-20.6
0
LINE
8
BLACK
6
CONTINUOUS
10
3
20
-3
11
3
21
-11
0
LINE
8
BLACK
6
CONTINUOUS
10
22
20
3e-06
11
5.99999
21
-1e-06
0
LINE
8
BLACK
6
CONTINUOUS
10
-3
20
-40
11
-3
21
-16.9972
0
LINE
8
BLACK
6
CONTINUOUS
10
33.4
20
-20.6
11
22
21
-20.6
0
ARC
8
BLACK
10
-157.503
20
-30.648
40
3
50
-259.962
51
-169.843
0
ARC
8
BLACK
10
-29.8193
20
-81.6299
40
2.99996
50
-110.248
51
-19.9998
0
ARC
8
BLACK
10
-97
20
-3.00003
40
3
50
90
51
180
0
LINE
8
BLACK
6
CONTINUOUS
10
-123.455
20
-8.92875
11
-122.366
21
-21.3815
0
LINE
8
BLACK
6
CONTINUOUS
10
-21.3624
20
-67.1667
11
-4.84391
21
-60.2683
0
ARC
8
BLACK
10
-151.722
20
-62.918
40
3.00005
50
-169.843
51
-80.0882
0
LINE
8
BLACK
6
CONTINUOUS
10
22
20
-20.6
11
22
21
3e-06
0
LINE
8
BLACK
6
CONTINUOUS
10
158.026
20
-27.6939
11
122.366
21
-21.3815
0
ARC
8
BLACK
10
98.0001
20
-70.3
40
2.9999
50
-90.0019
51
0.000630275
0
LINE
8
BLACK
6
CONTINUOUS
10
-83.5
20
-73.3
11
-83.5
21
-73.4006
0
LINE
8
BLACK
6
CONTINUOUS
10
83.5
20
-73.3
11
98
21
-73.3
0
LINE
8
BLACK
6
CONTINUOUS
10
100
20
-3.84999
11
100
21
-3.00002
0
LINE
8
BLACK
6
CONTINUOUS
10
83.5
20
-73.4007
11
83.5
21
-73.3
0
LINE
8
BLACK
6
CONTINUOUS
10
-118.967
20
-60.2397
11
-101
21
-58.6545
0
ARC
8
BLACK
10
97
20
-3.00003
40
3.00002
50
0.000324676
51
90
0
LINE
8
BLACK
6
CONTINUOUS
10
-151.206
20
-65.8733
11
-118.967
21
-60.2397
0
LINE
8
BLACK
6
CONTINUOUS
10
97
20
-1.5e-05
11
33.4
21
-1e-05
0
LINE
8
BLACK
6
CONTINUOUS
10
-3
20
-57.5
11
-3
21
-46
0
LINE
8
BLACK
6
CONTINUOUS
10
3
20
-16.9973
11
3
21
-40
0
LINE
8
BLACK
6
CONTINUOUS
10
21.3624
20
-67.1667
11
27.0003
21
-82.656
0
ARC
8
BLACK
10
-120.467
20
-8.66733
40
3.00002
50
-264.958
51
-175.001
0
LINE
8
BLACK
6
CONTINUOUS
10
101
20
-58.6545
11
118.967
21
-60.2397
0
LINE
8
BLACK
6
CONTINUOUS
10
-100
20
-3.84999
11
-120.73
21
-5.67893
0
LINE
8
BLACK
6
CONTINUOUS
10
-6
20
-3e-06
11
-22
21
3e-06
0
LINE
8
BLACK
6
CONTINUOUS
10
3
20
-46
11
-3
21
-46
0
ARC
8
BLACK
10
-6
20
-2.99993
40
2.99993
50
-0.00127961
51
90
0
ARC
8
BLACK
10
5.9999
20
-57.5
40
2.9999
50
-180.001
51
-112.665
0
ARC
8
BLACK
10
84.4143
20
-229.641
40
154.759
50
90.8853
51
110.247
0
LINE
8
BLACK
6
CONTINUOUS
10
-3
20
-40
11
3
21
-40
0
LINE
8
BLACK
6
CONTINUOUS
10
33.4
20
-1e-05
11
33.4
21
-20.6
0
ARC
8
BLACK
10
-82
20
-73.4006
40
1.50002
50
-179.999
51
-90.8854
0
ARC
8
BLACK
10
82
20
-73.4006
40
1.5
50
-89.1148
51
-0.000725748
0
LINE
8
BLACK
6
CONTINUOUS
10
101
20
-70.3
11
101
21
-58.6545
0
ARC
8
BLACK
10
29.8193
20
-81.6299
40
2.99996
50
-160
51
-69.7525
0
LINE
8
BLACK
6
CONTINUOUS
10
-122.366
20
-21.3815
11
-158.026
21
-27.6939
0
ARC
8
BLACK
10
-98
20
-70.2999
40
3.00007
50
-179.999
51
-90.0001
0
LINE
8
BLACK
6
CONTINUOUS
10
-160.456
20
-31.177
11
-154.675
21
-63.4471
0
ARC
8
BLACK
10
-84.4143
20
-229.641
40
154.759
50
69.7531
51
89.1147
0
ARC
8
BLACK
10
6.0001
20
-3.00003
40
3.0001
50
90.002
51
179.999
0
LINE
8
BLACK
6
CONTINUOUS
10
-3
20
-11
11
3
21
-11
0
LINE
8
BLACK
6
CONTINUOUS
10
4.84391
20
-60.2683
11
21.3624
21
-67.1667
0
ARC
8
BLACK
10
-6.0001
20
-57.4999
40
3.0001
50
-67.3322
51
-0.000553841
0
LINE
8
BLACK
6
CONTINUOUS
10
-101
20
-58.6545
11
-101
21
-70.3
0
LINE
8
BLACK
6
CONTINUOUS
10
-3
20
-3
11
-3
21
-11
0
LINE
8
BLACK
6
CONTINUOUS
10
118.967
20
-60.2397
11
151.206
21
-65.8733
0
LINE
8
BLACK
6
CONTINUOUS
10
3
20
-46
11
3
21
-57.5
0
LINE
8
BLACK
6
CONTINUOUS
10
3
20
-16.9973
11
-3
21
-16.9972
0
LINE
8
BLACK
6
CONTINUOUS
10
-33.4
20
-9e-06
11
-97
21
-1.6e-05
0
LINE
8
BLACK
6
CONTINUOUS
10
-100
20
-3.00002
11
-100
21
-3.84999
0
ARC
8
BLACK
10
157.503
20
-30.648
40
3.00002
50
-10.1561
51
79.9615
0
LINE
8
BLACK
6
CONTINUOUS
10
154.675
20
-63.4471
11
160.456
21
-31.177
0
LINE
8
BLACK
6
CONTINUOUS
10
122.366
20
-21.3815
11
123.455
21
-8.92875
0
LINE
8
BLACK
6
CONTINUOUS
10
-98
20
-73.3
11
-83.5
21
-73.3
0
LINE
8
BLACK
6
CONTINUOUS
10
-8.5
20
-8.79999
11
-6.3
21
-8.79999
0
LINE
8
BLACK
6
CONTINUOUS
10
-6.3
20
-8.79999
11
-6.3
21
-11.8
0
LINE
8
BLACK
6
CONTINUOUS
10
-6.3
20
-11.8
11
-8.5
21
-11.8
0
LINE
8
BLACK
6
CONTINUOUS
10
-8.5
20
-11.8
11
-8.5
21
-8.79999
0
LINE
8
BLACK
6
CONTINUOUS
10
-8.5
20
-1.79999
11
-6.3
21
-1.79999
0
LINE
8
BLACK
6
CONTINUOUS
10
-6.3
20
-1.79999
11
-6.3
21
-7.79999
0
LINE
8
BLACK
6
CONTINUOUS
10
-6.3
20
-7.79999
11
-8.5
21
-7.79999
0
LINE
8
BLACK
6
CONTINUOUS
10
-8.5
20
-7.79999
11
-8.5
21
-1.79999
0
LINE
8
BLACK
6
CONTINUOUS
10
-12.7
20
-10.2
11
-10.5
21
-10.2
0
LINE
8
BLACK
6
CONTINUOUS
10
-10.5
20
-10.2
11
-10.5
21
-13.4
0
LINE
8
BLACK
6
CONTINUOUS
10
-10.5
20
-13.4
11
-12.7
21
-13.4
0
LINE
8
BLACK
6
CONTINUOUS
10
-12.7
20
-13.4
11
-12.7
21
-10.2
0
LINE
8
BLACK
6
CONTINUOUS
10
10.5
20
-8.80001
11
12.7
21
-8.80001
0
LINE
8
BLACK
6
CONTINUOUS
10
12.7
20
-8.80001
11
12.7
21
-11.8
0
LINE
8
BLACK
6
CONTINUOUS
10
12.7
20
-11.8
11
10.5
21
-11.8
0
LINE
8
BLACK
6
CONTINUOUS
10
10.5
20
-11.8
11
10.5
21
-8.80001
0
LINE
8
BLACK
6
CONTINUOUS
10
10.5
20
-1.80001
11
12.7
21
-1.80001
0
LINE
8
BLACK
6
CONTINUOUS
10
12.7
20
-1.80001
11
12.7
21
-7.80001
0
LINE
8
BLACK
6
CONTINUOUS
10
12.7
20
-7.80001
11
10.5
21
-7.80001
0
LINE
8
BLACK
6
CONTINUOUS
10
10.5
20
-7.80001
11
10.5
21
-1.80001
0
LINE
8
BLACK
6
CONTINUOUS
10
6.29999
20
-10.2
11
8.49999
21
-10.2
0
LINE
8
BLACK
6
CONTINUOUS
10
8.49999
20
-10.2
11
8.49999
21
-13.4
0
LINE
8
BLACK
6
CONTINUOUS
10
8.49999
20
-13.4
11
6.29999
21
-13.4
0
LINE
8
BLACK
6
CONTINUOUS
10
6.29999
20
-13.4
11
6.29999
21
-10.2
0
LINE
8
BLACK
6
CONTINUOUS
10
88
20
-59.05
11
88
21
-61.3
0
LINE
8
BLACK
6
CONTINUOUS
10
98
20
-59.05
11
88
21
-59.05
0
LINE
8
BLACK
6
CONTINUOUS
10
100.25
20
-62.05
11
100.25
21
-57.8
0
LINE
8
BLACK
6
CONTINUOUS
10
100.25
20
-57.8
11
98
21
-57.8
0
LINE
8
BLACK
6
CONTINUOUS
10
98
20
-62.05
11
100.25
21
-62.05
0
LINE
8
BLACK
6
CONTINUOUS
10
98
20
-57.8
11
98
21
-59.05
0
LINE
8
BLACK
6
CONTINUOUS
10
88
20
-61.3
11
98
21
-61.3
0
LINE
8
BLACK
6
CONTINUOUS
10
98
20
-61.3
11
98
21
-62.05
0
LINE
8
BLACK
6
CONTINUOUS
10
90.75
20
-72.55
11
88.25
21
-72.55
0
LINE
8
BLACK
6
CONTINUOUS
10
88.25
20
-72.55
11
88.25
21
-75.55
0
LINE
8
BLACK
6
CONTINUOUS
10
88.25
20
-75.55
11
90.75
21
-75.55
0
LINE
8
BLACK
6
CONTINUOUS
10
90.75
20
-75.55
11
90.75
21
-72.55
0
LINE
8
BLACK
6
CONTINUOUS
10
97.25
20
-72.55
11
94.75
21
-72.55
0
LINE
8
BLACK
6
CONTINUOUS
10
94.75
20
-72.55
11
94.75
21
-75.55
0
LINE
8
BLACK
6
CONTINUOUS
10
94.75
20
-75.55
11
97.25
21
-75.55
0
LINE
8
BLACK
6
CONTINUOUS
10
97.25
20
-75.55
11
97.25
21
-72.55
0
LINE
8
BLACK
6
CONTINUOUS
10
-98
20
-59.05
11
-98
21
-61.3
0
LINE
8
BLACK
6
CONTINUOUS
10
-88
20
-59.05
11
-98
21
-59.05
0
LINE
8
BLACK
6
CONTINUOUS
10
-85.75
20
-62.05
11
-85.75
21
-57.8
0
LINE
8
BLACK
6
CONTINUOUS
10
-85.75
20
-57.8
11
-88
21
-57.8
0
LINE
8
BLACK
6
CONTINUOUS
10
-88
20
-62.05
11
-85.75
21
-62.05
0
LINE
8
BLACK
6
CONTINUOUS
10
-88
20
-57.8
11
-88
21
-59.05
0
LINE
8
BLACK
6
CONTINUOUS
10
-98
20
-61.3
11
-88
21
-61.3
0
LINE
8
BLACK
6
CONTINUOUS
10
-88
20
-61.3
11
-88
21
-62.05
0
LINE
8
BLACK
6
CONTINUOUS
10
-95.25
20
-72.55
11
-97.75
21
-72.55
0
LINE
8
BLACK
6
CONTINUOUS
10
-97.75
20
-72.55
11
-97.75
21
-75.55
0
LINE
8
BLACK
6
CONTINUOUS
10
-97.75
20
-75.55
11
-95.25
21
-75.55
0
LINE
8
BLACK
6
CONTINUOUS
10
-95.25
20
-75.55
11
-95.25
21
-72.55
0
LINE
8
BLACK
6
CONTINUOUS
10
-88.75
20
-72.55
11
-91.25
21
-72.55
0
LINE
8
BLACK
6
CONTINUOUS
10
-91.25
20
-72.55
11
-91.25
21
-75.55
0
LINE
8
BLACK
6
CONTINUOUS
10
-91.25
20
-75.55
11
-88.75
21
-75.55
0
LINE
8
BLACK
6
CONTINUOUS
10
-88.75
20
-75.55
11
-88.75
21
-72.55
0
LINE
8
BLACK
6
CONTINUOUS
10
-100.3
20
-65.1
11
-100.3
21
-63.9
0
LINE
8
BLACK
6
CONTINUOUS
10
-97.9
20
-65.1
11
-97.9
21
-63.9
0
LINE
8
BLACK
6
CONTINUOUS
10
-86.7
20
-65.1
11
-86.7
21
-63.9
0
LINE
8
BLACK
6
CONTINUOUS
10
-89.1
20
-65.1
11
-89.1
21
-63.9
0
LINE
8
BLACK
6
CONTINUOUS
10
-97.25
20
-73.25
11
-89.75
21
-73.25
0
LINE
8
BLACK
6
CONTINUOUS
10
-89.75
20
-73.25
11
-89.75
21
-70.75
0
LINE
8
BLACK
6
CONTINUOUS
10
-89.75
20
-70.75
11
-97.25
21
-70.75
0
LINE
8
BLACK
6
CONTINUOUS
10
-97.25
20
-70.75
11
-97.25
21
-73.25
0
ARC
8
BLACK
10
-99.1
20
-63.9
40
1.2
50
-0
51
180
0
ARC
8
BLACK
10
-99.1
20
-65.1
40
1.2
50
-180
51
-0
0
ARC
8
BLACK
10
-87.9
20
-65.1
40
1.2
50
-180
51
-0
0
ARC
8
BLACK
10
-87.9
20
-63.9
40
1.2
50
-0
51
180
0
CIRCLE
8
BLACK
10
-96
20
-57.5
40
1.25
0
CIRCLE
8
BLACK
10
-91
20
-57.5
40
1.25
0
LINE
8
BLACK
6
CONTINUOUS
10
86.7
20
-65.1
11
86.7
21
-63.9
0
LINE
8
BLACK
6
CONTINUOUS
10
89.1
20
-65.1
11
89.1
21
-63.9
0
LINE
8
BLACK
6
CONTINUOUS
10
100.3
20
-65.1
11
100.3
21
-63.9
0
LINE
8
BLACK
6
CONTINUOUS
10
97.9
20
-65.1
11
97.9
21
-63.9
0
LINE
8
BLACK
6
CONTINUOUS
10
89.75
20
-73.25
11
97.25
21
-73.25
0
LINE
8
BLACK
6
CONTINUOUS
10
97.25
20
-73.25
11
97.25
21
-70.75
0
LINE
8
BLACK
6
CONTINUOUS
10
97.25
20
-70.75
11
89.75
21
-70.75
0
LINE
8
BLACK
6
CONTINUOUS
10
89.75
20
-70.75
11
89.75
21
-73.25
0
ARC
8
BLACK
10
87.9
20
-63.9
40
1.2
50
-0
51
180
0
ARC
8
BLACK
10
87.9
20
-65.1
40
1.2
50
-180
51
-0
0
ARC
8
BLACK
10
99.1
20
-65.1
40
1.2
50
-180
51
-0
0
ARC
8
BLACK
10
99.1
20
-63.9
40
1.2
50
-0
51
180
0
CIRCLE
8
BLACK
10
91
20
-57.5
40
1.25
0
CIRCLE
8
BLACK
10
96
20
-57.5
40
1.25
0
CIRCLE
8
BLACK
10
-7
20
-23
40
1.1
0
CIRCLE
8
BLACK
10
7
20
-57
40
1.1
0
CIRCLE
8
BLACK
10
-40.5
20
-23
40
1.1
0
CIRCLE
8
BLACK
10
138
20
-60.5
40
1.1
0
CIRCLE
8
BLACK
10
-85
20
-54
40
1.1
0
CIRCLE
8
BLACK
10
40.5
20
-23
40
1.1
0
CIRCLE
8
BLACK
10
40.5
20
-57.5
40
1.1
0
CIRCLE
8
BLACK
10
-7.00001
20
-57
40
1.1
0
CIRCLE
8
BLACK
10
-138
20
-60.5
40
1.1
0
CIRCLE
8
BLACK
10
73
20
-3.00001
40
1.1
0
CIRCLE
8
BLACK
10
-73
20
-3.00002
40
1.1
0
CIRCLE
8
BLACK
10
-40.5
20
-57
40
1.1
0
CIRCLE
8
BLACK
10
85
20
-54
40
1.1
0
CIRCLE
8
BLACK
10
122
20
-25.5
40
1.1
0
CIRCLE
8
BLACK
10
6.99999
20
-23
40
1.1
0
CIRCLE
8
BLACK
10
-122
20
-25.5
40
1.1
0
LINE
8
BLACK
6
CONTINUOUS
10
144.272
20
-55.2639
11
150.181
21
-56.3058
0
LINE
8
BLACK
6
CONTINUOUS
10
150.181
20
-56.3058
11
150.528
21
-54.3362
0
LINE
8
BLACK
6
CONTINUOUS
10
150.528
20
-54.3362
11
144.619
21
-53.2943
0
LINE
8
BLACK
6
CONTINUOUS
10
144.619
20
-53.2943
11
144.272
21
-55.2639
0
LINE
8
BLACK
6
CONTINUOUS
10
-92.2
20
-46.2
11
-86.2
21
-46.2
0
LINE
8
BLACK
6
CONTINUOUS
10
-86.2
20
-46.2
11
-86.2
21
-44.2
0
LINE
8
BLACK
6
CONTINUOUS
10
-86.2
20
-44.2
11
-92.2
21
-44.2
0
LINE
8
BLACK
6
CONTINUOUS
10
-92.2
20
-44.2
11
-92.2
21
-46.2
0
LINE
8
BLACK
6
CONTINUOUS
10
36.3229
20
-77.3658
11
41.9611
21
-75.3136
0
LINE
8
BLACK
6
CONTINUOUS
10
41.9611
20
-75.3136
11
41.2771
21
-73.4343
0
LINE
8
BLACK
6
CONTINUOUS
10
41.2771
20
-73.4343
11
35.6389
21
-75.4864
0
LINE
8
BLACK
6
CONTINUOUS
10
35.6389
20
-75.4864
11
36.3229
21
-77.3658
0
LINE
8
BLACK
6
CONTINUOUS
10
-130.781
20
-38.7058
11
-124.872
21
-37.6639
0
LINE
8
BLACK
6
CONTINUOUS
10
-124.872
20
-37.6639
11
-125.219
21
-35.6943
0
LINE
8
BLACK
6
CONTINUOUS
10
-125.219
20
-35.6943
11
-131.128
21
-36.7362
0
LINE
8
BLACK
6
CONTINUOUS
10
-131.128
20
-36.7362
11
-130.781
21
-38.7058
0
LINE
8
BLACK
6
CONTINUOUS
10
109.724
20
-34.1347
11
115.701
21
-34.6577
0
LINE
8
BLACK
6
CONTINUOUS
10
115.701
20
-34.6577
11
115.876
21
-32.6653
0
LINE
8
BLACK
6
CONTINUOUS
10
115.876
20
-32.6653
11
109.899
21
-32.1424
0
LINE
8
BLACK
6
CONTINUOUS
10
109.899
20
-32.1424
11
109.724
21
-34.1347
0
LINE
8
BLACK
6
CONTINUOUS
10
90.5
20
-65
11
96.5
21
-65
0
LINE
8
BLACK
6
CONTINUOUS
10
96.5
20
-65
11
96.5
21
-63
0
LINE
8
BLACK
6
CONTINUOUS
10
96.5
20
-63
11
90.5
21
-63
0
LINE
8
BLACK
6
CONTINUOUS
10
90.5
20
-63
11
90.5
21
-65
0
LINE
8
BLACK
6
CONTINUOUS
10
147.272
20
-38.4639
11
153.181
21
-39.5058
0
LINE
8
BLACK
6
CONTINUOUS
10
153.181
20
-39.5058
11
153.528
21
-37.5362
0
LINE
8
BLACK
6
CONTINUOUS
10
153.528
20
-37.5362
11
147.619
21
-36.4943
0
LINE
8
BLACK
6
CONTINUOUS
10
147.619
20
-36.4943
11
147.272
21
-38.4639
0
LINE
8
BLACK
6
CONTINUOUS
10
-74
20
-34.2
11
-68
21
-34.2
0
LINE
8
BLACK
6
CONTINUOUS
10
-68
20
-34.2
11
-68
21
-32.2
0
LINE
8
BLACK
6
CONTINUOUS
10
-68
20
-32.2
11
-74
21
-32.2
0
LINE
8
BLACK
6
CONTINUOUS
10
-74
20
-32.2
11
-74
21
-34.2
0
LINE
8
BLACK
6
CONTINUOUS
10
73.6
20
-70.2
11
79.6
21
-70.2
0
LINE
8
BLACK
6
CONTINUOUS
10
79.6
20
-70.2
11
79.6
21
-68.2
0
LINE
8
BLACK
6
CONTINUOUS
10
79.6
20
-68.2
11
73.6
21
-68.2
0
LINE
8
BLACK
6
CONTINUOUS
10
73.6
20
-68.2
11
73.6
21
-70.2
0
LINE
8
BLACK
6
CONTINUOUS
10
-110.101
20
-51.2577
11
-104.124
21
-50.7347
0
LINE
8
BLACK
6
CONTINUOUS
10
-104.124
20
-50.7347
11
-104.299
21
-48.7423
0
LINE
8
BLACK
6
CONTINUOUS
10
-104.299
20
-48.7423
11
-110.276
21
-49.2653
0
LINE
8
BLACK
6
CONTINUOUS
10
-110.276
20
-49.2653
11
-110.101
21
-51.2577
0
LINE
8
BLACK
6
CONTINUOUS
10
72
20
-34.2
11
78
21
-34.2
0
LINE
8
BLACK
6
CONTINUOUS
10
78
20
-34.2
11
78
21
-32.2
0
LINE
8
BLACK
6
CONTINUOUS
10
78
20
-32.2
11
72
21
-32.2
0
LINE
8
BLACK
6
CONTINUOUS
10
72
20
-32.2
11
72
21
-34.2
0
LINE
8
BLACK
6
CONTINUOUS
10
-56
20
-53.2
11
-50
21
-53.2
0
LINE
8
BLACK
6
CONTINUOUS
10
-50
20
-53.2
11
-50
21
-51.2
0
LINE
8
BLACK
6
CONTINUOUS
10
-50
20
-51.2
11
-56
21
-51.2
0
LINE
8
BLACK
6
CONTINUOUS
10
-56
20
-51.2
11
-56
21
-53.2
0
LINE
8
BLACK
6
CONTINUOUS
10
126.072
20
-55.2639
11
131.981
21
-56.3058
0
LINE
8
BLACK
6
CONTINUOUS
10
131.981
20
-56.3058
11
132.328
21
-54.3362
0
LINE
8
BLACK
6
CONTINUOUS
10
132.328
20
-54.3362
11
126.419
21
-53.2943
0
LINE
8
BLACK
6
CONTINUOUS
10
126.419
20
-53.2943
11
126.072
21
-55.2639
0
LINE
8
BLACK
6
CONTINUOUS
10
-74
20
-17.2
11
-68
21
-17.2
0
LINE
8
BLACK
6
CONTINUOUS
10
-68
20
-17.2
11
-68
21
-15.2
0
LINE
8
BLACK
6
CONTINUOUS
10
-68
20
-15.2
11
-74
21
-15.2
0
LINE
8
BLACK
6
CONTINUOUS
10
-74
20
-15.2
11
-74
21
-17.2
0
LINE
8
BLACK
6
CONTINUOUS
10
-56.7281
20
-71.4639
11
-50.8192
21
-72.5058
0
LINE
8
BLACK
6
CONTINUOUS
10
-50.8192
20
-72.5058
11
-50.4719
21
-70.5361
0
LINE
8
BLACK
6
CONTINUOUS
10
-50.4719
20
-70.5361
11
-56.3808
21
-69.4943
0
LINE
8
BLACK
6
CONTINUOUS
10
-56.3808
20
-69.4943
11
-56.7281
21
-71.4639
0
LINE
8
BLACK
6
CONTINUOUS
10
90
20
-46.2
11
96
21
-46.2
0
LINE
8
BLACK
6
CONTINUOUS
10
96
20
-46.2
11
96
21
-44.2
0
LINE
8
BLACK
6
CONTINUOUS
10
96
20
-44.2
11
90
21
-44.2
0
LINE
8
BLACK
6
CONTINUOUS
10
90
20
-44.2
11
90
21
-46.2
0
LINE
8
BLACK
6
CONTINUOUS
10
-92
20
-12.2
11
-86
21
-12.2
0
LINE
8
BLACK
6
CONTINUOUS
10
-86
20
-12.2
11
-86
21
-10.2
0
LINE
8
BLACK
6
CONTINUOUS
10
-86
20
-10.2
11
-92
21
-10.2
0
LINE
8
BLACK
6
CONTINUOUS
10
-92
20
-10.2
11
-92
21
-12.2
0
LINE
8
BLACK
6
CONTINUOUS
10
-75.6
20
-70.2
11
-69.6
21
-70.2
0
LINE
8
BLACK
6
CONTINUOUS
10
-69.6
20
-70.2
11
-69.6
21
-68.2
0
LINE
8
BLACK
6
CONTINUOUS
10
-69.6
20
-68.2
11
-75.6
21
-68.2
0
LINE
8
BLACK
6
CONTINUOUS
10
-75.6
20
-68.2
11
-75.6
21
-70.2
0
LINE
8
BLACK
6
CONTINUOUS
10
-111.701
20
-34.2577
11
-105.724
21
-33.7347
0
LINE
8
BLACK
6
CONTINUOUS
10
-105.724
20
-33.7347
11
-105.899
21
-31.7423
0
LINE
8
BLACK
6
CONTINUOUS
10
-105.899
20
-31.7423
11
-111.876
21
-32.2653
0
LINE
8
BLACK
6
CONTINUOUS
10
-111.876
20
-32.2653
11
-111.701
21
-34.2577
0
LINE
8
BLACK
6
CONTINUOUS
10
108.124
20
-51.1347
11
114.101
21
-51.6577
0
LINE
8
BLACK
6
CONTINUOUS
10
114.101
20
-51.6577
11
114.276
21
-49.6653
0
LINE
8
BLACK
6
CONTINUOUS
10
114.276
20
-49.6653
11
108.299
21
-49.1424
0
LINE
8
BLACK
6
CONTINUOUS
10
108.299
20
-49.1424
11
108.124
21
-51.1347
0
LINE
8
BLACK
6
CONTINUOUS
10
129.072
20
-38.4639
11
134.981
21
-39.5058
0
LINE
8
BLACK
6
CONTINUOUS
10
134.981
20
-39.5058
11
135.328
21
-37.5362
0
LINE
8
BLACK
6
CONTINUOUS
10
135.328
20
-37.5362
11
129.419
21
-36.4943
0
LINE
8
BLACK
6
CONTINUOUS
10
129.419
20
-36.4943
11
129.072
21
-38.4639
0
LINE
8
BLACK
6
CONTINUOUS
10
-113.101
20
-17.2577
11
-107.124
21
-16.7347
0
LINE
8
BLACK
6
CONTINUOUS
10
-107.124
20
-16.7347
11
-107.299
21
-14.7424
0
LINE
8
BLACK
6
CONTINUOUS
10
-107.299
20
-14.7424
11
-113.276
21
-15.2653
0
LINE
8
BLACK
6
CONTINUOUS
10
-113.276
20
-15.2653
11
-113.101
21
-17.2577
0
LINE
8
BLACK
6
CONTINUOUS
10
111.124
20
-17.1347
11
117.101
21
-17.6577
0
LINE
8
BLACK
6
CONTINUOUS
10
117.101
20
-17.6577
11
117.276
21
-15.6653
0
LINE
8
BLACK
6
CONTINUOUS
10
117.276
20
-15.6653
11
111.299
21
-15.1424
0
LINE
8
BLACK
6
CONTINUOUS
10
111.299
20
-15.1424
11
111.124
21
-17.1347
0
LINE
8
BLACK
6
CONTINUOUS
10
-74
20
-51.2
11
-68
21
-51.2
0
LINE
8
BLACK
6
CONTINUOUS
10
-68
20
-51.2
11
-68
21
-49.2
0
LINE
8
BLACK
6
CONTINUOUS
10
-68
20
-49.2
11
-74
21
-49.2
0
LINE
8
BLACK
6
CONTINUOUS
10
-74
20
-49.2
11
-74
21
-51.2
0
LINE
8
BLACK
6
CONTINUOUS
10
54
20
-53.2
11
60
21
-53.2
0
LINE
8
BLACK
6
CONTINUOUS
10
60
20
-53.2
11
60
21
-51.2
0
LINE
8
BLACK
6
CONTINUOUS
10
60
20
-51.2
11
54
21
-51.2
0
LINE
8
BLACK
6
CONTINUOUS
10
54
20
-51.2
11
54
21
-53.2
0
LINE
8
BLACK
6
CONTINUOUS
10
-92
20
-29.2
11
-86
21
-29.2
0
LINE
8
BLACK
6
CONTINUOUS
10
-86
20
-29.2
11
-86
21
-27.2
0
LINE
8
BLACK
6
CONTINUOUS
10
-86
20
-27.2
11
-92
21
-27.2
0
LINE
8
BLACK
6
CONTINUOUS
10
-92
20
-27.2
11
-92
21
-29.2
0
LINE
8
BLACK
6
CONTINUOUS
10
-38.1611
20
-76.7136
11
-32.5229
21
-78.7658
0
LINE
8
BLACK
6
CONTINUOUS
10
-32.5229
20
-78.7658
11
-31.8389
21
-76.8864
0
LINE
8
BLACK
6
CONTINUOUS
10
-31.8389
20
-76.8864
11
-37.4771
21
-74.8343
0
LINE
8
BLACK
6
CONTINUOUS
10
-37.4771
20
-74.8343
11
-38.1611
21
-76.7136
0
LINE
8
BLACK
6
CONTINUOUS
10
-56
20
-36.2
11
-50
21
-36.2
0
LINE
8
BLACK
6
CONTINUOUS
10
-50
20
-36.2
11
-50
21
-34.2
0
LINE
8
BLACK
6
CONTINUOUS
10
-50
20
-34.2
11
-56
21
-34.2
0
LINE
8
BLACK
6
CONTINUOUS
10
-56
20
-34.2
11
-56
21
-36.2
0
LINE
8
BLACK
6
CONTINUOUS
10
-96.5
20
-65
11
-90.5
21
-65
0
LINE
8
BLACK
6
CONTINUOUS
10
-90.5
20
-65
11
-90.5
21
-63
0
LINE
8
BLACK
6
CONTINUOUS
10
-90.5
20
-63
11
-96.5
21
-63
0
LINE
8
BLACK
6
CONTINUOUS
10
-96.5
20
-63
11
-96.5
21
-65
0
LINE
8
BLACK
6
CONTINUOUS
10
-127.981
20
-55.5058
11
-122.072
21
-54.4639
0
LINE
8
BLACK
6
CONTINUOUS
10
-122.072
20
-54.4639
11
-122.419
21
-52.4943
0
LINE
8
BLACK
6
CONTINUOUS
10
-122.419
20
-52.4943
11
-128.328
21
-53.5362
0
LINE
8
BLACK
6
CONTINUOUS
10
-128.328
20
-53.5362
11
-127.981
21
-55.5058
0
LINE
8
BLACK
6
CONTINUOUS
10
90
20
-29.2
11
96
21
-29.2
0
LINE
8
BLACK
6
CONTINUOUS
10
96
20
-29.2
11
96
21
-27.2
0
LINE
8
BLACK
6
CONTINUOUS
10
96
20
-27.2
11
90
21
-27.2
0
LINE
8
BLACK
6
CONTINUOUS
10
90
20
-27.2
11
90
21
-29.2
0
LINE
8
BLACK
6
CONTINUOUS
10
90
20
-12.2
11
96
21
-12.2
0
LINE
8
BLACK
6
CONTINUOUS
10
96
20
-12.2
11
96
21
-10.2
0
LINE
8
BLACK
6
CONTINUOUS
10
96
20
-10.2
11
90
21
-10.2
0
LINE
8
BLACK
6
CONTINUOUS
10
90
20
-10.2
11
90
21
-12.2
0
LINE
8
BLACK
6
CONTINUOUS
10
54.6192
20
-71.9058
11
60.5281
21
-70.8639
0
LINE
8
BLACK
6
CONTINUOUS
10
60.5281
20
-70.8639
11
60.1808
21
-68.8943
0
LINE
8
BLACK
6
CONTINUOUS
10
60.1808
20
-68.8943
11
54.2719
21
-69.9362
0
LINE
8
BLACK
6
CONTINUOUS
10
54.2719
20
-69.9362
11
54.6192
21
-71.9058
0
LINE
8
BLACK
6
CONTINUOUS
10
-146.381
20
-55.7058
11
-140.472
21
-54.6639
0
LINE
8
BLACK
6
CONTINUOUS
10
-140.472
20
-54.6639
11
-140.819
21
-52.6943
0
LINE
8
BLACK
6
CONTINUOUS
10
-140.819
20
-52.6943
11
-146.728
21
-53.7362
0
LINE
8
BLACK
6
CONTINUOUS
10
-146.728
20
-53.7362
11
-146.381
21
-55.7058
0
LINE
8
BLACK
6
CONTINUOUS
10
72
20
-51.2
11
78
21
-51.2
0
LINE
8
BLACK
6
CONTINUOUS
10
78
20
-51.2
11
78
21
-49.2
0
LINE
8
BLACK
6
CONTINUOUS
10
78
20
-49.2
11
72
21
-49.2
0
LINE
8
BLACK
6
CONTINUOUS
10
72
20
-49.2
11
72
21
-51.2
0
LINE
8
BLACK
6
CONTINUOUS
10
-149.381
20
-38.9058
11
-143.472
21
-37.8639
0
LINE
8
BLACK
6
CONTINUOUS
10
-143.472
20
-37.8639
11
-143.819
21
-35.8943
0
LINE
8
BLACK
6
CONTINUOUS
10
-143.819
20
-35.8943
11
-149.728
21
-36.9362
0
LINE
8
BLACK
6
CONTINUOUS
10
-149.728
20
-36.9362
11
-149.381
21
-38.9058
0
LINE
8
BLACK
6
CONTINUOUS
10
-56
20
-19.2
11
-50
21
-19.2
0
LINE
8
BLACK
6
CONTINUOUS
10
-50
20
-19.2
11
-50
21
-17.2
0
LINE
8
BLACK
6
CONTINUOUS
10
-50
20
-17.2
11
-56
21
-17.2
0
LINE
8
BLACK
6
CONTINUOUS
10
-56
20
-17.2
11
-56
21
-19.2
0
LINE
8
BLACK
6
CONTINUOUS
10
54
20
-19.2
11
60
21
-19.2
0
LINE
8
BLACK
6
CONTINUOUS
10
60
20
-19.2
11
60
21
-17.2
0
LINE
8
BLACK
6
CONTINUOUS
10
60
20
-17.2
11
54
21
-17.2
0
LINE
8
BLACK
6
CONTINUOUS
10
54
20
-17.2
11
54
21
-19.2
0
LINE
8
BLACK
6
CONTINUOUS
10
54
20
-36.2
11
60
21
-36.2
0
LINE
8
BLACK
6
CONTINUOUS
10
60
20
-36.2
11
60
21
-34.2
0
LINE
8
BLACK
6
CONTINUOUS
10
60
20
-34.2
11
54
21
-34.2
0
LINE
8
BLACK
6
CONTINUOUS
10
54
20
-34.2
11
54
21
-36.2
0
LINE
8
BLACK
6
CONTINUOUS
10
72
20
-17.2
11
78
21
-17.2
0
LINE
8
BLACK
6
CONTINUOUS
10
78
20
-17.2
11
78
21
-15.2
0
LINE
8
BLACK
6
CONTINUOUS
10
78
20
-15.2
11
72
21
-15.2
0
LINE
8
BLACK
6
CONTINUOUS
10
72
20
-15.2
11
72
21
-17.2
0
LINE
8
BLACK
6
CONTINUOUS
10
-58.75
20
-46.55
11
-51.25
21
-46.55
0
LINE
8
BLACK
6
CONTINUOUS
10
-51.25
20
-46.55
11
-51.25
21
-43.05
0
LINE
8
BLACK
6
CONTINUOUS
10
-51.25
20
-43.05
11
-58.75
21
-43.05
0
LINE
8
BLACK
6
CONTINUOUS
10
-58.75
20
-43.05
11
-58.75
21
-46.55
0
LINE
8
BLACK
6
CONTINUOUS
10
51.25
20
-29.55
11
58.75
21
-29.55
0
LINE
8
BLACK
6
CONTINUOUS
10
58.75
20
-29.55
11
58.75
21
-26.05
0
LINE
8
BLACK
6
CONTINUOUS
10
58.75
20
-26.05
11
51.25
21
-26.05
0
LINE
8
BLACK
6
CONTINUOUS
10
51.25
20
-26.05
11
51.25
21
-29.55
0
LINE
8
BLACK
6
CONTINUOUS
10
69.25
20
-44.5473
11
76.75
21
-44.5473
0
LINE
8
BLACK
6
CONTINUOUS
10
76.75
20
-44.5473
11
76.75
21
-41.0473
0
LINE
8
BLACK
6
CONTINUOUS
10
76.75
20
-41.0473
11
69.25
21
-41.0473
0
LINE
8
BLACK
6
CONTINUOUS
10
69.25
20
-41.0473
11
69.25
21
-44.5473
0
LINE
8
BLACK
6
CONTINUOUS
10
109.012
20
-10.2165
11
116.483
21
-10.8702
0
LINE
8
BLACK
6
CONTINUOUS
10
116.483
20
-10.8702
11
116.788
21
-7.38351
0
LINE
8
BLACK
6
CONTINUOUS
10
116.788
20
-7.38351
11
109.317
21
-6.72984
0
LINE
8
BLACK
6
CONTINUOUS
10
109.317
20
-6.72984
11
109.012
21
-10.2165
0
LINE
8
BLACK
6
CONTINUOUS
10
31.4747
20
-72.0271
11
38.5224
21
-69.4619
0
LINE
8
BLACK
6
CONTINUOUS
10
38.5224
20
-69.4619
11
37.3253
21
-66.173
0
LINE
8
BLACK
6
CONTINUOUS
10
37.3253
20
-66.173
11
30.2776
21
-68.7381
0
LINE
8
BLACK
6
CONTINUOUS
10
30.2776
20
-68.7381
11
31.4747
21
-72.0271
0
LINE
8
BLACK
6
CONTINUOUS
10
-58.75
20
-12.55
11
-51.25
21
-12.55
0
LINE
8
BLACK
6
CONTINUOUS
10
-51.25
20
-12.55
11
-51.25
21
-9.05002
0
LINE
8
BLACK
6
CONTINUOUS
10
-51.25
20
-9.05002
11
-58.75
21
-9.05002
0
LINE
8
BLACK
6
CONTINUOUS
10
-58.75
20
-9.05002
11
-58.75
21
-12.55
0
LINE
8
BLACK
6
CONTINUOUS
10
-76.75
20
-10.55
11
-69.25
21
-10.55
0
LINE
8
BLACK
6
CONTINUOUS
10
-69.25
20
-10.55
11
-69.25
21
-7.05002
0
LINE
8
BLACK
6
CONTINUOUS
10
-69.25
20
-7.05002
11
-76.75
21
-7.05002
0
LINE
8
BLACK
6
CONTINUOUS
10
-76.75
20
-7.05002
11
-76.75
21
-10.55
0
LINE
8
BLACK
6
CONTINUOUS
10
50.8109
20
-65.7746
11
58.1969
21
-64.4722
0
LINE
8
BLACK
6
CONTINUOUS
10
58.1969
20
-64.4722
11
57.5891
21
-61.0254
0
LINE
8
BLACK
6
CONTINUOUS
10
57.5891
20
-61.0254
11
50.2031
21
-62.3278
0
LINE
8
BLACK
6
CONTINUOUS
10
50.2031
20
-62.3278
11
50.8109
21
-65.7746
0
LINE
8
BLACK
6
CONTINUOUS
10
-132.02
20
-49.4182
11
-124.634
21
-48.1158
0
LINE
8
BLACK
6
CONTINUOUS
10
-124.634
20
-48.1158
11
-125.242
21
-44.669
0
LINE
8
BLACK
6
CONTINUOUS
10
-125.242
20
-44.669
11
-132.628
21
-45.9713
0
LINE
8
BLACK
6
CONTINUOUS
10
-132.628
20
-45.9713
11
-132.02
21
-49.4182
0
LINE
8
BLACK
6
CONTINUOUS
10
-78.25
20
-63.55
11
-70.75
21
-63.55
0
LINE
8
BLACK
6
CONTINUOUS
10
-70.75
20
-63.55
11
-70.75
21
-60.05
0
LINE
8
BLACK
6
CONTINUOUS
10
-70.75
20
-60.05
11
-78.25
21
-60.05
0
LINE
8
BLACK
6
CONTINUOUS
10
-78.25
20
-60.05
11
-78.25
21
-63.55
0
LINE
8
BLACK
6
CONTINUOUS
10
142.803
20
-48.2723
11
150.189
21
-49.5746
0
LINE
8
BLACK
6
CONTINUOUS
10
150.189
20
-49.5746
11
150.797
21
-46.1278
0
LINE
8
BLACK
6
CONTINUOUS
10
150.797
20
-46.1278
11
143.411
21
-44.8254
0
LINE
8
BLACK
6
CONTINUOUS
10
143.411
20
-44.8254
11
142.803
21
-48.2723
0
LINE
8
BLACK
6
CONTINUOUS
10
51.25
20
-12.55
11
58.75
21
-12.55
0
LINE
8
BLACK
6
CONTINUOUS
10
58.75
20
-12.55
11
58.75
21
-9.05002
0
LINE
8
BLACK
6
CONTINUOUS
10
58.75
20
-9.05002
11
51.25
21
-9.05002
0
LINE
8
BLACK
6
CONTINUOUS
10
51.25
20
-9.05002
11
51.25
21
-12.55
0
LINE
8
BLACK
6
CONTINUOUS
10
-116.483
20
-10.8702
11
-109.012
21
-10.2165
0
LINE
8
BLACK
6
CONTINUOUS
10
-109.012
20
-10.2165
11
-109.317
21
-6.72984
0
LINE
8
BLACK
6
CONTINUOUS
10
-109.317
20
-6.72984
11
-116.788
21
-7.3835
0
LINE
8
BLACK
6
CONTINUOUS
10
-116.788
20
-7.3835
11
-116.483
21
-10.8702
0
LINE
8
BLACK
6
CONTINUOUS
10
-94.75
20
-39.55
11
-87.25
21
-39.55
0
LINE
8
BLACK
6
CONTINUOUS
10
-87.25
20
-39.55
11
-87.25
21
-36.05
0
LINE
8
BLACK
6
CONTINUOUS
10
-87.25
20
-36.05
11
-94.75
21
-36.05
0
LINE
8
BLACK
6
CONTINUOUS
10
-94.75
20
-36.05
11
-94.75
21
-39.55
0
LINE
8
BLACK
6
CONTINUOUS
10
-58.75
20
-29.55
11
-51.25
21
-29.55
0
LINE
8
BLACK
6
CONTINUOUS
10
-51.25
20
-29.55
11
-51.25
21
-26.05
0
LINE
8
BLACK
6
CONTINUOUS
10
-51.25
20
-26.05
11
-58.75
21
-26.05
0
LINE
8
BLACK
6
CONTINUOUS
10
-58.75
20
-26.05
11
-58.75
21
-29.55
0
LINE
8
BLACK
6
CONTINUOUS
10
-150.268
20
-49.5885
11
-142.882
21
-48.2861
0
LINE
8
BLACK
6
CONTINUOUS
10
-142.882
20
-48.2861
11
-143.49
21
-44.8393
0
LINE
8
BLACK
6
CONTINUOUS
10
-143.49
20
-44.8393
11
-150.876
21
-46.1417
0
LINE
8
BLACK
6
CONTINUOUS
10
-150.876
20
-46.1417
11
-150.268
21
-49.5885
0
LINE
8
BLACK
6
CONTINUOUS
10
-153.22
20
-32.8477
11
-145.834
21
-31.5453
0
LINE
8
BLACK
6
CONTINUOUS
10
-145.834
20
-31.5453
11
-146.441
21
-28.0985
0
LINE
8
BLACK
6
CONTINUOUS
10
-146.441
20
-28.0985
11
-153.828
21
-29.4009
0
LINE
8
BLACK
6
CONTINUOUS
10
-153.828
20
-29.4009
11
-153.22
21
-32.8477
0
LINE
8
BLACK
6
CONTINUOUS
10
87.25
20
-22.55
11
94.75
21
-22.55
0
LINE
8
BLACK
6
CONTINUOUS
10
94.75
20
-22.55
11
94.75
21
-19.05
0
LINE
8
BLACK
6
CONTINUOUS
10
94.75
20
-19.05
11
87.25
21
-19.05
0
LINE
8
BLACK
6
CONTINUOUS
10
87.25
20
-19.05
11
87.25
21
-22.55
0
LINE
8
BLACK
6
CONTINUOUS
10
-38.5224
20
-69.4619
11
-31.4747
21
-72.027
0
LINE
8
BLACK
6
CONTINUOUS
10
-31.4747
20
-72.027
11
-30.2776
21
-68.7381
0
LINE
8
BLACK
6
CONTINUOUS
10
-30.2776
20
-68.7381
11
-37.3253
21
-66.173
0
LINE
8
BLACK
6
CONTINUOUS
10
-37.3253
20
-66.173
11
-38.5224
21
-69.4619
0
LINE
8
BLACK
6
CONTINUOUS
10
70.75
20
-63.55
11
78.25
21
-63.55
0
LINE
8
BLACK
6
CONTINUOUS
10
78.25
20
-63.55
11
78.25
21
-60.05
0
LINE
8
BLACK
6
CONTINUOUS
10
78.25
20
-60.05
11
70.75
21
-60.05
0
LINE
8
BLACK
6
CONTINUOUS
10
70.75
20
-60.05
11
70.75
21
-63.55
0
LINE
8
BLACK
6
CONTINUOUS
10
87.25
20
-5.55001
11
94.75
21
-5.55001
0
LINE
8
BLACK
6
CONTINUOUS
10
94.75
20
-5.55001
11
94.75
21
-2.05001
0
LINE
8
BLACK
6
CONTINUOUS
10
94.75
20
-2.05001
11
87.25
21
-2.05001
0
LINE
8
BLACK
6
CONTINUOUS
10
87.25
20
-2.05001
11
87.25
21
-5.55001
0
LINE
8
BLACK
6
CONTINUOUS
10
-58.1969
20
-64.4723
11
-50.8109
21
-65.7746
0
LINE
8
BLACK
6
CONTINUOUS
10
-50.8109
20
-65.7746
11
-50.2031
21
-62.3278
0
LINE
8
BLACK
6
CONTINUOUS
10
-50.2031
20
-62.3278
11
-57.5891
21
-61.0254
0
LINE
8
BLACK
6
CONTINUOUS
10
-57.5891
20
-61.0254
11
-58.1969
21
-64.4723
0
LINE
8
BLACK
6
CONTINUOUS
10
-94.75
20
-5.55002
11
-87.25
21
-5.55002
0
LINE
8
BLACK
6
CONTINUOUS
10
-87.25
20
-5.55002
11
-87.25
21
-2.05002
0
LINE
8
BLACK
6
CONTINUOUS
10
-87.25
20
-2.05002
11
-94.75
21
-2.05002
0
LINE
8
BLACK
6
CONTINUOUS
10
-94.75
20
-2.05002
11
-94.75
21
-5.55002
0
LINE
8
BLACK
6
CONTINUOUS
10
51.25
20
-46.55
11
58.75
21
-46.55
0
LINE
8
BLACK
6
CONTINUOUS
10
58.75
20
-46.55
11
58.75
21
-43.05
0
LINE
8
BLACK
6
CONTINUOUS
10
58.75
20
-43.05
11
51.25
21
-43.05
0
LINE
8
BLACK
6
CONTINUOUS
10
51.25
20
-43.05
11
51.25
21
-46.55
0
LINE
8
BLACK
6
CONTINUOUS
10
107.512
20
-27.2165
11
114.983
21
-27.8702
0
LINE
8
BLACK
6
CONTINUOUS
10
114.983
20
-27.8702
11
115.288
21
-24.3835
0
LINE
8
BLACK
6
CONTINUOUS
10
115.288
20
-24.3835
11
107.817
21
-23.7298
0
LINE
8
BLACK
6
CONTINUOUS
10
107.817
20
-23.7298
11
107.512
21
-27.2165
0
LINE
8
BLACK
6
CONTINUOUS
10
69.25
20
-27.55
11
76.75
21
-27.55
0
LINE
8
BLACK
6
CONTINUOUS
10
76.75
20
-27.55
11
76.75
21
-24.05
0
LINE
8
BLACK
6
CONTINUOUS
10
76.75
20
-24.05
11
69.25
21
-24.05
0
LINE
8
BLACK
6
CONTINUOUS
10
69.25
20
-24.05
11
69.25
21
-27.55
0
LINE
8
BLACK
6
CONTINUOUS
10
-76.75
20
-44.55
11
-69.25
21
-44.55
0
LINE
8
BLACK
6
CONTINUOUS
10
-69.25
20
-44.55
11
-69.25
21
-41.05
0
LINE
8
BLACK
6
CONTINUOUS
10
-69.25
20
-41.05
11
-76.75
21
-41.05
0
LINE
8
BLACK
6
CONTINUOUS
10
-76.75
20
-41.05
11
-76.75
21
-44.55
0
LINE
8
BLACK
6
CONTINUOUS
10
145.803
20
-31.4723
11
153.189
21
-32.7746
0
LINE
8
BLACK
6
CONTINUOUS
10
153.189
20
-32.7746
11
153.797
21
-29.3278
0
LINE
8
BLACK
6
CONTINUOUS
10
153.797
20
-29.3278
11
146.411
21
-28.0254
0
LINE
8
BLACK
6
CONTINUOUS
10
146.411
20
-28.0254
11
145.803
21
-31.4723
0
LINE
8
BLACK
6
CONTINUOUS
10
-94.75
20
-22.55
11
-87.25
21
-22.55
0
LINE
8
BLACK
6
CONTINUOUS
10
-87.25
20
-22.55
11
-87.25
21
-19.05
0
LINE
8
BLACK
6
CONTINUOUS
10
-87.25
20
-19.05
11
-94.75
21
-19.05
0
LINE
8
BLACK
6
CONTINUOUS
10
-94.75
20
-19.05
11
-94.75
21
-22.55
0
LINE
8
BLACK
6
CONTINUOUS
10
127.503
20
-31.3723
11
134.889
21
-32.6746
0
LINE
8
BLACK
6
CONTINUOUS
10
134.889
20
-32.6746
11
135.497
21
-29.2278
0
LINE
8
BLACK
6
CONTINUOUS
10
135.497
20
-29.2278
11
128.111
21
-27.9254
0
LINE
8
BLACK
6
CONTINUOUS
10
128.111
20
-27.9254
11
127.503
21
-31.3723
0
LINE
8
BLACK
6
CONTINUOUS
10
-134.872
20
-32.6715
11
-127.486
21
-31.3691
0
LINE
8
BLACK
6
CONTINUOUS
10
-127.486
20
-31.3691
11
-128.093
21
-27.9223
0
LINE
8
BLACK
6
CONTINUOUS
10
-128.093
20
-27.9223
11
-135.479
21
-29.2247
0
LINE
8
BLACK
6
CONTINUOUS
10
-135.479
20
-29.2247
11
-134.872
21
-32.6715
0
LINE
8
BLACK
6
CONTINUOUS
10
69.25
20
-10.55
11
76.75
21
-10.55
0
LINE
8
BLACK
6
CONTINUOUS
10
76.75
20
-10.55
11
76.75
21
-7.05002
0
LINE
8
BLACK
6
CONTINUOUS
10
76.75
20
-7.05002
11
69.25
21
-7.05002
0
LINE
8
BLACK
6
CONTINUOUS
10
69.25
20
-7.05002
11
69.25
21
-10.55
0
LINE
8
BLACK
6
CONTINUOUS
10
87.25
20
-39.55
11
94.75
21
-39.55
0
LINE
8
BLACK
6
CONTINUOUS
10
94.75
20
-39.55
11
94.75
21
-36.05
0
LINE
8
BLACK
6
CONTINUOUS
10
94.75
20
-36.05
11
87.25
21
-36.05
0
LINE
8
BLACK
6
CONTINUOUS
10
87.25
20
-36.05
11
87.25
21
-39.55
0
LINE
8
BLACK
6
CONTINUOUS
10
-113.483
20
-44.8702
11
-106.012
21
-44.2165
0
LINE
8
BLACK
6
CONTINUOUS
10
-106.012
20
-44.2165
11
-106.317
21
-40.7298
0
LINE
8
BLACK
6
CONTINUOUS
10
-106.317
20
-40.7298
11
-113.788
21
-41.3835
0
LINE
8
BLACK
6
CONTINUOUS
10
-113.788
20
-41.3835
11
-113.483
21
-44.8702
0
LINE
8
BLACK
6
CONTINUOUS
10
124.503
20
-48.1722
11
131.889
21
-49.4746
0
LINE
8
BLACK
6
CONTINUOUS
10
131.889
20
-49.4746
11
132.497
21
-46.0278
0
LINE
8
BLACK
6
CONTINUOUS
10
132.497
20
-46.0278
11
125.111
21
-44.7254
0
LINE
8
BLACK
6
CONTINUOUS
10
125.111
20
-44.7254
11
124.503
21
-48.1722
0
LINE
8
BLACK
6
CONTINUOUS
10
-114.983
20
-27.8702
11
-107.512
21
-27.2165
0
LINE
8
BLACK
6
CONTINUOUS
10
-107.512
20
-27.2165
11
-107.817
21
-23.7298
0
LINE
8
BLACK
6
CONTINUOUS
10
-107.817
20
-23.7298
11
-115.288
21
-24.3835
0
LINE
8
BLACK
6
CONTINUOUS
10
-115.288
20
-24.3835
11
-114.983
21
-27.8702
0
LINE
8
BLACK
6
CONTINUOUS
10
-76.75
20
-27.55
11
-69.25
21
-27.55
0
LINE
8
BLACK
6
CONTINUOUS
10
-69.25
20
-27.55
11
-69.25
21
-24.05
0
LINE
8
BLACK
6
CONTINUOUS
10
-69.25
20
-24.05
11
-76.75
21
-24.05
0
LINE
8
BLACK
6
CONTINUOUS
10
-76.75
20
-24.05
11
-76.75
21
-27.55
0
LINE
8
BLACK
6
CONTINUOUS
10
106.012
20
-44.2165
11
113.483
21
-44.8702
0
LINE
8
BLACK
6
CONTINUOUS
10
113.483
20
-44.8702
11
113.788
21
-41.3835
0
LINE
8
BLACK
6
CONTINUOUS
10
113.788
20
-41.3835
11
106.317
21
-40.7298
0
LINE
8
BLACK
6
CONTINUOUS
10
106.317
20
-40.7298
11
106.012
21
-44.2165
0
LINE
8
BLACK
6
CONTINUOUS
10
-38.8281
20
-73.9605
11
-38.5292
21
-74.6014
0
LINE
8
BLACK
6
CONTINUOUS
10
-42.014
20
-71.3111
11
-42.4929
21
-72.6267
0
LINE
8
BLACK
6
CONTINUOUS
10
-41.1794
20
-80.1283
11
-41.0768
21
-79.8464
0
LINE
8
BLACK
6
CONTINUOUS
10
-33.9862
20
-82.0015
11
-33.0628
21
-79.4643
0
LINE
8
BLACK
6
CONTINUOUS
10
-43.9964
20
-72.0794
11
-44.3384
21
-73.0191
0
LINE
8
BLACK
6
CONTINUOUS
10
-38.8281
20
-73.9605
11
-40.8014
21
-73.2423
0
LINE
8
BLACK
6
CONTINUOUS
10
-36.0881
20
-82.5135
11
-35.6777
21
-81.3858
0
LINE
8
BLACK
6
CONTINUOUS
10
-34.378
20
-77.815
11
-37.8549
21
-76.5495
0
LINE
8
BLACK
6
CONTINUOUS
10
-33.0628
20
-79.4643
11
-34.7542
21
-78.8487
0
LINE
8
BLACK
6
CONTINUOUS
10
-40.3226
20
-71.9267
11
-40.8014
21
-73.2423
0
LINE
8
BLACK
6
CONTINUOUS
10
-40.8805
20
-80.7692
11
-41.1794
21
-80.1283
0
LINE
8
BLACK
6
CONTINUOUS
10
-44.3384
20
-73.0191
11
-46.0298
21
-72.4035
0
LINE
8
BLACK
6
CONTINUOUS
10
-46.0298
20
-72.4035
11
-46.9875
21
-75.0346
0
LINE
8
BLACK
6
CONTINUOUS
10
-40.8805
20
-80.7692
11
-36.0881
21
-82.5135
0
LINE
8
BLACK
6
CONTINUOUS
10
-35.6777
20
-81.3858
11
-33.9862
21
-82.0015
0
LINE
8
BLACK
6
CONTINUOUS
10
-46.9875
20
-75.0346
11
-45.296
21
-75.6503
0
LINE
8
BLACK
6
CONTINUOUS
10
-34.7542
20
-78.8487
11
-34.378
21
-77.815
0
LINE
8
BLACK
6
CONTINUOUS
10
-43.9964
20
-72.0794
11
-42.4929
21
-72.6267
0
LINE
8
BLACK
6
CONTINUOUS
10
-38.5292
20
-74.6014
11
-38.6318
21
-74.8833
0
LINE
8
BLACK
6
CONTINUOUS
10
-45.7065
20
-76.7779
11
-41.8537
21
-78.1802
0
LINE
8
BLACK
6
CONTINUOUS
10
-45.296
20
-75.6503
11
-45.7065
21
-76.7779
0
ARC
8
BLACK
10
-41.1683
20
-71.6189
40
0.9
50
-20
51
160
0
ARC
8
BLACK
10
-42.2984
20
-79.4018
40
1.3
50
-20.0001
51
70
0
ARC
8
BLACK
10
-37.4102
20
-75.3279
40
1.3
50
-200
51
-110
0
CIRCLE
8
BLACK
10
-30.8317
20
-75.3811
40
0.900001
0
CIRCLE
8
BLACK
10
-36
20
-73.5
40
1.75
0
LINE
8
BLACK
6
CONTINUOUS
10
-114.868
20
-15.1126
11
-114.327
21
-15.5671
0
LINE
8
BLACK
6
CONTINUOUS
10
-118.876
20
-14.0578
11
-118.754
21
-15.4525
0
LINE
8
BLACK
6
CONTINUOUS
10
-114.393
20
-21.6962
11
-114.419
21
-21.3973
0
LINE
8
BLACK
6
CONTINUOUS
10
-107.082
20
-20.3539
11
-107.317
21
-17.6642
0
LINE
8
BLACK
6
CONTINUOUS
10
-120.348
20
-15.5919
11
-120.26
21
-16.5881
0
LINE
8
BLACK
6
CONTINUOUS
10
-114.868
20
-15.1126
11
-116.96
21
-15.2956
0
LINE
8
BLACK
6
CONTINUOUS
10
-108.771
20
-21.7062
11
-108.875
21
-20.5108
0
LINE
8
BLACK
6
CONTINUOUS
10
-109.206
20
-16.7252
11
-112.892
21
-17.0477
0
LINE
8
BLACK
6
CONTINUOUS
10
-107.317
20
-17.6642
11
-109.111
21
-17.821
0
LINE
8
BLACK
6
CONTINUOUS
10
-117.082
20
-13.9009
11
-116.96
21
-15.2956
0
LINE
8
BLACK
6
CONTINUOUS
10
-113.851
20
-22.1507
11
-114.393
21
-21.6962
0
LINE
8
BLACK
6
CONTINUOUS
10
-120.26
20
-16.5881
11
-122.054
21
-16.745
0
LINE
8
BLACK
6
CONTINUOUS
10
-122.054
20
-16.745
11
-121.809
21
-19.5343
0
LINE
8
BLACK
6
CONTINUOUS
10
-113.851
20
-22.1507
11
-108.771
21
-21.7062
0
LINE
8
BLACK
6
CONTINUOUS
10
-108.875
20
-20.5108
11
-107.082
21
-20.3539
0
LINE
8
BLACK
6
CONTINUOUS
10
-121.809
20
-19.5343
11
-120.016
21
-19.3775
0
LINE
8
BLACK
6
CONTINUOUS
10
-109.111
20
-17.821
11
-109.206
21
-16.7252
0
LINE
8
BLACK
6
CONTINUOUS
10
-120.348
20
-15.5919
11
-118.754
21
-15.4525
0
LINE
8
BLACK
6
CONTINUOUS
10
-114.327
20
-15.5671
11
-114.301
21
-15.8659
0
LINE
8
BLACK
6
CONTINUOUS
10
-119.912
20
-20.5729
11
-115.827
21
-20.2156
0
LINE
8
BLACK
6
CONTINUOUS
10
-120.016
20
-19.3775
11
-119.912
21
-20.5729
0
ARC
8
BLACK
10
-117.979
20
-13.9794
40
0.899999
50
-355
51
-175
0
ARC
8
BLACK
10
-115.714
20
-21.5106
40
1.3
50
4.99994
51
95.0001
0
ARC
8
BLACK
10
-113.006
20
-15.7526
40
1.3
50
-175
51
-84.9999
0
CIRCLE
8
BLACK
10
-107.021
20
-13.0206
40
0.9
0
CIRCLE
8
BLACK
10
-112.5
20
-13.5
40
1.75
0
LINE
8
BLACK
6
CONTINUOUS
10
88.5
20
-43.9
11
89
21
-44.4
0
LINE
8
BLACK
6
CONTINUOUS
10
84.6
20
-42.5
11
84.6
21
-43.9
0
LINE
8
BLACK
6
CONTINUOUS
10
88.4
20
-50.5
11
88.4
21
-50.2
0
LINE
8
BLACK
6
CONTINUOUS
10
95.8
20
-49.8
11
95.8
21
-47.1
0
LINE
8
BLACK
6
CONTINUOUS
10
83
20
-43.9
11
83
21
-44.9
0
LINE
8
BLACK
6
CONTINUOUS
10
88.5
20
-43.9
11
86.4
21
-43.9
0
LINE
8
BLACK
6
CONTINUOUS
10
94
20
-51
11
94
21
-49.8
0
LINE
8
BLACK
6
CONTINUOUS
10
94
20
-46
11
90.3
21
-46
0
LINE
8
BLACK
6
CONTINUOUS
10
95.8
20
-47.1
11
94
21
-47.1
0
LINE
8
BLACK
6
CONTINUOUS
10
86.4
20
-42.5
11
86.4
21
-43.9
0
LINE
8
BLACK
6
CONTINUOUS
10
88.9
20
-51
11
88.4
21
-50.5
0
LINE
8
BLACK
6
CONTINUOUS
10
83
20
-44.9
11
81.2
21
-44.9
0
LINE
8
BLACK
6
CONTINUOUS
10
81.2
20
-44.9
11
81.2
21
-47.7
0
LINE
8
BLACK
6
CONTINUOUS
10
88.9
20
-51
11
94
21
-51
0
LINE
8
BLACK
6
CONTINUOUS
10
94
20
-49.8
11
95.8
21
-49.8
0
LINE
8
BLACK
6
CONTINUOUS
10
81.2
20
-47.7
11
83
21
-47.7
0
LINE
8
BLACK
6
CONTINUOUS
10
94
20
-47.1
11
94
21
-46
0
LINE
8
BLACK
6
CONTINUOUS
10
83
20
-43.9
11
84.6
21
-43.9
0
LINE
8
BLACK
6
CONTINUOUS
10
89
20
-44.4
11
89
21
-44.7
0
LINE
8
BLACK
6
CONTINUOUS
10
83
20
-48.9
11
87.1
21
-48.9
0
LINE
8
BLACK
6
CONTINUOUS
10
83
20
-47.7
11
83
21
-48.9
0
ARC
8
BLACK
10
85.5
20
-42.5
40
0.9
50
-0
51
180
0
ARC
8
BLACK
10
87.1
20
-50.2
40
1.3
50
-4.40737e-05
51
90
0
ARC
8
BLACK
10
90.3
20
-44.7
40
1.3
50
-180
51
-90
0
CIRCLE
8
BLACK
10
96.5
20
-42.5
40
0.9
0
CIRCLE
8
BLACK
10
91
20
-42.5
40
1.75
0
LINE
8
BLACK
6
CONTINUOUS
10
146.295
20
-35.9446
11
146.7
21
-36.5238
0
LINE
8
BLACK
6
CONTINUOUS
10
142.697
20
-33.8887
11
142.454
21
-35.2674
0
LINE
8
BLACK
6
CONTINUOUS
10
145.05
20
-42.427
11
145.102
21
-42.1315
0
LINE
8
BLACK
6
CONTINUOUS
10
152.459
20
-43.0226
11
152.928
21
-40.3636
0
LINE
8
BLACK
6
CONTINUOUS
10
140.878
20
-34.9896
11
140.705
21
-35.9744
0
LINE
8
BLACK
6
CONTINUOUS
10
146.295
20
-35.9446
11
144.227
21
-35.58
0
LINE
8
BLACK
6
CONTINUOUS
10
150.478
20
-43.8918
11
150.687
21
-42.7101
0
LINE
8
BLACK
6
CONTINUOUS
10
151.347
20
-38.9678
11
147.703
21
-38.3253
0
LINE
8
BLACK
6
CONTINUOUS
10
152.928
20
-40.3636
11
151.156
21
-40.0511
0
LINE
8
BLACK
6
CONTINUOUS
10
144.47
20
-34.2012
11
144.227
21
-35.58
0
LINE
8
BLACK
6
CONTINUOUS
10
145.456
20
-43.0062
11
145.05
21
-42.427
0
LINE
8
BLACK
6
CONTINUOUS
10
140.705
20
-35.9744
11
138.932
21
-35.6618
0
LINE
8
BLACK
6
CONTINUOUS
10
138.932
20
-35.6618
11
138.446
21
-38.4193
0
LINE
8
BLACK
6
CONTINUOUS
10
145.456
20
-43.0062
11
150.478
21
-43.8918
0
LINE
8
BLACK
6
CONTINUOUS
10
150.687
20
-42.7101
11
152.459
21
-43.0226
0
LINE
8
BLACK
6
CONTINUOUS
10
138.446
20
-38.4193
11
140.219
21
-38.7318
0
LINE
8
BLACK
6
CONTINUOUS
10
151.156
20
-40.0511
11
151.347
21
-38.9678
0
LINE
8
BLACK
6
CONTINUOUS
10
140.878
20
-34.9896
11
142.454
21
-35.2674
0
LINE
8
BLACK
6
CONTINUOUS
10
146.7
20
-36.5238
11
146.648
21
-36.8193
0
LINE
8
BLACK
6
CONTINUOUS
10
140.01
20
-39.9136
11
144.048
21
-40.6256
0
LINE
8
BLACK
6
CONTINUOUS
10
140.219
20
-38.7318
11
140.01
21
-39.9136
0
ARC
8
BLACK
10
143.584
20
-34.0449
40
0.899999
50
-9.99998
51
170
0
ARC
8
BLACK
10
143.822
20
-41.9058
40
1.3
50
-10
51
80.0001
0
ARC
8
BLACK
10
147.929
20
-37.045
40
1.3
50
-190
51
-99.9999
0
CIRCLE
8
BLACK
10
154.416
20
-35.9551
40
0.9
0
CIRCLE
8
BLACK
10
149
20
-35
40
1.75
0
LINE
8
BLACK
6
CONTINUOUS
10
-75.5
20
-14.9
11
-75
21
-15.4
0
LINE
8
BLACK
6
CONTINUOUS
10
-79.4
20
-13.5
11
-79.4
21
-14.9
0
LINE
8
BLACK
6
CONTINUOUS
10
-75.6
20
-21.5
11
-75.6
21
-21.2
0
LINE
8
BLACK
6
CONTINUOUS
10
-68.2
20
-20.8
11
-68.2
21
-18.1
0
LINE
8
BLACK
6
CONTINUOUS
10
-81
20
-14.9
11
-81
21
-15.9
0
LINE
8
BLACK
6
CONTINUOUS
10
-75.5
20
-14.9
11
-77.6
21
-14.9
0
LINE
8
BLACK
6
CONTINUOUS
10
-70
20
-22
11
-70
21
-20.8
0
LINE
8
BLACK
6
CONTINUOUS
10
-70
20
-17
11
-73.7
21
-17
0
LINE
8
BLACK
6
CONTINUOUS
10
-68.2
20
-18.1
11
-70
21
-18.1
0
LINE
8
BLACK
6
CONTINUOUS
10
-77.6
20
-13.5
11
-77.6
21
-14.9
0
LINE
8
BLACK
6
CONTINUOUS
10
-75.1
20
-22
11
-75.6
21
-21.5
0
LINE
8
BLACK
6
CONTINUOUS
10
-81
20
-15.9
11
-82.8
21
-15.9
0
LINE
8
BLACK
6
CONTINUOUS
10
-82.8
20
-15.9
11
-82.8
21
-18.7
0
LINE
8
BLACK
6
CONTINUOUS
10
-75.1
20
-22
11
-70
21
-22
0
LINE
8
BLACK
6
CONTINUOUS
10
-70
20
-20.8
11
-68.2
21
-20.8
0
LINE
8
BLACK
6
CONTINUOUS
10
-82.8
20
-18.7
11
-81
21
-18.7
0
LINE
8
BLACK
6
CONTINUOUS
10
-70
20
-18.1
11
-70
21
-17
0
LINE
8
BLACK
6
CONTINUOUS
10
-81
20
-14.9
11
-79.4
21
-14.9
0
LINE
8
BLACK
6
CONTINUOUS
10
-75
20
-15.4
11
-75
21
-15.7
0
LINE
8
BLACK
6
CONTINUOUS
10
-81
20
-19.9
11
-76.9
21
-19.9
0
LINE
8
BLACK
6
CONTINUOUS
10
-81
20
-18.7
11
-81
21
-19.9
0
ARC
8
BLACK
10
-78.5
20
-13.5
40
0.9
50
-0
51
180
0
ARC
8
BLACK
10
-76.9
20
-21.2
40
1.3
50
-4.40737e-05
51
90
0
ARC
8
BLACK
10
-73.7
20
-15.7
40
1.3
50
-180
51
-90
0
CIRCLE
8
BLACK
10
-67.5
20
-13.5
40
0.9
0
CIRCLE
8
BLACK
10
-73
20
-13.5
40
1.75
0
LINE
8
BLACK
6
CONTINUOUS
10
-148.281
20
-53.6563
11
-147.702
21
-54.0618
0
LINE
8
BLACK
6
CONTINUOUS
10
-152.365
20
-52.9548
11
-152.122
21
-54.3335
0
LINE
8
BLACK
6
CONTINUOUS
10
-147.234
20
-60.1734
11
-147.286
21
-59.8779
0
LINE
8
BLACK
6
CONTINUOUS
10
-140.068
20
-58.199
11
-140.537
21
-55.54
0
LINE
8
BLACK
6
CONTINUOUS
10
-153.698
20
-54.6113
11
-153.524
21
-55.5961
0
LINE
8
BLACK
6
CONTINUOUS
10
-148.281
20
-53.6563
11
-150.349
21
-54.0209
0
LINE
8
BLACK
6
CONTINUOUS
10
-141.632
20
-59.6933
11
-141.84
21
-58.5116
0
LINE
8
BLACK
6
CONTINUOUS
10
-142.5
20
-54.7693
11
-146.144
21
-55.4118
0
LINE
8
BLACK
6
CONTINUOUS
10
-140.537
20
-55.54
11
-142.309
21
-55.8526
0
LINE
8
BLACK
6
CONTINUOUS
10
-150.593
20
-52.6422
11
-150.349
21
-54.0209
0
LINE
8
BLACK
6
CONTINUOUS
10
-146.655
20
-60.5789
11
-147.234
21
-60.1734
0
LINE
8
BLACK
6
CONTINUOUS
10
-153.524
20
-55.5961
11
-155.297
21
-55.9087
0
LINE
8
BLACK
6
CONTINUOUS
10
-155.297
20
-55.9087
11
-154.811
21
-58.6662
0
LINE
8
BLACK
6
CONTINUOUS
10
-146.655
20
-60.5789
11
-141.632
21
-59.6933
0
LINE
8
BLACK
6
CONTINUOUS
10
-141.84
20
-58.5116
11
-140.068
21
-58.199
0
LINE
8
BLACK
6
CONTINUOUS
10
-154.811
20
-58.6662
11
-153.038
21
-58.3536
0
LINE
8
BLACK
6
CONTINUOUS
10
-142.309
20
-55.8526
11
-142.5
21
-54.7693
0
LINE
8
BLACK
6
CONTINUOUS
10
-153.698
20
-54.6113
11
-152.122
21
-54.3335
0
LINE
8
BLACK
6
CONTINUOUS
10
-147.702
20
-54.0618
11
-147.65
21
-54.3573
0
LINE
8
BLACK
6
CONTINUOUS
10
-152.83
20
-59.5354
11
-148.792
21
-58.8234
0
LINE
8
BLACK
6
CONTINUOUS
10
-153.038
20
-58.3536
11
-152.83
21
-59.5354
0
ARC
8
BLACK
10
-151.479
20
-52.7985
40
0.899999
50
-350
51
-170
0
ARC
8
BLACK
10
-148.566
20
-60.1037
40
1.3
50
9.99994
51
100
0
ARC
8
BLACK
10
-146.37
20
-54.1315
40
1.3
50
-170
51
-80
0
CIRCLE
8
BLACK
10
-140.646
20
-50.8883
40
0.9
0
CIRCLE
8
BLACK
10
-146.062
20
-51.8434
40
1.75
0
LINE
8
BLACK
6
CONTINUOUS
10
-130.034
20
-53.485
11
-129.455
21
-53.8906
0
LINE
8
BLACK
6
CONTINUOUS
10
-134.118
20
-52.7835
11
-133.875
21
-54.1623
0
LINE
8
BLACK
6
CONTINUOUS
10
-128.986
20
-60.0021
11
-129.038
21
-59.7067
0
LINE
8
BLACK
6
CONTINUOUS
10
-121.82
20
-58.0278
11
-122.289
21
-55.3688
0
LINE
8
BLACK
6
CONTINUOUS
10
-135.45
20
-54.4401
11
-135.277
21
-55.4249
0
LINE
8
BLACK
6
CONTINUOUS
10
-130.034
20
-53.485
11
-132.102
21
-53.8497
0
LINE
8
BLACK
6
CONTINUOUS
10
-123.385
20
-59.5221
11
-123.593
21
-58.3403
0
LINE
8
BLACK
6
CONTINUOUS
10
-124.253
20
-54.5981
11
-127.897
21
-55.2406
0
LINE
8
BLACK
6
CONTINUOUS
10
-122.289
20
-55.3688
11
-124.062
21
-55.6813
0
LINE
8
BLACK
6
CONTINUOUS
10
-132.345
20
-52.471
11
-132.102
21
-53.8497
0
LINE
8
BLACK
6
CONTINUOUS
10
-128.407
20
-60.4077
11
-128.986
21
-60.0021
0
LINE
8
BLACK
6
CONTINUOUS
10
-135.277
20
-55.4249
11
-137.049
21
-55.7375
0
LINE
8
BLACK
6
CONTINUOUS
10
-137.049
20
-55.7375
11
-136.563
21
-58.4949
0
LINE
8
BLACK
6
CONTINUOUS
10
-128.407
20
-60.4077
11
-123.385
21
-59.5221
0
LINE
8
BLACK
6
CONTINUOUS
10
-123.593
20
-58.3403
11
-121.82
21
-58.0278
0
LINE
8
BLACK
6
CONTINUOUS
10
-136.563
20
-58.4949
11
-134.79
21
-58.1824
0
LINE
8
BLACK
6
CONTINUOUS
10
-124.062
20
-55.6813
11
-124.253
21
-54.5981
0
LINE
8
BLACK
6
CONTINUOUS
10
-135.45
20
-54.4401
11
-133.875
21
-54.1623
0
LINE
8
BLACK
6
CONTINUOUS
10
-129.455
20
-53.8906
11
-129.403
21
-54.186
0
LINE
8
BLACK
6
CONTINUOUS
10
-134.582
20
-59.3641
11
-130.544
21
-58.6522
0
LINE
8
BLACK
6
CONTINUOUS
10
-134.79
20
-58.1824
11
-134.582
21
-59.3641
0
ARC
8
BLACK
10
-133.231
20
-52.6272
40
0.899999
50
-350
51
-170
0
ARC
8
BLACK
10
-130.319
20
-59.9324
40
1.3
50
9.99994
51
100
0
ARC
8
BLACK
10
-128.122
20
-53.9603
40
1.3
50
-170
51
-80
0
CIRCLE
8
BLACK
10
-122.399
20
-50.7171
40
0.9
0
CIRCLE
8
BLACK
10
-127.815
20
-51.6722
40
1.75
0
LINE
8
BLACK
6
CONTINUOUS
10
-57.7051
20
-68.9446
11
-57.2995
21
-69.5239
0
LINE
8
BLACK
6
CONTINUOUS
10
-61.3028
20
-66.8887
11
-61.5459
21
-68.2674
0
LINE
8
BLACK
6
CONTINUOUS
10
-58.9497
20
-75.427
11
-58.8976
21
-75.1315
0
LINE
8
BLACK
6
CONTINUOUS
10
-51.5406
20
-76.0226
11
-51.0717
21
-73.3636
0
LINE
8
BLACK
6
CONTINUOUS
10
-63.1216
20
-67.9896
11
-63.2952
21
-68.9744
0
LINE
8
BLACK
6
CONTINUOUS
10
-57.7051
20
-68.9446
11
-59.7732
21
-68.58
0
LINE
8
BLACK
6
CONTINUOUS
10
-53.5216
20
-76.8918
11
-53.3132
21
-75.7101
0
LINE
8
BLACK
6
CONTINUOUS
10
-52.6533
20
-71.9678
11
-56.2971
21
-71.3253
0
LINE
8
BLACK
6
CONTINUOUS
10
-51.0717
20
-73.3636
11
-52.8444
21
-73.0511
0
LINE
8
BLACK
6
CONTINUOUS
10
-59.5301
20
-67.2012
11
-59.7732
21
-68.58
0
LINE
8
BLACK
6
CONTINUOUS
10
-58.5441
20
-76.0062
11
-58.9497
21
-75.427
0
LINE
8
BLACK
6
CONTINUOUS
10
-63.2952
20
-68.9744
11
-65.0679
21
-68.6618
0
LINE
8
BLACK
6
CONTINUOUS
10
-65.0679
20
-68.6618
11
-65.5541
21
-71.4193
0
LINE
8
BLACK
6
CONTINUOUS
10
-58.5441
20
-76.0062
11
-53.5216
21
-76.8918
0
LINE
8
BLACK
6
CONTINUOUS
10
-53.3132
20
-75.7101
11
-51.5406
21
-76.0226
0
LINE
8
BLACK
6
CONTINUOUS
10
-65.5541
20
-71.4193
11
-63.7814
21
-71.7318
0
LINE
8
BLACK
6
CONTINUOUS
10
-52.8444
20
-73.0511
11
-52.6533
21
-71.9678
0
LINE
8
BLACK
6
CONTINUOUS
10
-63.1216
20
-67.9896
11
-61.5459
21
-68.2674
0
LINE
8
BLACK
6
CONTINUOUS
10
-57.2995
20
-69.5239
11
-57.3516
21
-69.8193
0
LINE
8
BLACK
6
CONTINUOUS
10
-63.9898
20
-72.9136
11
-59.9521
21
-73.6256
0
LINE
8
BLACK
6
CONTINUOUS
10
-63.7814
20
-71.7318
11
-63.9898
21
-72.9136
0
ARC
8
BLACK
10
-60.4164
20
-67.0449
40
0.899999
50
-9.99998
51
170
0
ARC
8
BLACK
10
-60.1778
20
-74.9058
40
1.3
50
-10
51
80.0001
0
ARC
8
BLACK
10
-56.0714
20
-70.045
40
1.3
50
-190
51
-99.9999
0
CIRCLE
8
BLACK
10
-49.5836
20
-68.9551
40
0.9
0
CIRCLE
8
BLACK
10
-55
20
-68
40
1.75
0
LINE
8
BLACK
6
CONTINUOUS
10
52.5
20
-50.9
11
53
21
-51.4
0
LINE
8
BLACK
6
CONTINUOUS
10
48.6
20
-49.5
11
48.6
21
-50.9
0
LINE
8
BLACK
6
CONTINUOUS
10
52.4
20
-57.5
11
52.4
21
-57.2
0
LINE
8
BLACK
6
CONTINUOUS
10
59.8
20
-56.8
11
59.8
21
-54.1
0
LINE
8
BLACK
6
CONTINUOUS
10
47
20
-50.9
11
47
21
-51.9
0
LINE
8
BLACK
6
CONTINUOUS
10
52.5
20
-50.9
11
50.4
21
-50.9
0
LINE
8
BLACK
6
CONTINUOUS
10
58
20
-58
11
58
21
-56.8
0
LINE
8
BLACK
6
CONTINUOUS
10
58
20
-53
11
54.3
21
-53
0
LINE
8
BLACK
6
CONTINUOUS
10
59.8
20
-54.1
11
58
21
-54.1
0
LINE
8
BLACK
6
CONTINUOUS
10
50.4
20
-49.5
11
50.4
21
-50.9
0
LINE
8
BLACK
6
CONTINUOUS
10
52.9
20
-58
11
52.4
21
-57.5
0
LINE
8
BLACK
6
CONTINUOUS
10
47
20
-51.9
11
45.2
21
-51.9
0
LINE
8
BLACK
6
CONTINUOUS
10
45.2
20
-51.9
11
45.2
21
-54.7
0
LINE
8
BLACK
6
CONTINUOUS
10
52.9
20
-58
11
58
21
-58
0
LINE
8
BLACK
6
CONTINUOUS
10
58
20
-56.8
11
59.8
21
-56.8
0
LINE
8
BLACK
6
CONTINUOUS
10
45.2
20
-54.7
11
47
21
-54.7
0
LINE
8
BLACK
6
CONTINUOUS
10
58
20
-54.1
11
58
21
-53
0
LINE
8
BLACK
6
CONTINUOUS
10
47
20
-50.9
11
48.6
21
-50.9
0
LINE
8
BLACK
6
CONTINUOUS
10
53
20
-51.4
11
53
21
-51.7
0
LINE
8
BLACK
6
CONTINUOUS
10
47
20
-55.9
11
51.1
21
-55.9
0
LINE
8
BLACK
6
CONTINUOUS
10
47
20
-54.7
11
47
21
-55.9
0
ARC
8
BLACK
10
49.5
20
-49.5
40
0.9
50
-0
51
180
0
ARC
8
BLACK
10
51.1
20
-57.2
40
1.3
50
-4.40737e-05
51
90
0
ARC
8
BLACK
10
54.3
20
-51.7
40
1.3
50
-180
51
-90
0
CIRCLE
8
BLACK
10
60.5
20
-49.5
40
0.9
0
CIRCLE
8
BLACK
10
55
20
-49.5
40
1.75
0
LINE
8
BLACK
6
CONTINUOUS
10
143.295
20
-52.7446
11
143.7
21
-53.3239
0
LINE
8
BLACK
6
CONTINUOUS
10
139.697
20
-50.6887
11
139.454
21
-52.0674
0
LINE
8
BLACK
6
CONTINUOUS
10
142.05
20
-59.227
11
142.102
21
-58.9316
0
LINE
8
BLACK
6
CONTINUOUS
10
149.459
20
-59.8226
11
149.928
21
-57.1636
0
LINE
8
BLACK
6
CONTINUOUS
10
137.878
20
-51.7896
11
137.705
21
-52.7744
0
LINE
8
BLACK
6
CONTINUOUS
10
143.295
20
-52.7446
11
141.227
21
-52.38
0
LINE
8
BLACK
6
CONTINUOUS
10
147.478
20
-60.6918
11
147.687
21
-59.5101
0
LINE
8
BLACK
6
CONTINUOUS
10
148.347
20
-55.7678
11
144.703
21
-55.1253
0
LINE
8
BLACK
6
CONTINUOUS
10
149.928
20
-57.1636
11
148.156
21
-56.8511
0
LINE
8
BLACK
6
CONTINUOUS
10
141.47
20
-51.0012
11
141.227
21
-52.38
0
LINE
8
BLACK
6
CONTINUOUS
10
142.456
20
-59.8062
11
142.05
21
-59.227
0
LINE
8
BLACK
6
CONTINUOUS
10
137.705
20
-52.7744
11
135.932
21
-52.4618
0
LINE
8
BLACK
6
CONTINUOUS
10
135.932
20
-52.4618
11
135.446
21
-55.2193
0
LINE
8
BLACK
6
CONTINUOUS
10
142.456
20
-59.8062
11
147.478
21
-60.6918
0
LINE
8
BLACK
6
CONTINUOUS
10
147.687
20
-59.5101
11
149.459
21
-59.8226
0
LINE
8
BLACK
6
CONTINUOUS
10
135.446
20
-55.2193
11
137.219
21
-55.5318
0
LINE
8
BLACK
6
CONTINUOUS
10
148.156
20
-56.8511
11
148.347
21
-55.7678
0
LINE
8
BLACK
6
CONTINUOUS
10
137.878
20
-51.7896
11
139.454
21
-52.0674
0
LINE
8
BLACK
6
CONTINUOUS
10
143.7
20
-53.3239
11
143.648
21
-53.6193
0
LINE
8
BLACK
6
CONTINUOUS
10
137.01
20
-56.7136
11
141.048
21
-57.4256
0
LINE
8
BLACK
6
CONTINUOUS
10
137.219
20
-55.5318
11
137.01
21
-56.7136
0
ARC
8
BLACK
10
140.584
20
-50.845
40
0.899999
50
-9.99998
51
170
0
ARC
8
BLACK
10
140.822
20
-58.7058
40
1.3
50
-10
51
80.0001
0
ARC
8
BLACK
10
144.929
20
-53.845
40
1.3
50
-190
51
-99.9999
0
CIRCLE
8
BLACK
10
151.416
20
-52.7551
40
0.9
0
CIRCLE
8
BLACK
10
146
20
-51.8
40
1.75
0
LINE
8
BLACK
6
CONTINUOUS
10
52.5
20
-33.9
11
53
21
-34.4
0
LINE
8
BLACK
6
CONTINUOUS
10
48.6
20
-32.5
11
48.6
21
-33.9
0
LINE
8
BLACK
6
CONTINUOUS
10
52.4
20
-40.5
11
52.4
21
-40.2
0
LINE
8
BLACK
6
CONTINUOUS
10
59.8
20
-39.8
11
59.8
21
-37.1
0
LINE
8
BLACK
6
CONTINUOUS
10
47
20
-33.9
11
47
21
-34.9
0
LINE
8
BLACK
6
CONTINUOUS
10
52.5
20
-33.9
11
50.4
21
-33.9
0
LINE
8
BLACK
6
CONTINUOUS
10
58
20
-41
11
58
21
-39.8
0
LINE
8
BLACK
6
CONTINUOUS
10
58
20
-36
11
54.3
21
-36
0
LINE
8
BLACK
6
CONTINUOUS
10
59.8
20
-37.1
11
58
21
-37.1
0
LINE
8
BLACK
6
CONTINUOUS
10
50.4
20
-32.5
11
50.4
21
-33.9
0
LINE
8
BLACK
6
CONTINUOUS
10
52.9
20
-41
11
52.4
21
-40.5
0
LINE
8
BLACK
6
CONTINUOUS
10
47
20
-34.9
11
45.2
21
-34.9
0
LINE
8
BLACK
6
CONTINUOUS
10
45.2
20
-34.9
11
45.2
21
-37.7
0
LINE
8
BLACK
6
CONTINUOUS
10
52.9
20
-41
11
58
21
-41
0
LINE
8
BLACK
6
CONTINUOUS
10
58
20
-39.8
11
59.8
21
-39.8
0
LINE
8
BLACK
6
CONTINUOUS
10
45.2
20
-37.7
11
47
21
-37.7
0
LINE
8
BLACK
6
CONTINUOUS
10
58
20
-37.1
11
58
21
-36
0
LINE
8
BLACK
6
CONTINUOUS
10
47
20
-33.9
11
48.6
21
-33.9
0
LINE
8
BLACK
6
CONTINUOUS
10
53
20
-34.4
11
53
21
-34.7
0
LINE
8
BLACK
6
CONTINUOUS
10
47
20
-38.9
11
51.1
21
-38.9
0
LINE
8
BLACK
6
CONTINUOUS
10
47
20
-37.7
11
47
21
-38.9
0
ARC
8
BLACK
10
49.5
20
-32.5
40
0.9
50
-0
51
180
0
ARC
8
BLACK
10
51.1
20
-40.2
40
1.3
50
-4.40737e-05
51
90
0
ARC
8
BLACK
10
54.3
20
-34.7
40
1.3
50
-180
51
-90
0
CIRCLE
8
BLACK
10
60.5
20
-32.5
40
0.9
0
CIRCLE
8
BLACK
10
55
20
-32.5
40
1.75
0
LINE
8
BLACK
6
CONTINUOUS
10
109.887
20
-14.6768
11
110.342
21
-15.2185
0
LINE
8
BLACK
6
CONTINUOUS
10
106.124
20
-12.9422
11
106.002
21
-14.3369
0
LINE
8
BLACK
6
CONTINUOUS
10
109.213
20
-21.243
11
109.239
21
-20.9441
0
LINE
8
BLACK
6
CONTINUOUS
10
116.645
20
-21.1906
11
116.881
21
-18.5009
0
LINE
8
BLACK
6
CONTINUOUS
10
104.408
20
-14.1974
11
104.321
21
-15.1936
0
LINE
8
BLACK
6
CONTINUOUS
10
109.887
20
-14.6768
11
107.795
21
-14.4938
0
LINE
8
BLACK
6
CONTINUOUS
10
114.748
20
-22.2291
11
114.852
21
-21.0337
0
LINE
8
BLACK
6
CONTINUOUS
10
115.184
20
-17.2482
11
111.498
21
-16.9257
0
LINE
8
BLACK
6
CONTINUOUS
10
116.881
20
-18.5009
11
115.088
21
-18.344
0
LINE
8
BLACK
6
CONTINUOUS
10
107.918
20
-13.0991
11
107.795
21
-14.4938
0
LINE
8
BLACK
6
CONTINUOUS
10
109.667
20
-21.7846
11
109.213
21
-21.243
0
LINE
8
BLACK
6
CONTINUOUS
10
104.321
20
-15.1936
11
102.528
21
-15.0368
0
LINE
8
BLACK
6
CONTINUOUS
10
102.528
20
-15.0368
11
102.284
21
-17.8261
0
LINE
8
BLACK
6
CONTINUOUS
10
109.667
20
-21.7846
11
114.748
21
-22.2291
0
LINE
8
BLACK
6
CONTINUOUS
10
114.852
20
-21.0337
11
116.645
21
-21.1906
0
LINE
8
BLACK
6
CONTINUOUS
10
102.284
20
-17.8261
11
104.077
21
-17.983
0
LINE
8
BLACK
6
CONTINUOUS
10
115.088
20
-18.344
11
115.184
21
-17.2482
0
LINE
8
BLACK
6
CONTINUOUS
10
104.408
20
-14.1974
11
106.002
21
-14.3369
0
LINE
8
BLACK
6
CONTINUOUS
10
110.342
20
-15.2185
11
110.316
21
-15.5173
0
LINE
8
BLACK
6
CONTINUOUS
10
103.973
20
-19.1784
11
108.057
21
-19.5358
0
LINE
8
BLACK
6
CONTINUOUS
10
104.077
20
-17.983
11
103.973
21
-19.1784
0
ARC
8
BLACK
10
107.021
20
-13.0207
40
0.899999
50
-5.00005
51
175
0
ARC
8
BLACK
10
107.944
20
-20.8308
40
1.3
50
-5.00003
51
85.0001
0
ARC
8
BLACK
10
111.611
20
-15.6306
40
1.3
50
-185
51
-94.9999
0
CIRCLE
8
BLACK
10
117.979
20
-13.9794
40
0.900001
0
CIRCLE
8
BLACK
10
112.5
20
-13.5
40
1.75
0
LINE
8
BLACK
6
CONTINUOUS
10
88.5
20
-9.90002
11
89
21
-10.4
0
LINE
8
BLACK
6
CONTINUOUS
10
84.6
20
-8.50002
11
84.6
21
-9.90002
0
LINE
8
BLACK
6
CONTINUOUS
10
88.4
20
-16.5
11
88.4
21
-16.2
0
LINE
8
BLACK
6
CONTINUOUS
10
95.8
20
-15.8
11
95.8
21
-13.1
0
LINE
8
BLACK
6
CONTINUOUS
10
83
20
-9.90002
11
83
21
-10.9
0
LINE
8
BLACK
6
CONTINUOUS
10
88.5
20
-9.90002
11
86.4
21
-9.90002
0
LINE
8
BLACK
6
CONTINUOUS
10
94
20
-17
11
94
21
-15.8
0
LINE
8
BLACK
6
CONTINUOUS
10
94
20
-12
11
90.3
21
-12
0
LINE
8
BLACK
6
CONTINUOUS
10
95.8
20
-13.1
11
94
21
-13.1
0
LINE
8
BLACK
6
CONTINUOUS
10
86.4
20
-8.50002
11
86.4
21
-9.90002
0
LINE
8
BLACK
6
CONTINUOUS
10
88.9
20
-17
11
88.4
21
-16.5
0
LINE
8
BLACK
6
CONTINUOUS
10
83
20
-10.9
11
81.2
21
-10.9
0
LINE
8
BLACK
6
CONTINUOUS
10
81.2
20
-10.9
11
81.2
21
-13.7
0
LINE
8
BLACK
6
CONTINUOUS
10
88.9
20
-17
11
94
21
-17
0
LINE
8
BLACK
6
CONTINUOUS
10
94
20
-15.8
11
95.8
21
-15.8
0
LINE
8
BLACK
6
CONTINUOUS
10
81.2
20
-13.7
11
83
21
-13.7
0
LINE
8
BLACK
6
CONTINUOUS
10
94
20
-13.1
11
94
21
-12
0
LINE
8
BLACK
6
CONTINUOUS
10
83
20
-9.90002
11
84.6
21
-9.90002
0
LINE
8
BLACK
6
CONTINUOUS
10
89
20
-10.4
11
89
21
-10.7
0
LINE
8
BLACK
6
CONTINUOUS
10
83
20
-14.9
11
87.1
21
-14.9
0
LINE
8
BLACK
6
CONTINUOUS
10
83
20
-13.7
11
83
21
-14.9
0
ARC
8
BLACK
10
85.5
20
-8.50002
40
0.9
50
-0
51
180
0
ARC
8
BLACK
10
87.1
20
-16.2
40
1.3
50
-4.40737e-05
51
90
0
ARC
8
BLACK
10
90.3
20
-10.7
40
1.3
50
-180
51
-90
0
CIRCLE
8
BLACK
10
96.5
20
-8.50002
40
0.9
0
CIRCLE
8
BLACK
10
91
20
-8.50002
40
1.75
0
LINE
8
BLACK
6
CONTINUOUS
10
-93.5
20
-43.9
11
-93
21
-44.4
0
LINE
8
BLACK
6
CONTINUOUS
10
-97.4
20
-42.5
11
-97.4
21
-43.9
0
LINE
8
BLACK
6
CONTINUOUS
10
-93.6
20
-50.5
11
-93.6
21
-50.2
0
LINE
8
BLACK
6
CONTINUOUS
10
-86.2
20
-49.8
11
-86.2
21
-47.1
0
LINE
8
BLACK
6
CONTINUOUS
10
-99
20
-43.9
11
-99
21
-44.9
0
LINE
8
BLACK
6
CONTINUOUS
10
-93.5
20
-43.9
11
-95.6
21
-43.9
0
LINE
8
BLACK
6
CONTINUOUS
10
-88
20
-51
11
-88
21
-49.8
0
LINE
8
BLACK
6
CONTINUOUS
10
-88
20
-46
11
-91.7
21
-46
0
LINE
8
BLACK
6
CONTINUOUS
10
-86.2
20
-47.1
11
-88
21
-47.1
0
LINE
8
BLACK
6
CONTINUOUS
10
-95.6
20
-42.5
11
-95.6
21
-43.9
0
LINE
8
BLACK
6
CONTINUOUS
10
-93.1
20
-51
11
-93.6
21
-50.5
0
LINE
8
BLACK
6
CONTINUOUS
10
-99
20
-44.9
11
-100.8
21
-44.9
0
LINE
8
BLACK
6
CONTINUOUS
10
-100.8
20
-44.9
11
-100.8
21
-47.7
0
LINE
8
BLACK
6
CONTINUOUS
10
-93.1
20
-51
11
-88
21
-51
0
LINE
8
BLACK
6
CONTINUOUS
10
-88
20
-49.8
11
-86.2
21
-49.8
0
LINE
8
BLACK
6
CONTINUOUS
10
-100.8
20
-47.7
11
-99
21
-47.7
0
LINE
8
BLACK
6
CONTINUOUS
10
-88
20
-47.1
11
-88
21
-46
0
LINE
8
BLACK
6
CONTINUOUS
10
-99
20
-43.9
11
-97.4
21
-43.9
0
LINE
8
BLACK
6
CONTINUOUS
10
-93
20
-44.4
11
-93
21
-44.7
0
LINE
8
BLACK
6
CONTINUOUS
10
-99
20
-48.9
11
-94.9
21
-48.9
0
LINE
8
BLACK
6
CONTINUOUS
10
-99
20
-47.7
11
-99
21
-48.9
0
ARC
8
BLACK
10
-96.5
20
-42.5
40
0.9
50
-0
51
180
0
ARC
8
BLACK
10
-94.9
20
-50.2
40
1.3
50
-4.40737e-05
51
90
0
ARC
8
BLACK
10
-91.7
20
-44.7
40
1.3
50
-180
51
-90
0
CIRCLE
8
BLACK
10
-85.5
20
-42.5
40
0.9
0
CIRCLE
8
BLACK
10
-91
20
-42.5
40
1.75
0
LINE
8
BLACK
6
CONTINUOUS
10
-57.5
20
-50.9
11
-57
21
-51.4
0
LINE
8
BLACK
6
CONTINUOUS
10
-61.4
20
-49.5
11
-61.4
21
-50.9
0
LINE
8
BLACK
6
CONTINUOUS
10
-57.6
20
-57.5
11
-57.6
21
-57.2
0
LINE
8
BLACK
6
CONTINUOUS
10
-50.2
20
-56.8
11
-50.2
21
-54.1
0
LINE
8
BLACK
6
CONTINUOUS
10
-63
20
-50.9
11
-63
21
-51.9
0
LINE
8
BLACK
6
CONTINUOUS
10
-57.5
20
-50.9
11
-59.6
21
-50.9
0
LINE
8
BLACK
6
CONTINUOUS
10
-52
20
-58
11
-52
21
-56.8
0
LINE
8
BLACK
6
CONTINUOUS
10
-52
20
-53
11
-55.7
21
-53
0
LINE
8
BLACK
6
CONTINUOUS
10
-50.2
20
-54.1
11
-52
21
-54.1
0
LINE
8
BLACK
6
CONTINUOUS
10
-59.6
20
-49.5
11
-59.6
21
-50.9
0
LINE
8
BLACK
6
CONTINUOUS
10
-57.1
20
-58
11
-57.6
21
-57.5
0
LINE
8
BLACK
6
CONTINUOUS
10
-63
20
-51.9
11
-64.8
21
-51.9
0
LINE
8
BLACK
6
CONTINUOUS
10
-64.8
20
-51.9
11
-64.8
21
-54.7
0
LINE
8
BLACK
6
CONTINUOUS
10
-57.1
20
-58
11
-52
21
-58
0
LINE
8
BLACK
6
CONTINUOUS
10
-52
20
-56.8
11
-50.2
21
-56.8
0
LINE
8
BLACK
6
CONTINUOUS
10
-64.8
20
-54.7
11
-63
21
-54.7
0
LINE
8
BLACK
6
CONTINUOUS
10
-52
20
-54.1
11
-52
21
-53
0
LINE
8
BLACK
6
CONTINUOUS
10
-63
20
-50.9
11
-61.4
21
-50.9
0
LINE
8
BLACK
6
CONTINUOUS
10
-57
20
-51.4
11
-57
21
-51.7
0
LINE
8
BLACK
6
CONTINUOUS
10
-63
20
-55.9
11
-58.9
21
-55.9
0
LINE
8
BLACK
6
CONTINUOUS
10
-63
20
-54.7
11
-63
21
-55.9
0
ARC
8
BLACK
10
-60.5
20
-49.5
40
0.9
50
-0
51
180
0
ARC
8
BLACK
10
-58.9
20
-57.2
40
1.3
50
-4.40737e-05
51
90
0
ARC
8
BLACK
10
-55.7
20
-51.7
40
1.3
50
-180
51
-90
0
CIRCLE
8
BLACK
10
-49.5
20
-49.5
40
0.9
0
CIRCLE
8
BLACK
10
-55
20
-49.5
40
1.75
0
LINE
8
BLACK
6
CONTINUOUS
10
-77
20
-67.9
11
-76.5
21
-68.4
0
LINE
8
BLACK
6
CONTINUOUS
10
-80.9
20
-66.5
11
-80.9
21
-67.9
0
LINE
8
BLACK
6
CONTINUOUS
10
-77.1
20
-74.5
11
-77.1
21
-74.2
0
LINE
8
BLACK
6
CONTINUOUS
10
-69.7
20
-73.8
11
-69.7
21
-71.1
0
LINE
8
BLACK
6
CONTINUOUS
10
-82.5
20
-67.9
11
-82.5
21
-68.9
0
LINE
8
BLACK
6
CONTINUOUS
10
-77
20
-67.9
11
-79.1
21
-67.9
0
LINE
8
BLACK
6
CONTINUOUS
10
-71.5
20
-75
11
-71.5
21
-73.8
0
LINE
8
BLACK
6
CONTINUOUS
10
-71.5
20
-70
11
-75.2
21
-70
0
LINE
8
BLACK
6
CONTINUOUS
10
-69.7
20
-71.1
11
-71.5
21
-71.1
0
LINE
8
BLACK
6
CONTINUOUS
10
-79.1
20
-66.5
11
-79.1
21
-67.9
0
LINE
8
BLACK
6
CONTINUOUS
10
-76.6
20
-75
11
-77.1
21
-74.5
0
LINE
8
BLACK
6
CONTINUOUS
10
-82.5
20
-68.9
11
-84.3
21
-68.9
0
LINE
8
BLACK
6
CONTINUOUS
10
-84.3
20
-68.9
11
-84.3
21
-71.7
0
LINE
8
BLACK
6
CONTINUOUS
10
-76.6
20
-75
11
-71.5
21
-75
0
LINE
8
BLACK
6
CONTINUOUS
10
-71.5
20
-73.8
11
-69.7
21
-73.8
0
LINE
8
BLACK
6
CONTINUOUS
10
-84.3
20
-71.7
11
-82.5
21
-71.7
0
LINE
8
BLACK
6
CONTINUOUS
10
-71.5
20
-71.1
11
-71.5
21
-70
0
LINE
8
BLACK
6
CONTINUOUS
10
-82.5
20
-67.9
11
-80.9
21
-67.9
0
LINE
8
BLACK
6
CONTINUOUS
10
-76.5
20
-68.4
11
-76.5
21
-68.7
0
LINE
8
BLACK
6
CONTINUOUS
10
-82.5
20
-72.9
11
-78.4
21
-72.9
0
LINE
8
BLACK
6
CONTINUOUS
10
-82.5
20
-71.7
11
-82.5
21
-72.9
0
ARC
8
BLACK
10
-80
20
-66.5
40
0.9
50
-0
51
180
0
ARC
8
BLACK
10
-78.4
20
-74.2
40
1.3
50
-4.40737e-05
51
90
0
ARC
8
BLACK
10
-75.2
20
-68.7
40
1.3
50
-180
51
-90
0
CIRCLE
8
BLACK
10
-69
20
-66.5
40
0.9
0
CIRCLE
8
BLACK
10
-74.5
20
-66.5
40
1.75
0
LINE
8
BLACK
6
CONTINUOUS
10
72
20
-67.9
11
72.5
21
-68.4
0
LINE
8
BLACK
6
CONTINUOUS
10
68.1
20
-66.5
11
68.1
21
-67.9
0
LINE
8
BLACK
6
CONTINUOUS
10
71.9
20
-74.5
11
71.9
21
-74.2
0
LINE
8
BLACK
6
CONTINUOUS
10
79.3
20
-73.8
11
79.3
21
-71.1
0
LINE
8
BLACK
6
CONTINUOUS
10
66.5
20
-67.9
11
66.5
21
-68.9
0
LINE
8
BLACK
6
CONTINUOUS
10
72
20
-67.9
11
69.9
21
-67.9
0
LINE
8
BLACK
6
CONTINUOUS
10
77.5
20
-75
11
77.5
21
-73.8
0
LINE
8
BLACK
6
CONTINUOUS
10
77.5
20
-70
11
73.8
21
-70
0
LINE
8
BLACK
6
CONTINUOUS
10
79.3
20
-71.1
11
77.5
21
-71.1
0
LINE
8
BLACK
6
CONTINUOUS
10
69.9
20
-66.5
11
69.9
21
-67.9
0
LINE
8
BLACK
6
CONTINUOUS
10
72.4
20
-75
11
71.9
21
-74.5
0
LINE
8
BLACK
6
CONTINUOUS
10
66.5
20
-68.9
11
64.7
21
-68.9
0
LINE
8
BLACK
6
CONTINUOUS
10
64.7
20
-68.9
11
64.7
21
-71.7
0
LINE
8
BLACK
6
CONTINUOUS
10
72.4
20
-75
11
77.5
21
-75
0
LINE
8
BLACK
6
CONTINUOUS
10
77.5
20
-73.8
11
79.3
21
-73.8
0
LINE
8
BLACK
6
CONTINUOUS
10
64.7
20
-71.7
11
66.5
21
-71.7
0
LINE
8
BLACK
6
CONTINUOUS
10
77.5
20
-71.1
11
77.5
21
-70
0
LINE
8
BLACK
6
CONTINUOUS
10
66.5
20
-67.9
11
68.1
21
-67.9
0
LINE
8
BLACK
6
CONTINUOUS
10
72.5
20
-68.4
11
72.5
21
-68.7
0
LINE
8
BLACK
6
CONTINUOUS
10
66.5
20
-72.9
11
70.6
21
-72.9
0
LINE
8
BLACK
6
CONTINUOUS
10
66.5
20
-71.7
11
66.5
21
-72.9
0
ARC
8
BLACK
10
69
20
-66.5
40
0.9
50
-0
51
180
0
ARC
8
BLACK
10
70.6
20
-74.2
40
1.3
50
-4.40737e-05
51
90
0
ARC
8
BLACK
10
73.8
20
-68.7
40
1.3
50
-180
51
-90
0
CIRCLE
8
BLACK
10
80
20
-66.5
40
0.9
0
CIRCLE
8
BLACK
10
74.5
20
-66.5
40
1.75
0
LINE
8
BLACK
6
CONTINUOUS
10
-57.5
20
-33.9
11
-57
21
-34.4
0
LINE
8
BLACK
6
CONTINUOUS
10
-61.4
20
-32.5
11
-61.4
21
-33.9
0
LINE
8
BLACK
6
CONTINUOUS
10
-57.6
20
-40.5
11
-57.6
21
-40.2
0
LINE
8
BLACK
6
CONTINUOUS
10
-50.2
20
-39.8
11
-50.2
21
-37.1
0
LINE
8
BLACK
6
CONTINUOUS
10
-63
20
-33.9
11
-63
21
-34.9
0
LINE
8
BLACK
6
CONTINUOUS
10
-57.5
20
-33.9
11
-59.6
21
-33.9
0
LINE
8
BLACK
6
CONTINUOUS
10
-52
20
-41
11
-52
21
-39.8
0
LINE
8
BLACK
6
CONTINUOUS
10
-52
20
-36
11
-55.7
21
-36
0
LINE
8
BLACK
6
CONTINUOUS
10
-50.2
20
-37.1
11
-52
21
-37.1
0
LINE
8
BLACK
6
CONTINUOUS
10
-59.6
20
-32.5
11
-59.6
21
-33.9
0
LINE
8
BLACK
6
CONTINUOUS
10
-57.1
20
-41
11
-57.6
21
-40.5
0
LINE
8
BLACK
6
CONTINUOUS
10
-63
20
-34.9
11
-64.8
21
-34.9
0
LINE
8
BLACK
6
CONTINUOUS
10
-64.8
20
-34.9
11
-64.8
21
-37.7
0
LINE
8
BLACK
6
CONTINUOUS
10
-57.1
20
-41
11
-52
21
-41
0
LINE
8
BLACK
6
CONTINUOUS
10
-52
20
-39.8
11
-50.2
21
-39.8
0
LINE
8
BLACK
6
CONTINUOUS
10
-64.8
20
-37.7
11
-63
21
-37.7
0
LINE
8
BLACK
6
CONTINUOUS
10
-52
20
-37.1
11
-52
21
-36
0
LINE
8
BLACK
6
CONTINUOUS
10
-63
20
-33.9
11
-61.4
21
-33.9
0
LINE
8
BLACK
6
CONTINUOUS
10
-57
20
-34.4
11
-57
21
-34.7
0
LINE
8
BLACK
6
CONTINUOUS
10
-63
20
-38.9
11
-58.9
21
-38.9
0
LINE
8
BLACK
6
CONTINUOUS
10
-63
20
-37.7
11
-63
21
-38.9
0
ARC
8
BLACK
10
-60.5
20
-32.5
40
0.9
50
-0
51
180
0
ARC
8
BLACK
10
-58.9
20
-40.2
40
1.3
50
-4.40737e-05
51
90
0
ARC
8
BLACK
10
-55.7
20
-34.7
40
1.3
50
-180
51
-90
0
CIRCLE
8
BLACK
10
-49.5
20
-32.5
40
0.9
0
CIRCLE
8
BLACK
10
-55
20
-32.5
40
1.75
0
LINE
8
BLACK
6
CONTINUOUS
10
-93.5
20
-9.90002
11
-93
21
-10.4
0
LINE
8
BLACK
6
CONTINUOUS
10
-97.4
20
-8.50002
11
-97.4
21
-9.90002
0
LINE
8
BLACK
6
CONTINUOUS
10
-93.6
20
-16.5
11
-93.6
21
-16.2
0
LINE
8
BLACK
6
CONTINUOUS
10
-86.2
20
-15.8
11
-86.2
21
-13.1
0
LINE
8
BLACK
6
CONTINUOUS
10
-99
20
-9.90002
11
-99
21
-10.9
0
LINE
8
BLACK
6
CONTINUOUS
10
-93.5
20
-9.90002
11
-95.6
21
-9.90002
0
LINE
8
BLACK
6
CONTINUOUS
10
-88
20
-17
11
-88
21
-15.8
0
LINE
8
BLACK
6
CONTINUOUS
10
-88
20
-12
11
-91.7
21
-12
0
LINE
8
BLACK
6
CONTINUOUS
10
-86.2
20
-13.1
11
-88
21
-13.1
0
LINE
8
BLACK
6
CONTINUOUS
10
-95.6
20
-8.50002
11
-95.6
21
-9.90002
0
LINE
8
BLACK
6
CONTINUOUS
10
-93.1
20
-17
11
-93.6
21
-16.5
0
LINE
8
BLACK
6
CONTINUOUS
10
-99
20
-10.9
11
-100.8
21
-10.9
0
LINE
8
BLACK
6
CONTINUOUS
10
-100.8
20
-10.9
11
-100.8
21
-13.7
0
LINE
8
BLACK
6
CONTINUOUS
10
-93.1
20
-17
11
-88
21
-17
0
LINE
8
BLACK
6
CONTINUOUS
10
-88
20
-15.8
11
-86.2
21
-15.8
0
LINE
8
BLACK
6
CONTINUOUS
10
-100.8
20
-13.7
11
-99
21
-13.7
0
LINE
8
BLACK
6
CONTINUOUS
10
-88
20
-13.1
11
-88
21
-12
0
LINE
8
BLACK
6
CONTINUOUS
10
-99
20
-9.90002
11
-97.4
21
-9.90002
0
LINE
8
BLACK
6
CONTINUOUS
10
-93
20
-10.4
11
-93
21
-10.7
0
LINE
8
BLACK
6
CONTINUOUS
10
-99
20
-14.9
11
-94.9
21
-14.9
0
LINE
8
BLACK
6
CONTINUOUS
10
-99
20
-13.7
11
-99
21
-14.9
0
ARC
8
BLACK
10
-96.5
20
-8.50002
40
0.9
50
-0
51
180
0
ARC
8
BLACK
10
-94.9
20
-16.2
40
1.3
50
-4.40737e-05
51
90
0
ARC
8
BLACK
10
-91.7
20
-10.7
40
1.3
50
-180
51
-90
0
CIRCLE
8
BLACK
10
-85.5
20
-8.50002
40
0.9
0
CIRCLE
8
BLACK
10
-91
20
-8.50002
40
1.75
0
LINE
8
BLACK
6
CONTINUOUS
10
88.5
20
-26.9
11
89
21
-27.4
0
LINE
8
BLACK
6
CONTINUOUS
10
84.6
20
-25.5
11
84.6
21
-26.9
0
LINE
8
BLACK
6
CONTINUOUS
10
88.4
20
-33.5
11
88.4
21
-33.2
0
LINE
8
BLACK
6
CONTINUOUS
10
95.8
20
-32.8
11
95.8
21
-30.1
0
LINE
8
BLACK
6
CONTINUOUS
10
83
20
-26.9
11
83
21
-27.9
0
LINE
8
BLACK
6
CONTINUOUS
10
88.5
20
-26.9
11
86.4
21
-26.9
0
LINE
8
BLACK
6
CONTINUOUS
10
94
20
-34
11
94
21
-32.8
0
LINE
8
BLACK
6
CONTINUOUS
10
94
20
-29
11
90.3
21
-29
0
LINE
8
BLACK
6
CONTINUOUS
10
95.8
20
-30.1
11
94
21
-30.1
0
LINE
8
BLACK
6
CONTINUOUS
10
86.4
20
-25.5
11
86.4
21
-26.9
0
LINE
8
BLACK
6
CONTINUOUS
10
88.9
20
-34
11
88.4
21
-33.5
0
LINE
8
BLACK
6
CONTINUOUS
10
83
20
-27.9
11
81.2
21
-27.9
0
LINE
8
BLACK
6
CONTINUOUS
10
81.2
20
-27.9
11
81.2
21
-30.7
0
LINE
8
BLACK
6
CONTINUOUS
10
88.9
20
-34
11
94
21
-34
0
LINE
8
BLACK
6
CONTINUOUS
10
94
20
-32.8
11
95.8
21
-32.8
0
LINE
8
BLACK
6
CONTINUOUS
10
81.2
20
-30.7
11
83
21
-30.7
0
LINE
8
BLACK
6
CONTINUOUS
10
94
20
-30.1
11
94
21
-29
0
LINE
8
BLACK
6
CONTINUOUS
10
83
20
-26.9
11
84.6
21
-26.9
0
LINE
8
BLACK
6
CONTINUOUS
10
89
20
-27.4
11
89
21
-27.7
0
LINE
8
BLACK
6
CONTINUOUS
10
83
20
-31.9
11
87.1
21
-31.9
0
LINE
8
BLACK
6
CONTINUOUS
10
83
20
-30.7
11
83
21
-31.9
0
ARC
8
BLACK
10
85.5
20
-25.5
40
0.9
50
-0
51
180
0
ARC
8
BLACK
10
87.1
20
-33.2
40
1.3
50
-4.40737e-05
51
90
0
ARC
8
BLACK
10
90.3
20
-27.7
40
1.3
50
-180
51
-90
0
CIRCLE
8
BLACK
10
96.5
20
-25.5
40
0.9
0
CIRCLE
8
BLACK
10
91
20
-25.5
40
1.75
0
LINE
8
BLACK
6
CONTINUOUS
10
70.5
20
-48.9
11
71
21
-49.4
0
LINE
8
BLACK
6
CONTINUOUS
10
66.6
20
-47.5
11
66.6
21
-48.9
0
LINE
8
BLACK
6
CONTINUOUS
10
70.4
20
-55.5
11
70.4
21
-55.2
0
LINE
8
BLACK
6
CONTINUOUS
10
77.8
20
-54.8
11
77.8
21
-52.1
0
LINE
8
BLACK
6
CONTINUOUS
10
65
20
-48.9
11
65
21
-49.9
0
LINE
8
BLACK
6
CONTINUOUS
10
70.5
20
-48.9
11
68.4
21
-48.9
0
LINE
8
BLACK
6
CONTINUOUS
10
76
20
-56
11
76
21
-54.8
0
LINE
8
BLACK
6
CONTINUOUS
10
76
20
-51
11
72.3
21
-51
0
LINE
8
BLACK
6
CONTINUOUS
10
77.8
20
-52.1
11
76
21
-52.1
0
LINE
8
BLACK
6
CONTINUOUS
10
68.4
20
-47.5
11
68.4
21
-48.9
0
LINE
8
BLACK
6
CONTINUOUS
10
70.9
20
-56
11
70.4
21
-55.5
0
LINE
8
BLACK
6
CONTINUOUS
10
65
20
-49.9
11
63.2
21
-49.9
0
LINE
8
BLACK
6
CONTINUOUS
10
63.2
20
-49.9
11
63.2
21
-52.7
0
LINE
8
BLACK
6
CONTINUOUS
10
70.9
20
-56
11
76
21
-56
0
LINE
8
BLACK
6
CONTINUOUS
10
76
20
-54.8
11
77.8
21
-54.8
0
LINE
8
BLACK
6
CONTINUOUS
10
63.2
20
-52.7
11
65
21
-52.7
0
LINE
8
BLACK
6
CONTINUOUS
10
76
20
-52.1
11
76
21
-51
0
LINE
8
BLACK
6
CONTINUOUS
10
65
20
-48.9
11
66.6
21
-48.9
0
LINE
8
BLACK
6
CONTINUOUS
10
71
20
-49.4
11
71
21
-49.7
0
LINE
8
BLACK
6
CONTINUOUS
10
65
20
-53.9
11
69.1
21
-53.9
0
LINE
8
BLACK
6
CONTINUOUS
10
65
20
-52.7
11
65
21
-53.9
0
ARC
8
BLACK
10
67.5
20
-47.5
40
0.9
50
-0
51
180
0
ARC
8
BLACK
10
69.1
20
-55.2
40
1.3
50
-4.40737e-05
51
90
0
ARC
8
BLACK
10
72.3
20
-49.7
40
1.3
50
-180
51
-90
0
CIRCLE
8
BLACK
10
78.5
20
-47.5
40
0.9
0
CIRCLE
8
BLACK
10
73
20
-47.5
40
1.75
0
LINE
8
BLACK
6
CONTINUOUS
10
52.7811
20
-69.8129
11
53.3603
21
-70.2184
0
LINE
8
BLACK
6
CONTINUOUS
10
48.6972
20
-69.1114
11
48.9403
21
-70.4901
0
LINE
8
BLACK
6
CONTINUOUS
10
53.8287
20
-76.33
11
53.7766
21
-76.0345
0
LINE
8
BLACK
6
CONTINUOUS
10
60.9947
20
-74.3556
11
60.5259
21
-71.6966
0
LINE
8
BLACK
6
CONTINUOUS
10
47.3646
20
-70.7679
11
47.5383
21
-71.7527
0
LINE
8
BLACK
6
CONTINUOUS
10
52.7811
20
-69.8129
11
50.713
21
-70.1775
0
LINE
8
BLACK
6
CONTINUOUS
10
59.4304
20
-75.8499
11
59.2221
21
-74.6682
0
LINE
8
BLACK
6
CONTINUOUS
10
58.5622
20
-70.9259
11
54.9184
21
-71.5684
0
LINE
8
BLACK
6
CONTINUOUS
10
60.5259
20
-71.6966
11
58.7532
21
-72.0092
0
LINE
8
BLACK
6
CONTINUOUS
10
50.4699
20
-68.7988
11
50.713
21
-70.1775
0
LINE
8
BLACK
6
CONTINUOUS
10
54.4079
20
-76.7355
11
53.8287
21
-76.33
0
LINE
8
BLACK
6
CONTINUOUS
10
47.5383
20
-71.7527
11
45.7656
21
-72.0653
0
LINE
8
BLACK
6
CONTINUOUS
10
45.7656
20
-72.0653
11
46.2519
21
-74.8228
0
LINE
8
BLACK
6
CONTINUOUS
10
54.4079
20
-76.7355
11
59.4304
21
-75.8499
0
LINE
8
BLACK
6
CONTINUOUS
10
59.2221
20
-74.6682
11
60.9947
21
-74.3556
0
LINE
8
BLACK
6
CONTINUOUS
10
46.2519
20
-74.8228
11
48.0245
21
-74.5102
0
LINE
8
BLACK
6
CONTINUOUS
10
58.7532
20
-72.0092
11
58.5622
21
-70.9259
0
LINE
8
BLACK
6
CONTINUOUS
10
47.3646
20
-70.7679
11
48.9403
21
-70.4901
0
LINE
8
BLACK
6
CONTINUOUS
10
53.3603
20
-70.2184
11
53.4124
21
-70.5139
0
LINE
8
BLACK
6
CONTINUOUS
10
48.2329
20
-75.692
11
52.2706
21
-74.98
0
LINE
8
BLACK
6
CONTINUOUS
10
48.0245
20
-74.5102
11
48.2329
21
-75.692
0
ARC
8
BLACK
10
49.5836
20
-68.9551
40
0.899999
50
-350
51
-170
0
ARC
8
BLACK
10
52.4963
20
-76.2603
40
1.3
50
9.99994
51
100
0
ARC
8
BLACK
10
54.6927
20
-70.2882
40
1.3
50
-170
51
-80
0
CIRCLE
8
BLACK
10
60.4164
20
-67.045
40
0.9
0
CIRCLE
8
BLACK
10
55
20
-68
40
1.75
0
LINE
8
BLACK
6
CONTINUOUS
10
124.995
20
-52.6446
11
125.4
21
-53.2239
0
LINE
8
BLACK
6
CONTINUOUS
10
121.397
20
-50.5887
11
121.154
21
-51.9674
0
LINE
8
BLACK
6
CONTINUOUS
10
123.75
20
-59.127
11
123.802
21
-58.8316
0
LINE
8
BLACK
6
CONTINUOUS
10
131.159
20
-59.7226
11
131.628
21
-57.0636
0
LINE
8
BLACK
6
CONTINUOUS
10
119.578
20
-51.6896
11
119.405
21
-52.6744
0
LINE
8
BLACK
6
CONTINUOUS
10
124.995
20
-52.6446
11
122.927
21
-52.28
0
LINE
8
BLACK
6
CONTINUOUS
10
129.178
20
-60.5918
11
129.387
21
-59.4101
0
LINE
8
BLACK
6
CONTINUOUS
10
130.047
20
-55.6678
11
126.403
21
-55.0253
0
LINE
8
BLACK
6
CONTINUOUS
10
131.628
20
-57.0636
11
129.856
21
-56.7511
0
LINE
8
BLACK
6
CONTINUOUS
10
123.17
20
-50.9012
11
122.927
21
-52.28
0
LINE
8
BLACK
6
CONTINUOUS
10
124.156
20
-59.7062
11
123.75
21
-59.127
0
LINE
8
BLACK
6
CONTINUOUS
10
119.405
20
-52.6744
11
117.632
21
-52.3618
0
LINE
8
BLACK
6
CONTINUOUS
10
117.632
20
-52.3618
11
117.146
21
-55.1193
0
LINE
8
BLACK
6
CONTINUOUS
10
124.156
20
-59.7062
11
129.178
21
-60.5918
0
LINE
8
BLACK
6
CONTINUOUS
10
129.387
20
-59.4101
11
131.159
21
-59.7226
0
LINE
8
BLACK
6
CONTINUOUS
10
117.146
20
-55.1193
11
118.919
21
-55.4318
0
LINE
8
BLACK
6
CONTINUOUS
10
129.856
20
-56.7511
11
130.047
21
-55.6678
0
LINE
8
BLACK
6
CONTINUOUS
10
119.578
20
-51.6896
11
121.154
21
-51.9674
0
LINE
8
BLACK
6
CONTINUOUS
10
125.4
20
-53.2239
11
125.348
21
-53.5193
0
LINE
8
BLACK
6
CONTINUOUS
10
118.71
20
-56.6136
11
122.748
21
-57.3256
0
LINE
8
BLACK
6
CONTINUOUS
10
118.919
20
-55.4318
11
118.71
21
-56.6136
0
ARC
8
BLACK
10
122.284
20
-50.745
40
0.899999
50
-9.99998
51
170
0
ARC
8
BLACK
10
122.522
20
-58.6058
40
1.3
50
-10
51
80.0001
0
ARC
8
BLACK
10
126.629
20
-53.745
40
1.3
50
-190
51
-99.9999
0
CIRCLE
8
BLACK
10
133.116
20
-52.6551
40
0.9
0
CIRCLE
8
BLACK
10
127.7
20
-51.7
40
1.75
0
LINE
8
BLACK
6
CONTINUOUS
10
-113.368
20
-32.1126
11
-112.827
21
-32.5671
0
LINE
8
BLACK
6
CONTINUOUS
10
-117.376
20
-31.0578
11
-117.254
21
-32.4525
0
LINE
8
BLACK
6
CONTINUOUS
10
-112.893
20
-38.6962
11
-112.919
21
-38.3973
0
LINE
8
BLACK
6
CONTINUOUS
10
-105.582
20
-37.3539
11
-105.817
21
-34.6642
0
LINE
8
BLACK
6
CONTINUOUS
10
-118.848
20
-32.5919
11
-118.76
21
-33.5881
0
LINE
8
BLACK
6
CONTINUOUS
10
-113.368
20
-32.1126
11
-115.46
21
-32.2956
0
LINE
8
BLACK
6
CONTINUOUS
10
-107.271
20
-38.7062
11
-107.375
21
-37.5108
0
LINE
8
BLACK
6
CONTINUOUS
10
-107.706
20
-33.7252
11
-111.392
21
-34.0477
0
LINE
8
BLACK
6
CONTINUOUS
10
-105.817
20
-34.6642
11
-107.61
21
-34.8211
0
LINE
8
BLACK
6
CONTINUOUS
10
-115.582
20
-30.9009
11
-115.46
21
-32.2956
0
LINE
8
BLACK
6
CONTINUOUS
10
-112.351
20
-39.1507
11
-112.893
21
-38.6962
0
LINE
8
BLACK
6
CONTINUOUS
10
-118.76
20
-33.5881
11
-120.554
21
-33.745
0
LINE
8
BLACK
6
CONTINUOUS
10
-120.554
20
-33.745
11
-120.309
21
-36.5344
0
LINE
8
BLACK
6
CONTINUOUS
10
-112.351
20
-39.1507
11
-107.271
21
-38.7062
0
LINE
8
BLACK
6
CONTINUOUS
10
-107.375
20
-37.5108
11
-105.582
21
-37.3539
0
LINE
8
BLACK
6
CONTINUOUS
10
-120.309
20
-36.5344
11
-118.516
21
-36.3775
0
LINE
8
BLACK
6
CONTINUOUS
10
-107.61
20
-34.8211
11
-107.706
21
-33.7252
0
LINE
8
BLACK
6
CONTINUOUS
10
-118.848
20
-32.5919
11
-117.254
21
-32.4525
0
LINE
8
BLACK
6
CONTINUOUS
10
-112.827
20
-32.5671
11
-112.801
21
-32.866
0
LINE
8
BLACK
6
CONTINUOUS
10
-118.412
20
-37.5729
11
-114.327
21
-37.2156
0
LINE
8
BLACK
6
CONTINUOUS
10
-118.516
20
-36.3775
11
-118.412
21
-37.5729
0
ARC
8
BLACK
10
-116.479
20
-30.9794
40
0.899999
50
-355
51
-175
0
ARC
8
BLACK
10
-114.214
20
-38.5106
40
1.3
50
4.99994
51
95.0001
0
ARC
8
BLACK
10
-111.506
20
-32.7527
40
1.3
50
-175
51
-84.9999
0
CIRCLE
8
BLACK
10
-105.521
20
-30.0207
40
0.9
0
CIRCLE
8
BLACK
10
-111
20
-30.5
40
1.75
0
LINE
8
BLACK
6
CONTINUOUS
10
70.5
20
-31.9
11
71
21
-32.4
0
LINE
8
BLACK
6
CONTINUOUS
10
66.6
20
-30.5
11
66.6
21
-31.9
0
LINE
8
BLACK
6
CONTINUOUS
10
70.4
20
-38.5
11
70.4
21
-38.2
0
LINE
8
BLACK
6
CONTINUOUS
10
77.8
20
-37.8
11
77.8
21
-35.1
0
LINE
8
BLACK
6
CONTINUOUS
10
65
20
-31.9
11
65
21
-32.9
0
LINE
8
BLACK
6
CONTINUOUS
10
70.5
20
-31.9
11
68.4
21
-31.9
0
LINE
8
BLACK
6
CONTINUOUS
10
76
20
-39
11
76
21
-37.8
0
LINE
8
BLACK
6
CONTINUOUS
10
76
20
-34
11
72.3
21
-34
0
LINE
8
BLACK
6
CONTINUOUS
10
77.8
20
-35.1
11
76
21
-35.1
0
LINE
8
BLACK
6
CONTINUOUS
10
68.4
20
-30.5
11
68.4
21
-31.9
0
LINE
8
BLACK
6
CONTINUOUS
10
70.9
20
-39
11
70.4
21
-38.5
0
LINE
8
BLACK
6
CONTINUOUS
10
65
20
-32.9
11
63.2
21
-32.9
0
LINE
8
BLACK
6
CONTINUOUS
10
63.2
20
-32.9
11
63.2
21
-35.7
0
LINE
8
BLACK
6
CONTINUOUS
10
70.9
20
-39
11
76
21
-39
0
LINE
8
BLACK
6
CONTINUOUS
10
76
20
-37.8
11
77.8
21
-37.8
0
LINE
8
BLACK
6
CONTINUOUS
10
63.2
20
-35.7
11
65
21
-35.7
0
LINE
8
BLACK
6
CONTINUOUS
10
76
20
-35.1
11
76
21
-34
0
LINE
8
BLACK
6
CONTINUOUS
10
65
20
-31.9
11
66.6
21
-31.9
0
LINE
8
BLACK
6
CONTINUOUS
10
71
20
-32.4
11
71
21
-32.7
0
LINE
8
BLACK
6
CONTINUOUS
10
65
20
-36.9
11
69.1
21
-36.9
0
LINE
8
BLACK
6
CONTINUOUS
10
65
20
-35.7
11
65
21
-36.9
0
ARC
8
BLACK
10
67.5
20
-30.5
40
0.9
50
-0
51
180
0
ARC
8
BLACK
10
69.1
20
-38.2
40
1.3
50
-4.40737e-05
51
90
0
ARC
8
BLACK
10
72.3
20
-32.7
40
1.3
50
-180
51
-90
0
CIRCLE
8
BLACK
10
78.5
20
-30.5
40
0.9
0
CIRCLE
8
BLACK
10
73
20
-30.5
40
1.75
0
LINE
8
BLACK
6
CONTINUOUS
10
-132.986
20
-36.7433
11
-132.407
21
-37.1489
0
LINE
8
BLACK
6
CONTINUOUS
10
-137.07
20
-36.0418
11
-136.827
21
-37.4205
0
LINE
8
BLACK
6
CONTINUOUS
10
-131.938
20
-43.2604
11
-131.99
21
-42.965
0
LINE
8
BLACK
6
CONTINUOUS
10
-124.772
20
-41.286
11
-125.241
21
-38.6271
0
LINE
8
BLACK
6
CONTINUOUS
10
-138.402
20
-37.6984
11
-138.229
21
-38.6832
0
LINE
8
BLACK
6
CONTINUOUS
10
-132.986
20
-36.7433
11
-135.054
21
-37.108
0
LINE
8
BLACK
6
CONTINUOUS
10
-126.337
20
-42.7804
11
-126.545
21
-41.5986
0
LINE
8
BLACK
6
CONTINUOUS
10
-127.205
20
-37.8563
11
-130.849
21
-38.4988
0
LINE
8
BLACK
6
CONTINUOUS
10
-125.241
20
-38.6271
11
-127.014
21
-38.9396
0
LINE
8
BLACK
6
CONTINUOUS
10
-135.297
20
-35.7292
11
-135.054
21
-37.108
0
LINE
8
BLACK
6
CONTINUOUS
10
-131.359
20
-43.666
11
-131.938
21
-43.2604
0
LINE
8
BLACK
6
CONTINUOUS
10
-138.229
20
-38.6832
11
-140.001
21
-38.9957
0
LINE
8
BLACK
6
CONTINUOUS
10
-140.001
20
-38.9957
11
-139.515
21
-41.7532
0
LINE
8
BLACK
6
CONTINUOUS
10
-131.359
20
-43.666
11
-126.337
21
-42.7804
0
LINE
8
BLACK
6
CONTINUOUS
10
-126.545
20
-41.5986
11
-124.772
21
-41.286
0
LINE
8
BLACK
6
CONTINUOUS
10
-139.515
20
-41.7532
11
-137.742
21
-41.4406
0
LINE
8
BLACK
6
CONTINUOUS
10
-127.014
20
-38.9396
11
-127.205
21
-37.8563
0
LINE
8
BLACK
6
CONTINUOUS
10
-138.402
20
-37.6984
11
-136.827
21
-37.4205
0
LINE
8
BLACK
6
CONTINUOUS
10
-132.407
20
-37.1489
11
-132.355
21
-37.4443
0
LINE
8
BLACK
6
CONTINUOUS
10
-137.534
20
-42.6224
11
-133.496
21
-41.9104
0
LINE
8
BLACK
6
CONTINUOUS
10
-137.742
20
-41.4406
11
-137.534
21
-42.6224
0
ARC
8
BLACK
10
-136.183
20
-35.8855
40
0.899999
50
-350
51
-170
0
ARC
8
BLACK
10
-133.271
20
-43.1907
40
1.3
50
9.99994
51
100
0
ARC
8
BLACK
10
-131.074
20
-37.2186
40
1.3
50
-170
51
-80
0
CIRCLE
8
BLACK
10
-125.351
20
-33.9754
40
0.9
0
CIRCLE
8
BLACK
10
-130.767
20
-34.9305
40
1.75
0
LINE
8
BLACK
6
CONTINUOUS
10
127.995
20
-35.8446
11
128.4
21
-36.4239
0
LINE
8
BLACK
6
CONTINUOUS
10
124.397
20
-33.7887
11
124.154
21
-35.1674
0
LINE
8
BLACK
6
CONTINUOUS
10
126.75
20
-42.327
11
126.802
21
-42.0316
0
LINE
8
BLACK
6
CONTINUOUS
10
134.159
20
-42.9226
11
134.628
21
-40.2637
0
LINE
8
BLACK
6
CONTINUOUS
10
122.578
20
-34.8896
11
122.405
21
-35.8744
0
LINE
8
BLACK
6
CONTINUOUS
10
127.995
20
-35.8446
11
125.927
21
-35.48
0
LINE
8
BLACK
6
CONTINUOUS
10
132.178
20
-43.7918
11
132.387
21
-42.6101
0
LINE
8
BLACK
6
CONTINUOUS
10
133.047
20
-38.8678
11
129.403
21
-38.2253
0
LINE
8
BLACK
6
CONTINUOUS
10
134.628
20
-40.2637
11
132.856
21
-39.9511
0
LINE
8
BLACK
6
CONTINUOUS
10
126.17
20
-34.1012
11
125.927
21
-35.48
0
LINE
8
BLACK
6
CONTINUOUS
10
127.156
20
-42.9062
11
126.75
21
-42.327
0
LINE
8
BLACK
6
CONTINUOUS
10
122.405
20
-35.8744
11
120.632
21
-35.5618
0
LINE
8
BLACK
6
CONTINUOUS
10
120.632
20
-35.5618
11
120.146
21
-38.3193
0
LINE
8
BLACK
6
CONTINUOUS
10
127.156
20
-42.9062
11
132.178
21
-43.7918
0
LINE
8
BLACK
6
CONTINUOUS
10
132.387
20
-42.6101
11
134.159
21
-42.9226
0
LINE
8
BLACK
6
CONTINUOUS
10
120.146
20
-38.3193
11
121.919
21
-38.6318
0
LINE
8
BLACK
6
CONTINUOUS
10
132.856
20
-39.9511
11
133.047
21
-38.8678
0
LINE
8
BLACK
6
CONTINUOUS
10
122.578
20
-34.8896
11
124.154
21
-35.1674
0
LINE
8
BLACK
6
CONTINUOUS
10
128.4
20
-36.4239
11
128.348
21
-36.7193
0
LINE
8
BLACK
6
CONTINUOUS
10
121.71
20
-39.8136
11
125.748
21
-40.5256
0
LINE
8
BLACK
6
CONTINUOUS
10
121.919
20
-38.6318
11
121.71
21
-39.8136
0
ARC
8
BLACK
10
125.284
20
-33.945
40
0.899999
50
-9.99998
51
170
0
ARC
8
BLACK
10
125.522
20
-41.8058
40
1.3
50
-10
51
80.0001
0
ARC
8
BLACK
10
129.629
20
-36.945
40
1.3
50
-190
51
-99.9999
0
CIRCLE
8
BLACK
10
136.116
20
-35.8551
40
0.9
0
CIRCLE
8
BLACK
10
130.7
20
-34.9
40
1.75
0
LINE
8
BLACK
6
CONTINUOUS
10
108.387
20
-31.6768
11
108.842
21
-32.2185
0
LINE
8
BLACK
6
CONTINUOUS
10
104.624
20
-29.9422
11
104.502
21
-31.3369
0
LINE
8
BLACK
6
CONTINUOUS
10
107.713
20
-38.243
11
107.739
21
-37.9441
0
LINE
8
BLACK
6
CONTINUOUS
10
115.145
20
-38.1906
11
115.381
21
-35.5009
0
LINE
8
BLACK
6
CONTINUOUS
10
102.908
20
-31.1974
11
102.821
21
-32.1936
0
LINE
8
BLACK
6
CONTINUOUS
10
108.387
20
-31.6768
11
106.295
21
-31.4938
0
LINE
8
BLACK
6
CONTINUOUS
10
113.248
20
-39.2291
11
113.352
21
-38.0337
0
LINE
8
BLACK
6
CONTINUOUS
10
113.684
20
-34.2482
11
109.998
21
-33.9257
0
LINE
8
BLACK
6
CONTINUOUS
10
115.381
20
-35.5009
11
113.588
21
-35.344
0
LINE
8
BLACK
6
CONTINUOUS
10
106.418
20
-30.0991
11
106.295
21
-31.4938
0
LINE
8
BLACK
6
CONTINUOUS
10
108.167
20
-38.7846
11
107.713
21
-38.243
0
LINE
8
BLACK
6
CONTINUOUS
10
102.821
20
-32.1936
11
101.028
21
-32.0368
0
LINE
8
BLACK
6
CONTINUOUS
10
101.028
20
-32.0368
11
100.784
21
-34.8261
0
LINE
8
BLACK
6
CONTINUOUS
10
108.167
20
-38.7846
11
113.248
21
-39.2291
0
LINE
8
BLACK
6
CONTINUOUS
10
113.352
20
-38.0337
11
115.145
21
-38.1906
0
LINE
8
BLACK
6
CONTINUOUS
10
100.784
20
-34.8261
11
102.577
21
-34.983
0
LINE
8
BLACK
6
CONTINUOUS
10
113.588
20
-35.344
11
113.684
21
-34.2482
0
LINE
8
BLACK
6
CONTINUOUS
10
102.908
20
-31.1974
11
104.502
21
-31.3369
0
LINE
8
BLACK
6
CONTINUOUS
10
108.842
20
-32.2185
11
108.816
21
-32.5173
0
LINE
8
BLACK
6
CONTINUOUS
10
102.473
20
-36.1784
11
106.557
21
-36.5358
0
LINE
8
BLACK
6
CONTINUOUS
10
102.577
20
-34.983
11
102.473
21
-36.1784
0
ARC
8
BLACK
10
105.521
20
-30.0207
40
0.899999
50
-5.00005
51
175
0
ARC
8
BLACK
10
106.444
20
-37.8308
40
1.3
50
-5.00003
51
85.0001
0
ARC
8
BLACK
10
110.111
20
-32.6306
40
1.3
50
-185
51
-94.9999
0
CIRCLE
8
BLACK
10
116.479
20
-30.9794
40
0.900001
0
CIRCLE
8
BLACK
10
111
20
-30.5
40
1.75
0
LINE
8
BLACK
6
CONTINUOUS
10
-75.5
20
-48.9
11
-75
21
-49.4
0
LINE
8
BLACK
6
CONTINUOUS
10
-79.4
20
-47.5
11
-79.4
21
-48.9
0
LINE
8
BLACK
6
CONTINUOUS
10
-75.6
20
-55.5
11
-75.6
21
-55.2
0
LINE
8
BLACK
6
CONTINUOUS
10
-68.2
20
-54.8
11
-68.2
21
-52.1
0
LINE
8
BLACK
6
CONTINUOUS
10
-81
20
-48.9
11
-81
21
-49.9
0
LINE
8
BLACK
6
CONTINUOUS
10
-75.5
20
-48.9
11
-77.6
21
-48.9
0
LINE
8
BLACK
6
CONTINUOUS
10
-70
20
-56
11
-70
21
-54.8
0
LINE
8
BLACK
6
CONTINUOUS
10
-70
20
-51
11
-73.7
21
-51
0
LINE
8
BLACK
6
CONTINUOUS
10
-68.2
20
-52.1
11
-70
21
-52.1
0
LINE
8
BLACK
6
CONTINUOUS
10
-77.6
20
-47.5
11
-77.6
21
-48.9
0
LINE
8
BLACK
6
CONTINUOUS
10
-75.1
20
-56
11
-75.6
21
-55.5
0
LINE
8
BLACK
6
CONTINUOUS
10
-81
20
-49.9
11
-82.8
21
-49.9
0
LINE
8
BLACK
6
CONTINUOUS
10
-82.8
20
-49.9
11
-82.8
21
-52.7
0
LINE
8
BLACK
6
CONTINUOUS
10
-75.1
20
-56
11
-70
21
-56
0
LINE
8
BLACK
6
CONTINUOUS
10
-70
20
-54.8
11
-68.2
21
-54.8
0
LINE
8
BLACK
6
CONTINUOUS
10
-82.8
20
-52.7
11
-81
21
-52.7
0
LINE
8
BLACK
6
CONTINUOUS
10
-70
20
-52.1
11
-70
21
-51
0
LINE
8
BLACK
6
CONTINUOUS
10
-81
20
-48.9
11
-79.4
21
-48.9
0
LINE
8
BLACK
6
CONTINUOUS
10
-75
20
-49.4
11
-75
21
-49.7
0
LINE
8
BLACK
6
CONTINUOUS
10
-81
20
-53.9
11
-76.9
21
-53.9
0
LINE
8
BLACK
6
CONTINUOUS
10
-81
20
-52.7
11
-81
21
-53.9
0
ARC
8
BLACK
10
-78.5
20
-47.5
40
0.9
50
-0
51
180
0
ARC
8
BLACK
10
-76.9
20
-55.2
40
1.3
50
-4.40737e-05
51
90
0
ARC
8
BLACK
10
-73.7
20
-49.7
40
1.3
50
-180
51
-90
0
CIRCLE
8
BLACK
10
-67.5
20
-47.5
40
0.9
0
CIRCLE
8
BLACK
10
-73
20
-47.5
40
1.75
0
LINE
8
BLACK
6
CONTINUOUS
10
-111.868
20
-49.1126
11
-111.327
21
-49.5671
0
LINE
8
BLACK
6
CONTINUOUS
10
-115.876
20
-48.0578
11
-115.754
21
-49.4525
0
LINE
8
BLACK
6
CONTINUOUS
10
-111.393
20
-55.6962
11
-111.419
21
-55.3973
0
LINE
8
BLACK
6
CONTINUOUS
10
-104.082
20
-54.3539
11
-104.317
21
-51.6642
0
LINE
8
BLACK
6
CONTINUOUS
10
-117.348
20
-49.5919
11
-117.26
21
-50.5881
0
LINE
8
BLACK
6
CONTINUOUS
10
-111.868
20
-49.1126
11
-113.96
21
-49.2956
0
LINE
8
BLACK
6
CONTINUOUS
10
-105.771
20
-55.7062
11
-105.875
21
-54.5108
0
LINE
8
BLACK
6
CONTINUOUS
10
-106.206
20
-50.7252
11
-109.892
21
-51.0477
0
LINE
8
BLACK
6
CONTINUOUS
10
-104.317
20
-51.6642
11
-106.111
21
-51.821
0
LINE
8
BLACK
6
CONTINUOUS
10
-114.082
20
-47.9009
11
-113.96
21
-49.2956
0
LINE
8
BLACK
6
CONTINUOUS
10
-110.851
20
-56.1507
11
-111.393
21
-55.6962
0
LINE
8
BLACK
6
CONTINUOUS
10
-117.26
20
-50.5881
11
-119.054
21
-50.745
0
LINE
8
BLACK
6
CONTINUOUS
10
-119.054
20
-50.745
11
-118.81
21
-53.5343
0
LINE
8
BLACK
6
CONTINUOUS
10
-110.851
20
-56.1507
11
-105.771
21
-55.7062
0
LINE
8
BLACK
6
CONTINUOUS
10
-105.875
20
-54.5108
11
-104.082
21
-54.3539
0
LINE
8
BLACK
6
CONTINUOUS
10
-118.81
20
-53.5343
11
-117.016
21
-53.3775
0
LINE
8
BLACK
6
CONTINUOUS
10
-106.111
20
-51.821
11
-106.206
21
-50.7252
0
LINE
8
BLACK
6
CONTINUOUS
10
-117.348
20
-49.5919
11
-115.754
21
-49.4525
0
LINE
8
BLACK
6
CONTINUOUS
10
-111.327
20
-49.5671
11
-111.301
21
-49.8659
0
LINE
8
BLACK
6
CONTINUOUS
10
-116.912
20
-54.5729
11
-112.827
21
-54.2156
0
LINE
8
BLACK
6
CONTINUOUS
10
-117.016
20
-53.3775
11
-116.912
21
-54.5729
0
ARC
8
BLACK
10
-114.979
20
-47.9794
40
0.899999
50
-355
51
-175
0
ARC
8
BLACK
10
-112.714
20
-55.5106
40
1.3
50
4.99994
51
95.0001
0
ARC
8
BLACK
10
-110.006
20
-49.7526
40
1.3
50
-175
51
-84.9999
0
CIRCLE
8
BLACK
10
-104.021
20
-47.0207
40
0.9
0
CIRCLE
8
BLACK
10
-109.5
20
-47.5
40
1.75
0
LINE
8
BLACK
6
CONTINUOUS
10
70.5
20
-14.9
11
71
21
-15.4
0
LINE
8
BLACK
6
CONTINUOUS
10
66.6
20
-13.5
11
66.6
21
-14.9
0
LINE
8
BLACK
6
CONTINUOUS
10
70.4
20
-21.5
11
70.4
21
-21.2
0
LINE
8
BLACK
6
CONTINUOUS
10
77.8
20
-20.8
11
77.8
21
-18.1
0
LINE
8
BLACK
6
CONTINUOUS
10
65
20
-14.9
11
65
21
-15.9
0
LINE
8
BLACK
6
CONTINUOUS
10
70.5
20
-14.9
11
68.4
21
-14.9
0
LINE
8
BLACK
6
CONTINUOUS
10
76
20
-22
11
76
21
-20.8
0
LINE
8
BLACK
6
CONTINUOUS
10
76
20
-17
11
72.3
21
-17
0
LINE
8
BLACK
6
CONTINUOUS
10
77.8
20
-18.1
11
76
21
-18.1
0
LINE
8
BLACK
6
CONTINUOUS
10
68.4
20
-13.5
11
68.4
21
-14.9
0
LINE
8
BLACK
6
CONTINUOUS
10
70.9
20
-22
11
70.4
21
-21.5
0
LINE
8
BLACK
6
CONTINUOUS
10
65
20
-15.9
11
63.2
21
-15.9
0
LINE
8
BLACK
6
CONTINUOUS
10
63.2
20
-15.9
11
63.2
21
-18.7
0
LINE
8
BLACK
6
CONTINUOUS
10
70.9
20
-22
11
76
21
-22
0
LINE
8
BLACK
6
CONTINUOUS
10
76
20
-20.8
11
77.8
21
-20.8
0
LINE
8
BLACK
6
CONTINUOUS
10
63.2
20
-18.7
11
65
21
-18.7
0
LINE
8
BLACK
6
CONTINUOUS
10
76
20
-18.1
11
76
21
-17
0
LINE
8
BLACK
6
CONTINUOUS
10
65
20
-14.9
11
66.6
21
-14.9
0
LINE
8
BLACK
6
CONTINUOUS
10
71
20
-15.4
11
71
21
-15.7
0
LINE
8
BLACK
6
CONTINUOUS
10
65
20
-19.9
11
69.1
21
-19.9
0
LINE
8
BLACK
6
CONTINUOUS
10
65
20
-18.7
11
65
21
-19.9
0
ARC
8
BLACK
10
67.5
20
-13.5
40
0.9
50
-0
51
180
0
ARC
8
BLACK
10
69.1
20
-21.2
40
1.3
50
-4.40737e-05
51
90
0
ARC
8
BLACK
10
72.3
20
-15.7
40
1.3
50
-180
51
-90
0
CIRCLE
8
BLACK
10
78.5
20
-13.5
40
0.9
0
CIRCLE
8
BLACK
10
73
20
-13.5
40
1.75
0
LINE
8
BLACK
6
CONTINUOUS
10
-151.233
20
-36.9145
11
-150.654
21
-37.3201
0
LINE
8
BLACK
6
CONTINUOUS
10
-155.317
20
-36.213
11
-155.074
21
-37.5918
0
LINE
8
BLACK
6
CONTINUOUS
10
-150.186
20
-43.4316
11
-150.238
21
-43.1362
0
LINE
8
BLACK
6
CONTINUOUS
10
-143.02
20
-41.4573
11
-143.489
21
-38.7983
0
LINE
8
BLACK
6
CONTINUOUS
10
-156.65
20
-37.8696
11
-156.476
21
-38.8544
0
LINE
8
BLACK
6
CONTINUOUS
10
-151.233
20
-36.9145
11
-153.301
21
-37.2792
0
LINE
8
BLACK
6
CONTINUOUS
10
-144.584
20
-42.9516
11
-144.792
21
-41.7698
0
LINE
8
BLACK
6
CONTINUOUS
10
-145.452
20
-38.0276
11
-149.096
21
-38.6701
0
LINE
8
BLACK
6
CONTINUOUS
10
-143.489
20
-38.7983
11
-145.261
21
-39.1109
0
LINE
8
BLACK
6
CONTINUOUS
10
-153.545
20
-35.9005
11
-153.301
21
-37.2792
0
LINE
8
BLACK
6
CONTINUOUS
10
-149.607
20
-43.8372
11
-150.186
21
-43.4316
0
LINE
8
BLACK
6
CONTINUOUS
10
-156.476
20
-38.8544
11
-158.249
21
-39.167
0
LINE
8
BLACK
6
CONTINUOUS
10
-158.249
20
-39.167
11
-157.763
21
-41.9244
0
LINE
8
BLACK
6
CONTINUOUS
10
-149.607
20
-43.8372
11
-144.584
21
-42.9516
0
LINE
8
BLACK
6
CONTINUOUS
10
-144.792
20
-41.7698
11
-143.02
21
-41.4573
0
LINE
8
BLACK
6
CONTINUOUS
10
-157.763
20
-41.9244
11
-155.99
21
-41.6119
0
LINE
8
BLACK
6
CONTINUOUS
10
-145.261
20
-39.1109
11
-145.452
21
-38.0276
0
LINE
8
BLACK
6
CONTINUOUS
10
-156.65
20
-37.8696
11
-155.074
21
-37.5918
0
LINE
8
BLACK
6
CONTINUOUS
10
-150.654
20
-37.3201
11
-150.602
21
-37.6156
0
LINE
8
BLACK
6
CONTINUOUS
10
-155.782
20
-42.7936
11
-151.744
21
-42.0817
0
LINE
8
BLACK
6
CONTINUOUS
10
-155.99
20
-41.6119
11
-155.782
21
-42.7936
0
ARC
8
BLACK
10
-154.431
20
-36.0567
40
0.899999
50
-350
51
-170
0
ARC
8
BLACK
10
-151.518
20
-43.3619
40
1.3
50
9.99994
51
100
0
ARC
8
BLACK
10
-149.322
20
-37.3898
40
1.3
50
-170
51
-80
0
CIRCLE
8
BLACK
10
-143.598
20
-34.1466
40
0.9
0
CIRCLE
8
BLACK
10
-149.014
20
-35.1017
40
1.75
0
LINE
8
BLACK
6
CONTINUOUS
10
34.1296
20
-75.6706
11
34.7704
21
-75.9695
0
LINE
8
BLACK
6
CONTINUOUS
10
29.986
20
-75.6889
11
30.4648
21
-77.0045
0
LINE
8
BLACK
6
CONTINUOUS
10
36.293
20
-81.9068
11
36.1903
21
-81.6249
0
LINE
8
BLACK
6
CONTINUOUS
10
43.0073
20
-78.7181
11
42.0838
21
-76.1809
0
LINE
8
BLACK
6
CONTINUOUS
10
28.9613
20
-77.5517
11
29.3033
21
-78.4914
0
LINE
8
BLACK
6
CONTINUOUS
10
34.1296
20
-75.6706
11
32.1562
21
-76.3889
0
LINE
8
BLACK
6
CONTINUOUS
10
41.7262
20
-80.4613
11
41.3158
21
-79.3337
0
LINE
8
BLACK
6
CONTINUOUS
10
40.0161
20
-75.7629
11
36.5393
21
-77.0284
0
LINE
8
BLACK
6
CONTINUOUS
10
42.0838
20
-76.1809
11
40.3924
21
-76.7965
0
LINE
8
BLACK
6
CONTINUOUS
10
31.6774
20
-75.0733
11
32.1562
21
-76.3889
0
LINE
8
BLACK
6
CONTINUOUS
10
36.9338
20
-82.2056
11
36.293
21
-81.9068
0
LINE
8
BLACK
6
CONTINUOUS
10
29.3033
20
-78.4914
11
27.6119
21
-79.1071
0
LINE
8
BLACK
6
CONTINUOUS
10
27.6119
20
-79.1071
11
28.5695
21
-81.7382
0
LINE
8
BLACK
6
CONTINUOUS
10
36.9338
20
-82.2056
11
41.7262
21
-80.4613
0
LINE
8
BLACK
6
CONTINUOUS
10
41.3158
20
-79.3337
11
43.0073
21
-78.7181
0
LINE
8
BLACK
6
CONTINUOUS
10
28.5695
20
-81.7382
11
30.261
21
-81.1226
0
LINE
8
BLACK
6
CONTINUOUS
10
40.3924
20
-76.7965
11
40.0161
21
-75.7629
0
LINE
8
BLACK
6
CONTINUOUS
10
28.9613
20
-77.5517
11
30.4648
21
-77.0045
0
LINE
8
BLACK
6
CONTINUOUS
10
34.7704
20
-75.9695
11
34.8731
21
-76.2514
0
LINE
8
BLACK
6
CONTINUOUS
10
30.6714
20
-82.2502
11
34.5241
21
-80.8479
0
LINE
8
BLACK
6
CONTINUOUS
10
30.261
20
-81.1226
11
30.6714
21
-82.2502
0
ARC
8
BLACK
10
30.8317
20
-75.3811
40
0.9
50
-340
51
-160
0
ARC
8
BLACK
10
34.9688
20
-82.0695
40
1.3
50
19.9999
51
110
0
ARC
8
BLACK
10
36.0947
20
-75.8068
40
1.3
50
-160
51
-69.9999
0
CIRCLE
8
BLACK
10
41.1683
20
-71.6189
40
0.9
0
CIRCLE
8
BLACK
10
36
20
-73.5
40
1.75
0
LINE
8
BLACK
6
CONTINUOUS
10
52.5
20
-16.9
11
53
21
-17.4
0
LINE
8
BLACK
6
CONTINUOUS
10
48.6
20
-15.5
11
48.6
21
-16.9
0
LINE
8
BLACK
6
CONTINUOUS
10
52.4
20
-23.5
11
52.4
21
-23.2
0
LINE
8
BLACK
6
CONTINUOUS
10
59.8
20
-22.8
11
59.8
21
-20.1
0
LINE
8
BLACK
6
CONTINUOUS
10
47
20
-16.9
11
47
21
-17.9
0
LINE
8
BLACK
6
CONTINUOUS
10
52.5
20
-16.9
11
50.4
21
-16.9
0
LINE
8
BLACK
6
CONTINUOUS
10
58
20
-24
11
58
21
-22.8
0
LINE
8
BLACK
6
CONTINUOUS
10
58
20
-19
11
54.3
21
-19
0
LINE
8
BLACK
6
CONTINUOUS
10
59.8
20
-20.1
11
58
21
-20.1
0
LINE
8
BLACK
6
CONTINUOUS
10
50.4
20
-15.5
11
50.4
21
-16.9
0
LINE
8
BLACK
6
CONTINUOUS
10
52.9
20
-24
11
52.4
21
-23.5
0
LINE
8
BLACK
6
CONTINUOUS
10
47
20
-17.9
11
45.2
21
-17.9
0
LINE
8
BLACK
6
CONTINUOUS
10
45.2
20
-17.9
11
45.2
21
-20.7
0
LINE
8
BLACK
6
CONTINUOUS
10
52.9
20
-24
11
58
21
-24
0
LINE
8
BLACK
6
CONTINUOUS
10
58
20
-22.8
11
59.8
21
-22.8
0
LINE
8
BLACK
6
CONTINUOUS
10
45.2
20
-20.7
11
47
21
-20.7
0
LINE
8
BLACK
6
CONTINUOUS
10
58
20
-20.1
11
58
21
-19
0
LINE
8
BLACK
6
CONTINUOUS
10
47
20
-16.9
11
48.6
21
-16.9
0
LINE
8
BLACK
6
CONTINUOUS
10
53
20
-17.4
11
53
21
-17.7
0
LINE
8
BLACK
6
CONTINUOUS
10
47
20
-21.9
11
51.1
21
-21.9
0
LINE
8
BLACK
6
CONTINUOUS
10
47
20
-20.7
11
47
21
-21.9
0
ARC
8
BLACK
10
49.5
20
-15.5
40
0.9
50
-0
51
180
0
ARC
8
BLACK
10
51.1
20
-23.2
40
1.3
50
-4.40737e-05
51
90
0
ARC
8
BLACK
10
54.3
20
-17.7
40
1.3
50
-180
51
-90
0
CIRCLE
8
BLACK
10
60.5
20
-15.5
40
0.9
0
CIRCLE
8
BLACK
10
55
20
-15.5
40
1.75
0
LINE
8
BLACK
6
CONTINUOUS
10
-75.5
20
-31.9
11
-75
21
-32.4
0
LINE
8
BLACK
6
CONTINUOUS
10
-79.4
20
-30.5
11
-79.4
21
-31.9
0
LINE
8
BLACK
6
CONTINUOUS
10
-75.6
20
-38.5
11
-75.6
21
-38.2
0
LINE
8
BLACK
6
CONTINUOUS
10
-68.2
20
-37.8
11
-68.2
21
-35.1
0
LINE
8
BLACK
6
CONTINUOUS
10
-81
20
-31.9
11
-81
21
-32.9
0
LINE
8
BLACK
6
CONTINUOUS
10
-75.5
20
-31.9
11
-77.6
21
-31.9
0
LINE
8
BLACK
6
CONTINUOUS
10
-70
20
-39
11
-70
21
-37.8
0
LINE
8
BLACK
6
CONTINUOUS
10
-70
20
-34
11
-73.7
21
-34
0
LINE
8
BLACK
6
CONTINUOUS
10
-68.2
20
-35.1
11
-70
21
-35.1
0
LINE
8
BLACK
6
CONTINUOUS
10
-77.6
20
-30.5
11
-77.6
21
-31.9
0
LINE
8
BLACK
6
CONTINUOUS
10
-75.1
20
-39
11
-75.6
21
-38.5
0
LINE
8
BLACK
6
CONTINUOUS
10
-81
20
-32.9
11
-82.8
21
-32.9
0
LINE
8
BLACK
6
CONTINUOUS
10
-82.8
20
-32.9
11
-82.8
21
-35.7
0
LINE
8
BLACK
6
CONTINUOUS
10
-75.1
20
-39
11
-70
21
-39
0
LINE
8
BLACK
6
CONTINUOUS
10
-70
20
-37.8
11
-68.2
21
-37.8
0
LINE
8
BLACK
6
CONTINUOUS
10
-82.8
20
-35.7
11
-81
21
-35.7
0
LINE
8
BLACK
6
CONTINUOUS
10
-70
20
-35.1
11
-70
21
-34
0
LINE
8
BLACK
6
CONTINUOUS
10
-81
20
-31.9
11
-79.4
21
-31.9
0
LINE
8
BLACK
6
CONTINUOUS
10
-75
20
-32.4
11
-75
21
-32.7
0
LINE
8
BLACK
6
CONTINUOUS
10
-81
20
-36.9
11
-76.9
21
-36.9
0
LINE
8
BLACK
6
CONTINUOUS
10
-81
20
-35.7
11
-81
21
-36.9
0
ARC
8
BLACK
10
-78.5
20
-30.5
40
0.9
50
-0
51
180
0
ARC
8
BLACK
10
-76.9
20
-38.2
40
1.3
50
-4.40737e-05
51
90
0
ARC
8
BLACK
10
-73.7
20
-32.7
40
1.3
50
-180
51
-90
0
CIRCLE
8
BLACK
10
-67.5
20
-30.5
40
0.9
0
CIRCLE
8
BLACK
10
-73
20
-30.5
40
1.75
0
LINE
8
BLACK
6
CONTINUOUS
10
-57.5
20
-16.9
11
-57
21
-17.4
0
LINE
8
BLACK
6
CONTINUOUS
10
-61.4
20
-15.5
11
-61.4
21
-16.9
0
LINE
8
BLACK
6
CONTINUOUS
10
-57.6
20
-23.5
11
-57.6
21
-23.2
0
LINE
8
BLACK
6
CONTINUOUS
10
-50.2
20
-22.8
11
-50.2
21
-20.1
0
LINE
8
BLACK
6
CONTINUOUS
10
-63
20
-16.9
11
-63
21
-17.9
0
LINE
8
BLACK
6
CONTINUOUS
10
-57.5
20
-16.9
11
-59.6
21
-16.9
0
LINE
8
BLACK
6
CONTINUOUS
10
-52
20
-24
11
-52
21
-22.8
0
LINE
8
BLACK
6
CONTINUOUS
10
-52
20
-19
11
-55.7
21
-19
0
LINE
8
BLACK
6
CONTINUOUS
10
-50.2
20
-20.1
11
-52
21
-20.1
0
LINE
8
BLACK
6
CONTINUOUS
10
-59.6
20
-15.5
11
-59.6
21
-16.9
0
LINE
8
BLACK
6
CONTINUOUS
10
-57.1
20
-24
11
-57.6
21
-23.5
0
LINE
8
BLACK
6
CONTINUOUS
10
-63
20
-17.9
11
-64.8
21
-17.9
0
LINE
8
BLACK
6
CONTINUOUS
10
-64.8
20
-17.9
11
-64.8
21
-20.7
0
LINE
8
BLACK
6
CONTINUOUS
10
-57.1
20
-24
11
-52
21
-24
0
LINE
8
BLACK
6
CONTINUOUS
10
-52
20
-22.8
11
-50.2
21
-22.8
0
LINE
8
BLACK
6
CONTINUOUS
10
-64.8
20
-20.7
11
-63
21
-20.7
0
LINE
8
BLACK
6
CONTINUOUS
10
-52
20
-20.1
11
-52
21
-19
0
LINE
8
BLACK
6
CONTINUOUS
10
-63
20
-16.9
11
-61.4
21
-16.9
0
LINE
8
BLACK
6
CONTINUOUS
10
-57
20
-17.4
11
-57
21
-17.7
0
LINE
8
BLACK
6
CONTINUOUS
10
-63
20
-21.9
11
-58.9
21
-21.9
0
LINE
8
BLACK
6
CONTINUOUS
10
-63
20
-20.7
11
-63
21
-21.9
0
ARC
8
BLACK
10
-60.5
20
-15.5
40
0.9
50
-0
51
180
0
ARC
8
BLACK
10
-58.9
20
-23.2
40
1.3
50
-4.40737e-05
51
90
0
ARC
8
BLACK
10
-55.7
20
-17.7
40
1.3
50
-180
51
-90
0
CIRCLE
8
BLACK
10
-49.5
20
-15.5
40
0.9
0
CIRCLE
8
BLACK
10
-55
20
-15.5
40
1.75
0
LINE
8
BLACK
6
CONTINUOUS
10
106.887
20
-48.6768
11
107.342
21
-49.2185
0
LINE
8
BLACK
6
CONTINUOUS
10
103.124
20
-46.9422
11
103.002
21
-48.3369
0
LINE
8
BLACK
6
CONTINUOUS
10
106.213
20
-55.243
11
106.239
21
-54.9441
0
LINE
8
BLACK
6
CONTINUOUS
10
113.645
20
-55.1906
11
113.881
21
-52.5009
0
LINE
8
BLACK
6
CONTINUOUS
10
101.408
20
-48.1974
11
101.321
21
-49.1936
0
LINE
8
BLACK
6
CONTINUOUS
10
106.887
20
-48.6768
11
104.795
21
-48.4938
0
LINE
8
BLACK
6
CONTINUOUS
10
111.748
20
-56.2291
11
111.852
21
-55.0337
0
LINE
8
BLACK
6
CONTINUOUS
10
112.184
20
-51.2482
11
108.498
21
-50.9257
0
LINE
8
BLACK
6
CONTINUOUS
10
113.881
20
-52.5009
11
112.088
21
-52.344
0
LINE
8
BLACK
6
CONTINUOUS
10
104.917
20
-47.0991
11
104.795
21
-48.4938
0
LINE
8
BLACK
6
CONTINUOUS
10
106.667
20
-55.7846
11
106.213
21
-55.243
0
LINE
8
BLACK
6
CONTINUOUS
10
101.321
20
-49.1936
11
99.5281
21
-49.0368
0
LINE
8
BLACK
6
CONTINUOUS
10
99.5281
20
-49.0368
11
99.2841
21
-51.8261
0
LINE
8
BLACK
6
CONTINUOUS
10
106.667
20
-55.7846
11
111.748
21
-56.2291
0
LINE
8
BLACK
6
CONTINUOUS
10
111.852
20
-55.0337
11
113.645
21
-55.1906
0
LINE
8
BLACK
6
CONTINUOUS
10
99.2841
20
-51.8261
11
101.077
21
-51.983
0
LINE
8
BLACK
6
CONTINUOUS
10
112.088
20
-52.344
11
112.184
21
-51.2482
0
LINE
8
BLACK
6
CONTINUOUS
10
101.408
20
-48.1974
11
103.002
21
-48.3369
0
LINE
8
BLACK
6
CONTINUOUS
10
107.342
20
-49.2185
11
107.316
21
-49.5173
0
LINE
8
BLACK
6
CONTINUOUS
10
100.973
20
-53.1784
11
105.057
21
-53.5358
0
LINE
8
BLACK
6
CONTINUOUS
10
101.077
20
-51.983
11
100.973
21
-53.1784
0
ARC
8
BLACK
10
104.021
20
-47.0207
40
0.899999
50
-5.00005
51
175
0
ARC
8
BLACK
10
104.944
20
-54.8308
40
1.3
50
-5.00003
51
85.0001
0
ARC
8
BLACK
10
108.611
20
-49.6306
40
1.3
50
-185
51
-94.9999
0
CIRCLE
8
BLACK
10
114.979
20
-47.9794
40
0.900001
0
CIRCLE
8
BLACK
10
109.5
20
-47.5
40
1.75
0
LINE
8
BLACK
6
CONTINUOUS
10
-93.5
20
-26.9
11
-93
21
-27.4
0
LINE
8
BLACK
6
CONTINUOUS
10
-97.4
20
-25.5
11
-97.4
21
-26.9
0
LINE
8
BLACK
6
CONTINUOUS
10
-93.6
20
-33.5
11
-93.6
21
-33.2
0
LINE
8
BLACK
6
CONTINUOUS
10
-86.2
20
-32.8
11
-86.2
21
-30.1
0
LINE
8
BLACK
6
CONTINUOUS
10
-99
20
-26.9
11
-99
21
-27.9
0
LINE
8
BLACK
6
CONTINUOUS
10
-93.5
20
-26.9
11
-95.6
21
-26.9
0
LINE
8
BLACK
6
CONTINUOUS
10
-88
20
-34
11
-88
21
-32.8
0
LINE
8
BLACK
6
CONTINUOUS
10
-88
20
-29
11
-91.7
21
-29
0
LINE
8
BLACK
6
CONTINUOUS
10
-86.2
20
-30.1
11
-88
21
-30.1
0
LINE
8
BLACK
6
CONTINUOUS
10
-95.6
20
-25.5
11
-95.6
21
-26.9
0
LINE
8
BLACK
6
CONTINUOUS
10
-93.1
20
-34
11
-93.6
21
-33.5
0
LINE
8
BLACK
6
CONTINUOUS
10
-99
20
-27.9
11
-100.8
21
-27.9
0
LINE
8
BLACK
6
CONTINUOUS
10
-100.8
20
-27.9
11
-100.8
21
-30.7
0
LINE
8
BLACK
6
CONTINUOUS
10
-93.1
20
-34
11
-88
21
-34
0
LINE
8
BLACK
6
CONTINUOUS
10
-88
20
-32.8
11
-86.2
21
-32.8
0
LINE
8
BLACK
6
CONTINUOUS
10
-100.8
20
-30.7
11
-99
21
-30.7
0
LINE
8
BLACK
6
CONTINUOUS
10
-88
20
-30.1
11
-88
21
-29
0
LINE
8
BLACK
6
CONTINUOUS
10
-99
20
-26.9
11
-97.4
21
-26.9
0
LINE
8
BLACK
6
CONTINUOUS
10
-93
20
-27.4
11
-93
21
-27.7
0
LINE
8
BLACK
6
CONTINUOUS
10
-99
20
-31.9
11
-94.9
21
-31.9
0
LINE
8
BLACK
6
CONTINUOUS
10
-99
20
-30.7
11
-99
21
-31.9
0
ARC
8
BLACK
10
-96.5
20
-25.5
40
0.9
50
-0
51
180
0
ARC
8
BLACK
10
-94.9
20
-33.2
40
1.3
50
-4.40737e-05
51
90
0
ARC
8
BLACK
10
-91.7
20
-27.7
40
1.3
50
-180
51
-90
0
CIRCLE
8
BLACK
10
-85.5
20
-25.5
40
0.9
0
CIRCLE
8
BLACK
10
-91
20
-25.5
40
1.75
  0
ENDSEC
  0
EOF
