  0
SECTION
  2
HEADER
  9
$ANGBASE
  50
0.0
  9
$ANGDIR
  70
1
  9
$MEASUREMENT
  70
1
  0
ENDSEC
  0
SECTION
  2
TABLES
  0
TABLE
  2
LTYPE
  70
4
  0
LTYPE
  5
40F
  2
CONTINUOUS
  70
0
  3
Solid line
  72
65
  73
0
  40
0.0
  0
LTYPE
  5
410
  2
DASHDOT
 70
0
  3
Dash Dot ____ _ ____ _
 72
65
 73
4
 40
2.0
 49
1.25
 49
-0.25
 49
0.25
 49
-0.25
  0
LTYPE
  5
411
  2
DASHED
 70
0
  3
Dashed __ __ __ __ __
 72
65
 73
2
 40
0.75
 49
0.5
 49
-0.25
  0
LTYPE
  5
43B
  2
DOTTED
 70
0
  3
Dotted .  .  .  .
 72
65
 73
2
 40
0.2
 49
0.0
 49
-0.2
  0
ENDTAB
  0
TABLE
  2
STYLE
  70
4
  0
STYLE
  2
KICAD
  70
0
  40
0
  41
1
  42
1
  50
0
  71
0
  3
isocp.shx
  0
STYLE
  2
KICADB
  70
0
  40
0
  41
1
  42
1
  50
0
  71
0
  3
isocp.shx
  0
STYLE
  2
KICADI
  70
0
  40
0
  41
1
  42
1
  50
15
  71
0
  3
isocp.shx
  0
STYLE
  2
KICADBI
  70
0
  40
0
  41
1
  42
1
  50
15
  71
0
  3
isocp.shx
  0
ENDTAB
  0
TABLE
  2
LAYER
  70
1
  0
LAYER
  2
BLACK
  70
0
  62
7
  6
CONTINUOUS
  0
ENDTAB
  0
ENDSEC
  0
SECTION
  2
ENTITIES
0
LINE
8
BLACK
6
CONTINUOUS
10
-27.0003
20
-82.656
11
-21.3624
21
-67.1667
0
ARC
8
BLACK
10
151.722
20
-62.918
40
3.00002
50
-99.9118
51
-10.1574
0
LINE
8
BLACK
6
CONTINUOUS
10
-22
20
3e-06
11
-22
21
-20.6
0
LINE
8
BLACK
6
CONTINUOUS
10
-33.4
20
-20.6
11
-33.4
21
-9e-06
0
LINE
8
BLACK
6
CONTINUOUS
10
120.73
20
-5.67893
11
100
21
-3.84999
0
ARC
8
BLACK
10
120.467
20
-8.66733
40
3.00002
50
-4.99896
51
84.9576
0
LINE
8
BLACK
6
CONTINUOUS
10
-22
20
-20.6
11
-33.4
21
-20.6
0
LINE
8
BLACK
6
CONTINUOUS
10
3
20
-3
11
3
21
-11
0
LINE
8
BLACK
6
CONTINUOUS
10
22
20
3e-06
11
5.99999
21
-1e-06
0
LINE
8
BLACK
6
CONTINUOUS
10
-3
20
-40
11
-3
21
-16.9972
0
LINE
8
BLACK
6
CONTINUOUS
10
33.4
20
-20.6
11
22
21
-20.6
0
ARC
8
BLACK
10
-157.503
20
-30.648
40
3
50
-259.962
51
-169.843
0
ARC
8
BLACK
10
-29.8193
20
-81.6299
40
2.99996
50
-110.248
51
-19.9998
0
ARC
8
BLACK
10
-97
20
-3.00003
40
3
50
90
51
180
0
LINE
8
BLACK
6
CONTINUOUS
10
-123.455
20
-8.92875
11
-122.366
21
-21.3815
0
LINE
8
BLACK
6
CONTINUOUS
10
-21.3624
20
-67.1667
11
-4.84391
21
-60.2683
0
ARC
8
BLACK
10
-151.722
20
-62.918
40
3.00005
50
-169.843
51
-80.0882
0
LINE
8
BLACK
6
CONTINUOUS
10
22
20
-20.6
11
22
21
3e-06
0
LINE
8
BLACK
6
CONTINUOUS
10
158.026
20
-27.6939
11
122.366
21
-21.3815
0
ARC
8
BLACK
10
98.0001
20
-70.3
40
2.9999
50
-90.0019
51
0.000630275
0
LINE
8
BLACK
6
CONTINUOUS
10
-83.5
20
-73.3
11
-83.5
21
-73.4006
0
LINE
8
BLACK
6
CONTINUOUS
10
83.5
20
-73.3
11
98
21
-73.3
0
LINE
8
BLACK
6
CONTINUOUS
10
100
20
-3.84999
11
100
21
-3.00002
0
LINE
8
BLACK
6
CONTINUOUS
10
83.5
20
-73.4007
11
83.5
21
-73.3
0
LINE
8
BLACK
6
CONTINUOUS
10
-118.967
20
-60.2397
11
-101
21
-58.6545
0
ARC
8
BLACK
10
97
20
-3.00003
40
3.00002
50
0.000324676
51
90
0
LINE
8
BLACK
6
CONTINUOUS
10
-151.206
20
-65.8733
11
-118.967
21
-60.2397
0
LINE
8
BLACK
6
CONTINUOUS
10
97
20
-1.5e-05
11
33.4
21
-1e-05
0
LINE
8
BLACK
6
CONTINUOUS
10
-3
20
-57.5
11
-3
21
-46
0
LINE
8
BLACK
6
CONTINUOUS
10
3
20
-16.9973
11
3
21
-40
0
LINE
8
BLACK
6
CONTINUOUS
10
21.3624
20
-67.1667
11
27.0003
21
-82.656
0
ARC
8
BLACK
10
-120.467
20
-8.66733
40
3.00002
50
-264.958
51
-175.001
0
LINE
8
BLACK
6
CONTINUOUS
10
101
20
-58.6545
11
118.967
21
-60.2397
0
LINE
8
BLACK
6
CONTINUOUS
10
-100
20
-3.84999
11
-120.73
21
-5.67893
0
LINE
8
BLACK
6
CONTINUOUS
10
-6
20
-3e-06
11
-22
21
3e-06
0
LINE
8
BLACK
6
CONTINUOUS
10
3
20
-46
11
-3
21
-46
0
ARC
8
BLACK
10
-6
20
-2.99993
40
2.99993
50
-0.00127961
51
90
0
ARC
8
BLACK
10
5.9999
20
-57.5
40
2.9999
50
-180.001
51
-112.665
0
ARC
8
BLACK
10
84.4143
20
-229.641
40
154.759
50
90.8853
51
110.247
0
LINE
8
BLACK
6
CONTINUOUS
10
-3
20
-40
11
3
21
-40
0
LINE
8
BLACK
6
CONTINUOUS
10
33.4
20
-1e-05
11
33.4
21
-20.6
0
ARC
8
BLACK
10
-82
20
-73.4006
40
1.50002
50
-179.999
51
-90.8854
0
ARC
8
BLACK
10
82
20
-73.4006
40
1.5
50
-89.1148
51
-0.000725748
0
LINE
8
BLACK
6
CONTINUOUS
10
101
20
-70.3
11
101
21
-58.6545
0
ARC
8
BLACK
10
29.8193
20
-81.6299
40
2.99996
50
-160
51
-69.7525
0
LINE
8
BLACK
6
CONTINUOUS
10
-122.366
20
-21.3815
11
-158.026
21
-27.6939
0
ARC
8
BLACK
10
-98
20
-70.2999
40
3.00007
50
-179.999
51
-90.0001
0
LINE
8
BLACK
6
CONTINUOUS
10
-160.456
20
-31.177
11
-154.675
21
-63.4471
0
ARC
8
BLACK
10
-84.4143
20
-229.641
40
154.759
50
69.7531
51
89.1147
0
ARC
8
BLACK
10
6.0001
20
-3.00003
40
3.0001
50
90.002
51
179.999
0
LINE
8
BLACK
6
CONTINUOUS
10
-3
20
-11
11
3
21
-11
0
LINE
8
BLACK
6
CONTINUOUS
10
4.84391
20
-60.2683
11
21.3624
21
-67.1667
0
ARC
8
BLACK
10
-6.0001
20
-57.4999
40
3.0001
50
-67.3322
51
-0.000553841
0
LINE
8
BLACK
6
CONTINUOUS
10
-101
20
-58.6545
11
-101
21
-70.3
0
LINE
8
BLACK
6
CONTINUOUS
10
-3
20
-3
11
-3
21
-11
0
LINE
8
BLACK
6
CONTINUOUS
10
118.967
20
-60.2397
11
151.206
21
-65.8733
0
LINE
8
BLACK
6
CONTINUOUS
10
3
20
-46
11
3
21
-57.5
0
LINE
8
BLACK
6
CONTINUOUS
10
3
20
-16.9973
11
-3
21
-16.9972
0
LINE
8
BLACK
6
CONTINUOUS
10
-33.4
20
-9e-06
11
-97
21
-1.6e-05
0
LINE
8
BLACK
6
CONTINUOUS
10
-100
20
-3.00002
11
-100
21
-3.84999
0
ARC
8
BLACK
10
157.503
20
-30.648
40
3.00002
50
-10.1561
51
79.9615
0
LINE
8
BLACK
6
CONTINUOUS
10
154.675
20
-63.4471
11
160.456
21
-31.177
0
LINE
8
BLACK
6
CONTINUOUS
10
122.366
20
-21.3815
11
123.455
21
-8.92875
0
LINE
8
BLACK
6
CONTINUOUS
10
-98
20
-73.3
11
-83.5
21
-73.3
0
LINE
8
BLACK
6
CONTINUOUS
10
12.25
20
1.99999
11
6.74999
21
1.99999
0
LINE
8
BLACK
6
CONTINUOUS
10
6.74999
20
1.99999
11
6.74999
21
-1.4e-05
0
LINE
8
BLACK
6
CONTINUOUS
10
12.75
20
-13
11
12.75
21
-1.4e-05
0
LINE
8
BLACK
6
CONTINUOUS
10
12.75
20
-1.4e-05
11
12.25
21
-1.4e-05
0
LINE
8
BLACK
6
CONTINUOUS
10
6.24999
20
-13
11
12.75
21
-13
0
LINE
8
BLACK
6
CONTINUOUS
10
6.74999
20
-1.4e-05
11
6.24999
21
-1.4e-05
0
LINE
8
BLACK
6
CONTINUOUS
10
12.25
20
-1.4e-05
11
12.25
21
1.99999
0
LINE
8
BLACK
6
CONTINUOUS
10
6.24999
20
-1.4e-05
11
6.24999
21
-13
0
LINE
8
BLACK
6
CONTINUOUS
10
-6.75
20
2.00001
11
-12.25
21
2.00001
0
LINE
8
BLACK
6
CONTINUOUS
10
-12.25
20
2.00001
11
-12.25
21
9e-06
0
LINE
8
BLACK
6
CONTINUOUS
10
-6.25
20
-13
11
-6.25
21
9e-06
0
LINE
8
BLACK
6
CONTINUOUS
10
-6.25
20
9e-06
11
-6.75
21
9e-06
0
LINE
8
BLACK
6
CONTINUOUS
10
-12.75
20
-13
11
-6.25
21
-13
0
LINE
8
BLACK
6
CONTINUOUS
10
-12.25
20
9e-06
11
-12.75
21
9e-06
0
LINE
8
BLACK
6
CONTINUOUS
10
-6.75
20
9e-06
11
-6.75
21
2.00001
0
LINE
8
BLACK
6
CONTINUOUS
10
-12.75
20
9e-06
11
-12.75
21
-13
0
LINE
8
BLACK
6
CONTINUOUS
10
11
20
-36
11
2
21
-36
0
LINE
8
BLACK
6
CONTINUOUS
10
2
20
-36
11
2
21
-46
0
LINE
8
BLACK
6
CONTINUOUS
10
2
20
-46
11
11
21
-46
0
LINE
8
BLACK
6
CONTINUOUS
10
11
20
-46
11
11
21
-36
0
LINE
8
BLACK
6
CONTINUOUS
10
-11
20
-46
11
-2.00001
21
-46
0
LINE
8
BLACK
6
CONTINUOUS
10
-2.00001
20
-46
11
-2.00001
21
-36
0
LINE
8
BLACK
6
CONTINUOUS
10
-2.00001
20
-36
11
-11
21
-36
0
LINE
8
BLACK
6
CONTINUOUS
10
-11
20
-36
11
-11
21
-46
0
LINE
8
BLACK
6
CONTINUOUS
10
-32.5
20
-6.55002
11
-23.5
21
-6.55002
0
LINE
8
BLACK
6
CONTINUOUS
10
-23.5
20
-6.55002
11
-23.5
21
0.949977
0
LINE
8
BLACK
6
CONTINUOUS
10
-23.5
20
0.949977
11
-32.5
21
0.949977
0
LINE
8
BLACK
6
CONTINUOUS
10
-32.5
20
0.949977
11
-32.5
21
-6.55002
0
LINE
8
BLACK
6
CONTINUOUS
10
-34.25
20
-13.8
11
-30.5
21
-13.8
0
LINE
8
BLACK
6
CONTINUOUS
10
-30.5
20
-13.8
11
-30.5
21
-18.3
0
LINE
8
BLACK
6
CONTINUOUS
10
-30.5
20
-18.3
11
-34.25
21
-18.3
0
LINE
8
BLACK
6
CONTINUOUS
10
-34.25
20
-18.3
11
-34.25
21
-13.8
0
LINE
8
BLACK
6
CONTINUOUS
10
-21.75
20
-13.8
11
-25.5
21
-13.8
0
LINE
8
BLACK
6
CONTINUOUS
10
-25.5
20
-13.8
11
-25.5
21
-18.3
0
LINE
8
BLACK
6
CONTINUOUS
10
-25.5
20
-18.3
11
-21.75
21
-18.3
0
LINE
8
BLACK
6
CONTINUOUS
10
-21.75
20
-18.3
11
-21.75
21
-13.8
0
LINE
8
BLACK
6
CONTINUOUS
10
-38
20
0.699977
11
-18
21
0.699977
0
LINE
8
BLACK
6
CONTINUOUS
10
-18
20
0.699977
11
-18
21
-23.8
0
LINE
8
BLACK
6
CONTINUOUS
10
-18
20
-23.8
11
-38
21
-23.8
0
LINE
8
BLACK
6
CONTINUOUS
10
-38
20
-23.8
11
-38
21
0.699977
0
CIRCLE
8
BLACK
10
-28
20
-15.05
40
1.25
0
LINE
8
BLACK
6
CONTINUOUS
10
23.5
20
-6.55001
11
32.5
21
-6.55001
0
LINE
8
BLACK
6
CONTINUOUS
10
32.5
20
-6.55001
11
32.5
21
0.949988
0
LINE
8
BLACK
6
CONTINUOUS
10
32.5
20
0.949988
11
23.5
21
0.949988
0
LINE
8
BLACK
6
CONTINUOUS
10
23.5
20
0.949988
11
23.5
21
-6.55001
0
LINE
8
BLACK
6
CONTINUOUS
10
21.75
20
-13.8
11
25.5
21
-13.8
0
LINE
8
BLACK
6
CONTINUOUS
10
25.5
20
-13.8
11
25.5
21
-18.3
0
LINE
8
BLACK
6
CONTINUOUS
10
25.5
20
-18.3
11
21.75
21
-18.3
0
LINE
8
BLACK
6
CONTINUOUS
10
21.75
20
-18.3
11
21.75
21
-13.8
0
LINE
8
BLACK
6
CONTINUOUS
10
34.25
20
-13.8
11
30.5
21
-13.8
0
LINE
8
BLACK
6
CONTINUOUS
10
30.5
20
-13.8
11
30.5
21
-18.3
0
LINE
8
BLACK
6
CONTINUOUS
10
30.5
20
-18.3
11
34.25
21
-18.3
0
LINE
8
BLACK
6
CONTINUOUS
10
34.25
20
-18.3
11
34.25
21
-13.8
0
LINE
8
BLACK
6
CONTINUOUS
10
18
20
0.699988
11
38
21
0.699988
0
LINE
8
BLACK
6
CONTINUOUS
10
38
20
0.699988
11
38
21
-23.8
0
LINE
8
BLACK
6
CONTINUOUS
10
38
20
-23.8
11
18
21
-23.8
0
LINE
8
BLACK
6
CONTINUOUS
10
18
20
-23.8
11
18
21
0.699988
0
CIRCLE
8
BLACK
10
28
20
-15.05
40
1.25
0
LINE
8
BLACK
6
CONTINUOUS
10
-86
20
-57.8
11
-100.5
21
-57.8
0
LINE
8
BLACK
6
CONTINUOUS
10
-100.5
20
-57.8
11
-100.5
21
-75.3
0
LINE
8
BLACK
6
CONTINUOUS
10
-100.5
20
-75.3
11
-86
21
-75.3
0
LINE
8
BLACK
6
CONTINUOUS
10
-86
20
-75.3
11
-86
21
-57.8
0
LINE
8
BLACK
6
CONTINUOUS
10
100
20
-57.8
11
85.5
21
-57.8
0
LINE
8
BLACK
6
CONTINUOUS
10
85.5
20
-57.8
11
85.5
21
-75.3
0
LINE
8
BLACK
6
CONTINUOUS
10
85.5
20
-75.3
11
100
21
-75.3
0
LINE
8
BLACK
6
CONTINUOUS
10
100
20
-75.3
11
100
21
-57.8
0
LINE
8
BLACK
6
CONTINUOUS
10
87.1
20
-70.9
11
90.5
21
-70.9
0
LINE
8
BLACK
6
CONTINUOUS
10
90.5
20
-58.1
11
96.5
21
-58.1
0
LINE
8
BLACK
6
CONTINUOUS
10
90.5
20
-70.9
11
96.5
21
-70.9
0
LINE
8
BLACK
6
CONTINUOUS
10
99.9
20
-58.1
11
99.9
21
-70.9
0
LINE
8
BLACK
6
CONTINUOUS
10
90.5
20
-58.1
11
87.1
21
-58.1
0
LINE
8
BLACK
6
CONTINUOUS
10
87.1
20
-70.9
11
87.1
21
-58.1
0
LINE
8
BLACK
6
CONTINUOUS
10
96.5
20
-70.9
11
99.9
21
-70.9
0
LINE
8
BLACK
6
CONTINUOUS
10
99.9
20
-58.1
11
96.5
21
-58.1
0
LINE
8
BLACK
6
CONTINUOUS
10
-99.9
20
-70.9
11
-96.5
21
-70.9
0
LINE
8
BLACK
6
CONTINUOUS
10
-96.5
20
-58.1
11
-90.5
21
-58.1
0
LINE
8
BLACK
6
CONTINUOUS
10
-96.5
20
-70.9
11
-90.5
21
-70.9
0
LINE
8
BLACK
6
CONTINUOUS
10
-87.1
20
-58.1
11
-87.1
21
-70.9
0
LINE
8
BLACK
6
CONTINUOUS
10
-96.5
20
-58.1
11
-99.9
21
-58.1
0
LINE
8
BLACK
6
CONTINUOUS
10
-99.9
20
-70.9
11
-99.9
21
-58.1
0
LINE
8
BLACK
6
CONTINUOUS
10
-90.5
20
-70.9
11
-87.1
21
-70.9
0
LINE
8
BLACK
6
CONTINUOUS
10
-87.1
20
-58.1
11
-90.5
21
-58.1
0
CIRCLE
8
BLACK
10
-122
20
-25.5
40
1.1
0
CIRCLE
8
BLACK
10
6.99999
20
-23
40
1.1
0
CIRCLE
8
BLACK
10
122
20
-25.5
40
1.1
0
CIRCLE
8
BLACK
10
85
20
-54
40
1.1
0
CIRCLE
8
BLACK
10
-40.5
20
-57
40
1.1
0
CIRCLE
8
BLACK
10
-73
20
-3.00002
40
1.1
0
CIRCLE
8
BLACK
10
73
20
-3.00001
40
1.1
0
CIRCLE
8
BLACK
10
-138
20
-60.5
40
1.1
0
CIRCLE
8
BLACK
10
-7.00001
20
-57
40
1.1
0
CIRCLE
8
BLACK
10
40.5
20
-57.5
40
1.1
0
CIRCLE
8
BLACK
10
40.5
20
-23
40
1.1
0
CIRCLE
8
BLACK
10
-85
20
-54
40
1.1
0
CIRCLE
8
BLACK
10
138
20
-60.5
40
1.1
0
CIRCLE
8
BLACK
10
-40.5
20
-23
40
1.1
0
CIRCLE
8
BLACK
10
7
20
-57
40
1.1
0
CIRCLE
8
BLACK
10
-7
20
-23
40
1.1
0
LINE
8
BLACK
6
CONTINUOUS
10
-97.9
20
-18.6
11
-84.1
21
-18.6
0
LINE
8
BLACK
6
CONTINUOUS
10
-84.1
20
-18.6
11
-84.1
21
-32.4
0
LINE
8
BLACK
6
CONTINUOUS
10
-84.1
20
-32.4
11
-97.9
21
-32.4
0
LINE
8
BLACK
6
CONTINUOUS
10
-97.9
20
-32.4
11
-97.9
21
-18.6
0
LINE
8
BLACK
6
CONTINUOUS
10
-98.4
20
-18.6
11
-83.6
21
-18.6
0
LINE
8
BLACK
6
CONTINUOUS
10
-83.6
20
-18.6
11
-83.6
21
-32.4
0
LINE
8
BLACK
6
CONTINUOUS
10
-83.6
20
-32.4
11
-98.4
21
-32.4
0
LINE
8
BLACK
6
CONTINUOUS
10
-98.4
20
-32.4
11
-98.4
21
-18.6
0
LINE
8
BLACK
6
CONTINUOUS
10
103.228
20
-40.0249
11
116.975
21
-41.2277
0
LINE
8
BLACK
6
CONTINUOUS
10
116.975
20
-41.2277
11
115.772
21
-54.9751
0
LINE
8
BLACK
6
CONTINUOUS
10
115.772
20
-54.9751
11
102.025
21
-53.7724
0
LINE
8
BLACK
6
CONTINUOUS
10
102.025
20
-53.7724
11
103.228
21
-40.0249
0
LINE
8
BLACK
6
CONTINUOUS
10
102.73
20
-39.9813
11
117.473
21
-41.2712
0
LINE
8
BLACK
6
CONTINUOUS
10
117.473
20
-41.2712
11
116.27
21
-55.0187
0
LINE
8
BLACK
6
CONTINUOUS
10
116.27
20
-55.0187
11
101.527
21
-53.7288
0
LINE
8
BLACK
6
CONTINUOUS
10
101.527
20
-53.7288
11
102.73
21
-39.9813
0
LINE
8
BLACK
6
CONTINUOUS
10
-61.9
20
-8.60001
11
-48.1
21
-8.60001
0
LINE
8
BLACK
6
CONTINUOUS
10
-48.1
20
-8.60001
11
-48.1
21
-22.4
0
LINE
8
BLACK
6
CONTINUOUS
10
-48.1
20
-22.4
11
-61.9
21
-22.4
0
LINE
8
BLACK
6
CONTINUOUS
10
-61.9
20
-22.4
11
-61.9
21
-8.60001
0
LINE
8
BLACK
6
CONTINUOUS
10
-62.4
20
-8.60001
11
-47.6
21
-8.60001
0
LINE
8
BLACK
6
CONTINUOUS
10
-47.6
20
-8.60001
11
-47.6
21
-22.4
0
LINE
8
BLACK
6
CONTINUOUS
10
-47.6
20
-22.4
11
-62.4
21
-22.4
0
LINE
8
BLACK
6
CONTINUOUS
10
-62.4
20
-22.4
11
-62.4
21
-8.60001
0
LINE
8
BLACK
6
CONTINUOUS
10
-79.9
20
-23.6
11
-66.1
21
-23.6
0
LINE
8
BLACK
6
CONTINUOUS
10
-66.1
20
-23.6
11
-66.1
21
-37.4
0
LINE
8
BLACK
6
CONTINUOUS
10
-66.1
20
-37.4
11
-79.9
21
-37.4
0
LINE
8
BLACK
6
CONTINUOUS
10
-79.9
20
-37.4
11
-79.9
21
-23.6
0
LINE
8
BLACK
6
CONTINUOUS
10
-80.4
20
-23.6
11
-65.6
21
-23.6
0
LINE
8
BLACK
6
CONTINUOUS
10
-65.6
20
-23.6
11
-65.6
21
-37.4
0
LINE
8
BLACK
6
CONTINUOUS
10
-65.6
20
-37.4
11
-80.4
21
-37.4
0
LINE
8
BLACK
6
CONTINUOUS
10
-80.4
20
-37.4
11
-80.4
21
-23.6
0
LINE
8
BLACK
6
CONTINUOUS
10
48.1
20
-8.60002
11
61.9
21
-8.60002
0
LINE
8
BLACK
6
CONTINUOUS
10
61.9
20
-8.60002
11
61.9
21
-22.4
0
LINE
8
BLACK
6
CONTINUOUS
10
61.9
20
-22.4
11
48.1
21
-22.4
0
LINE
8
BLACK
6
CONTINUOUS
10
48.1
20
-22.4
11
48.1
21
-8.60002
0
LINE
8
BLACK
6
CONTINUOUS
10
47.6
20
-8.60002
11
62.4
21
-8.60002
0
LINE
8
BLACK
6
CONTINUOUS
10
62.4
20
-8.60002
11
62.4
21
-22.4
0
LINE
8
BLACK
6
CONTINUOUS
10
62.4
20
-22.4
11
47.6
21
-22.4
0
LINE
8
BLACK
6
CONTINUOUS
10
47.6
20
-22.4
11
47.6
21
-8.60002
0
LINE
8
BLACK
6
CONTINUOUS
10
27.1562
20
-69.3761
11
40.1239
21
-64.6562
0
LINE
8
BLACK
6
CONTINUOUS
10
40.1239
20
-64.6562
11
44.8438
21
-77.624
0
LINE
8
BLACK
6
CONTINUOUS
10
44.8438
20
-77.624
11
31.8761
21
-82.3438
0
LINE
8
BLACK
6
CONTINUOUS
10
31.8761
20
-82.3438
11
27.1562
21
-69.3761
0
LINE
8
BLACK
6
CONTINUOUS
10
26.6863
20
-69.5471
11
40.5938
21
-64.4852
0
LINE
8
BLACK
6
CONTINUOUS
10
40.5938
20
-64.4852
11
45.3137
21
-77.4529
0
LINE
8
BLACK
6
CONTINUOUS
10
45.3137
20
-77.4529
11
31.4062
21
-82.5148
0
LINE
8
BLACK
6
CONTINUOUS
10
31.4062
20
-82.5148
11
26.6863
21
-69.5471
0
LINE
8
BLACK
6
CONTINUOUS
10
-157.008
20
-29.5047
11
-143.417
21
-27.1083
0
LINE
8
BLACK
6
CONTINUOUS
10
-143.417
20
-27.1083
11
-141.021
21
-40.6987
0
LINE
8
BLACK
6
CONTINUOUS
10
-141.021
20
-40.6987
11
-154.611
21
-43.095
0
LINE
8
BLACK
6
CONTINUOUS
10
-154.611
20
-43.095
11
-157.008
21
-29.5047
0
LINE
8
BLACK
6
CONTINUOUS
10
-157.5
20
-29.5915
11
-142.925
21
-27.0215
0
LINE
8
BLACK
6
CONTINUOUS
10
-142.925
20
-27.0215
11
-140.529
21
-40.6119
0
LINE
8
BLACK
6
CONTINUOUS
10
-140.529
20
-40.6119
11
-155.104
21
-43.1819
0
LINE
8
BLACK
6
CONTINUOUS
10
-155.104
20
-43.1819
11
-157.5
21
-29.5915
0
LINE
8
BLACK
6
CONTINUOUS
10
66.1
20
-6.60002
11
79.9
21
-6.60002
0
LINE
8
BLACK
6
CONTINUOUS
10
79.9
20
-6.60002
11
79.9
21
-20.4
0
LINE
8
BLACK
6
CONTINUOUS
10
79.9
20
-20.4
11
66.1
21
-20.4
0
LINE
8
BLACK
6
CONTINUOUS
10
66.1
20
-20.4
11
66.1
21
-6.60002
0
LINE
8
BLACK
6
CONTINUOUS
10
65.6
20
-6.60002
11
80.4
21
-6.60002
0
LINE
8
BLACK
6
CONTINUOUS
10
80.4
20
-6.60002
11
80.4
21
-20.4
0
LINE
8
BLACK
6
CONTINUOUS
10
80.4
20
-20.4
11
65.6
21
-20.4
0
LINE
8
BLACK
6
CONTINUOUS
10
65.6
20
-20.4
11
65.6
21
-6.60002
0
LINE
8
BLACK
6
CONTINUOUS
10
-116.975
20
-41.2276
11
-103.228
21
-40.0249
0
LINE
8
BLACK
6
CONTINUOUS
10
-103.228
20
-40.0249
11
-102.025
21
-53.7724
0
LINE
8
BLACK
6
CONTINUOUS
10
-102.025
20
-53.7724
11
-115.772
21
-54.9751
0
LINE
8
BLACK
6
CONTINUOUS
10
-115.772
20
-54.9751
11
-116.975
21
-41.2276
0
LINE
8
BLACK
6
CONTINUOUS
10
-117.473
20
-41.2712
11
-102.73
21
-39.9813
0
LINE
8
BLACK
6
CONTINUOUS
10
-102.73
20
-39.9813
11
-101.527
21
-53.7288
0
LINE
8
BLACK
6
CONTINUOUS
10
-101.527
20
-53.7288
11
-116.27
21
-55.0187
0
LINE
8
BLACK
6
CONTINUOUS
10
-116.27
20
-55.0187
11
-117.473
21
-41.2712
0
LINE
8
BLACK
6
CONTINUOUS
10
-79.9
20
-40.6
11
-66.1
21
-40.6
0
LINE
8
BLACK
6
CONTINUOUS
10
-66.1
20
-40.6
11
-66.1
21
-54.4
0
LINE
8
BLACK
6
CONTINUOUS
10
-66.1
20
-54.4
11
-79.9
21
-54.4
0
LINE
8
BLACK
6
CONTINUOUS
10
-79.9
20
-54.4
11
-79.9
21
-40.6
0
LINE
8
BLACK
6
CONTINUOUS
10
-80.4
20
-40.6
11
-65.6
21
-40.6
0
LINE
8
BLACK
6
CONTINUOUS
10
-65.6
20
-40.6
11
-65.6
21
-54.4
0
LINE
8
BLACK
6
CONTINUOUS
10
-65.6
20
-54.4
11
-80.4
21
-54.4
0
LINE
8
BLACK
6
CONTINUOUS
10
-80.4
20
-54.4
11
-80.4
21
-40.6
0
LINE
8
BLACK
6
CONTINUOUS
10
104.728
20
-23.0249
11
118.475
21
-24.2277
0
LINE
8
BLACK
6
CONTINUOUS
10
118.475
20
-24.2277
11
117.272
21
-37.9751
0
LINE
8
BLACK
6
CONTINUOUS
10
117.272
20
-37.9751
11
103.525
21
-36.7724
0
LINE
8
BLACK
6
CONTINUOUS
10
103.525
20
-36.7724
11
104.728
21
-23.0249
0
LINE
8
BLACK
6
CONTINUOUS
10
104.23
20
-22.9813
11
118.973
21
-24.2712
0
LINE
8
BLACK
6
CONTINUOUS
10
118.973
20
-24.2712
11
117.77
21
-38.0187
0
LINE
8
BLACK
6
CONTINUOUS
10
117.77
20
-38.0187
11
103.027
21
-36.7288
0
LINE
8
BLACK
6
CONTINUOUS
10
103.027
20
-36.7288
11
104.23
21
-22.9813
0
LINE
8
BLACK
6
CONTINUOUS
10
125.103
20
-26.9067
11
138.693
21
-29.303
0
LINE
8
BLACK
6
CONTINUOUS
10
138.693
20
-29.303
11
136.297
21
-42.8934
0
LINE
8
BLACK
6
CONTINUOUS
10
136.297
20
-42.8934
11
122.707
21
-40.497
0
LINE
8
BLACK
6
CONTINUOUS
10
122.707
20
-40.497
11
125.103
21
-26.9067
0
LINE
8
BLACK
6
CONTINUOUS
10
124.611
20
-26.8199
11
139.186
21
-29.3898
0
LINE
8
BLACK
6
CONTINUOUS
10
139.186
20
-29.3898
11
136.789
21
-42.9802
0
LINE
8
BLACK
6
CONTINUOUS
10
136.789
20
-42.9802
11
122.214
21
-40.4102
0
LINE
8
BLACK
6
CONTINUOUS
10
122.214
20
-40.4102
11
124.611
21
-26.8199
0
LINE
8
BLACK
6
CONTINUOUS
10
-138.76
20
-29.3334
11
-125.17
21
-26.9371
0
LINE
8
BLACK
6
CONTINUOUS
10
-125.17
20
-26.9371
11
-122.774
21
-40.5275
0
LINE
8
BLACK
6
CONTINUOUS
10
-122.774
20
-40.5275
11
-136.364
21
-42.9238
0
LINE
8
BLACK
6
CONTINUOUS
10
-136.364
20
-42.9238
11
-138.76
21
-29.3334
0
LINE
8
BLACK
6
CONTINUOUS
10
-139.253
20
-29.4203
11
-124.678
21
-26.8503
0
LINE
8
BLACK
6
CONTINUOUS
10
-124.678
20
-26.8503
11
-122.281
21
-40.4406
0
LINE
8
BLACK
6
CONTINUOUS
10
-122.281
20
-40.4406
11
-136.856
21
-43.0106
0
LINE
8
BLACK
6
CONTINUOUS
10
-136.856
20
-43.0106
11
-139.253
21
-29.4203
0
LINE
8
BLACK
6
CONTINUOUS
10
66.1
20
-23.6
11
79.9
21
-23.6
0
LINE
8
BLACK
6
CONTINUOUS
10
79.9
20
-23.6
11
79.9
21
-37.4
0
LINE
8
BLACK
6
CONTINUOUS
10
79.9
20
-37.4
11
66.1
21
-37.4
0
LINE
8
BLACK
6
CONTINUOUS
10
66.1
20
-37.4
11
66.1
21
-23.6
0
LINE
8
BLACK
6
CONTINUOUS
10
65.6
20
-23.6
11
80.4
21
-23.6
0
LINE
8
BLACK
6
CONTINUOUS
10
80.4
20
-23.6
11
80.4
21
-37.4
0
LINE
8
BLACK
6
CONTINUOUS
10
80.4
20
-37.4
11
65.6
21
-37.4
0
LINE
8
BLACK
6
CONTINUOUS
10
65.6
20
-37.4
11
65.6
21
-23.6
0
LINE
8
BLACK
6
CONTINUOUS
10
-118.475
20
-24.2277
11
-104.728
21
-23.0249
0
LINE
8
BLACK
6
CONTINUOUS
10
-104.728
20
-23.0249
11
-103.525
21
-36.7724
0
LINE
8
BLACK
6
CONTINUOUS
10
-103.525
20
-36.7724
11
-117.272
21
-37.9751
0
LINE
8
BLACK
6
CONTINUOUS
10
-117.272
20
-37.9751
11
-118.475
21
-24.2277
0
LINE
8
BLACK
6
CONTINUOUS
10
-118.973
20
-24.2712
11
-104.23
21
-22.9813
0
LINE
8
BLACK
6
CONTINUOUS
10
-104.23
20
-22.9813
11
-103.027
21
-36.7288
0
LINE
8
BLACK
6
CONTINUOUS
10
-103.027
20
-36.7288
11
-117.77
21
-38.0187
0
LINE
8
BLACK
6
CONTINUOUS
10
-117.77
20
-38.0187
11
-118.973
21
-24.2712
0
LINE
8
BLACK
6
CONTINUOUS
10
122.103
20
-43.7067
11
135.693
21
-46.103
0
LINE
8
BLACK
6
CONTINUOUS
10
135.693
20
-46.103
11
133.297
21
-59.6934
0
LINE
8
BLACK
6
CONTINUOUS
10
133.297
20
-59.6934
11
119.707
21
-57.297
0
LINE
8
BLACK
6
CONTINUOUS
10
119.707
20
-57.297
11
122.103
21
-43.7067
0
LINE
8
BLACK
6
CONTINUOUS
10
121.611
20
-43.6198
11
136.186
21
-46.1898
0
LINE
8
BLACK
6
CONTINUOUS
10
136.186
20
-46.1898
11
133.789
21
-59.7802
0
LINE
8
BLACK
6
CONTINUOUS
10
133.789
20
-59.7802
11
119.214
21
-57.2102
0
LINE
8
BLACK
6
CONTINUOUS
10
119.214
20
-57.2102
11
121.611
21
-43.6198
0
LINE
8
BLACK
6
CONTINUOUS
10
47.0067
20
-62.403
11
60.597
21
-60.0067
0
LINE
8
BLACK
6
CONTINUOUS
10
60.597
20
-60.0067
11
62.9933
21
-73.597
0
LINE
8
BLACK
6
CONTINUOUS
10
62.9933
20
-73.597
11
49.403
21
-75.9934
0
LINE
8
BLACK
6
CONTINUOUS
10
49.403
20
-75.9934
11
47.0067
21
-62.403
0
LINE
8
BLACK
6
CONTINUOUS
10
46.5142
20
-62.4898
11
61.0894
21
-59.9198
0
LINE
8
BLACK
6
CONTINUOUS
10
61.0894
20
-59.9198
11
63.4857
21
-73.5102
0
LINE
8
BLACK
6
CONTINUOUS
10
63.4857
20
-73.5102
11
48.9106
21
-76.0802
0
LINE
8
BLACK
6
CONTINUOUS
10
48.9106
20
-76.0802
11
46.5142
21
-62.4898
0
LINE
8
BLACK
6
CONTINUOUS
10
66.1
20
-40.6
11
79.9
21
-40.6
0
LINE
8
BLACK
6
CONTINUOUS
10
79.9
20
-40.6
11
79.9
21
-54.4
0
LINE
8
BLACK
6
CONTINUOUS
10
79.9
20
-54.4
11
66.1
21
-54.4
0
LINE
8
BLACK
6
CONTINUOUS
10
66.1
20
-54.4
11
66.1
21
-40.6
0
LINE
8
BLACK
6
CONTINUOUS
10
65.6
20
-40.6
11
80.4
21
-40.6
0
LINE
8
BLACK
6
CONTINUOUS
10
80.4
20
-40.6
11
80.4
21
-54.4
0
LINE
8
BLACK
6
CONTINUOUS
10
80.4
20
-54.4
11
65.6
21
-54.4
0
LINE
8
BLACK
6
CONTINUOUS
10
65.6
20
-54.4
11
65.6
21
-40.6
0
LINE
8
BLACK
6
CONTINUOUS
10
84.1
20
-18.6
11
97.9
21
-18.6
0
LINE
8
BLACK
6
CONTINUOUS
10
97.9
20
-18.6
11
97.9
21
-32.4
0
LINE
8
BLACK
6
CONTINUOUS
10
97.9
20
-32.4
11
84.1
21
-32.4
0
LINE
8
BLACK
6
CONTINUOUS
10
84.1
20
-32.4
11
84.1
21
-18.6
0
LINE
8
BLACK
6
CONTINUOUS
10
83.6
20
-18.6
11
98.4
21
-18.6
0
LINE
8
BLACK
6
CONTINUOUS
10
98.4
20
-18.6
11
98.4
21
-32.4
0
LINE
8
BLACK
6
CONTINUOUS
10
98.4
20
-32.4
11
83.6
21
-32.4
0
LINE
8
BLACK
6
CONTINUOUS
10
83.6
20
-32.4
11
83.6
21
-18.6
0
LINE
8
BLACK
6
CONTINUOUS
10
-97.9
20
-1.60002
11
-84.1
21
-1.60002
0
LINE
8
BLACK
6
CONTINUOUS
10
-84.1
20
-1.60002
11
-84.1
21
-15.4
0
LINE
8
BLACK
6
CONTINUOUS
10
-84.1
20
-15.4
11
-97.9
21
-15.4
0
LINE
8
BLACK
6
CONTINUOUS
10
-97.9
20
-15.4
11
-97.9
21
-1.60002
0
LINE
8
BLACK
6
CONTINUOUS
10
-98.4
20
-1.60002
11
-83.6
21
-1.60002
0
LINE
8
BLACK
6
CONTINUOUS
10
-83.6
20
-1.60002
11
-83.6
21
-15.4
0
LINE
8
BLACK
6
CONTINUOUS
10
-83.6
20
-15.4
11
-98.4
21
-15.4
0
LINE
8
BLACK
6
CONTINUOUS
10
-98.4
20
-15.4
11
-98.4
21
-1.60002
0
LINE
8
BLACK
6
CONTINUOUS
10
-61.9
20
-25.6
11
-48.1
21
-25.6
0
LINE
8
BLACK
6
CONTINUOUS
10
-48.1
20
-25.6
11
-48.1
21
-39.4
0
LINE
8
BLACK
6
CONTINUOUS
10
-48.1
20
-39.4
11
-61.9
21
-39.4
0
LINE
8
BLACK
6
CONTINUOUS
10
-61.9
20
-39.4
11
-61.9
21
-25.6
0
LINE
8
BLACK
6
CONTINUOUS
10
-62.4
20
-25.6
11
-47.6
21
-25.6
0
LINE
8
BLACK
6
CONTINUOUS
10
-47.6
20
-25.6
11
-47.6
21
-39.4
0
LINE
8
BLACK
6
CONTINUOUS
10
-47.6
20
-39.4
11
-62.4
21
-39.4
0
LINE
8
BLACK
6
CONTINUOUS
10
-62.4
20
-39.4
11
-62.4
21
-25.6
0
LINE
8
BLACK
6
CONTINUOUS
10
67.6
20
-59.6
11
81.4
21
-59.6
0
LINE
8
BLACK
6
CONTINUOUS
10
81.4
20
-59.6
11
81.4
21
-73.4
0
LINE
8
BLACK
6
CONTINUOUS
10
81.4
20
-73.4
11
67.6
21
-73.4
0
LINE
8
BLACK
6
CONTINUOUS
10
67.6
20
-73.4
11
67.6
21
-59.6
0
LINE
8
BLACK
6
CONTINUOUS
10
67.1
20
-59.6
11
81.9
21
-59.6
0
LINE
8
BLACK
6
CONTINUOUS
10
81.9
20
-59.6
11
81.9
21
-73.4
0
LINE
8
BLACK
6
CONTINUOUS
10
81.9
20
-73.4
11
67.1
21
-73.4
0
LINE
8
BLACK
6
CONTINUOUS
10
67.1
20
-73.4
11
67.1
21
-59.6
0
LINE
8
BLACK
6
CONTINUOUS
10
-81.4
20
-59.6
11
-67.6
21
-59.6
0
LINE
8
BLACK
6
CONTINUOUS
10
-67.6
20
-59.6
11
-67.6
21
-73.4
0
LINE
8
BLACK
6
CONTINUOUS
10
-67.6
20
-73.4
11
-81.4
21
-73.4
0
LINE
8
BLACK
6
CONTINUOUS
10
-81.4
20
-73.4
11
-81.4
21
-59.6
0
LINE
8
BLACK
6
CONTINUOUS
10
-81.9
20
-59.6
11
-67.1
21
-59.6
0
LINE
8
BLACK
6
CONTINUOUS
10
-67.1
20
-59.6
11
-67.1
21
-73.4
0
LINE
8
BLACK
6
CONTINUOUS
10
-67.1
20
-73.4
11
-81.9
21
-73.4
0
LINE
8
BLACK
6
CONTINUOUS
10
-81.9
20
-73.4
11
-81.9
21
-59.6
0
LINE
8
BLACK
6
CONTINUOUS
10
-61.9
20
-42.6
11
-48.1
21
-42.6
0
LINE
8
BLACK
6
CONTINUOUS
10
-48.1
20
-42.6
11
-48.1
21
-56.4
0
LINE
8
BLACK
6
CONTINUOUS
10
-48.1
20
-56.4
11
-61.9
21
-56.4
0
LINE
8
BLACK
6
CONTINUOUS
10
-61.9
20
-56.4
11
-61.9
21
-42.6
0
LINE
8
BLACK
6
CONTINUOUS
10
-62.4
20
-42.6
11
-47.6
21
-42.6
0
LINE
8
BLACK
6
CONTINUOUS
10
-47.6
20
-42.6
11
-47.6
21
-56.4
0
LINE
8
BLACK
6
CONTINUOUS
10
-47.6
20
-56.4
11
-62.4
21
-56.4
0
LINE
8
BLACK
6
CONTINUOUS
10
-62.4
20
-56.4
11
-62.4
21
-42.6
0
LINE
8
BLACK
6
CONTINUOUS
10
-97.9
20
-35.6
11
-84.1
21
-35.6
0
LINE
8
BLACK
6
CONTINUOUS
10
-84.1
20
-35.6
11
-84.1
21
-49.4
0
LINE
8
BLACK
6
CONTINUOUS
10
-84.1
20
-49.4
11
-97.9
21
-49.4
0
LINE
8
BLACK
6
CONTINUOUS
10
-97.9
20
-49.4
11
-97.9
21
-35.6
0
LINE
8
BLACK
6
CONTINUOUS
10
-98.4
20
-35.6
11
-83.6
21
-35.6
0
LINE
8
BLACK
6
CONTINUOUS
10
-83.6
20
-35.6
11
-83.6
21
-49.4
0
LINE
8
BLACK
6
CONTINUOUS
10
-83.6
20
-49.4
11
-98.4
21
-49.4
0
LINE
8
BLACK
6
CONTINUOUS
10
-98.4
20
-49.4
11
-98.4
21
-35.6
0
LINE
8
BLACK
6
CONTINUOUS
10
84.1
20
-1.60002
11
97.9
21
-1.60002
0
LINE
8
BLACK
6
CONTINUOUS
10
97.9
20
-1.60002
11
97.9
21
-15.4
0
LINE
8
BLACK
6
CONTINUOUS
10
97.9
20
-15.4
11
84.1
21
-15.4
0
LINE
8
BLACK
6
CONTINUOUS
10
84.1
20
-15.4
11
84.1
21
-1.60002
0
LINE
8
BLACK
6
CONTINUOUS
10
83.6
20
-1.60002
11
98.4
21
-1.60002
0
LINE
8
BLACK
6
CONTINUOUS
10
98.4
20
-1.60002
11
98.4
21
-15.4
0
LINE
8
BLACK
6
CONTINUOUS
10
98.4
20
-15.4
11
83.6
21
-15.4
0
LINE
8
BLACK
6
CONTINUOUS
10
83.6
20
-15.4
11
83.6
21
-1.60002
0
LINE
8
BLACK
6
CONTINUOUS
10
106.228
20
-6.0249
11
119.975
21
-7.22765
0
LINE
8
BLACK
6
CONTINUOUS
10
119.975
20
-7.22765
11
118.772
21
-20.9751
0
LINE
8
BLACK
6
CONTINUOUS
10
118.772
20
-20.9751
11
105.025
21
-19.7724
0
LINE
8
BLACK
6
CONTINUOUS
10
105.025
20
-19.7724
11
106.228
21
-6.0249
0
LINE
8
BLACK
6
CONTINUOUS
10
105.73
20
-5.98132
11
120.473
21
-7.27123
0
LINE
8
BLACK
6
CONTINUOUS
10
120.473
20
-7.27123
11
119.27
21
-21.0187
0
LINE
8
BLACK
6
CONTINUOUS
10
119.27
20
-21.0187
11
104.527
21
-19.7288
0
LINE
8
BLACK
6
CONTINUOUS
10
104.527
20
-19.7288
11
105.73
21
-5.98132
0
LINE
8
BLACK
6
CONTINUOUS
10
48.1
20
-25.6
11
61.9
21
-25.6
0
LINE
8
BLACK
6
CONTINUOUS
10
61.9
20
-25.6
11
61.9
21
-39.4
0
LINE
8
BLACK
6
CONTINUOUS
10
61.9
20
-39.4
11
48.1
21
-39.4
0
LINE
8
BLACK
6
CONTINUOUS
10
48.1
20
-39.4
11
48.1
21
-25.6
0
LINE
8
BLACK
6
CONTINUOUS
10
47.6
20
-25.6
11
62.4
21
-25.6
0
LINE
8
BLACK
6
CONTINUOUS
10
62.4
20
-25.6
11
62.4
21
-39.4
0
LINE
8
BLACK
6
CONTINUOUS
10
62.4
20
-39.4
11
47.6
21
-39.4
0
LINE
8
BLACK
6
CONTINUOUS
10
47.6
20
-39.4
11
47.6
21
-25.6
0
LINE
8
BLACK
6
CONTINUOUS
10
140.403
20
-43.8067
11
153.993
21
-46.203
0
LINE
8
BLACK
6
CONTINUOUS
10
153.993
20
-46.203
11
151.597
21
-59.7934
0
LINE
8
BLACK
6
CONTINUOUS
10
151.597
20
-59.7934
11
138.007
21
-57.397
0
LINE
8
BLACK
6
CONTINUOUS
10
138.007
20
-57.397
11
140.403
21
-43.8067
0
LINE
8
BLACK
6
CONTINUOUS
10
139.911
20
-43.7199
11
154.486
21
-46.2898
0
LINE
8
BLACK
6
CONTINUOUS
10
154.486
20
-46.2898
11
152.089
21
-59.8802
0
LINE
8
BLACK
6
CONTINUOUS
10
152.089
20
-59.8802
11
137.514
21
-57.3102
0
LINE
8
BLACK
6
CONTINUOUS
10
137.514
20
-57.3102
11
139.911
21
-43.7199
0
LINE
8
BLACK
6
CONTINUOUS
10
48.1
20
-42.6
11
61.9
21
-42.6
0
LINE
8
BLACK
6
CONTINUOUS
10
61.9
20
-42.6
11
61.9
21
-56.4
0
LINE
8
BLACK
6
CONTINUOUS
10
61.9
20
-56.4
11
48.1
21
-56.4
0
LINE
8
BLACK
6
CONTINUOUS
10
48.1
20
-56.4
11
48.1
21
-42.6
0
LINE
8
BLACK
6
CONTINUOUS
10
47.6
20
-42.6
11
62.4
21
-42.6
0
LINE
8
BLACK
6
CONTINUOUS
10
62.4
20
-42.6
11
62.4
21
-56.4
0
LINE
8
BLACK
6
CONTINUOUS
10
62.4
20
-56.4
11
47.6
21
-56.4
0
LINE
8
BLACK
6
CONTINUOUS
10
47.6
20
-56.4
11
47.6
21
-42.6
0
LINE
8
BLACK
6
CONTINUOUS
10
-60.597
20
-60.0067
11
-47.0067
21
-62.403
0
LINE
8
BLACK
6
CONTINUOUS
10
-47.0067
20
-62.403
11
-49.403
21
-75.9934
0
LINE
8
BLACK
6
CONTINUOUS
10
-49.403
20
-75.9934
11
-62.9933
21
-73.597
0
LINE
8
BLACK
6
CONTINUOUS
10
-62.9933
20
-73.597
11
-60.597
21
-60.0067
0
LINE
8
BLACK
6
CONTINUOUS
10
-61.0894
20
-59.9198
11
-46.5142
21
-62.4898
0
LINE
8
BLACK
6
CONTINUOUS
10
-46.5142
20
-62.4898
11
-48.9106
21
-76.0802
0
LINE
8
BLACK
6
CONTINUOUS
10
-48.9106
20
-76.0802
11
-63.4857
21
-73.5102
0
LINE
8
BLACK
6
CONTINUOUS
10
-63.4857
20
-73.5102
11
-61.0894
21
-59.9198
0
LINE
8
BLACK
6
CONTINUOUS
10
-135.808
20
-46.0752
11
-122.218
21
-43.6788
0
LINE
8
BLACK
6
CONTINUOUS
10
-122.218
20
-43.6788
11
-119.822
21
-57.2692
0
LINE
8
BLACK
6
CONTINUOUS
10
-119.822
20
-57.2692
11
-133.412
21
-59.6655
0
LINE
8
BLACK
6
CONTINUOUS
10
-133.412
20
-59.6655
11
-135.808
21
-46.0752
0
LINE
8
BLACK
6
CONTINUOUS
10
-136.301
20
-46.162
11
-121.726
21
-43.592
0
LINE
8
BLACK
6
CONTINUOUS
10
-121.726
20
-43.592
11
-119.329
21
-57.1823
0
LINE
8
BLACK
6
CONTINUOUS
10
-119.329
20
-57.1823
11
-133.904
21
-59.7523
0
LINE
8
BLACK
6
CONTINUOUS
10
-133.904
20
-59.7523
11
-136.301
21
-46.162
0
LINE
8
BLACK
6
CONTINUOUS
10
-154.056
20
-46.2464
11
-140.465
21
-43.8501
0
LINE
8
BLACK
6
CONTINUOUS
10
-140.465
20
-43.8501
11
-138.069
21
-57.4404
0
LINE
8
BLACK
6
CONTINUOUS
10
-138.069
20
-57.4404
11
-151.659
21
-59.8368
0
LINE
8
BLACK
6
CONTINUOUS
10
-151.659
20
-59.8368
11
-154.056
21
-46.2464
0
LINE
8
BLACK
6
CONTINUOUS
10
-154.548
20
-46.3332
11
-139.973
21
-43.7632
0
LINE
8
BLACK
6
CONTINUOUS
10
-139.973
20
-43.7632
11
-137.577
21
-57.3536
0
LINE
8
BLACK
6
CONTINUOUS
10
-137.577
20
-57.3536
11
-152.152
21
-59.9236
0
LINE
8
BLACK
6
CONTINUOUS
10
-152.152
20
-59.9236
11
-154.548
21
-46.3332
0
LINE
8
BLACK
6
CONTINUOUS
10
-79.9
20
-6.60001
11
-66.1
21
-6.60001
0
LINE
8
BLACK
6
CONTINUOUS
10
-66.1
20
-6.60001
11
-66.1
21
-20.4
0
LINE
8
BLACK
6
CONTINUOUS
10
-66.1
20
-20.4
11
-79.9
21
-20.4
0
LINE
8
BLACK
6
CONTINUOUS
10
-79.9
20
-20.4
11
-79.9
21
-6.60001
0
LINE
8
BLACK
6
CONTINUOUS
10
-80.4
20
-6.60001
11
-65.6
21
-6.60001
0
LINE
8
BLACK
6
CONTINUOUS
10
-65.6
20
-6.60001
11
-65.6
21
-20.4
0
LINE
8
BLACK
6
CONTINUOUS
10
-65.6
20
-20.4
11
-80.4
21
-20.4
0
LINE
8
BLACK
6
CONTINUOUS
10
-80.4
20
-20.4
11
-80.4
21
-6.60001
0
LINE
8
BLACK
6
CONTINUOUS
10
143.403
20
-27.0067
11
156.993
21
-29.403
0
LINE
8
BLACK
6
CONTINUOUS
10
156.993
20
-29.403
11
154.597
21
-42.9934
0
LINE
8
BLACK
6
CONTINUOUS
10
154.597
20
-42.9934
11
141.007
21
-40.597
0
LINE
8
BLACK
6
CONTINUOUS
10
141.007
20
-40.597
11
143.403
21
-27.0067
0
LINE
8
BLACK
6
CONTINUOUS
10
142.911
20
-26.9198
11
157.486
21
-29.4898
0
LINE
8
BLACK
6
CONTINUOUS
10
157.486
20
-29.4898
11
155.089
21
-43.0802
0
LINE
8
BLACK
6
CONTINUOUS
10
155.089
20
-43.0802
11
140.514
21
-40.5102
0
LINE
8
BLACK
6
CONTINUOUS
10
140.514
20
-40.5102
11
142.911
21
-26.9198
0
LINE
8
BLACK
6
CONTINUOUS
10
84.1
20
-35.6
11
97.9
21
-35.6
0
LINE
8
BLACK
6
CONTINUOUS
10
97.9
20
-35.6
11
97.9
21
-49.4
0
LINE
8
BLACK
6
CONTINUOUS
10
97.9
20
-49.4
11
84.1
21
-49.4
0
LINE
8
BLACK
6
CONTINUOUS
10
84.1
20
-49.4
11
84.1
21
-35.6
0
LINE
8
BLACK
6
CONTINUOUS
10
83.6
20
-35.6
11
98.4
21
-35.6
0
LINE
8
BLACK
6
CONTINUOUS
10
98.4
20
-35.6
11
98.4
21
-49.4
0
LINE
8
BLACK
6
CONTINUOUS
10
98.4
20
-49.4
11
83.6
21
-49.4
0
LINE
8
BLACK
6
CONTINUOUS
10
83.6
20
-49.4
11
83.6
21
-35.6
0
LINE
8
BLACK
6
CONTINUOUS
10
-119.975
20
-7.22764
11
-106.228
21
-6.02489
0
LINE
8
BLACK
6
CONTINUOUS
10
-106.228
20
-6.02489
11
-105.025
21
-19.7724
0
LINE
8
BLACK
6
CONTINUOUS
10
-105.025
20
-19.7724
11
-118.772
21
-20.9751
0
LINE
8
BLACK
6
CONTINUOUS
10
-118.772
20
-20.9751
11
-119.975
21
-7.22764
0
LINE
8
BLACK
6
CONTINUOUS
10
-120.473
20
-7.27122
11
-105.73
21
-5.98131
0
LINE
8
BLACK
6
CONTINUOUS
10
-105.73
20
-5.98131
11
-104.527
21
-19.7288
0
LINE
8
BLACK
6
CONTINUOUS
10
-104.527
20
-19.7288
11
-119.27
21
-21.0187
0
LINE
8
BLACK
6
CONTINUOUS
10
-119.27
20
-21.0187
11
-120.473
21
-7.27122
0
LINE
8
BLACK
6
CONTINUOUS
10
-40.1239
20
-64.6562
11
-27.1562
21
-69.3761
0
LINE
8
BLACK
6
CONTINUOUS
10
-27.1562
20
-69.3761
11
-31.8761
21
-82.3438
0
LINE
8
BLACK
6
CONTINUOUS
10
-31.8761
20
-82.3438
11
-44.8438
21
-77.624
0
LINE
8
BLACK
6
CONTINUOUS
10
-44.8438
20
-77.624
11
-40.1239
21
-64.6562
0
LINE
8
BLACK
6
CONTINUOUS
10
-40.5938
20
-64.4852
11
-26.6863
21
-69.5471
0
LINE
8
BLACK
6
CONTINUOUS
10
-26.6863
20
-69.5471
11
-31.4062
21
-82.5148
0
LINE
8
BLACK
6
CONTINUOUS
10
-31.4062
20
-82.5148
11
-45.3137
21
-77.453
0
LINE
8
BLACK
6
CONTINUOUS
10
-45.3137
20
-77.453
11
-40.5938
21
-64.4852
  0
ENDSEC
  0
EOF
