0
SECTION
2
HEADER
9
$INSUNITS
70
4
9
$ACADVER
1
AC1014
9
$HANDSEED
5
FFFF
0
ENDSEC
0
SECTION
2
TABLES
0
TABLE
2
VPORT
5
8
100
AcDbSymbolTable
0
ENDTAB
0
TABLE
2
LTYPE
5
5
100
AcDbSymbolTable
0
LTYPE
5
14
100
AcDbSymbolTableRecord
100
AcDbLinetypeTableRecord
2
BYBLOCK
70
0
0
LTYPE
5
15
100
AcDbSymbolTableRecord
100
AcDbLinetypeTableRecord
2
BYLAYER
70
0
0
ENDTAB
0
TABLE
2
LAYER
5
2
100
AcDbSymbolTable
70
2
0
LAYER
5
50
100
AcDbSymbolTableRecord
100
AcDbLayerTableRecord
2
0
70
0
6
CONTINUOUS
0
ENDTAB
0
TABLE
2
STYLE
5
3
100
AcDbSymbolTable
70
1
0
STYLE
5
11
100
AcDbSymbolTableRecord
100
AcDbTextStyleTableRecord
2
STANDARD
70
0
0
ENDTAB
0
TABLE
2
VIEW
5
6
100
AcDbSymbolTable
70
0
0
ENDTAB
0
TABLE
2
UCS
5
7
100
AcDbSymbolTable
70
0
0
ENDTAB
0
TABLE
2
APPID
5
9
100
AcDbSymbolTable
70
2
0
APPID
5
12
100
AcDbSymbolTableRecord
100
AcDbRegAppTableRecord
2
ACAD
70
0
0
ENDTAB
0
TABLE
2
DIMSTYLE
5
A
100
AcDbSymbolTable
70
1
0
ENDTAB
0
TABLE
2
BLOCK_RECORD
5
1
100
AcDbSymbolTable
70
1
0
BLOCK_RECORD
5
1F
100
AcDbSymbolTableRecord
100
AcDbBlockTableRecord
2
*MODEL_SPACE
0
BLOCK_RECORD
5
1B
100
AcDbSymbolTableRecord
100
AcDbBlockTableRecord
2
*PAPER_SPACE
0
ENDTAB
0
ENDSEC
0
SECTION
2
BLOCKS
0
BLOCK
5
20
100
AcDbEntity
100
AcDbBlockBegin
2
*MODEL_SPACE
0
ENDBLK
5
21
100
AcDbEntity
100
AcDbBlockEnd
0
BLOCK
5
1C
100
AcDbEntity
100
AcDbBlockBegin
2
*PAPER_SPACE
0
ENDBLK
5
1D
100
AcDbEntity
100
AcDbBlockEnd
0
ENDSEC
0
SECTION
2
ENTITIES
0
LINE
5
100
100
AcDbEntity
8
0
100
AcDbLine
10
-139.99999999999994
20
8.3266726846886741e-16
30
0
11
-6.000000000000032
21
1.1102230246251565e-15
31
0
0
LINE
5
101
100
AcDbEntity
8
0
100
AcDbLine
10
-3.0000000000000004
20
-2.9999999999999987
30
0
11
-3.0000000000000004
21
-64.768088077691132
31
0
0
ARC
5
102
100
AcDbEntity
8
0
100
AcDbCircle
10
-6.3533900600308044
20
-64.768088077691132
30
0
40
3.3533900600337505
210
0
220
0
230
1
100
AcDbArc
50
-64.246417504853639
51
0
0
LWPOLYLINE
5
103
100
AcDbEntity
8
0
100
AcDbPolyline
90
174
43
0.0
10
-158.99869255231783
20
-64.50000230102012
10
-157.1866610599019
20
-64.5187637107292
10
-155.4130778440478
20
-64.55050370299377
10
-153.67774543775104
20
-64.5950257141871
10
-151.9804661306373
20
-64.65213318210334
10
-150.32104221233223
20
-64.7216295445366
10
-148.69927597246152
20
-64.803318239281
10
-147.1149697006508
20
-64.89700270413066
10
-145.5679256865258
20
-65.00248637687972
10
-144.05794621971216
20
-65.11957269532228
10
-142.58483358983557
20
-65.24806509725248
10
-141.1483900865217
20
-65.38776702046442
10
-139.74841799939617
20
-65.53848190275225
10
-138.38471961808472
20
-65.70001318191007
10
-137.05709723221298
20
-65.872164295732
10
-135.76535313140667
20
-66.0547386820122
10
-134.50928960529146
20
-66.24753977854475
10
-133.28870894349294
20
-66.45037102312378
10
-132.10341343563687
20
-66.66303585354342
10
-130.95320537134887
20
-66.8853377075978
10
-129.83788110521365
20
-67.11703075415633
10
-128.75708241369387
20
-67.35757013589682
10
-127.71028889579839
20
-67.60650759336148
10
-126.6969726758311
20
-67.86342520203077
10
-125.71660587809603
20
-68.12790503738512
10
-124.76866062689706
20
-68.399529174905
10
-123.85260904653826
20
-68.67787969007081
10
-122.96792326132352
20
-68.96253865836303
10
-122.11407539555684
20
-69.25308815526208
10
-121.29053757354218
20
-69.5491102562484
10
-120.49678191958351
20
-69.85018703680245
10
-119.73228055798477
20
-70.15590057240466
10
-118.99650561304998
20
-70.46583293853547
10
-118.28892920908304
20
-70.77956621067533
10
-117.60902347038794
20
-71.09668246430469
10
-116.95626052126865
20
-71.41676377490397
10
-116.33011248602914
20
-71.73939221795362
10
-115.73005148897337
20
-72.0641498689341
10
-115.1555496544053
20
-72.39061880332582
10
-114.6060791066289
20
-72.71838109660926
10
-114.08111196994814
20
-73.04701882426482
10
-113.58012036866698
20
-73.376114061773
10
-113.1025723995105
20
-73.70524353567427
10
-112.64771063807362
20
-74.03376125986918
10
-112.21471813436395
20
-74.3611636589809
10
-111.80284997866062
20
-74.68708159683075
10
-111.41136126124289
20
-75.01114593724012
10
-110.6865425023809
20
-75.65223728102274
10
-110.03430258001153
20
-76.28148460089956
10
-109.44868221636831
20
-76.8959348074414
10
-108.92372213368478
20
-77.49263481121908
10
-108.45346305419449
20
-78.06863152280336
10
-108.03194570013098
20
-78.62097185276508
10
-107.65321079372778
20
-79.14670271167502
10
-107.31129905721846
20
-79.64287101010402
10
-107.00025121283656
20
-80.10652365862286
10
-106.71414549399977
20
-80.53421117297313
10
-106.44626246887069
20
-80.92451654781534
10
-106.18929512977506
20
-81.27821141754106
10
-105.93593387798568
20
-81.5960791951487
10
-105.67886911477532
20
-81.8789032936367
10
-105.41079124141677
20
-82.12746712600344
10
-105.12439065918284
20
-82.34255410524733
10
-104.81235776934632
20
-82.52494764436679
10
-104.46389441158729
20
-82.67685701518616
10
-104.0689511390523
20
-82.8016686255529
10
-103.6214686679027
20
-82.90189231619325
10
-103.11538783587804
20
-82.98003789027331
10
-102.5446494807179
20
-83.03861515095919
10
-101.90319444016184
20
-83.08013390141697
10
-101.55405467465394
20
-83.09528064879973
10
-101.1849635519494
20
-83.10710394481278
10
-100.79516367676565
20
-83.11591751485186
10
-100.38389498079049
20
-83.12204419367102
10
-99.95044725883791
20
-83.1262465056318
10
-99.49469038051568
20
-83.12909564985853
10
-99.01665977595331
20
-83.13091692993952
10
-98.51639087528045
20
-83.13203564946313
10
-97.99391910862664
20
-83.1327771120177
10
-97.44927990612148
20
-83.13346662119154
10
-96.88250869789452
20
-83.13442948057303
10
-96.2936409140754
20
-83.13599099375047
10
-95.68271198479366
20
-83.1384764643122
10
-95.04975734017886
20
-83.14221119584656
10
-94.39481241036063
20
-83.1475204919419
10
-93.71791262546853
20
-83.15472965618655
10
-93.01909341563213
20
-83.16416399216884
10
-92.29839021098104
20
-83.17614880347712
10
-91.5558384652618
20
-83.19100938915082
10
-90.79177667677759
20
-83.20899803786926
10
-90.00702399244649
20
-83.23021724192361
10
-89.2023489223285
20
-83.25476527256086
10
-87.53630566497152
20
-83.31424089857194
10
-85.79979498518634
20
-83.38821108587838
10
-83.9989649634526
20
-83.47746200445603
10
-82.13996368024995
20
-83.58277982428075
10
-80.22893921605808
20
-83.7049507153284
10
-78.27203965135662
20
-83.84476084757482
10
-76.27541306662529
20
-84.00299639099586
10
-74.24520754234365
20
-84.18044351556739
10
-72.18880603494803
20
-84.37798792008319
10
-70.11494453842282
20
-84.59548952415071
10
-68.03096831397997
20
-84.83192159137116
10
-63.86198169089084
20
-85.35744797119635
10
-61.79162629701925
20
-85.6444777117637
10
-59.74046618477948
20
-85.94630877140932
10
-57.715828856558886
20
-86.26190886411457
10
-55.72504181474476
20
-86.59024570386076
10
-53.77543256172452
20
-86.9302870046292
10
-51.87441209865413
20
-87.28092107179943
10
-50.029246675578776
20
-87.63992880711844
10
-48.24497297576487
20
-88.00484499394543
10
-46.52626657919854
20
-88.37331189589436
10
-44.877803065865955
20
-88.74297177657925
10
-43.3042580157532
20
-89.11146689961416
10
-42.547041033149924
20
-89.29454088439222
10
-41.81030700884637
20
-89.47643952861301
10
-41.09464039034084
20
-89.65686811522832
10
-40.40062562513162
20
-89.83553192718986
10
-39.72885930011492
20
-90.0121373944183
10
-39.079928698551846
20
-90.1863413998855
10
-38.45372076441881
20
-90.3576180073641
10
-37.849955063248046
20
-90.52540927311452
10
-37.268351160571754
20
-90.68915725339728
10
-36.70862862192213
20
-90.84830400447281
10
-36.17050701283142
20
-91.0022915826016
10
-35.65370589883185
20
-91.15056204404411
10
-35.15794484545562
20
-91.2925574450608
10
-34.68294341823494
20
-91.42771984191216
10
-34.22842118270202
20
-91.55549129085864
10
-33.7940977043891
20
-91.67531384816073
10
-33.37969254882838
20
-91.78662957007887
10
-32.98492528155207
20
-91.88888051287354
10
-32.6095154680924
20
-91.98150873280522
10
-32.25318267398158
20
-92.06395628613438
10
-31.915664016924634
20
-92.13562938149067
10
-31.59647320835977
20
-92.19584943151266
10
-31.294559643858506
20
-92.24425521029083
10
-31.008822081975726
20
-92.28053008429673
10
-30.481470000285128
20
-92.3154205838781
10
-30.005607031727013
20
-92.29798786202944
10
-29.57242324474044
20
-92.22569885052347
10
-29.17310870776444
20
-92.09602048113284
10
-28.798853489238052
20
-91.90641968563025
10
-28.44084765760032
20
-91.65436339578841
10
-28.09028128129029
20
-91.33731854337998
10
-27.738528735331887
20
-90.95240698517348
10
-27.379563323587767
20
-90.4979334994074
10
-27.009244626925895
20
-89.97697181740709
10
-26.623471497443887
20
-89.39298923066242
10
-26.21814278723935
20
-88.74945303066319
10
-25.789157348409887
20
-88.04983050889919
10
-25.332414033053112
20
-87.2975889568603
10
-24.843811693266645
20
-86.4961956660363
10
-24.319253900750574
20
-85.64913670842714
10
-23.755517623557036
20
-84.76197003576516
10
-23.150642771948593
20
-83.8407846048436
10
-22.50266362500044
20
-82.89075916515522
10
-21.80961446178776
20
-81.91707246619283
10
-21.069529561385753
20
-80.9249032574492
10
-20.28044320286961
20
-79.91943028841708
10
-19.44038966531452
20
-78.90583230858927
10
-18.54740322779569
20
-77.88928806745855
10
-17.59951816938829
20
-76.87497631451771
10
-16.594769128695344
20
-75.86807727134108
10
-15.531784462171062
20
-74.87454078615198
10
-14.41026916332355
20
-73.89853908056227
10
-13.2299316395893
20
-72.94282068447373
10
-11.990480298404835
20
-72.01013412778815
10
-10.691623547206678
20
-71.10322794040734
10
-9.333069793431319
20
-70.22485065223304
10
-7.914527444515245
20
-69.37775079316705
10
-6.43570490789498
20
-68.56467689311117
10
-4.8963368009929065
20
-67.78838950222811
0
ARC
5
104
100
AcDbEntity
8
0
100
AcDbCircle
10
-158.99373342746483
20
-62.993743892041905
30
0
40
1.506266572535182
210
0
220
0
230
1
100
AcDbArc
50
180
51
269.81136311284303
0
LINE
5
105
100
AcDbEntity
8
0
100
AcDbLine
10
-160.5
20
-62.99374389204192
30
0
11
-160.5
21
-24.999521722957944
31
0
0
ARC
5
106
100
AcDbEntity
8
0
100
AcDbCircle
10
-159.00047827704208
20
-24.999521722957944
30
0
40
1.4995217229579527
210
0
220
-0
230
1
100
AcDbArc
50
90
51
180
0
LINE
5
107
100
AcDbEntity
8
0
100
AcDbLine
10
-159.00047827704208
20
-23.499999999999993
30
0
11
-147.40000000000029
21
-23.499999999999996
31
0
0
ARC
5
108
100
AcDbEntity
8
0
100
AcDbCircle
10
-147.40000000000029
20
-17.599999999999696
30
0
40
5.9000000000003006
210
0
220
0
230
1
100
AcDbArc
50
270
51
360
0
LINE
5
109
100
AcDbEntity
8
0
100
AcDbLine
10
-141.5
20
-17.599999999999703
30
0
11
-141.49999999999994
21
-1.4999999999999969
31
0
0
ARC
5
110
100
AcDbEntity
8
0
100
AcDbCircle
10
-139.99999999999994
20
-1.5000000000000078
30
0
40
1.5000000000000084
210
0
220
-0
230
1
100
AcDbArc
50
90
51
180
0
ARC
5
111
100
AcDbEntity
8
0
100
AcDbCircle
10
-6.0000000000000133
20
-3.0000000000000115
30
0
40
3.0000000000000124
210
0
220
-0
230
1
100
AcDbArc
50
0
51
90.000000000000369
0
LINE
5
112
100
AcDbEntity
8
0
100
AcDbLine
10
-89
20
-81.999999000000003
30
0
11
-105.55463526055672
21
-81.999999000000003
31
0
0
LINE
5
113
100
AcDbEntity
8
0
100
AcDbLine
10
-89
20
-83.261372695226868
30
0
11
-89
21
-81.999999000000003
31
0
0
ENDSEC
0
SECTION
2
OBJECTS
0
DICTIONARY
5
C
100
AcDbDictionary
3
ACAD_GROUP
350
D
3
ACAD_MLINESTYLE
350
17
0
DICTIONARY
5
D
100
AcDbDictionary
0
DICTIONARY
5
1A
330
C
100
AcDbDictionary
0
DICTIONARY
5
17
100
AcDbDictionary
0
ENDSEC
0
EOF
