0
SECTION
2
HEADER
9
$INSUNITS
70
4
9
$ACADVER
1
AC1014
9
$HANDSEED
5
FFFF
0
ENDSEC
0
SECTION
2
TABLES
0
TABLE
2
VPORT
5
8
100
AcDbSymbolTable
0
ENDTAB
0
TABLE
2
LTYPE
5
5
100
AcDbSymbolTable
0
LTYPE
5
14
100
AcDbSymbolTableRecord
100
AcDbLinetypeTableRecord
2
BYBLOCK
70
0
0
LTYPE
5
15
100
AcDbSymbolTableRecord
100
AcDbLinetypeTableRecord
2
BYLAYER
70
0
0
ENDTAB
0
TABLE
2
LAYER
5
2
100
AcDbSymbolTable
70
2
0
LAYER
5
50
100
AcDbSymbolTableRecord
100
AcDbLayerTableRecord
2
0
70
0
6
CONTINUOUS
0
ENDTAB
0
TABLE
2
STYLE
5
3
100
AcDbSymbolTable
70
1
0
STYLE
5
11
100
AcDbSymbolTableRecord
100
AcDbTextStyleTableRecord
2
STANDARD
70
0
0
ENDTAB
0
TABLE
2
VIEW
5
6
100
AcDbSymbolTable
70
0
0
ENDTAB
0
TABLE
2
UCS
5
7
100
AcDbSymbolTable
70
0
0
ENDTAB
0
TABLE
2
APPID
5
9
100
AcDbSymbolTable
70
2
0
APPID
5
12
100
AcDbSymbolTableRecord
100
AcDbRegAppTableRecord
2
ACAD
70
0
0
ENDTAB
0
TABLE
2
DIMSTYLE
5
A
100
AcDbSymbolTable
70
1
0
ENDTAB
0
TABLE
2
BLOCK_RECORD
5
1
100
AcDbSymbolTable
70
1
0
BLOCK_RECORD
5
1F
100
AcDbSymbolTableRecord
100
AcDbBlockTableRecord
2
*MODEL_SPACE
0
BLOCK_RECORD
5
1B
100
AcDbSymbolTableRecord
100
AcDbBlockTableRecord
2
*PAPER_SPACE
0
ENDTAB
0
ENDSEC
0
SECTION
2
BLOCKS
0
BLOCK
5
20
100
AcDbEntity
100
AcDbBlockBegin
2
*MODEL_SPACE
0
ENDBLK
5
21
100
AcDbEntity
100
AcDbBlockEnd
0
BLOCK
5
1C
100
AcDbEntity
100
AcDbBlockBegin
2
*PAPER_SPACE
0
ENDBLK
5
1D
100
AcDbEntity
100
AcDbBlockEnd
0
ENDSEC
0
SECTION
2
ENTITIES
0
LINE
5
100
100
AcDbEntity
8
0
100
AcDbLine
10
-102.39999995545188
20
1.0884352308337952e-08
30
0
11
-6.00000055654478
21
-9.3119956190435005e-14
31
0
0
ARC
5
101
100
AcDbEntity
8
0
100
AcDbCircle
10
-6.0000000000004663
20
-3.0000000000000449
30
0
40
3
210
0
220
0
230
1
100
AcDbArc
50
0
51
90.000010629213435
0
LINE
5
102
100
AcDbEntity
8
0
100
AcDbLine
10
-3.0000000000004663
20
-3.0000000004067258
30
0
11
-2.9999980714468282
21
-64.999686946929913
31
0
0
ARC
5
103
100
AcDbEntity
8
0
100
AcDbCircle
10
-5.9897857368052616
20
-65.005722870331965
30
0
40
2.989793751772496
210
0
220
0
230
1
100
AcDbArc
50
-68.547656727485673
51
0.11567124667756515
0
LWPOLYLINE
5
104
100
AcDbEntity
8
0
100
AcDbPolyline
90
550
43
0.0
10
-158.99869255231783
20
-64.50000230102012
10
-158.54206950072174
20
-64.5034651622571
10
-158.0878585059278
20
-64.50774840008205
10
-157.63605672208124
20
-64.51284894178973
10
-157.18666105995743
20
-64.51876371609568
10
-156.73966843033173
20
-64.5254896517154
10
-156.29507574397957
20
-64.53302367736448
10
-155.8528799116763
20
-64.54136272175845
10
-155.41307784419735
20
-64.55050371361284
10
-154.97566645231808
20
-64.56044358164318
10
-154.54064264681392
20
-64.57117925456505
10
-154.10800333846026
20
-64.58270766109398
10
-153.67774543803245
20
-64.59502572994549
10
-153.24986585630592
20
-64.60813038983514
10
-152.82436150405604
20
-64.62201856947847
10
-152.4012292920582
20
-64.63668719759103
10
-151.9804661310878
20
-64.65213320288835
10
-151.5620689319203
20
-64.66835351408596
10
-151.14603460533095
20
-64.68534505989943
10
-150.73236006209527
20
-64.7031047690443
10
-150.32104221298857
20
-64.7216295702361
10
-149.9120779687863
20
-64.74091639219039
10
-149.5054642402638
20
-64.76096216362268
10
-149.10119793819652
20
-64.78176381324853
10
-148.6992759733598
20
-64.80331826978349
10
-148.29969525652905
20
-64.8256224619431
10
-147.90245269847964
20
-64.84867331844288
10
-147.50754520998703
20
-64.8724677679984
10
-147.11496970182654
20
-64.8970027393252
10
-146.7247230847736
20
-64.9222751611388
10
-146.3368022696036
20
-64.94828196215477
10
-145.9512041670919
20
-64.97502007108864
10
-145.56792568801393
20
-65.00248641665593
10
-145.18696374314507
20
-65.03067792757223
10
-144.8083152432607
20
-65.05959153255304
10
-144.43197709913625
20
-65.08922416031392
10
-144.05794622154704
20
-65.11957273957042
10
-143.68621952126853
20
-65.15063419903807
10
-143.3167939090761
20
-65.1824054674324
10
-142.94966629574512
20
-65.21488347346899
10
-142.58483359205098
20
-65.24806514586334
10
-142.2222927087691
20
-65.28194741333103
10
-141.86204055667486
20
-65.31652720458756
10
-141.50407404654365
20
-65.35180144834852
10
-141.14839008915084
20
-65.38776707332943
10
-140.79498559527187
20
-65.42442100824582
10
-140.44385747568208
20
-65.46176018181325
10
-140.0950026411569
20
-65.49978152274726
10
-139.74841800247168
20
-65.53848195976337
10
-139.4041004704019
20
-65.57785842157716
10
-139.06204695572282
20
-65.61790783690414
10
-138.72225436920994
20
-65.65862713445986
10
-138.38471962163862
20
-65.70001324295988
10
-138.04943962378425
20
-65.74206309111973
10
-137.71641128642221
20
-65.78477360765496
10
-137.3856315203279
20
-65.82814172128109
10
-137.05709723627675
20
-65.87216436071368
10
-136.73080534504408
20
-65.91683845466828
10
-136.40675275740534
20
-65.96216093186041
10
-136.0849363841359
20
-66.00812872100562
10
-135.76535313601113
20
-66.05473875081945
10
-135.44799992380646
20
-66.10198795001747
10
-135.13287365829729
20
-66.1498732473152
10
-134.81997125025896
20
-66.19839157142816
10
-134.5092896104669
20
-66.24753985107193
10
-134.20082564969653
20
-66.29731501496205
10
-133.89457627872315
20
-66.34771399181403
10
-133.59053840832223
20
-66.39873371034344
10
-133.28870894926914
20
-66.45037109926581
10
-132.98908481233926
20
-66.5026230872967
10
-132.691662908308
20
-66.55548660315162
10
-132.39644014795073
20
-66.60895857554614
10
-132.10341344204286
20
-66.6630359331958
10
-131.8125797013598
20
-66.71771560481614
10
-131.5239358366769
20
-66.77299451912268
10
-131.23747875876958
20
-66.82886960483098
10
-130.95320537841326
20
-66.8853377906566
10
-130.67111260638325
20
-66.94239600531506
10
-130.3911973596417
20
-67.00004102781826
10
-130.11345595448196
20
-67.05825716912852
10
-129.83788111296417
20
-67.11703084051824
10
-129.5644645870305
20
-67.1763555119168
10
-129.29319812862323
20
-67.2362246532536
10
-129.02407348968458
20
-67.29663173445806
10
-128.75708242215677
20
-67.35757022545958
10
-128.49221667798204
20
-67.41903359618756
10
-128.2294680091026
20
-67.48101531657143
10
-127.96882816746067
20
-67.54350885654057
10
-127.71028890499852
20
-67.6065076860244
10
-127.45384197365837
20
-67.67000527495232
10
-127.19947912538242
20
-67.73399509325374
10
-126.94719211211294
20
-67.79847061085806
10
-126.69697268579213
20
-67.8634252976947
10
-126.44881259836222
20
-67.92885262369305
10
-126.20270360176548
20
-67.99474605878252
10
-125.9586374479441
20
-68.06109907289253
10
-125.71660588884032
20
-68.12790513595249
10
-125.47660067639636
20
-68.19515771789177
10
-125.23861356255448
20
-68.26285028863981
10
-125.00263629925688
20
-68.330976318126
10
-124.76866063844582
20
-68.39952927627976
10
-124.53667833206349
20
-68.46850263303048
10
-124.30668113205216
20
-68.53788985830758
10
-124.07866079035404
20
-68.60768442204046
10
-123.85260905891134
20
-68.67787979415853
10
-123.40637843456125
20
-68.81944684326785
10
-122.96792327453967
20
-68.9625387650708
10
-122.53717759438446
20
-69.10710331900263
10
-122.11407540963347
20
-69.2530882644986
10
-121.69855073582454
20
-69.40044136099392
10
-121.29053758849551
20
-69.54911036792389
10
-120.88996998318422
20
-69.69904304472372
10
-120.49678193542849
20
-69.8501871508287
10
-120.11090746076619
20
-70.00249044567406
10
-119.73228057473514
20
-70.15590068869504
10
-119.3608352928732
20
-70.3103656393269
10
-118.99650563071823
20
-70.46583305700491
10
-118.639225603808
20
-70.62225070116429
10
-118.28892922768041
20
-70.77956633124032
10
-117.94555051787329
20
-70.93772770666821
10
-117.60902348992448
20
-71.09668258688326
10
-117.2792821593718
20
-71.25637873132068
10
-116.95626054175314
20
-71.41676389941576
10
-116.63989265260628
20
-71.5777858506037
10
-116.33011250746911
20
-71.7393923443198
10
-116.02685412187945
20
-71.90153113999926
10
-115.73005151137512
20
-72.0641499970774
10
-115.43963869149401
20
-72.2271966749894
10
-115.15554967777392
20
-72.39061893317054
10
-114.87771848575272
20
-72.5543645310561
10
-114.60607913096823
20
-72.71838122808127
10
-114.34056562895829
20
-72.88261678368136
10
-114.08111199526076
20
-73.04701895729157
10
-113.82765224541346
20
-73.2115355083472
10
-113.58012039495424
20
-73.37611419628347
10
-113.33845045942094
20
-73.54070278053563
10
-113.10257242677253
20
-73.70524367159904
10
-112.8723613324674
20
-73.86961887900252
10
-112.64771066630854
20
-74.03376139714105
10
-112.42852731458065
20
-74.1976250839926
10
-112.2147181635685
20
-74.3611637975351
10
-112.00619009955682
20
-74.5243313957465
10
-111.8028500088304
20
-74.68708173660474
10
-111.60460477767401
20
-74.84936867808777
10
-111.4113612923724
20
-75.01114607817352
10
-111.22302643921034
20
-75.17236779483997
10
-111.03950710447259
20
-75.33298768606502
10
-110.86071017444391
20
-75.49295960982663
10
-110.68654253540907
20
-75.65223742410275
10
-110.5169110736528
20
-75.81077498687134
10
-110.35172267545991
20
-75.96852615611031
10
-110.19088422711515
20
-76.12544478979764
10
-110.03430261490325
20
-76.28148474591124
10
-109.881884725109
20
-76.43659988242909
10
-109.73353744401716
20
-76.5907440573291
10
-109.58916765791251
20
-76.74387112858925
10
-109.44868225307978
20
-76.89593495418745
10
-109.31198811580374
20
-77.04688939210166
10
-109.17899213236916
20
-77.19668830030983
10
-109.0496011890608
20
-77.3452855367899
10
-108.92372217216342
20
-77.49263495951982
10
-108.80126196796178
20
-77.63869042647752
10
-108.68212746274065
20
-77.78340579564096
10
-108.5662255427848
20
-77.92673492498807
10
-108.45346309437898
20
-78.0686316724968
10
-108.34374700380795
20
-78.20904989614512
10
-108.23698415735649
20
-78.34794345391093
10
-108.13308144130933
20
-78.48526620377221
10
-108.03194574195128
20
-78.62097200370688
10
-107.93348394556705
20
-78.7550147116929
10
-107.83760293844144
20
-78.8873481857082
10
-107.74420960685919
20
-79.01792628373076
10
-107.65321083710508
20
-79.14670286373848
10
-107.56451351546386
20
-79.27363178370932
10
-107.4780245282203
20
-79.39866690162124
10
-107.39365076165917
20
-79.52176207545217
10
-107.3112991020652
20
-79.64287116318006
10
-107.23087643572318
20
-79.76194802278286
10
-107.15228964891789
20
-79.87894651223849
10
-107.07544562793404
20
-79.99382048952492
10
-107.00025125905644
20
-80.10652381262008
10
-106.92661840883738
20
-80.21698538019223
10
-106.85446468529626
20
-80.32508488400033
10
-106.78367846700593
20
-80.430822786266
10
-106.71414554148627
20
-80.53421132781769
10
-106.64575169625725
20
-80.63526274948381
10
-106.57838271883878
20
-80.73398929209283
10
-106.51192439675076
20
-80.83040319647317
10
-106.44626251751312
20
-80.92451670345326
10
-106.38128286864581
20
-81.01634205386155
10
-106.31687123766875
20
-81.10589148852648
10
-106.25291341210182
20
-81.19317724827648
10
-106.18929517946499
20
-81.27821157394
10
-106.12590232727818
20
-81.36100670634549
10
-106.0626206430613
20
-81.44157488632135
10
-105.99933591433424
20
-81.51992835469603
10
-105.93593392861696
20
-81.596079352298
10
-105.87230047342945
20
-81.67004011995569
10
-105.80832133629153
20
-81.74182289849749
10
-105.74388230472316
20
-81.8114399287519
10
-105.67886916624424
20
-81.87890345154732
10
-105.61316770837473
20
-81.94422570771219
10
-105.54666371863456
20
-82.00741893807498
10
-105.47924298454362
20
-82.06849538346408
10
-105.41079129362184
20
-82.12746728470799
10
-105.34119443338916
20
-82.18434688263508
10
-105.2703381913655
20
-82.23914641807384
10
-105.19810835507077
20
-82.2918781318527
10
-105.1243907120249
20
-82.34255426480007
10
-105.04907104974784
20
-82.39118705774442
10
-104.97203515575944
20
-82.43778875151418
10
-104.89316881757972
20
-82.48237158693777
10
-104.81235782272852
20
-82.52494780484365
10
-104.72926803519762
20
-82.56560284234646
10
-104.64355739019837
20
-82.60444658759273
10
-104.55513109174235
20
-82.64151829381734
10
-104.4638944654194
20
-82.67685717669502
10
-104.36975283681929
20
-82.71050245190051
10
-104.27261153153184
20
-82.74249333510856
10
-104.17237587514684
20
-82.77286904199396
10
-104.06895119325405
20
-82.80166878823142
10
-103.96224281144332
20
-82.82893178949571
10
-103.8521560553044
20
-82.85469726146157
10
-103.73859625042714
20
-82.87900441980376
10
-103.62146872240127
20
-82.90189248019703
10
-103.50067879681664
20
-82.92340065831613
10
-103.37613179926304
20
-82.9435681698358
10
-103.24773305533024
20
-82.9624342304308
10
-103.11538789060806
20
-82.98003805577588
10
-102.97900163068628
20
-82.99641886154579
10
-102.83847960115473
20
-83.01161586341529
10
-102.69372712760317
20
-83.02566827705911
10
-102.54464953562139
20
-83.03861531815203
10
-102.39115215079923
20
-83.05049620236876
10
-102.23314029872647
20
-83.0613501453841
10
-102.0705193049929
20
-83.07121636287278
10
-101.90319449518829
20
-83.08013407050953
10
-101.73107119490248
20
-83.08814248396914
10
-101.55405472972527
20
-83.09528081892631
10
-101.37205042524641
20
-83.10158829105583
10
-101.18496360705574
20
-83.10710411603246
10
-100.99269960074302
20
-83.11186750953091
10
-100.79516373189809
20
-83.11591768722595
10
-100.59226132611073
20
-83.11929386479235
10
-100.38389503594104
20
-83.12204436726309
10
-100.16996203390086
20
-83.1243350013181
10
-99.95044731400093
20
-83.12624668050755
10
-99.72535530500758
20
-83.12782006778004
10
-99.49469043568712
20
-83.12909582608403
10
-99.25845713480587
20
-83.1301146183681
10
-99.01665983113016
20
-83.13091710758076
10
-98.76930295342629
20
-83.13154395667053
10
-98.5163909304606
20
-83.13203582858594
10
-98.2579281909994
20
-83.13243338627555
10
-97.993919163809
20
-83.13277729268785
10
-97.72436827765571
20
-83.1331082107714
10
-97.44927996130586
20
-83.13346680347469
10
-97.16865864352577
20
-83.13389373374629
10
-96.88250875308178
20
-83.1344296645347
10
-96.59083471874015
20
-83.13511525878847
10
-96.29364096926726
20
-83.13599117945611
10
-95.9909319334294
20
-83.13709808948617
10
-95.68271203999288
20
-83.13847665182716
10
-95.36898571772402
20
-83.14016752942763
10
-95.04975739538915
20
-83.14221138523608
10
-94.72503150175459
20
-83.14464888220105
10
-94.39481246558664
20
-83.14752068327107
10
-94.05910471565164
20
-83.15086745139469
10
-93.7179126807159
20
-83.15472984952041
10
-93.37124078954574
20
-83.15914854059679
10
-93.01909347090744
20
-83.16416418757231
10
-92.66147515356737
20
-83.16981745339555
10
-92.29839026629183
20
-83.17614900101499
10
-91.92984323784715
20
-83.1831994933792
10
-91.55583852061662
20
-83.19100958888784
10
-91.1764420202596
20
-83.19960623690662
10
-90.7917767321857
20
-83.20899823986909
10
-90.40193872015247
20
-83.21919788168088
10
-90.00702404791747
20
-83.23021744624755
10
-89.60712877923818
20
-83.2420692174747
10
-89.20234897787215
20
-83.2547654792679
10
-88.79278070757694
20
-83.26831851553275
10
-88.37852003211002
20
-83.28274061017484
10
-87.95966301522897
20
-83.29804404709976
10
-87.53630572069132
20
-83.31424111021309
10
-87.10854421225459
20
-83.33134408342043
10
-86.6764745536763
20
-83.34936525062737
10
-86.24019280871401
20
-83.36831689573948
10
-85.7997950411252
20
-83.38821130266236
10
-85.35537731466744
20
-83.40906075530158
10
-84.90703569309827
20
-83.43087753756275
10
-84.4548662401752
20
-83.45367393335147
10
-83.99896501965578
20
-83.4774622265733
10
-83.53942809529752
20
-83.50225470113384
10
-83.07635153085795
20
-83.52806364093867
10
-82.60983139009463
20
-83.5549013298934
10
-82.13996373676504
20
-83.58278005190358
10
-81.66684463462676
20
-83.61171209087485
10
-81.19057014743731
20
-83.64170973071276
10
-80.71123633895421
20
-83.67278525532289
10
-80.22893927293498
20
-83.70495094861087
10
-79.7437750131372
20
-83.73821909448226
10
-79.25583962331835
20
-83.77260197684265
10
-78.76522916723597
20
-83.80811187959762
10
-78.2720397086476
20
-83.84476108665278
10
-77.77636731131076
20
-83.88256188191372
10
-77.27830803898301
20
-83.92152654928601
10
-76.77795795542188
20
-83.96166737267524
10
-76.27541312438485
20
-84.00299663598699
10
-75.77076960962948
20
-84.04552662312689
10
-75.26412347491333
20
-84.08926961800049
10
-74.75557078399392
20
-84.13423790451337
10
-74.24520760062876
20
-84.18044376657114
10
-73.2196539743155
20
-84.27665888515365
10
-72.18880609381816
20
-84.37798817717713
10
-71.15359765575936
20
-84.48430815650643
10
-70.1149445979371
20
-84.59548978738653
10
-69.07376285814944
20
-84.71140403406234
10
-68.03096837419446
20
-84.83192186077886
10
-66.98747708387015
20
-84.95691423178098
10
-65.94420492497458
20
-85.08625211131374
10
-64.90206783530577
20
-85.21980646362199
10
-63.86198175266171
20
-85.35744825295079
10
-62.8248626148405
20
-85.49904844354502
10
-61.791626359640176
20
-85.64447799964967
10
-60.763188924858774
20
-85.79360788550964
10
-59.74046624829431
20
-85.94630906536995
10
-58.724374267744835
20
-86.1024525034755
10
-58.21910101903761
20
-86.18177474569681
10
-57.71582892100838
20
-86.2619091640713
10
-57.21467246588192
20
-86.34283962912957
10
-56.71574614588298
20
-86.42455001140225
10
-56.21916445323632
20
-86.50702418141998
10
-55.72504188016666
20
-86.59024600971335
10
-55.233492918898776
20
-86.674199366813
10
-54.744632061657455
20
-86.75886812324951
10
-54.258573800667435
20
-86.84423614955357
10
-53.77543262815346
20
-86.93028731625571
10
-53.29532303634029
20
-87.01700549388663
10
-52.818359517452684
20
-87.10437455297689
10
-52.34466993385807
20
-87.19236894661432
10
-51.874412166121516
20
-87.28092138905595
10
-51.40766790734119
20
-87.36999046823048
10
-50.94451021345428
20
-87.45953934450678
10
-50.485012140397956
20
-87.54953117825355
10
-50.029246744109386
20
-87.63992912983953
10
-49.57728708052576
20
-87.73069635963348
10
-49.12920620558424
20
-87.82179602800419
10
-48.685077175222006
20
-87.91319129532035
10
-48.2449730453762
20
-88.00484532195075
10
-47.80896687198403
20
-88.09672126826416
10
-47.37713171098269
20
-88.18878229462928
10
-46.94954061830933
20
-88.28099156141491
10
-46.526266649901125
20
-88.37331222898978
10
-46.107382861695235
20
-88.46570745772264
10
-45.69296230962886
20
-88.55814040798225
10
-45.283078049639165
20
-88.65057424013736
10
-44.8778031376633
20
-88.74297211455672
10
-44.47721062963848
20
-88.83529719160911
10
-44.08137358150185
20
-88.92751263166325
10
-43.69036504919059
20
-89.01958159508789
10
-43.304258088641866
20
-89.11146724225179
10
-42.92312575579288
20
-89.20313273352372
10
-42.547041106580785
20
-89.29454122927241
10
-42.17607719694275
20
-89.38565588986663
10
-41.81030708281594
20
-89.47643987567511
10
-41.44980382013755
20
-89.56685634706662
10
-41.094640464844765
20
-89.65686846440991
10
-40.74489007287474
20
-89.74643938807372
10
-40.40062570016467
20
-89.83553227842684
10
-40.0619204026517
20
-89.92411029583795
10
-39.72885937567101
20
-90.01213774764476
10
-39.40153621456541
20
-90.09957080461264
10
-39.07992877462385
20
-90.18634175503381
10
-38.76400200153762
20
-90.27238085594107
10
-38.45372084099806
20
-90.35761836436699
10
-38.14905023869649
20
-90.44198453734424
10
-37.84995514032422
20
-90.52540963190552
10
-37.556400491572575
20
-90.60782390508345
10
-37.26835123813287
20
-90.68915761391071
10
-36.985772325696445
20
-90.76934101541998
10
-36.70862869995458
20
-90.84830436664392
10
-36.436885306598626
20
-90.92597792461515
10
-36.17050709131991
20
-91.0022919463664
10
-35.90945899980975
20
-91.07717668893027
10
-35.65370597775946
20
-91.15056240933943
10
-35.40321297086035
20
-91.2223793646266
10
-35.15794492480376
20
-91.29255781182438
10
-34.917866785280985
20
-91.36102800796544
10
-34.68294349798338
20
-91.42772021008246
10
-34.453140008602226
20
-91.49256467520811
10
-34.22842126282887
20
-91.55549166037505
10
-34.00875220635462
20
-91.61643142261593
10
-33.794097784870814
20
-91.67531421896342
10
-33.58442294406875
20
-91.73207030645018
10
-33.37969262963976
20
-91.78662994210886
10
-33.17987178727517
20
-91.83892338297214
10
-32.984925362666274
20
-91.88888088607267
10
-32.794818301504414
20
-91.93643270844314
10
-32.60951554948092
20
-91.98150910711615
10
-32.428982052287104
20
-92.02404033912444
10
-32.253182755614276
20
-92.06395666150061
10
-32.08208260742548
20
-92.10118832861379
10
-31.915664098769597
20
-92.13562975785646
10
-31.75384021148238
20
-92.16719677765668
10
-31.596473290383077
20
-92.19584980882378
10
-31.44342568029093
20
-92.22154927216714
10
-31.29455972602517
20
-92.24425558849607
10
-31.149737772405057
20
-92.26392917862
10
-31.00882216424982
20
-92.28053046334823
10
-30.87167524637871
20
-92.29401986349012
10
-30.738159363610972
20
-92.30435779985503
10
-30.60813686076584
20
-92.31150469325233
10
-30.481470082662554
20
-92.3154209644914
10
-30.358021374120362
20
-92.3160670343815
10
-30.237653079958513
20
-92.3134033237321
10
-30.120227544996247
20
-92.3073902533525
10
-30.005607114052808
20
-92.29798824405204
10
-29.893654131947436
20
-92.2851577166401
10
-29.784230943499374
20
-92.26885909192605
10
-29.67719989352786
20
-92.24905279071922
10
-29.572423326852146
20
-92.22569923382899
10
-29.46976358829147
20
-92.19875884206468
10
-29.369083022665077
20
-92.16819203623567
10
-29.270243974792198
20
-92.1339592371513
10
-29.173108789492094
20
-92.09602086562096
10
-29.077539811583996
20
-92.05433734245398
10
-28.98339938588715
20
-92.0088690884597
10
-28.8905498572208
20
-91.95957652444754
10
-28.798853570404187
20
-91.90642007122678
10
-28.708172870256547
20
-91.8493601496068
10
-28.618370101597144
20
-91.78835718039697
10
-28.529307609245198
20
-91.72337158440665
10
-28.440847738019972
20
-91.65436378244517
10
-28.352852832740687
20
-91.58129419532192
10
-28.265185238226604
20
-91.50412324384622
10
-28.177707299296955
20
-91.42281134882747
10
-28.090281360770987
20
-91.33731893107498
10
-28.002769767467946
20
-91.24760641139812
10
-27.915035647015973
20
-91.15362751409212
10
-27.826976819414604
20
-91.05523064120675
10
-27.73852881367265
20
-90.9524073739102
10
-27.649627549354275
20
-90.84521188863229
10
-27.560208946023685
20
-90.73369836180267
10
-27.470208923245053
20
-90.61792096985108
10
-27.379563400582576
20
-90.49793388920722
10
-27.288208297600416
20
-90.37379129630084
10
-27.19607953386279
20
-90.24554736756166
10
-27.103113028933866
20
-90.11325627941933
10
-27.009244702377835
20
-89.97697220830365
10
-26.914410473758874
20
-89.83674933064431
10
-26.81854626264118
20
-89.69264182287102
10
-26.721587988588933
20
-89.5447038614135
10
-26.62347157116632
20
-89.39298962270145
10
-26.52413292993752
20
-89.23755328316467
10
-26.423507984466728
20
-89.07844901923278
10
-26.321532654318126
20
-88.91573100733554
10
-26.2181428590559
20
-88.74945342390265
10
-26.113274518244232
20
-88.57967044536385
10
-26.006863551447314
20
-88.40643624814885
10
-25.898845878229324
20
-88.22980500868739
10
-25.789157418154453
20
-88.04983090340913
10
-25.67773409078688
20
-87.86656810874385
10
-25.5645118156908
20
-87.68007080112123
10
-25.4494265124304
20
-87.49039315697101
10
-25.33241410056986
20
-87.29758935272291
10
-25.21341049967336
20
-87.10171356480664
10
-25.092351629305096
20
-86.9028199696519
10
-24.969173409029246
20
-86.70096274368842
10
-24.843811758410002
20
-86.49619606334596
10
-24.71620259701155
20
-86.28857410505415
10
-24.586281844398066
20
-86.07815104524279
10
-24.45398542013374
20
-85.86498106034156
10
-24.319253963385307
20
-85.64913710729027
10
-24.18206913442867
20
-85.43081791098078
10
-24.042405287732443
20
-85.21012978840496
10
-23.90023170890741
20
-84.98715365752365
10
-23.75551768356436
20
-84.76197043629784
10
-23.608232497314077
20
-84.53466104268844
10
-23.458345435767356
20
-84.30530639465633
10
-23.30582578453499
20
-84.07398741016245
10
-23.150642829227756
20
-83.84078500716768
10
-22.992765855456458
20
-83.60578010363298
10
-22.83216414883188
20
-83.36905361751926
10
-22.66880699496481
20
-83.1306864667874
10
-22.50266367946603
20
-82.89075956939833
10
-22.333703487946334
20
-82.649353843313
10
-22.161895706016523
20
-82.40655020649231
10
-21.987209619287384
20
-82.16242957689715
10
-21.809614513369702
20
-81.91707287248846
10
-21.629079673874262
20
-81.67056101122715
10
-21.445574386411856
20
-81.42297491107414
10
-21.25906793659328
20
-81.17439548999033
10
-21.069529610029313
20
-80.92490366593665
10
-20.876928692330758
20
-80.67458035687402
10
-20.681234469108393
20
-80.42350648076332
10
-20.482416225973008
20
-80.1717629555655
10
-20.280443248535384
20
-79.91943069924147
10
-20.075284822406328
20
-79.66659062975214
10
-19.86691023319663
20
-79.41332366505843
10
-19.655288766517074
20
-79.15971072312125
10
-19.44038970797845
20
-78.90583272190153
10
-19.222182343191545
20
-78.65177057936019
10
-19.00063595776715
20
-78.39760521345812
10
-18.775719837316057
20
-78.14341754215624
10
-18.547403267449052
20
-77.88928848341548
10
-18.315655533776923
20
-77.63529895519675
10
-18.080445921910464
20
-77.38152987546096
10
-17.84174371746046
20
-77.12806216216903
10
-17.59951820603769
20
-76.87497673328185
10
-17.35373867325296
20
-76.62235450676039
10
-17.104374404717067
20
-76.37027640056553
10
-16.851394686040788
20
-76.1188233326582
10
-16.594769162362745
20
-75.86807769308088
10
-16.33449429530363
20
-75.61819999719599
10
-16.07057493212859
20
-75.3692893877077
10
-15.803006516703949
20
-75.12138881039576
10
-15.531784492896028
20
-74.87454121103987
10
-15.256904304571155
20
-74.62878953541978
10
-14.978361395595645
20
-74.38417672931524
10
-14.696151209835826
20
-74.14074573850594
10
-14.410269191158017
20
-73.89853950877162
10
-14.120710783428542
20
-73.65760098589202
10
-13.827471430513727
20
-73.41797311564684
10
-13.530546576279889
20
-73.17969884381584
10
-13.229931664593337
20
-72.94282111617873
10
-12.925622139320406
20
-72.70738287851525
10
-12.617613444327445
20
-72.47342707660512
10
-12.305901023480752
20
-72.24099665622809
10
-11.99048032064665
20
-72.01013456316389
10
-11.671346779691465
20
-71.7808837431922
10
-11.348495844481516
20
-71.5532871420928
10
-11.021922958883128
20
-71.32738770564539
10
-10.691623566762622
20
-71.10322837962973
10
-10.357593111986322
20
-70.88085210982551
10
-10.019827038420551
20
-70.66030184201249
10
-9.678320789931632
20
-70.44162052197036
10
-9.333069810385885
20
-70.2248510954789
10
-8.984069543649634
20
-70.0100365083178
10
-8.6313154335892
20
-69.7972197062668
10
-8.27480292407091
20
-69.58644363510564
10
-7.914527458961061
20
-69.37775124061403
10
-7.550484482126
20
-69.1711854685717
10
-7.182669437432066
20
-68.9667892647584
10
-6.811077768745566
20
-68.76460557495385
10
-6.435704919932817
20
-68.56467734493778
10
-6.056546334860147
20
-68.3670475204899
10
-5.673597457393875
20
-68.17175904738997
10
-5.286853731400327
20
-67.9788548714177
10
-4.896336810731711
20
-67.78838995861369
0
ARC
5
105
100
AcDbEntity
8
0
100
AcDbCircle
10
-158.99374393380913
20
-62.993743864828673
30
0
40
1.5062665318186754
210
0
220
0
230
1
100
AcDbArc
50
180.21399950862508
51
269.81176275728251
0
LINE
5
106
100
AcDbEntity
8
0
100
AcDbLine
10
-160.49999995928388
20
-62.99936975125447
30
0
11
-160.5
21
-28.996976657534915
31
0
0
ARC
5
107
100
AcDbEntity
8
0
100
AcDbCircle
10
-159
20
-28.996976657534898
30
0
40
1.4999999999999991
210
0
220
-0
230
1
100
AcDbArc
50
90
51
180
0
LINE
5
108
100
AcDbEntity
8
0
100
AcDbLine
10
-159
20
-27.496976657534901
30
0
11
-128.40000000000001
21
-27.496976657534915
31
0
0
ARC
5
109
100
AcDbEntity
8
0
100
AcDbCircle
10
-128.40000000000001
20
-21.59697665753491
30
0
40
5.9000000000000075
210
0
220
0
230
1
100
AcDbArc
50
-90
51
5.4668187275950014e-06
0
LINE
5
110
100
AcDbEntity
8
0
100
AcDbLine
10
-122.50000000000003
20
-21.596976095467419
30
0
11
-122.50000071911185
21
-6.5000001524251854
31
0
0
ARC
5
111
100
AcDbEntity
8
0
100
AcDbCircle
10
-120.99999999999996
20
-6.500000000000032
30
0
40
1.5000000000000246
210
0
220
0
230
1
100
AcDbArc
50
90.00000000000054
51
180.00000585317724
0
LINE
5
112
100
AcDbEntity
8
0
100
AcDbLine
10
-120.99999999999997
20
-5.000000000000008
30
0
11
-109.40000000000001
21
-5
31
0
0
ARC
5
113
100
AcDbEntity
8
0
100
AcDbCircle
10
-109.39999999999999
20
0.89999999999999525
30
0
40
5.899999999999995
210
0
220
0
230
1
100
AcDbArc
50
269.99999999999983
51
341.07535567303847
0
ARC
5
114
100
AcDbEntity
8
0
100
AcDbCircle
10
-102.39999999626819
20
-1.4999999891156868
30
0
40
1.5000000000000395
210
0
220
-0
230
1
100
AcDbArc
50
89.99999844093152
51
161.07535567303711
0
ENDSEC
0
SECTION
2
OBJECTS
0
DICTIONARY
5
C
100
AcDbDictionary
3
ACAD_GROUP
350
D
3
ACAD_MLINESTYLE
350
17
0
DICTIONARY
5
D
100
AcDbDictionary
0
DICTIONARY
5
1A
330
C
100
AcDbDictionary
0
DICTIONARY
5
17
100
AcDbDictionary
0
ENDSEC
0
EOF
