  0
SECTION
  2
HEADER
  9
$ANGBASE
  50
0.0
  9
$ANGDIR
  70
1
  9
$MEASUREMENT
  70
1
  0
ENDSEC
  0
SECTION
  2
TABLES
  0
TABLE
  2
LTYPE
  70
4
  0
LTYPE
  5
40F
  2
CONTINUOUS
  70
0
  3
Solid line
  72
65
  73
0
  40
0.0
  0
LTYPE
  5
410
  2
DASHDOT
 70
0
  3
Dash Dot ____ _ ____ _
 72
65
 73
4
 40
2.0
 49
1.25
 49
-0.25
 49
0.25
 49
-0.25
  0
LTYPE
  5
411
  2
DASHED
 70
0
  3
Dashed __ __ __ __ __
 72
65
 73
2
 40
0.75
 49
0.5
 49
-0.25
  0
LTYPE
  5
43B
  2
DOTTED
 70
0
  3
Dotted .  .  .  .
 72
65
 73
2
 40
0.2
 49
0.0
 49
-0.2
  0
ENDTAB
  0
TABLE
  2
STYLE
  70
4
  0
STYLE
  2
KICAD
  70
0
  40
0
  41
1
  42
1
  50
0
  71
0
  3
isocp.shx
  0
STYLE
  2
KICADB
  70
0
  40
0
  41
1
  42
1
  50
0
  71
0
  3
isocp.shx
  0
STYLE
  2
KICADI
  70
0
  40
0
  41
1
  42
1
  50
15
  71
0
  3
isocp.shx
  0
STYLE
  2
KICADBI
  70
0
  40
0
  41
1
  42
1
  50
15
  71
0
  3
isocp.shx
  0
ENDTAB
  0
TABLE
  2
LAYER
  70
1
  0
LAYER
  2
BLACK
  70
0
  62
7
  6
CONTINUOUS
  0
ENDTAB
  0
ENDSEC
  0
SECTION
  2
ENTITIES
0
LINE
8
BLACK
6
CONTINUOUS
10
0
20
-1
11
0
21
-79
0
LINE
8
BLACK
6
CONTINUOUS
10
100
20
-69.9
11
100
21
-74
0
LINE
8
BLACK
6
CONTINUOUS
10
17.5
20
0
11
64.6
21
0
0
LINE
8
BLACK
6
CONTINUOUS
10
96.3
20
-87.7
11
100
21
-74
0
LINE
8
BLACK
6
CONTINUOUS
10
96
20
-57.5
11
96
21
-1.5
0
LINE
8
BLACK
6
CONTINUOUS
10
96
20
-68
11
99.2
21
-68.8
0
LINE
8
BLACK
6
CONTINUOUS
10
1
20
0
11
5.5
21
0
0
ARC
8
BLACK
10
94.9226
20
-87.2762
40
1.44112
50
-98.8858
51
-17.1021
0
LINE
8
BLACK
6
CONTINUOUS
10
64.6
20
0
11
64.6
21
-6.3
0
LINE
8
BLACK
6
CONTINUOUS
10
17.5
20
-21
11
17.5
21
0
0
LINE
8
BLACK
6
CONTINUOUS
10
39.5
20
-82.5
11
39.5
21
-80.5
0
LINE
8
BLACK
6
CONTINUOUS
10
5.5
20
-21
11
17.5
21
-21
0
LINE
8
BLACK
6
CONTINUOUS
10
77
20
-84
11
94.7
21
-88.7
0
ARC
8
BLACK
10
98.9139
20
-69.849
40
1.08732
50
-2.68846
51
74.7444
0
ARC
8
BLACK
10
1
20
-1
40
1
50
90
51
180
0
LINE
8
BLACK
6
CONTINUOUS
10
64.6
20
-6.3
11
74.2
21
-6.3
0
LINE
8
BLACK
6
CONTINUOUS
10
41
20
-84
11
77
21
-84
0
ARC
8
BLACK
10
94.5
20
-1.5
40
1.5
50
-0
51
90
0
LINE
8
BLACK
6
CONTINUOUS
10
74.2
20
-6.3
11
74.2
21
0
0
LINE
8
BLACK
6
CONTINUOUS
10
96
20
-57.5
11
96
21
-68
0
ARC
8
BLACK
10
1.5
20
-79
40
1.5
50
-180
51
-90
0
ARC
8
BLACK
10
41
20
-82.5
40
1.5
50
-180
51
-90
0
LINE
8
BLACK
6
CONTINUOUS
10
74.2
20
0
11
94.5
21
0
0
LINE
8
BLACK
6
CONTINUOUS
10
39.5
20
-80.5
11
1.5
21
-80.5
0
LINE
8
BLACK
6
CONTINUOUS
10
5.5
20
0
11
5.5
21
-21
0
CIRCLE
8
BLACK
10
23
20
-75.5
40
1.1
0
CIRCLE
8
BLACK
10
80
20
-3.5
40
1.1
0
CIRCLE
8
BLACK
10
80
20
-65
40
1.1
0
CIRCLE
8
BLACK
10
28.5
20
-3.5
40
1.1
0
LINE
8
BLACK
6
CONTINUOUS
10
38.4
20
-70.4
11
38.4
21
-71.6
0
LINE
8
BLACK
6
CONTINUOUS
10
36
20
-70.4
11
36
21
-71.6
0
LINE
8
BLACK
6
CONTINUOUS
10
24.8
20
-70.4
11
24.8
21
-71.6
0
LINE
8
BLACK
6
CONTINUOUS
10
27.2
20
-70.4
11
27.2
21
-71.6
0
LINE
8
BLACK
6
CONTINUOUS
10
35.35
20
-62.25
11
27.85
21
-62.25
0
LINE
8
BLACK
6
CONTINUOUS
10
27.85
20
-62.25
11
27.85
21
-64.75
0
LINE
8
BLACK
6
CONTINUOUS
10
27.85
20
-64.75
11
35.35
21
-64.75
0
LINE
8
BLACK
6
CONTINUOUS
10
35.35
20
-64.75
11
35.35
21
-62.25
0
ARC
8
BLACK
10
37.2
20
-71.6
40
1.2
50
-180
51
-0
0
ARC
8
BLACK
10
37.2
20
-70.4
40
1.2
50
-0
51
180
0
ARC
8
BLACK
10
26
20
-70.4
40
1.2
50
-0
51
180
0
ARC
8
BLACK
10
26
20
-71.6
40
1.2
50
-180
51
-0
0
CIRCLE
8
BLACK
10
34.1
20
-78
40
1.25
0
CIRCLE
8
BLACK
10
29.1
20
-78
40
1.25
0
LINE
8
BLACK
6
CONTINUOUS
10
28
20
-66.25
11
28
21
-68.5
0
LINE
8
BLACK
6
CONTINUOUS
10
38
20
-66.25
11
28
21
-66.25
0
LINE
8
BLACK
6
CONTINUOUS
10
40.25
20
-69.25
11
40.25
21
-65
0
LINE
8
BLACK
6
CONTINUOUS
10
40.25
20
-65
11
38
21
-65
0
LINE
8
BLACK
6
CONTINUOUS
10
38
20
-69.25
11
40.25
21
-69.25
0
LINE
8
BLACK
6
CONTINUOUS
10
38
20
-65
11
38
21
-66.25
0
LINE
8
BLACK
6
CONTINUOUS
10
28
20
-68.5
11
38
21
-68.5
0
LINE
8
BLACK
6
CONTINUOUS
10
38
20
-68.5
11
38
21
-69.25
0
LINE
8
BLACK
6
CONTINUOUS
10
30.75
20
-79.75
11
28.25
21
-79.75
0
LINE
8
BLACK
6
CONTINUOUS
10
28.25
20
-79.75
11
28.25
21
-82.75
0
LINE
8
BLACK
6
CONTINUOUS
10
28.25
20
-82.75
11
30.75
21
-82.75
0
LINE
8
BLACK
6
CONTINUOUS
10
30.75
20
-82.75
11
30.75
21
-79.75
0
LINE
8
BLACK
6
CONTINUOUS
10
37.25
20
-79.75
11
34.75
21
-79.75
0
LINE
8
BLACK
6
CONTINUOUS
10
34.75
20
-79.75
11
34.75
21
-82.75
0
LINE
8
BLACK
6
CONTINUOUS
10
34.75
20
-82.75
11
37.25
21
-82.75
0
LINE
8
BLACK
6
CONTINUOUS
10
37.25
20
-82.75
11
37.25
21
-79.75
0
LINE
8
BLACK
6
CONTINUOUS
10
87.1
20
-7.9
11
84.1
21
-7.9
0
LINE
8
BLACK
6
CONTINUOUS
10
84.1
20
-7.9
11
84.1
21
-10.1
0
LINE
8
BLACK
6
CONTINUOUS
10
84.1
20
-10.1
11
87.1
21
-10.1
0
LINE
8
BLACK
6
CONTINUOUS
10
87.1
20
-10.1
11
87.1
21
-7.9
0
LINE
8
BLACK
6
CONTINUOUS
10
94.1
20
-7.9
11
88.1
21
-7.9
0
LINE
8
BLACK
6
CONTINUOUS
10
88.1
20
-7.9
11
88.1
21
-10.1
0
LINE
8
BLACK
6
CONTINUOUS
10
88.1
20
-10.1
11
94.1
21
-10.1
0
LINE
8
BLACK
6
CONTINUOUS
10
94.1
20
-10.1
11
94.1
21
-7.9
0
LINE
8
BLACK
6
CONTINUOUS
10
85.7
20
-3.7
11
82.5
21
-3.7
0
LINE
8
BLACK
6
CONTINUOUS
10
82.5
20
-3.7
11
82.5
21
-5.9
0
LINE
8
BLACK
6
CONTINUOUS
10
82.5
20
-5.9
11
85.7
21
-5.9
0
LINE
8
BLACK
6
CONTINUOUS
10
85.7
20
-5.9
11
85.7
21
-3.7
0
LINE
8
BLACK
6
CONTINUOUS
10
45.25
20
-8.55
11
52.75
21
-8.55
0
LINE
8
BLACK
6
CONTINUOUS
10
52.75
20
-8.55
11
52.75
21
-5.05
0
LINE
8
BLACK
6
CONTINUOUS
10
52.75
20
-5.05
11
45.25
21
-5.05
0
LINE
8
BLACK
6
CONTINUOUS
10
45.25
20
-5.05
11
45.25
21
-8.55
0
LINE
8
BLACK
6
CONTINUOUS
10
63.25
20
-51.05
11
70.75
21
-51.05
0
LINE
8
BLACK
6
CONTINUOUS
10
70.75
20
-51.05
11
70.75
21
-47.55
0
LINE
8
BLACK
6
CONTINUOUS
10
70.75
20
-47.55
11
63.25
21
-47.55
0
LINE
8
BLACK
6
CONTINUOUS
10
63.25
20
-47.55
11
63.25
21
-51.05
0
LINE
8
BLACK
6
CONTINUOUS
10
45.35
20
-42.55
11
52.85
21
-42.55
0
LINE
8
BLACK
6
CONTINUOUS
10
52.85
20
-42.55
11
52.85
21
-39.05
0
LINE
8
BLACK
6
CONTINUOUS
10
52.85
20
-39.05
11
45.35
21
-39.05
0
LINE
8
BLACK
6
CONTINUOUS
10
45.35
20
-39.05
11
45.35
21
-42.55
0
LINE
8
BLACK
6
CONTINUOUS
10
46.25
20
-71.05
11
53.75
21
-71.05
0
LINE
8
BLACK
6
CONTINUOUS
10
53.75
20
-71.05
11
53.75
21
-67.55
0
LINE
8
BLACK
6
CONTINUOUS
10
53.75
20
-67.55
11
46.25
21
-67.55
0
LINE
8
BLACK
6
CONTINUOUS
10
46.25
20
-67.55
11
46.25
21
-71.05
0
LINE
8
BLACK
6
CONTINUOUS
10
63.15
20
-17.05
11
70.65
21
-17.05
0
LINE
8
BLACK
6
CONTINUOUS
10
70.65
20
-17.05
11
70.65
21
-13.55
0
LINE
8
BLACK
6
CONTINUOUS
10
70.65
20
-13.55
11
63.15
21
-13.55
0
LINE
8
BLACK
6
CONTINUOUS
10
63.15
20
-13.55
11
63.15
21
-17.05
0
LINE
8
BLACK
6
CONTINUOUS
10
81.25
20
-17.05
11
88.75
21
-17.05
0
LINE
8
BLACK
6
CONTINUOUS
10
88.75
20
-17.05
11
88.75
21
-13.55
0
LINE
8
BLACK
6
CONTINUOUS
10
88.75
20
-13.55
11
81.25
21
-13.55
0
LINE
8
BLACK
6
CONTINUOUS
10
81.25
20
-13.55
11
81.25
21
-17.05
0
LINE
8
BLACK
6
CONTINUOUS
10
9.25
20
-30.55
11
16.75
21
-30.55
0
LINE
8
BLACK
6
CONTINUOUS
10
16.75
20
-30.55
11
16.75
21
-27.05
0
LINE
8
BLACK
6
CONTINUOUS
10
16.75
20
-27.05
11
9.25
21
-27.05
0
LINE
8
BLACK
6
CONTINUOUS
10
9.25
20
-27.05
11
9.25
21
-30.55
0
LINE
8
BLACK
6
CONTINUOUS
10
9.25
20
-64.55
11
16.75
21
-64.55
0
LINE
8
BLACK
6
CONTINUOUS
10
16.75
20
-64.55
11
16.75
21
-61.05
0
LINE
8
BLACK
6
CONTINUOUS
10
16.75
20
-61.05
11
9.25
21
-61.05
0
LINE
8
BLACK
6
CONTINUOUS
10
9.25
20
-61.05
11
9.25
21
-64.55
0
LINE
8
BLACK
6
CONTINUOUS
10
85.1248
20
-72.7198
11
92.3693
21
-74.6609
0
LINE
8
BLACK
6
CONTINUOUS
10
92.3693
20
-74.6609
11
93.2752
21
-71.2802
0
LINE
8
BLACK
6
CONTINUOUS
10
93.2752
20
-71.2802
11
86.0307
21
-69.3391
0
LINE
8
BLACK
6
CONTINUOUS
10
86.0307
20
-69.3391
11
85.1248
21
-72.7198
0
LINE
8
BLACK
6
CONTINUOUS
10
27.25
20
-47.55
11
34.75
21
-47.55
0
LINE
8
BLACK
6
CONTINUOUS
10
34.75
20
-47.55
11
34.75
21
-44.05
0
LINE
8
BLACK
6
CONTINUOUS
10
34.75
20
-44.05
11
27.25
21
-44.05
0
LINE
8
BLACK
6
CONTINUOUS
10
27.25
20
-44.05
11
27.25
21
-47.55
0
LINE
8
BLACK
6
CONTINUOUS
10
27.25
20
-13.55
11
34.75
21
-13.55
0
LINE
8
BLACK
6
CONTINUOUS
10
34.75
20
-13.55
11
34.75
21
-10.05
0
LINE
8
BLACK
6
CONTINUOUS
10
34.75
20
-10.05
11
27.25
21
-10.05
0
LINE
8
BLACK
6
CONTINUOUS
10
27.25
20
-10.05
11
27.25
21
-13.55
0
LINE
8
BLACK
6
CONTINUOUS
10
45.25
20
-25.55
11
52.75
21
-25.55
0
LINE
8
BLACK
6
CONTINUOUS
10
52.75
20
-25.55
11
52.75
21
-22.05
0
LINE
8
BLACK
6
CONTINUOUS
10
52.75
20
-22.05
11
45.25
21
-22.05
0
LINE
8
BLACK
6
CONTINUOUS
10
45.25
20
-22.05
11
45.25
21
-25.55
0
LINE
8
BLACK
6
CONTINUOUS
10
63.25
20
-34.05
11
70.75
21
-34.05
0
LINE
8
BLACK
6
CONTINUOUS
10
70.75
20
-34.05
11
70.75
21
-30.55
0
LINE
8
BLACK
6
CONTINUOUS
10
70.75
20
-30.55
11
63.25
21
-30.55
0
LINE
8
BLACK
6
CONTINUOUS
10
63.25
20
-30.55
11
63.25
21
-34.05
0
LINE
8
BLACK
6
CONTINUOUS
10
9.25
20
-47.55
11
16.75
21
-47.55
0
LINE
8
BLACK
6
CONTINUOUS
10
16.75
20
-47.55
11
16.75
21
-44.05
0
LINE
8
BLACK
6
CONTINUOUS
10
16.75
20
-44.05
11
9.25
21
-44.05
0
LINE
8
BLACK
6
CONTINUOUS
10
9.25
20
-44.05
11
9.25
21
-47.55
0
LINE
8
BLACK
6
CONTINUOUS
10
64.25
20
-71.05
11
71.75
21
-71.05
0
LINE
8
BLACK
6
CONTINUOUS
10
71.75
20
-71.05
11
71.75
21
-67.55
0
LINE
8
BLACK
6
CONTINUOUS
10
71.75
20
-67.55
11
64.25
21
-67.55
0
LINE
8
BLACK
6
CONTINUOUS
10
64.25
20
-67.55
11
64.25
21
-71.05
0
LINE
8
BLACK
6
CONTINUOUS
10
81.25
20
-34.05
11
88.75
21
-34.05
0
LINE
8
BLACK
6
CONTINUOUS
10
88.75
20
-34.05
11
88.75
21
-30.55
0
LINE
8
BLACK
6
CONTINUOUS
10
88.75
20
-30.55
11
81.25
21
-30.55
0
LINE
8
BLACK
6
CONTINUOUS
10
81.25
20
-30.55
11
81.25
21
-34.05
0
LINE
8
BLACK
6
CONTINUOUS
10
27.25
20
-30.55
11
34.75
21
-30.55
0
LINE
8
BLACK
6
CONTINUOUS
10
34.75
20
-30.55
11
34.75
21
-27.05
0
LINE
8
BLACK
6
CONTINUOUS
10
34.75
20
-27.05
11
27.25
21
-27.05
0
LINE
8
BLACK
6
CONTINUOUS
10
27.25
20
-27.05
11
27.25
21
-30.55
0
LINE
8
BLACK
6
CONTINUOUS
10
81.25
20
-51.05
11
88.75
21
-51.05
0
LINE
8
BLACK
6
CONTINUOUS
10
88.75
20
-51.05
11
88.75
21
-47.55
0
LINE
8
BLACK
6
CONTINUOUS
10
88.75
20
-47.55
11
81.25
21
-47.55
0
LINE
8
BLACK
6
CONTINUOUS
10
81.25
20
-47.55
11
81.25
21
-51.05
0
LINE
8
BLACK
6
CONTINUOUS
10
65.5
20
-75.4
11
66
21
-75.9
0
LINE
8
BLACK
6
CONTINUOUS
10
61.6
20
-74
11
61.6
21
-75.4
0
LINE
8
BLACK
6
CONTINUOUS
10
65.4
20
-82
11
65.4
21
-81.7
0
LINE
8
BLACK
6
CONTINUOUS
10
72.8
20
-81.3
11
72.8
21
-78.6
0
LINE
8
BLACK
6
CONTINUOUS
10
60
20
-75.4
11
60
21
-76.4
0
LINE
8
BLACK
6
CONTINUOUS
10
65.5
20
-75.4
11
63.4
21
-75.4
0
LINE
8
BLACK
6
CONTINUOUS
10
71
20
-82.5
11
71
21
-81.3
0
LINE
8
BLACK
6
CONTINUOUS
10
71
20
-77.5
11
67.3
21
-77.5
0
LINE
8
BLACK
6
CONTINUOUS
10
72.8
20
-78.6
11
71
21
-78.6
0
LINE
8
BLACK
6
CONTINUOUS
10
63.4
20
-74
11
63.4
21
-75.4
0
LINE
8
BLACK
6
CONTINUOUS
10
65.9
20
-82.5
11
65.4
21
-82
0
LINE
8
BLACK
6
CONTINUOUS
10
60
20
-76.4
11
58.2
21
-76.4
0
LINE
8
BLACK
6
CONTINUOUS
10
58.2
20
-76.4
11
58.2
21
-79.2
0
LINE
8
BLACK
6
CONTINUOUS
10
65.9
20
-82.5
11
71
21
-82.5
0
LINE
8
BLACK
6
CONTINUOUS
10
71
20
-81.3
11
72.8
21
-81.3
0
LINE
8
BLACK
6
CONTINUOUS
10
58.2
20
-79.2
11
60
21
-79.2
0
LINE
8
BLACK
6
CONTINUOUS
10
71
20
-78.6
11
71
21
-77.5
0
LINE
8
BLACK
6
CONTINUOUS
10
60
20
-75.4
11
61.6
21
-75.4
0
LINE
8
BLACK
6
CONTINUOUS
10
66
20
-75.9
11
66
21
-76.2
0
LINE
8
BLACK
6
CONTINUOUS
10
60
20
-80.4
11
64.1
21
-80.4
0
LINE
8
BLACK
6
CONTINUOUS
10
60
20
-79.2
11
60
21
-80.4
0
ARC
8
BLACK
10
62.5
20
-74
40
0.9
50
-0
51
180
0
ARC
8
BLACK
10
64.1
20
-81.7
40
1.3
50
-4.40737e-05
51
90
0
ARC
8
BLACK
10
67.3
20
-76.2
40
1.3
50
-180
51
-90
0
CIRCLE
8
BLACK
10
73.5
20
-74
40
0.9
0
CIRCLE
8
BLACK
10
68
20
-74
40
1.75
0
LINE
8
BLACK
6
CONTINUOUS
10
10.5
20
-68.9
11
11
21
-69.4
0
LINE
8
BLACK
6
CONTINUOUS
10
6.6
20
-67.5
11
6.6
21
-68.9
0
LINE
8
BLACK
6
CONTINUOUS
10
10.4
20
-75.5
11
10.4
21
-75.2
0
LINE
8
BLACK
6
CONTINUOUS
10
17.8
20
-74.8
11
17.8
21
-72.1
0
LINE
8
BLACK
6
CONTINUOUS
10
5
20
-68.9
11
5
21
-69.9
0
LINE
8
BLACK
6
CONTINUOUS
10
10.5
20
-68.9
11
8.4
21
-68.9
0
LINE
8
BLACK
6
CONTINUOUS
10
16
20
-76
11
16
21
-74.8
0
LINE
8
BLACK
6
CONTINUOUS
10
16
20
-71
11
12.3
21
-71
0
LINE
8
BLACK
6
CONTINUOUS
10
17.8
20
-72.1
11
16
21
-72.1
0
LINE
8
BLACK
6
CONTINUOUS
10
8.4
20
-67.5
11
8.4
21
-68.9
0
LINE
8
BLACK
6
CONTINUOUS
10
10.9
20
-76
11
10.4
21
-75.5
0
LINE
8
BLACK
6
CONTINUOUS
10
5
20
-69.9
11
3.2
21
-69.9
0
LINE
8
BLACK
6
CONTINUOUS
10
3.2
20
-69.9
11
3.2
21
-72.7
0
LINE
8
BLACK
6
CONTINUOUS
10
10.9
20
-76
11
16
21
-76
0
LINE
8
BLACK
6
CONTINUOUS
10
16
20
-74.8
11
17.8
21
-74.8
0
LINE
8
BLACK
6
CONTINUOUS
10
3.2
20
-72.7
11
5
21
-72.7
0
LINE
8
BLACK
6
CONTINUOUS
10
16
20
-72.1
11
16
21
-71
0
LINE
8
BLACK
6
CONTINUOUS
10
5
20
-68.9
11
6.6
21
-68.9
0
LINE
8
BLACK
6
CONTINUOUS
10
11
20
-69.4
11
11
21
-69.7
0
LINE
8
BLACK
6
CONTINUOUS
10
5
20
-73.9
11
9.1
21
-73.9
0
LINE
8
BLACK
6
CONTINUOUS
10
5
20
-72.7
11
5
21
-73.9
0
ARC
8
BLACK
10
7.5
20
-67.5
40
0.9
50
-0
51
180
0
ARC
8
BLACK
10
9.1
20
-75.2
40
1.3
50
-4.40737e-05
51
90
0
ARC
8
BLACK
10
12.3
20
-69.7
40
1.3
50
-180
51
-90
0
CIRCLE
8
BLACK
10
18.5
20
-67.5
40
0.9
0
CIRCLE
8
BLACK
10
13
20
-67.5
40
1.75
0
LINE
8
BLACK
6
CONTINUOUS
10
10.5
20
-51.9
11
11
21
-52.4
0
LINE
8
BLACK
6
CONTINUOUS
10
6.6
20
-50.5
11
6.6
21
-51.9
0
LINE
8
BLACK
6
CONTINUOUS
10
10.4
20
-58.5
11
10.4
21
-58.2
0
LINE
8
BLACK
6
CONTINUOUS
10
17.8
20
-57.8
11
17.8
21
-55.1
0
LINE
8
BLACK
6
CONTINUOUS
10
5
20
-51.9
11
5
21
-52.9
0
LINE
8
BLACK
6
CONTINUOUS
10
10.5
20
-51.9
11
8.4
21
-51.9
0
LINE
8
BLACK
6
CONTINUOUS
10
16
20
-59
11
16
21
-57.8
0
LINE
8
BLACK
6
CONTINUOUS
10
16
20
-54
11
12.3
21
-54
0
LINE
8
BLACK
6
CONTINUOUS
10
17.8
20
-55.1
11
16
21
-55.1
0
LINE
8
BLACK
6
CONTINUOUS
10
8.4
20
-50.5
11
8.4
21
-51.9
0
LINE
8
BLACK
6
CONTINUOUS
10
10.9
20
-59
11
10.4
21
-58.5
0
LINE
8
BLACK
6
CONTINUOUS
10
5
20
-52.9
11
3.2
21
-52.9
0
LINE
8
BLACK
6
CONTINUOUS
10
3.2
20
-52.9
11
3.2
21
-55.7
0
LINE
8
BLACK
6
CONTINUOUS
10
10.9
20
-59
11
16
21
-59
0
LINE
8
BLACK
6
CONTINUOUS
10
16
20
-57.8
11
17.8
21
-57.8
0
LINE
8
BLACK
6
CONTINUOUS
10
3.2
20
-55.7
11
5
21
-55.7
0
LINE
8
BLACK
6
CONTINUOUS
10
16
20
-55.1
11
16
21
-54
0
LINE
8
BLACK
6
CONTINUOUS
10
5
20
-51.9
11
6.6
21
-51.9
0
LINE
8
BLACK
6
CONTINUOUS
10
11
20
-52.4
11
11
21
-52.7
0
LINE
8
BLACK
6
CONTINUOUS
10
5
20
-56.9
11
9.1
21
-56.9
0
LINE
8
BLACK
6
CONTINUOUS
10
5
20
-55.7
11
5
21
-56.9
0
ARC
8
BLACK
10
7.5
20
-50.5
40
0.9
50
-0
51
180
0
ARC
8
BLACK
10
9.1
20
-58.2
40
1.3
50
-4.40737e-05
51
90
0
ARC
8
BLACK
10
12.3
20
-52.7
40
1.3
50
-180
51
-90
0
CIRCLE
8
BLACK
10
18.5
20
-50.5
40
0.9
0
CIRCLE
8
BLACK
10
13
20
-50.5
40
1.75
0
LINE
8
BLACK
6
CONTINUOUS
10
64.5
20
-21.4
11
65
21
-21.9
0
LINE
8
BLACK
6
CONTINUOUS
10
60.6
20
-20
11
60.6
21
-21.4
0
LINE
8
BLACK
6
CONTINUOUS
10
64.4
20
-28
11
64.4
21
-27.7
0
LINE
8
BLACK
6
CONTINUOUS
10
71.8
20
-27.3
11
71.8
21
-24.6
0
LINE
8
BLACK
6
CONTINUOUS
10
59
20
-21.4
11
59
21
-22.4
0
LINE
8
BLACK
6
CONTINUOUS
10
64.5
20
-21.4
11
62.4
21
-21.4
0
LINE
8
BLACK
6
CONTINUOUS
10
70
20
-28.5
11
70
21
-27.3
0
LINE
8
BLACK
6
CONTINUOUS
10
70
20
-23.5
11
66.3
21
-23.5
0
LINE
8
BLACK
6
CONTINUOUS
10
71.8
20
-24.6
11
70
21
-24.6
0
LINE
8
BLACK
6
CONTINUOUS
10
62.4
20
-20
11
62.4
21
-21.4
0
LINE
8
BLACK
6
CONTINUOUS
10
64.9
20
-28.5
11
64.4
21
-28
0
LINE
8
BLACK
6
CONTINUOUS
10
59
20
-22.4
11
57.2
21
-22.4
0
LINE
8
BLACK
6
CONTINUOUS
10
57.2
20
-22.4
11
57.2
21
-25.2
0
LINE
8
BLACK
6
CONTINUOUS
10
64.9
20
-28.5
11
70
21
-28.5
0
LINE
8
BLACK
6
CONTINUOUS
10
70
20
-27.3
11
71.8
21
-27.3
0
LINE
8
BLACK
6
CONTINUOUS
10
57.2
20
-25.2
11
59
21
-25.2
0
LINE
8
BLACK
6
CONTINUOUS
10
70
20
-24.6
11
70
21
-23.5
0
LINE
8
BLACK
6
CONTINUOUS
10
59
20
-21.4
11
60.6
21
-21.4
0
LINE
8
BLACK
6
CONTINUOUS
10
65
20
-21.9
11
65
21
-22.2
0
LINE
8
BLACK
6
CONTINUOUS
10
59
20
-26.4
11
63.1
21
-26.4
0
LINE
8
BLACK
6
CONTINUOUS
10
59
20
-25.2
11
59
21
-26.4
0
ARC
8
BLACK
10
61.5
20
-20
40
0.9
50
-0
51
180
0
ARC
8
BLACK
10
63.1
20
-27.7
40
1.3
50
-4.40737e-05
51
90
0
ARC
8
BLACK
10
66.3
20
-22.2
40
1.3
50
-180
51
-90
0
CIRCLE
8
BLACK
10
72.5
20
-20
40
0.9
0
CIRCLE
8
BLACK
10
67
20
-20
40
1.75
0
LINE
8
BLACK
6
CONTINUOUS
10
28.5
20
-17.9
11
29
21
-18.4
0
LINE
8
BLACK
6
CONTINUOUS
10
24.6
20
-16.5
11
24.6
21
-17.9
0
LINE
8
BLACK
6
CONTINUOUS
10
28.4
20
-24.5
11
28.4
21
-24.2
0
LINE
8
BLACK
6
CONTINUOUS
10
35.8
20
-23.8
11
35.8
21
-21.1
0
LINE
8
BLACK
6
CONTINUOUS
10
23
20
-17.9
11
23
21
-18.9
0
LINE
8
BLACK
6
CONTINUOUS
10
28.5
20
-17.9
11
26.4
21
-17.9
0
LINE
8
BLACK
6
CONTINUOUS
10
34
20
-25
11
34
21
-23.8
0
LINE
8
BLACK
6
CONTINUOUS
10
34
20
-20
11
30.3
21
-20
0
LINE
8
BLACK
6
CONTINUOUS
10
35.8
20
-21.1
11
34
21
-21.1
0
LINE
8
BLACK
6
CONTINUOUS
10
26.4
20
-16.5
11
26.4
21
-17.9
0
LINE
8
BLACK
6
CONTINUOUS
10
28.9
20
-25
11
28.4
21
-24.5
0
LINE
8
BLACK
6
CONTINUOUS
10
23
20
-18.9
11
21.2
21
-18.9
0
LINE
8
BLACK
6
CONTINUOUS
10
21.2
20
-18.9
11
21.2
21
-21.7
0
LINE
8
BLACK
6
CONTINUOUS
10
28.9
20
-25
11
34
21
-25
0
LINE
8
BLACK
6
CONTINUOUS
10
34
20
-23.8
11
35.8
21
-23.8
0
LINE
8
BLACK
6
CONTINUOUS
10
21.2
20
-21.7
11
23
21
-21.7
0
LINE
8
BLACK
6
CONTINUOUS
10
34
20
-21.1
11
34
21
-20
0
LINE
8
BLACK
6
CONTINUOUS
10
23
20
-17.9
11
24.6
21
-17.9
0
LINE
8
BLACK
6
CONTINUOUS
10
29
20
-18.4
11
29
21
-18.7
0
LINE
8
BLACK
6
CONTINUOUS
10
23
20
-22.9
11
27.1
21
-22.9
0
LINE
8
BLACK
6
CONTINUOUS
10
23
20
-21.7
11
23
21
-22.9
0
ARC
8
BLACK
10
25.5
20
-16.5
40
0.9
50
-0
51
180
0
ARC
8
BLACK
10
27.1
20
-24.2
40
1.3
50
-4.40737e-05
51
90
0
ARC
8
BLACK
10
30.3
20
-18.7
40
1.3
50
-180
51
-90
0
CIRCLE
8
BLACK
10
36.5
20
-16.5
40
0.9
0
CIRCLE
8
BLACK
10
31
20
-16.5
40
1.75
0
LINE
8
BLACK
6
CONTINUOUS
10
46.5
20
-46.9
11
47
21
-47.4
0
LINE
8
BLACK
6
CONTINUOUS
10
42.6
20
-45.5
11
42.6
21
-46.9
0
LINE
8
BLACK
6
CONTINUOUS
10
46.4
20
-53.5
11
46.4
21
-53.2
0
LINE
8
BLACK
6
CONTINUOUS
10
53.8
20
-52.8
11
53.8
21
-50.1
0
LINE
8
BLACK
6
CONTINUOUS
10
41
20
-46.9
11
41
21
-47.9
0
LINE
8
BLACK
6
CONTINUOUS
10
46.5
20
-46.9
11
44.4
21
-46.9
0
LINE
8
BLACK
6
CONTINUOUS
10
52
20
-54
11
52
21
-52.8
0
LINE
8
BLACK
6
CONTINUOUS
10
52
20
-49
11
48.3
21
-49
0
LINE
8
BLACK
6
CONTINUOUS
10
53.8
20
-50.1
11
52
21
-50.1
0
LINE
8
BLACK
6
CONTINUOUS
10
44.4
20
-45.5
11
44.4
21
-46.9
0
LINE
8
BLACK
6
CONTINUOUS
10
46.9
20
-54
11
46.4
21
-53.5
0
LINE
8
BLACK
6
CONTINUOUS
10
41
20
-47.9
11
39.2
21
-47.9
0
LINE
8
BLACK
6
CONTINUOUS
10
39.2
20
-47.9
11
39.2
21
-50.7
0
LINE
8
BLACK
6
CONTINUOUS
10
46.9
20
-54
11
52
21
-54
0
LINE
8
BLACK
6
CONTINUOUS
10
52
20
-52.8
11
53.8
21
-52.8
0
LINE
8
BLACK
6
CONTINUOUS
10
39.2
20
-50.7
11
41
21
-50.7
0
LINE
8
BLACK
6
CONTINUOUS
10
52
20
-50.1
11
52
21
-49
0
LINE
8
BLACK
6
CONTINUOUS
10
41
20
-46.9
11
42.6
21
-46.9
0
LINE
8
BLACK
6
CONTINUOUS
10
47
20
-47.4
11
47
21
-47.7
0
LINE
8
BLACK
6
CONTINUOUS
10
41
20
-51.9
11
45.1
21
-51.9
0
LINE
8
BLACK
6
CONTINUOUS
10
41
20
-50.7
11
41
21
-51.9
0
ARC
8
BLACK
10
43.5
20
-45.5
40
0.9
50
-0
51
180
0
ARC
8
BLACK
10
45.1
20
-53.2
40
1.3
50
-4.40737e-05
51
90
0
ARC
8
BLACK
10
48.3
20
-47.7
40
1.3
50
-180
51
-90
0
CIRCLE
8
BLACK
10
54.5
20
-45.5
40
0.9
0
CIRCLE
8
BLACK
10
49
20
-45.5
40
1.75
0
LINE
8
BLACK
6
CONTINUOUS
10
46.5
20
-12.9
11
47
21
-13.4
0
LINE
8
BLACK
6
CONTINUOUS
10
42.6
20
-11.5
11
42.6
21
-12.9
0
LINE
8
BLACK
6
CONTINUOUS
10
46.4
20
-19.5
11
46.4
21
-19.2
0
LINE
8
BLACK
6
CONTINUOUS
10
53.8
20
-18.8
11
53.8
21
-16.1
0
LINE
8
BLACK
6
CONTINUOUS
10
41
20
-12.9
11
41
21
-13.9
0
LINE
8
BLACK
6
CONTINUOUS
10
46.5
20
-12.9
11
44.4
21
-12.9
0
LINE
8
BLACK
6
CONTINUOUS
10
52
20
-20
11
52
21
-18.8
0
LINE
8
BLACK
6
CONTINUOUS
10
52
20
-15
11
48.3
21
-15
0
LINE
8
BLACK
6
CONTINUOUS
10
53.8
20
-16.1
11
52
21
-16.1
0
LINE
8
BLACK
6
CONTINUOUS
10
44.4
20
-11.5
11
44.4
21
-12.9
0
LINE
8
BLACK
6
CONTINUOUS
10
46.9
20
-20
11
46.4
21
-19.5
0
LINE
8
BLACK
6
CONTINUOUS
10
41
20
-13.9
11
39.2
21
-13.9
0
LINE
8
BLACK
6
CONTINUOUS
10
39.2
20
-13.9
11
39.2
21
-16.7
0
LINE
8
BLACK
6
CONTINUOUS
10
46.9
20
-20
11
52
21
-20
0
LINE
8
BLACK
6
CONTINUOUS
10
52
20
-18.8
11
53.8
21
-18.8
0
LINE
8
BLACK
6
CONTINUOUS
10
39.2
20
-16.7
11
41
21
-16.7
0
LINE
8
BLACK
6
CONTINUOUS
10
52
20
-16.1
11
52
21
-15
0
LINE
8
BLACK
6
CONTINUOUS
10
41
20
-12.9
11
42.6
21
-12.9
0
LINE
8
BLACK
6
CONTINUOUS
10
47
20
-13.4
11
47
21
-13.7
0
LINE
8
BLACK
6
CONTINUOUS
10
41
20
-17.9
11
45.1
21
-17.9
0
LINE
8
BLACK
6
CONTINUOUS
10
41
20
-16.7
11
41
21
-17.9
0
ARC
8
BLACK
10
43.5
20
-11.5
40
0.9
50
-0
51
180
0
ARC
8
BLACK
10
45.1
20
-19.2
40
1.3
50
-4.40737e-05
51
90
0
ARC
8
BLACK
10
48.3
20
-13.7
40
1.3
50
-180
51
-90
0
CIRCLE
8
BLACK
10
54.5
20
-11.5
40
0.9
0
CIRCLE
8
BLACK
10
49
20
-11.5
40
1.75
0
LINE
8
BLACK
6
CONTINUOUS
10
82.5
20
-55.4
11
83
21
-55.9
0
LINE
8
BLACK
6
CONTINUOUS
10
78.6
20
-54
11
78.6
21
-55.4
0
LINE
8
BLACK
6
CONTINUOUS
10
82.4
20
-62
11
82.4
21
-61.7
0
LINE
8
BLACK
6
CONTINUOUS
10
89.8
20
-61.3
11
89.8
21
-58.6
0
LINE
8
BLACK
6
CONTINUOUS
10
77
20
-55.4
11
77
21
-56.4
0
LINE
8
BLACK
6
CONTINUOUS
10
82.5
20
-55.4
11
80.4
21
-55.4
0
LINE
8
BLACK
6
CONTINUOUS
10
88
20
-62.5
11
88
21
-61.3
0
LINE
8
BLACK
6
CONTINUOUS
10
88
20
-57.5
11
84.3
21
-57.5
0
LINE
8
BLACK
6
CONTINUOUS
10
89.8
20
-58.6
11
88
21
-58.6
0
LINE
8
BLACK
6
CONTINUOUS
10
80.4
20
-54
11
80.4
21
-55.4
0
LINE
8
BLACK
6
CONTINUOUS
10
82.9
20
-62.5
11
82.4
21
-62
0
LINE
8
BLACK
6
CONTINUOUS
10
77
20
-56.4
11
75.2
21
-56.4
0
LINE
8
BLACK
6
CONTINUOUS
10
75.2
20
-56.4
11
75.2
21
-59.2
0
LINE
8
BLACK
6
CONTINUOUS
10
82.9
20
-62.5
11
88
21
-62.5
0
LINE
8
BLACK
6
CONTINUOUS
10
88
20
-61.3
11
89.8
21
-61.3
0
LINE
8
BLACK
6
CONTINUOUS
10
75.2
20
-59.2
11
77
21
-59.2
0
LINE
8
BLACK
6
CONTINUOUS
10
88
20
-58.6
11
88
21
-57.5
0
LINE
8
BLACK
6
CONTINUOUS
10
77
20
-55.4
11
78.6
21
-55.4
0
LINE
8
BLACK
6
CONTINUOUS
10
83
20
-55.9
11
83
21
-56.2
0
LINE
8
BLACK
6
CONTINUOUS
10
77
20
-60.4
11
81.1
21
-60.4
0
LINE
8
BLACK
6
CONTINUOUS
10
77
20
-59.2
11
77
21
-60.4
0
ARC
8
BLACK
10
79.5
20
-54
40
0.9
50
-0
51
180
0
ARC
8
BLACK
10
81.1
20
-61.7
40
1.3
50
-4.40737e-05
51
90
0
ARC
8
BLACK
10
84.3
20
-56.2
40
1.3
50
-180
51
-90
0
CIRCLE
8
BLACK
10
90.5
20
-54
40
0.9
0
CIRCLE
8
BLACK
10
85
20
-54
40
1.75
0
LINE
8
BLACK
6
CONTINUOUS
10
10.5
20
-34.9
11
11
21
-35.4
0
LINE
8
BLACK
6
CONTINUOUS
10
6.6
20
-33.5
11
6.6
21
-34.9
0
LINE
8
BLACK
6
CONTINUOUS
10
10.4
20
-41.5
11
10.4
21
-41.2
0
LINE
8
BLACK
6
CONTINUOUS
10
17.8
20
-40.8
11
17.8
21
-38.1
0
LINE
8
BLACK
6
CONTINUOUS
10
5
20
-34.9
11
5
21
-35.9
0
LINE
8
BLACK
6
CONTINUOUS
10
10.5
20
-34.9
11
8.4
21
-34.9
0
LINE
8
BLACK
6
CONTINUOUS
10
16
20
-42
11
16
21
-40.8
0
LINE
8
BLACK
6
CONTINUOUS
10
16
20
-37
11
12.3
21
-37
0
LINE
8
BLACK
6
CONTINUOUS
10
17.8
20
-38.1
11
16
21
-38.1
0
LINE
8
BLACK
6
CONTINUOUS
10
8.4
20
-33.5
11
8.4
21
-34.9
0
LINE
8
BLACK
6
CONTINUOUS
10
10.9
20
-42
11
10.4
21
-41.5
0
LINE
8
BLACK
6
CONTINUOUS
10
5
20
-35.9
11
3.2
21
-35.9
0
LINE
8
BLACK
6
CONTINUOUS
10
3.2
20
-35.9
11
3.2
21
-38.7
0
LINE
8
BLACK
6
CONTINUOUS
10
10.9
20
-42
11
16
21
-42
0
LINE
8
BLACK
6
CONTINUOUS
10
16
20
-40.8
11
17.8
21
-40.8
0
LINE
8
BLACK
6
CONTINUOUS
10
3.2
20
-38.7
11
5
21
-38.7
0
LINE
8
BLACK
6
CONTINUOUS
10
16
20
-38.1
11
16
21
-37
0
LINE
8
BLACK
6
CONTINUOUS
10
5
20
-34.9
11
6.6
21
-34.9
0
LINE
8
BLACK
6
CONTINUOUS
10
11
20
-35.4
11
11
21
-35.7
0
LINE
8
BLACK
6
CONTINUOUS
10
5
20
-39.9
11
9.1
21
-39.9
0
LINE
8
BLACK
6
CONTINUOUS
10
5
20
-38.7
11
5
21
-39.9
0
ARC
8
BLACK
10
7.5
20
-33.5
40
0.9
50
-0
51
180
0
ARC
8
BLACK
10
9.1
20
-41.2
40
1.3
50
-4.40737e-05
51
90
0
ARC
8
BLACK
10
12.3
20
-35.7
40
1.3
50
-180
51
-90
0
CIRCLE
8
BLACK
10
18.5
20
-33.5
40
0.9
0
CIRCLE
8
BLACK
10
13
20
-33.5
40
1.75
0
LINE
8
BLACK
6
CONTINUOUS
10
64.5
20
-55.4
11
65
21
-55.9
0
LINE
8
BLACK
6
CONTINUOUS
10
60.6
20
-54
11
60.6
21
-55.4
0
LINE
8
BLACK
6
CONTINUOUS
10
64.4
20
-62
11
64.4
21
-61.7
0
LINE
8
BLACK
6
CONTINUOUS
10
71.8
20
-61.3
11
71.8
21
-58.6
0
LINE
8
BLACK
6
CONTINUOUS
10
59
20
-55.4
11
59
21
-56.4
0
LINE
8
BLACK
6
CONTINUOUS
10
64.5
20
-55.4
11
62.4
21
-55.4
0
LINE
8
BLACK
6
CONTINUOUS
10
70
20
-62.5
11
70
21
-61.3
0
LINE
8
BLACK
6
CONTINUOUS
10
70
20
-57.5
11
66.3
21
-57.5
0
LINE
8
BLACK
6
CONTINUOUS
10
71.8
20
-58.6
11
70
21
-58.6
0
LINE
8
BLACK
6
CONTINUOUS
10
62.4
20
-54
11
62.4
21
-55.4
0
LINE
8
BLACK
6
CONTINUOUS
10
64.9
20
-62.5
11
64.4
21
-62
0
LINE
8
BLACK
6
CONTINUOUS
10
59
20
-56.4
11
57.2
21
-56.4
0
LINE
8
BLACK
6
CONTINUOUS
10
57.2
20
-56.4
11
57.2
21
-59.2
0
LINE
8
BLACK
6
CONTINUOUS
10
64.9
20
-62.5
11
70
21
-62.5
0
LINE
8
BLACK
6
CONTINUOUS
10
70
20
-61.3
11
71.8
21
-61.3
0
LINE
8
BLACK
6
CONTINUOUS
10
57.2
20
-59.2
11
59
21
-59.2
0
LINE
8
BLACK
6
CONTINUOUS
10
70
20
-58.6
11
70
21
-57.5
0
LINE
8
BLACK
6
CONTINUOUS
10
59
20
-55.4
11
60.6
21
-55.4
0
LINE
8
BLACK
6
CONTINUOUS
10
65
20
-55.9
11
65
21
-56.2
0
LINE
8
BLACK
6
CONTINUOUS
10
59
20
-60.4
11
63.1
21
-60.4
0
LINE
8
BLACK
6
CONTINUOUS
10
59
20
-59.2
11
59
21
-60.4
0
ARC
8
BLACK
10
61.5
20
-54
40
0.9
50
-0
51
180
0
ARC
8
BLACK
10
63.1
20
-61.7
40
1.3
50
-4.40737e-05
51
90
0
ARC
8
BLACK
10
66.3
20
-56.2
40
1.3
50
-180
51
-90
0
CIRCLE
8
BLACK
10
72.5
20
-54
40
0.9
0
CIRCLE
8
BLACK
10
67
20
-54
40
1.75
0
LINE
8
BLACK
6
CONTINUOUS
10
64.5
20
-38.4
11
65
21
-38.9
0
LINE
8
BLACK
6
CONTINUOUS
10
60.6
20
-37
11
60.6
21
-38.4
0
LINE
8
BLACK
6
CONTINUOUS
10
64.4
20
-45
11
64.4
21
-44.7
0
LINE
8
BLACK
6
CONTINUOUS
10
71.8
20
-44.3
11
71.8
21
-41.6
0
LINE
8
BLACK
6
CONTINUOUS
10
59
20
-38.4
11
59
21
-39.4
0
LINE
8
BLACK
6
CONTINUOUS
10
64.5
20
-38.4
11
62.4
21
-38.4
0
LINE
8
BLACK
6
CONTINUOUS
10
70
20
-45.5
11
70
21
-44.3
0
LINE
8
BLACK
6
CONTINUOUS
10
70
20
-40.5
11
66.3
21
-40.5
0
LINE
8
BLACK
6
CONTINUOUS
10
71.8
20
-41.6
11
70
21
-41.6
0
LINE
8
BLACK
6
CONTINUOUS
10
62.4
20
-37
11
62.4
21
-38.4
0
LINE
8
BLACK
6
CONTINUOUS
10
64.9
20
-45.5
11
64.4
21
-45
0
LINE
8
BLACK
6
CONTINUOUS
10
59
20
-39.4
11
57.2
21
-39.4
0
LINE
8
BLACK
6
CONTINUOUS
10
57.2
20
-39.4
11
57.2
21
-42.2
0
LINE
8
BLACK
6
CONTINUOUS
10
64.9
20
-45.5
11
70
21
-45.5
0
LINE
8
BLACK
6
CONTINUOUS
10
70
20
-44.3
11
71.8
21
-44.3
0
LINE
8
BLACK
6
CONTINUOUS
10
57.2
20
-42.2
11
59
21
-42.2
0
LINE
8
BLACK
6
CONTINUOUS
10
70
20
-41.6
11
70
21
-40.5
0
LINE
8
BLACK
6
CONTINUOUS
10
59
20
-38.4
11
60.6
21
-38.4
0
LINE
8
BLACK
6
CONTINUOUS
10
65
20
-38.9
11
65
21
-39.2
0
LINE
8
BLACK
6
CONTINUOUS
10
59
20
-43.4
11
63.1
21
-43.4
0
LINE
8
BLACK
6
CONTINUOUS
10
59
20
-42.2
11
59
21
-43.4
0
ARC
8
BLACK
10
61.5
20
-37
40
0.9
50
-0
51
180
0
ARC
8
BLACK
10
63.1
20
-44.7
40
1.3
50
-4.40737e-05
51
90
0
ARC
8
BLACK
10
66.3
20
-39.2
40
1.3
50
-180
51
-90
0
CIRCLE
8
BLACK
10
72.5
20
-37
40
0.9
0
CIRCLE
8
BLACK
10
67
20
-37
40
1.75
0
LINE
8
BLACK
6
CONTINUOUS
10
85.2228
20
-77.2052
11
85.5764
21
-77.8176
0
LINE
8
BLACK
6
CONTINUOUS
10
81.8181
20
-74.8436
11
81.4557
21
-76.1959
0
LINE
8
BLACK
6
CONTINUOUS
10
83.418
20
-83.5545
11
83.4957
21
-83.2647
0
LINE
8
BLACK
6
CONTINUOUS
10
90.7471
20
-84.7936
11
91.4459
21
-82.1856
0
LINE
8
BLACK
6
CONTINUOUS
10
79.9102
20
-75.7817
11
79.6514
21
-76.7477
0
LINE
8
BLACK
6
CONTINUOUS
10
85.2228
20
-77.2052
11
83.1944
21
-76.6617
0
LINE
8
BLACK
6
CONTINUOUS
10
88.6978
20
-85.4868
11
89.0084
21
-84.3277
0
LINE
8
BLACK
6
CONTINUOUS
10
89.9919
20
-80.6572
11
86.418
21
-79.6996
0
LINE
8
BLACK
6
CONTINUOUS
10
91.4459
20
-82.1856
11
89.7072
21
-81.7197
0
LINE
8
BLACK
6
CONTINUOUS
10
83.5567
20
-75.3094
11
83.1944
21
-76.6617
0
LINE
8
BLACK
6
CONTINUOUS
10
83.7716
20
-84.1668
11
83.418
21
-83.5545
0
LINE
8
BLACK
6
CONTINUOUS
10
79.6514
20
-76.7477
11
77.9128
21
-76.2818
0
LINE
8
BLACK
6
CONTINUOUS
10
77.9128
20
-76.2818
11
77.1881
21
-78.9864
0
LINE
8
BLACK
6
CONTINUOUS
10
83.7716
20
-84.1668
11
88.6978
21
-85.4868
0
LINE
8
BLACK
6
CONTINUOUS
10
89.0084
20
-84.3277
11
90.7471
21
-84.7936
0
LINE
8
BLACK
6
CONTINUOUS
10
77.1881
20
-78.9864
11
78.9267
21
-79.4523
0
LINE
8
BLACK
6
CONTINUOUS
10
89.7072
20
-81.7197
11
89.9919
21
-80.6572
0
LINE
8
BLACK
6
CONTINUOUS
10
79.9102
20
-75.7817
11
81.4557
21
-76.1959
0
LINE
8
BLACK
6
CONTINUOUS
10
85.5764
20
-77.8176
11
85.4987
21
-78.1074
0
LINE
8
BLACK
6
CONTINUOUS
10
78.6162
20
-80.6114
11
82.5764
21
-81.6725
0
LINE
8
BLACK
6
CONTINUOUS
10
78.9267
20
-79.4523
11
78.6162
21
-80.6114
0
ARC
8
BLACK
10
82.6874
20
-75.0765
40
0.9
50
-15
51
165
0
ARC
8
BLACK
10
82.24
20
-82.9282
40
1.3
50
-15
51
75.0001
0
ARC
8
BLACK
10
86.7544
20
-78.4439
40
1.3
50
-195
51
-105
0
CIRCLE
8
BLACK
10
93.3126
20
-77.9235
40
0.9
0
CIRCLE
8
BLACK
10
88
20
-76.5
40
1.75
0
LINE
8
BLACK
6
CONTINUOUS
10
82.5
20
-21.4
11
83
21
-21.9
0
LINE
8
BLACK
6
CONTINUOUS
10
78.6
20
-20
11
78.6
21
-21.4
0
LINE
8
BLACK
6
CONTINUOUS
10
82.4
20
-28
11
82.4
21
-27.7
0
LINE
8
BLACK
6
CONTINUOUS
10
89.8
20
-27.3
11
89.8
21
-24.6
0
LINE
8
BLACK
6
CONTINUOUS
10
77
20
-21.4
11
77
21
-22.4
0
LINE
8
BLACK
6
CONTINUOUS
10
82.5
20
-21.4
11
80.4
21
-21.4
0
LINE
8
BLACK
6
CONTINUOUS
10
88
20
-28.5
11
88
21
-27.3
0
LINE
8
BLACK
6
CONTINUOUS
10
88
20
-23.5
11
84.3
21
-23.5
0
LINE
8
BLACK
6
CONTINUOUS
10
89.8
20
-24.6
11
88
21
-24.6
0
LINE
8
BLACK
6
CONTINUOUS
10
80.4
20
-20
11
80.4
21
-21.4
0
LINE
8
BLACK
6
CONTINUOUS
10
82.9
20
-28.5
11
82.4
21
-28
0
LINE
8
BLACK
6
CONTINUOUS
10
77
20
-22.4
11
75.2
21
-22.4
0
LINE
8
BLACK
6
CONTINUOUS
10
75.2
20
-22.4
11
75.2
21
-25.2
0
LINE
8
BLACK
6
CONTINUOUS
10
82.9
20
-28.5
11
88
21
-28.5
0
LINE
8
BLACK
6
CONTINUOUS
10
88
20
-27.3
11
89.8
21
-27.3
0
LINE
8
BLACK
6
CONTINUOUS
10
75.2
20
-25.2
11
77
21
-25.2
0
LINE
8
BLACK
6
CONTINUOUS
10
88
20
-24.6
11
88
21
-23.5
0
LINE
8
BLACK
6
CONTINUOUS
10
77
20
-21.4
11
78.6
21
-21.4
0
LINE
8
BLACK
6
CONTINUOUS
10
83
20
-21.9
11
83
21
-22.2
0
LINE
8
BLACK
6
CONTINUOUS
10
77
20
-26.4
11
81.1
21
-26.4
0
LINE
8
BLACK
6
CONTINUOUS
10
77
20
-25.2
11
77
21
-26.4
0
ARC
8
BLACK
10
79.5
20
-20
40
0.9
50
-0
51
180
0
ARC
8
BLACK
10
81.1
20
-27.7
40
1.3
50
-4.40737e-05
51
90
0
ARC
8
BLACK
10
84.3
20
-22.2
40
1.3
50
-180
51
-90
0
CIRCLE
8
BLACK
10
90.5
20
-20
40
0.9
0
CIRCLE
8
BLACK
10
85
20
-20
40
1.75
0
LINE
8
BLACK
6
CONTINUOUS
10
47.5
20
-75.4
11
48
21
-75.9
0
LINE
8
BLACK
6
CONTINUOUS
10
43.6
20
-74
11
43.6
21
-75.4
0
LINE
8
BLACK
6
CONTINUOUS
10
47.4
20
-82
11
47.4
21
-81.7
0
LINE
8
BLACK
6
CONTINUOUS
10
54.8
20
-81.3
11
54.8
21
-78.6
0
LINE
8
BLACK
6
CONTINUOUS
10
42
20
-75.4
11
42
21
-76.4
0
LINE
8
BLACK
6
CONTINUOUS
10
47.5
20
-75.4
11
45.4
21
-75.4
0
LINE
8
BLACK
6
CONTINUOUS
10
53
20
-82.5
11
53
21
-81.3
0
LINE
8
BLACK
6
CONTINUOUS
10
53
20
-77.5
11
49.3
21
-77.5
0
LINE
8
BLACK
6
CONTINUOUS
10
54.8
20
-78.6
11
53
21
-78.6
0
LINE
8
BLACK
6
CONTINUOUS
10
45.4
20
-74
11
45.4
21
-75.4
0
LINE
8
BLACK
6
CONTINUOUS
10
47.9
20
-82.5
11
47.4
21
-82
0
LINE
8
BLACK
6
CONTINUOUS
10
42
20
-76.4
11
40.2
21
-76.4
0
LINE
8
BLACK
6
CONTINUOUS
10
40.2
20
-76.4
11
40.2
21
-79.2
0
LINE
8
BLACK
6
CONTINUOUS
10
47.9
20
-82.5
11
53
21
-82.5
0
LINE
8
BLACK
6
CONTINUOUS
10
53
20
-81.3
11
54.8
21
-81.3
0
LINE
8
BLACK
6
CONTINUOUS
10
40.2
20
-79.2
11
42
21
-79.2
0
LINE
8
BLACK
6
CONTINUOUS
10
53
20
-78.6
11
53
21
-77.5
0
LINE
8
BLACK
6
CONTINUOUS
10
42
20
-75.4
11
43.6
21
-75.4
0
LINE
8
BLACK
6
CONTINUOUS
10
48
20
-75.9
11
48
21
-76.2
0
LINE
8
BLACK
6
CONTINUOUS
10
42
20
-80.4
11
46.1
21
-80.4
0
LINE
8
BLACK
6
CONTINUOUS
10
42
20
-79.2
11
42
21
-80.4
0
ARC
8
BLACK
10
44.5
20
-74
40
0.9
50
-0
51
180
0
ARC
8
BLACK
10
46.1
20
-81.7
40
1.3
50
-4.40737e-05
51
90
0
ARC
8
BLACK
10
49.3
20
-76.2
40
1.3
50
-180
51
-90
0
CIRCLE
8
BLACK
10
55.5
20
-74
40
0.9
0
CIRCLE
8
BLACK
10
50
20
-74
40
1.75
0
LINE
8
BLACK
6
CONTINUOUS
10
82.5
20
-38.4
11
83
21
-38.9
0
LINE
8
BLACK
6
CONTINUOUS
10
78.6
20
-37
11
78.6
21
-38.4
0
LINE
8
BLACK
6
CONTINUOUS
10
82.4
20
-45
11
82.4
21
-44.7
0
LINE
8
BLACK
6
CONTINUOUS
10
89.8
20
-44.3
11
89.8
21
-41.6
0
LINE
8
BLACK
6
CONTINUOUS
10
77
20
-38.4
11
77
21
-39.4
0
LINE
8
BLACK
6
CONTINUOUS
10
82.5
20
-38.4
11
80.4
21
-38.4
0
LINE
8
BLACK
6
CONTINUOUS
10
88
20
-45.5
11
88
21
-44.3
0
LINE
8
BLACK
6
CONTINUOUS
10
88
20
-40.5
11
84.3
21
-40.5
0
LINE
8
BLACK
6
CONTINUOUS
10
89.8
20
-41.6
11
88
21
-41.6
0
LINE
8
BLACK
6
CONTINUOUS
10
80.4
20
-37
11
80.4
21
-38.4
0
LINE
8
BLACK
6
CONTINUOUS
10
82.9
20
-45.5
11
82.4
21
-45
0
LINE
8
BLACK
6
CONTINUOUS
10
77
20
-39.4
11
75.2
21
-39.4
0
LINE
8
BLACK
6
CONTINUOUS
10
75.2
20
-39.4
11
75.2
21
-42.2
0
LINE
8
BLACK
6
CONTINUOUS
10
82.9
20
-45.5
11
88
21
-45.5
0
LINE
8
BLACK
6
CONTINUOUS
10
88
20
-44.3
11
89.8
21
-44.3
0
LINE
8
BLACK
6
CONTINUOUS
10
75.2
20
-42.2
11
77
21
-42.2
0
LINE
8
BLACK
6
CONTINUOUS
10
88
20
-41.6
11
88
21
-40.5
0
LINE
8
BLACK
6
CONTINUOUS
10
77
20
-38.4
11
78.6
21
-38.4
0
LINE
8
BLACK
6
CONTINUOUS
10
83
20
-38.9
11
83
21
-39.2
0
LINE
8
BLACK
6
CONTINUOUS
10
77
20
-43.4
11
81.1
21
-43.4
0
LINE
8
BLACK
6
CONTINUOUS
10
77
20
-42.2
11
77
21
-43.4
0
ARC
8
BLACK
10
79.5
20
-37
40
0.9
50
-0
51
180
0
ARC
8
BLACK
10
81.1
20
-44.7
40
1.3
50
-4.40737e-05
51
90
0
ARC
8
BLACK
10
84.3
20
-39.2
40
1.3
50
-180
51
-90
0
CIRCLE
8
BLACK
10
90.5
20
-37
40
0.9
0
CIRCLE
8
BLACK
10
85
20
-37
40
1.75
0
LINE
8
BLACK
6
CONTINUOUS
10
28.5
20
-51.9
11
29
21
-52.4
0
LINE
8
BLACK
6
CONTINUOUS
10
24.6
20
-50.5
11
24.6
21
-51.9
0
LINE
8
BLACK
6
CONTINUOUS
10
28.4
20
-58.5
11
28.4
21
-58.2
0
LINE
8
BLACK
6
CONTINUOUS
10
35.8
20
-57.8
11
35.8
21
-55.1
0
LINE
8
BLACK
6
CONTINUOUS
10
23
20
-51.9
11
23
21
-52.9
0
LINE
8
BLACK
6
CONTINUOUS
10
28.5
20
-51.9
11
26.4
21
-51.9
0
LINE
8
BLACK
6
CONTINUOUS
10
34
20
-59
11
34
21
-57.8
0
LINE
8
BLACK
6
CONTINUOUS
10
34
20
-54
11
30.3
21
-54
0
LINE
8
BLACK
6
CONTINUOUS
10
35.8
20
-55.1
11
34
21
-55.1
0
LINE
8
BLACK
6
CONTINUOUS
10
26.4
20
-50.5
11
26.4
21
-51.9
0
LINE
8
BLACK
6
CONTINUOUS
10
28.9
20
-59
11
28.4
21
-58.5
0
LINE
8
BLACK
6
CONTINUOUS
10
23
20
-52.9
11
21.2
21
-52.9
0
LINE
8
BLACK
6
CONTINUOUS
10
21.2
20
-52.9
11
21.2
21
-55.7
0
LINE
8
BLACK
6
CONTINUOUS
10
28.9
20
-59
11
34
21
-59
0
LINE
8
BLACK
6
CONTINUOUS
10
34
20
-57.8
11
35.8
21
-57.8
0
LINE
8
BLACK
6
CONTINUOUS
10
21.2
20
-55.7
11
23
21
-55.7
0
LINE
8
BLACK
6
CONTINUOUS
10
34
20
-55.1
11
34
21
-54
0
LINE
8
BLACK
6
CONTINUOUS
10
23
20
-51.9
11
24.6
21
-51.9
0
LINE
8
BLACK
6
CONTINUOUS
10
29
20
-52.4
11
29
21
-52.7
0
LINE
8
BLACK
6
CONTINUOUS
10
23
20
-56.9
11
27.1
21
-56.9
0
LINE
8
BLACK
6
CONTINUOUS
10
23
20
-55.7
11
23
21
-56.9
0
ARC
8
BLACK
10
25.5
20
-50.5
40
0.9
50
-0
51
180
0
ARC
8
BLACK
10
27.1
20
-58.2
40
1.3
50
-4.40737e-05
51
90
0
ARC
8
BLACK
10
30.3
20
-52.7
40
1.3
50
-180
51
-90
0
CIRCLE
8
BLACK
10
36.5
20
-50.5
40
0.9
0
CIRCLE
8
BLACK
10
31
20
-50.5
40
1.75
0
LINE
8
BLACK
6
CONTINUOUS
10
28.5
20
-34.9
11
29
21
-35.4
0
LINE
8
BLACK
6
CONTINUOUS
10
24.6
20
-33.5
11
24.6
21
-34.9
0
LINE
8
BLACK
6
CONTINUOUS
10
28.4
20
-41.5
11
28.4
21
-41.2
0
LINE
8
BLACK
6
CONTINUOUS
10
35.8
20
-40.8
11
35.8
21
-38.1
0
LINE
8
BLACK
6
CONTINUOUS
10
23
20
-34.9
11
23
21
-35.9
0
LINE
8
BLACK
6
CONTINUOUS
10
28.5
20
-34.9
11
26.4
21
-34.9
0
LINE
8
BLACK
6
CONTINUOUS
10
34
20
-42
11
34
21
-40.8
0
LINE
8
BLACK
6
CONTINUOUS
10
34
20
-37
11
30.3
21
-37
0
LINE
8
BLACK
6
CONTINUOUS
10
35.8
20
-38.1
11
34
21
-38.1
0
LINE
8
BLACK
6
CONTINUOUS
10
26.4
20
-33.5
11
26.4
21
-34.9
0
LINE
8
BLACK
6
CONTINUOUS
10
28.9
20
-42
11
28.4
21
-41.5
0
LINE
8
BLACK
6
CONTINUOUS
10
23
20
-35.9
11
21.2
21
-35.9
0
LINE
8
BLACK
6
CONTINUOUS
10
21.2
20
-35.9
11
21.2
21
-38.7
0
LINE
8
BLACK
6
CONTINUOUS
10
28.9
20
-42
11
34
21
-42
0
LINE
8
BLACK
6
CONTINUOUS
10
34
20
-40.8
11
35.8
21
-40.8
0
LINE
8
BLACK
6
CONTINUOUS
10
21.2
20
-38.7
11
23
21
-38.7
0
LINE
8
BLACK
6
CONTINUOUS
10
34
20
-38.1
11
34
21
-37
0
LINE
8
BLACK
6
CONTINUOUS
10
23
20
-34.9
11
24.6
21
-34.9
0
LINE
8
BLACK
6
CONTINUOUS
10
29
20
-35.4
11
29
21
-35.7
0
LINE
8
BLACK
6
CONTINUOUS
10
23
20
-39.9
11
27.1
21
-39.9
0
LINE
8
BLACK
6
CONTINUOUS
10
23
20
-38.7
11
23
21
-39.9
0
ARC
8
BLACK
10
25.5
20
-33.5
40
0.9
50
-0
51
180
0
ARC
8
BLACK
10
27.1
20
-41.2
40
1.3
50
-4.40737e-05
51
90
0
ARC
8
BLACK
10
30.3
20
-35.7
40
1.3
50
-180
51
-90
0
CIRCLE
8
BLACK
10
36.5
20
-33.5
40
0.9
0
CIRCLE
8
BLACK
10
31
20
-33.5
40
1.75
0
LINE
8
BLACK
6
CONTINUOUS
10
46.5
20
-29.9
11
47
21
-30.4
0
LINE
8
BLACK
6
CONTINUOUS
10
42.6
20
-28.5
11
42.6
21
-29.9
0
LINE
8
BLACK
6
CONTINUOUS
10
46.4
20
-36.5
11
46.4
21
-36.2
0
LINE
8
BLACK
6
CONTINUOUS
10
53.8
20
-35.8
11
53.8
21
-33.1
0
LINE
8
BLACK
6
CONTINUOUS
10
41
20
-29.9
11
41
21
-30.9
0
LINE
8
BLACK
6
CONTINUOUS
10
46.5
20
-29.9
11
44.4
21
-29.9
0
LINE
8
BLACK
6
CONTINUOUS
10
52
20
-37
11
52
21
-35.8
0
LINE
8
BLACK
6
CONTINUOUS
10
52
20
-32
11
48.3
21
-32
0
LINE
8
BLACK
6
CONTINUOUS
10
53.8
20
-33.1
11
52
21
-33.1
0
LINE
8
BLACK
6
CONTINUOUS
10
44.4
20
-28.5
11
44.4
21
-29.9
0
LINE
8
BLACK
6
CONTINUOUS
10
46.9
20
-37
11
46.4
21
-36.5
0
LINE
8
BLACK
6
CONTINUOUS
10
41
20
-30.9
11
39.2
21
-30.9
0
LINE
8
BLACK
6
CONTINUOUS
10
39.2
20
-30.9
11
39.2
21
-33.7
0
LINE
8
BLACK
6
CONTINUOUS
10
46.9
20
-37
11
52
21
-37
0
LINE
8
BLACK
6
CONTINUOUS
10
52
20
-35.8
11
53.8
21
-35.8
0
LINE
8
BLACK
6
CONTINUOUS
10
39.2
20
-33.7
11
41
21
-33.7
0
LINE
8
BLACK
6
CONTINUOUS
10
52
20
-33.1
11
52
21
-32
0
LINE
8
BLACK
6
CONTINUOUS
10
41
20
-29.9
11
42.6
21
-29.9
0
LINE
8
BLACK
6
CONTINUOUS
10
47
20
-30.4
11
47
21
-30.7
0
LINE
8
BLACK
6
CONTINUOUS
10
41
20
-34.9
11
45.1
21
-34.9
0
LINE
8
BLACK
6
CONTINUOUS
10
41
20
-33.7
11
41
21
-34.9
0
ARC
8
BLACK
10
43.5
20
-28.5
40
0.9
50
-0
51
180
0
ARC
8
BLACK
10
45.1
20
-36.2
40
1.3
50
-4.40737e-05
51
90
0
ARC
8
BLACK
10
48.3
20
-30.7
40
1.3
50
-180
51
-90
0
CIRCLE
8
BLACK
10
54.5
20
-28.5
40
0.9
0
CIRCLE
8
BLACK
10
49
20
-28.5
40
1.75
  0
ENDSEC
  0
EOF
