  0
SECTION
  2
HEADER
  9
$ANGBASE
  50
0.0
  9
$ANGDIR
  70
1
  9
$MEASUREMENT
  70
1
  0
ENDSEC
  0
SECTION
  2
TABLES
  0
TABLE
  2
LTYPE
  70
4
  0
LTYPE
  5
40F
  2
CONTINUOUS
  70
0
  3
Solid line
  72
65
  73
0
  40
0.0
  0
LTYPE
  5
410
  2
DASHDOT
 70
0
  3
Dash Dot ____ _ ____ _
 72
65
 73
4
 40
2.0
 49
1.25
 49
-0.25
 49
0.25
 49
-0.25
  0
LTYPE
  5
411
  2
DASHED
 70
0
  3
Dashed __ __ __ __ __
 72
65
 73
2
 40
0.75
 49
0.5
 49
-0.25
  0
LTYPE
  5
43B
  2
DOTTED
 70
0
  3
Dotted .  .  .  .
 72
65
 73
2
 40
0.2
 49
0.0
 49
-0.2
  0
ENDTAB
  0
TABLE
  2
STYLE
  70
4
  0
STYLE
  2
KICAD
  70
0
  40
0
  41
1
  42
1
  50
0
  71
0
  3
isocp.shx
  0
STYLE
  2
KICADB
  70
0
  40
0
  41
1
  42
1
  50
0
  71
0
  3
isocp.shx
  0
STYLE
  2
KICADI
  70
0
  40
0
  41
1
  42
1
  50
15
  71
0
  3
isocp.shx
  0
STYLE
  2
KICADBI
  70
0
  40
0
  41
1
  42
1
  50
15
  71
0
  3
isocp.shx
  0
ENDTAB
  0
TABLE
  2
LAYER
  70
1
  0
LAYER
  2
BLACK
  70
0
  62
7
  6
CONTINUOUS
  0
ENDTAB
  0
ENDSEC
  0
SECTION
  2
ENTITIES
0
LINE
8
BLACK
6
CONTINUOUS
10
100
20
-79
11
100
21
-1
0
LINE
8
BLACK
6
CONTINUOUS
10
0
20
-74
11
0
21
-69.9
0
LINE
8
BLACK
6
CONTINUOUS
10
35.4
20
0
11
82.5
21
0
0
LINE
8
BLACK
6
CONTINUOUS
10
0
20
-74
11
3.7
21
-87.7
0
LINE
8
BLACK
6
CONTINUOUS
10
4
20
-1.5
11
4
21
-57.5
0
LINE
8
BLACK
6
CONTINUOUS
10
0.8
20
-68.8
11
4
21
-68
0
LINE
8
BLACK
6
CONTINUOUS
10
94.5
20
0
11
99
21
0
0
ARC
8
BLACK
10
5.0774
20
-87.2762
40
1.4411
50
-162.898
51
-81.1142
0
LINE
8
BLACK
6
CONTINUOUS
10
35.4
20
-6.3
11
35.4
21
0
0
LINE
8
BLACK
6
CONTINUOUS
10
82.5
20
0
11
82.5
21
-21
0
LINE
8
BLACK
6
CONTINUOUS
10
60.5
20
-80.5
11
60.5
21
-82.5
0
LINE
8
BLACK
6
CONTINUOUS
10
82.5
20
-21
11
94.5
21
-21
0
LINE
8
BLACK
6
CONTINUOUS
10
5.3
20
-88.7
11
23
21
-84
0
ARC
8
BLACK
10
1.0861
20
-69.849
40
1.0873
50
-254.744
51
-177.312
0
ARC
8
BLACK
10
99
20
-1
40
1
50
-0
51
90
0
LINE
8
BLACK
6
CONTINUOUS
10
25.8
20
-6.3
11
35.4
21
-6.3
0
LINE
8
BLACK
6
CONTINUOUS
10
23
20
-84
11
59
21
-84
0
ARC
8
BLACK
10
5.5
20
-1.5
40
1.5
50
90
51
180
0
LINE
8
BLACK
6
CONTINUOUS
10
25.8
20
0
11
25.8
21
-6.3
0
LINE
8
BLACK
6
CONTINUOUS
10
4
20
-68
11
4
21
-57.5
0
ARC
8
BLACK
10
98.5
20
-79
40
1.5
50
-90
51
-0
0
ARC
8
BLACK
10
59
20
-82.5
40
1.5
50
-90
51
-0
0
LINE
8
BLACK
6
CONTINUOUS
10
5.5
20
0
11
25.8
21
0
0
LINE
8
BLACK
6
CONTINUOUS
10
98.5
20
-80.5
11
60.5
21
-80.5
0
LINE
8
BLACK
6
CONTINUOUS
10
94.5
20
-21
11
94.5
21
0
0
CIRCLE
8
BLACK
10
77
20
-75.5
40
1.1
0
CIRCLE
8
BLACK
10
20
20
-3.5
40
1.1
0
CIRCLE
8
BLACK
10
20
20
-65
40
1.1
0
CIRCLE
8
BLACK
10
71.5
20
-3.5
40
1.1
0
LINE
8
BLACK
6
CONTINUOUS
10
36.85
20
-17.05
11
29.35
21
-17.05
0
LINE
8
BLACK
6
CONTINUOUS
10
29.35
20
-17.05
11
29.35
21
-13.55
0
LINE
8
BLACK
6
CONTINUOUS
10
29.35
20
-13.55
11
36.85
21
-13.55
0
LINE
8
BLACK
6
CONTINUOUS
10
36.85
20
-13.55
11
36.85
21
-17.05
0
LINE
8
BLACK
6
CONTINUOUS
10
18.75
20
-17.05
11
11.25
21
-17.05
0
LINE
8
BLACK
6
CONTINUOUS
10
11.25
20
-17.05
11
11.25
21
-13.55
0
LINE
8
BLACK
6
CONTINUOUS
10
11.25
20
-13.55
11
18.75
21
-13.55
0
LINE
8
BLACK
6
CONTINUOUS
10
18.75
20
-13.55
11
18.75
21
-17.05
0
LINE
8
BLACK
6
CONTINUOUS
10
54.75
20
-8.55
11
47.25
21
-8.55
0
LINE
8
BLACK
6
CONTINUOUS
10
47.25
20
-8.55
11
47.25
21
-5.05
0
LINE
8
BLACK
6
CONTINUOUS
10
47.25
20
-5.05
11
54.75
21
-5.05
0
LINE
8
BLACK
6
CONTINUOUS
10
54.75
20
-5.05
11
54.75
21
-8.55
0
LINE
8
BLACK
6
CONTINUOUS
10
72.75
20
-13.55
11
65.25
21
-13.55
0
LINE
8
BLACK
6
CONTINUOUS
10
65.25
20
-13.55
11
65.25
21
-10.05
0
LINE
8
BLACK
6
CONTINUOUS
10
65.25
20
-10.05
11
72.75
21
-10.05
0
LINE
8
BLACK
6
CONTINUOUS
10
72.75
20
-10.05
11
72.75
21
-13.55
0
LINE
8
BLACK
6
CONTINUOUS
10
72.75
20
-30.55
11
65.25
21
-30.55
0
LINE
8
BLACK
6
CONTINUOUS
10
65.25
20
-30.55
11
65.25
21
-27.05
0
LINE
8
BLACK
6
CONTINUOUS
10
65.25
20
-27.05
11
72.75
21
-27.05
0
LINE
8
BLACK
6
CONTINUOUS
10
72.75
20
-27.05
11
72.75
21
-30.55
0
LINE
8
BLACK
6
CONTINUOUS
10
90.75
20
-30.55
11
83.25
21
-30.55
0
LINE
8
BLACK
6
CONTINUOUS
10
83.25
20
-30.55
11
83.25
21
-27.05
0
LINE
8
BLACK
6
CONTINUOUS
10
83.25
20
-27.05
11
90.75
21
-27.05
0
LINE
8
BLACK
6
CONTINUOUS
10
90.75
20
-27.05
11
90.75
21
-30.55
0
LINE
8
BLACK
6
CONTINUOUS
10
90.75
20
-47.55
11
83.25
21
-47.55
0
LINE
8
BLACK
6
CONTINUOUS
10
83.25
20
-47.55
11
83.25
21
-44.05
0
LINE
8
BLACK
6
CONTINUOUS
10
83.25
20
-44.05
11
90.75
21
-44.05
0
LINE
8
BLACK
6
CONTINUOUS
10
90.75
20
-44.05
11
90.75
21
-47.55
0
LINE
8
BLACK
6
CONTINUOUS
10
90.75
20
-64.55
11
83.25
21
-64.55
0
LINE
8
BLACK
6
CONTINUOUS
10
83.25
20
-64.55
11
83.25
21
-61.05
0
LINE
8
BLACK
6
CONTINUOUS
10
83.25
20
-61.05
11
90.75
21
-61.05
0
LINE
8
BLACK
6
CONTINUOUS
10
90.75
20
-61.05
11
90.75
21
-64.55
0
LINE
8
BLACK
6
CONTINUOUS
10
72.75
20
-47.55
11
65.25
21
-47.55
0
LINE
8
BLACK
6
CONTINUOUS
10
65.25
20
-47.55
11
65.25
21
-44.05
0
LINE
8
BLACK
6
CONTINUOUS
10
65.25
20
-44.05
11
72.75
21
-44.05
0
LINE
8
BLACK
6
CONTINUOUS
10
72.75
20
-44.05
11
72.75
21
-47.55
0
LINE
8
BLACK
6
CONTINUOUS
10
54.65
20
-42.55
11
47.15
21
-42.55
0
LINE
8
BLACK
6
CONTINUOUS
10
47.15
20
-42.55
11
47.15
21
-39.05
0
LINE
8
BLACK
6
CONTINUOUS
10
47.15
20
-39.05
11
54.65
21
-39.05
0
LINE
8
BLACK
6
CONTINUOUS
10
54.65
20
-39.05
11
54.65
21
-42.55
0
LINE
8
BLACK
6
CONTINUOUS
10
36.75
20
-34.05
11
29.25
21
-34.05
0
LINE
8
BLACK
6
CONTINUOUS
10
29.25
20
-34.05
11
29.25
21
-30.55
0
LINE
8
BLACK
6
CONTINUOUS
10
29.25
20
-30.55
11
36.75
21
-30.55
0
LINE
8
BLACK
6
CONTINUOUS
10
36.75
20
-30.55
11
36.75
21
-34.05
0
LINE
8
BLACK
6
CONTINUOUS
10
18.75
20
-34.05
11
11.25
21
-34.05
0
LINE
8
BLACK
6
CONTINUOUS
10
11.25
20
-34.05
11
11.25
21
-30.55
0
LINE
8
BLACK
6
CONTINUOUS
10
11.25
20
-30.55
11
18.75
21
-30.55
0
LINE
8
BLACK
6
CONTINUOUS
10
18.75
20
-30.55
11
18.75
21
-34.05
0
LINE
8
BLACK
6
CONTINUOUS
10
36.75
20
-51.05
11
29.25
21
-51.05
0
LINE
8
BLACK
6
CONTINUOUS
10
29.25
20
-51.05
11
29.25
21
-47.55
0
LINE
8
BLACK
6
CONTINUOUS
10
29.25
20
-47.55
11
36.75
21
-47.55
0
LINE
8
BLACK
6
CONTINUOUS
10
36.75
20
-47.55
11
36.75
21
-51.05
0
LINE
8
BLACK
6
CONTINUOUS
10
18.75
20
-51.05
11
11.25
21
-51.05
0
LINE
8
BLACK
6
CONTINUOUS
10
11.25
20
-51.05
11
11.25
21
-47.55
0
LINE
8
BLACK
6
CONTINUOUS
10
11.25
20
-47.55
11
18.75
21
-47.55
0
LINE
8
BLACK
6
CONTINUOUS
10
18.75
20
-47.55
11
18.75
21
-51.05
0
LINE
8
BLACK
6
CONTINUOUS
10
14.8752
20
-72.7198
11
7.63071
21
-74.6609
0
LINE
8
BLACK
6
CONTINUOUS
10
7.63071
20
-74.6609
11
6.72484
21
-71.2802
0
LINE
8
BLACK
6
CONTINUOUS
10
6.72484
20
-71.2802
11
13.9693
21
-69.3391
0
LINE
8
BLACK
6
CONTINUOUS
10
13.9693
20
-69.3391
11
14.8752
21
-72.7198
0
LINE
8
BLACK
6
CONTINUOUS
10
35.75
20
-71.05
11
28.25
21
-71.05
0
LINE
8
BLACK
6
CONTINUOUS
10
28.25
20
-71.05
11
28.25
21
-67.55
0
LINE
8
BLACK
6
CONTINUOUS
10
28.25
20
-67.55
11
35.75
21
-67.55
0
LINE
8
BLACK
6
CONTINUOUS
10
35.75
20
-67.55
11
35.75
21
-71.05
0
LINE
8
BLACK
6
CONTINUOUS
10
53.75
20
-71.05
11
46.25
21
-71.05
0
LINE
8
BLACK
6
CONTINUOUS
10
46.25
20
-71.05
11
46.25
21
-67.55
0
LINE
8
BLACK
6
CONTINUOUS
10
46.25
20
-67.55
11
53.75
21
-67.55
0
LINE
8
BLACK
6
CONTINUOUS
10
53.75
20
-67.55
11
53.75
21
-71.05
0
LINE
8
BLACK
6
CONTINUOUS
10
54.75
20
-25.55
11
47.25
21
-25.55
0
LINE
8
BLACK
6
CONTINUOUS
10
47.25
20
-25.55
11
47.25
21
-22.05
0
LINE
8
BLACK
6
CONTINUOUS
10
47.25
20
-22.05
11
54.75
21
-22.05
0
LINE
8
BLACK
6
CONTINUOUS
10
54.75
20
-22.05
11
54.75
21
-25.55
0
LINE
8
BLACK
6
CONTINUOUS
10
61.6
20
-70.4
11
61.6
21
-71.6
0
LINE
8
BLACK
6
CONTINUOUS
10
64
20
-70.4
11
64
21
-71.6
0
LINE
8
BLACK
6
CONTINUOUS
10
75.2
20
-70.4
11
75.2
21
-71.6
0
LINE
8
BLACK
6
CONTINUOUS
10
72.8
20
-70.4
11
72.8
21
-71.6
0
LINE
8
BLACK
6
CONTINUOUS
10
64.65
20
-62.25
11
72.15
21
-62.25
0
LINE
8
BLACK
6
CONTINUOUS
10
72.15
20
-62.25
11
72.15
21
-64.75
0
LINE
8
BLACK
6
CONTINUOUS
10
72.15
20
-64.75
11
64.65
21
-64.75
0
LINE
8
BLACK
6
CONTINUOUS
10
64.65
20
-64.75
11
64.65
21
-62.25
0
ARC
8
BLACK
10
62.8
20
-71.6
40
1.2
50
-180
51
-0
0
ARC
8
BLACK
10
62.8
20
-70.4
40
1.2
50
-0
51
180
0
ARC
8
BLACK
10
74
20
-70.4
40
1.2
50
-0
51
180
0
ARC
8
BLACK
10
74
20
-71.6
40
1.2
50
-180
51
-0
0
CIRCLE
8
BLACK
10
65.9
20
-78
40
1.25
0
CIRCLE
8
BLACK
10
70.9
20
-78
40
1.25
0
LINE
8
BLACK
6
CONTINUOUS
10
12.9
20
-3.9
11
15.9
21
-3.9
0
LINE
8
BLACK
6
CONTINUOUS
10
15.9
20
-3.9
11
15.9
21
-1.7
0
LINE
8
BLACK
6
CONTINUOUS
10
15.9
20
-1.7
11
12.9
21
-1.7
0
LINE
8
BLACK
6
CONTINUOUS
10
12.9
20
-1.7
11
12.9
21
-3.9
0
LINE
8
BLACK
6
CONTINUOUS
10
5.9
20
-3.9
11
11.9
21
-3.9
0
LINE
8
BLACK
6
CONTINUOUS
10
11.9
20
-3.9
11
11.9
21
-1.7
0
LINE
8
BLACK
6
CONTINUOUS
10
11.9
20
-1.7
11
5.9
21
-1.7
0
LINE
8
BLACK
6
CONTINUOUS
10
5.9
20
-1.7
11
5.9
21
-3.9
0
LINE
8
BLACK
6
CONTINUOUS
10
14.3
20
-8.1
11
17.5
21
-8.1
0
LINE
8
BLACK
6
CONTINUOUS
10
17.5
20
-8.1
11
17.5
21
-5.9
0
LINE
8
BLACK
6
CONTINUOUS
10
17.5
20
-5.9
11
14.3
21
-5.9
0
LINE
8
BLACK
6
CONTINUOUS
10
14.3
20
-5.9
11
14.3
21
-8.1
0
LINE
8
BLACK
6
CONTINUOUS
10
29.5
20
-75.4
11
30
21
-75.9
0
LINE
8
BLACK
6
CONTINUOUS
10
25.6
20
-74
11
25.6
21
-75.4
0
LINE
8
BLACK
6
CONTINUOUS
10
29.4
20
-82
11
29.4
21
-81.7
0
LINE
8
BLACK
6
CONTINUOUS
10
36.8
20
-81.3
11
36.8
21
-78.6
0
LINE
8
BLACK
6
CONTINUOUS
10
24
20
-75.4
11
24
21
-76.4
0
LINE
8
BLACK
6
CONTINUOUS
10
29.5
20
-75.4
11
27.4
21
-75.4
0
LINE
8
BLACK
6
CONTINUOUS
10
35
20
-82.5
11
35
21
-81.3
0
LINE
8
BLACK
6
CONTINUOUS
10
35
20
-77.5
11
31.3
21
-77.5
0
LINE
8
BLACK
6
CONTINUOUS
10
36.8
20
-78.6
11
35
21
-78.6
0
LINE
8
BLACK
6
CONTINUOUS
10
27.4
20
-74
11
27.4
21
-75.4
0
LINE
8
BLACK
6
CONTINUOUS
10
29.9
20
-82.5
11
29.4
21
-82
0
LINE
8
BLACK
6
CONTINUOUS
10
24
20
-76.4
11
22.2
21
-76.4
0
LINE
8
BLACK
6
CONTINUOUS
10
22.2
20
-76.4
11
22.2
21
-79.2
0
LINE
8
BLACK
6
CONTINUOUS
10
29.9
20
-82.5
11
35
21
-82.5
0
LINE
8
BLACK
6
CONTINUOUS
10
35
20
-81.3
11
36.8
21
-81.3
0
LINE
8
BLACK
6
CONTINUOUS
10
22.2
20
-79.2
11
24
21
-79.2
0
LINE
8
BLACK
6
CONTINUOUS
10
35
20
-78.6
11
35
21
-77.5
0
LINE
8
BLACK
6
CONTINUOUS
10
24
20
-75.4
11
25.6
21
-75.4
0
LINE
8
BLACK
6
CONTINUOUS
10
30
20
-75.9
11
30
21
-76.2
0
LINE
8
BLACK
6
CONTINUOUS
10
24
20
-80.4
11
28.1
21
-80.4
0
LINE
8
BLACK
6
CONTINUOUS
10
24
20
-79.2
11
24
21
-80.4
0
ARC
8
BLACK
10
26.5
20
-74
40
0.9
50
-0
51
180
0
ARC
8
BLACK
10
28.1
20
-81.7
40
1.3
50
-0
51
90
0
ARC
8
BLACK
10
31.3
20
-76.2
40
1.3
50
-180
51
-90
0
CIRCLE
8
BLACK
10
37.5
20
-74
40
0.9
0
CIRCLE
8
BLACK
10
32
20
-74
40
1.75
0
LINE
8
BLACK
6
CONTINUOUS
10
84.5
20
-68.9
11
85
21
-69.4
0
LINE
8
BLACK
6
CONTINUOUS
10
80.6
20
-67.5
11
80.6
21
-68.9
0
LINE
8
BLACK
6
CONTINUOUS
10
84.4
20
-75.5
11
84.4
21
-75.2
0
LINE
8
BLACK
6
CONTINUOUS
10
91.8
20
-74.8
11
91.8
21
-72.1
0
LINE
8
BLACK
6
CONTINUOUS
10
79
20
-68.9
11
79
21
-69.9
0
LINE
8
BLACK
6
CONTINUOUS
10
84.5
20
-68.9
11
82.4
21
-68.9
0
LINE
8
BLACK
6
CONTINUOUS
10
90
20
-76
11
90
21
-74.8
0
LINE
8
BLACK
6
CONTINUOUS
10
90
20
-71
11
86.3
21
-71
0
LINE
8
BLACK
6
CONTINUOUS
10
91.8
20
-72.1
11
90
21
-72.1
0
LINE
8
BLACK
6
CONTINUOUS
10
82.4
20
-67.5
11
82.4
21
-68.9
0
LINE
8
BLACK
6
CONTINUOUS
10
84.9
20
-76
11
84.4
21
-75.5
0
LINE
8
BLACK
6
CONTINUOUS
10
79
20
-69.9
11
77.2
21
-69.9
0
LINE
8
BLACK
6
CONTINUOUS
10
77.2
20
-69.9
11
77.2
21
-72.7
0
LINE
8
BLACK
6
CONTINUOUS
10
84.9
20
-76
11
90
21
-76
0
LINE
8
BLACK
6
CONTINUOUS
10
90
20
-74.8
11
91.8
21
-74.8
0
LINE
8
BLACK
6
CONTINUOUS
10
77.2
20
-72.7
11
79
21
-72.7
0
LINE
8
BLACK
6
CONTINUOUS
10
90
20
-72.1
11
90
21
-71
0
LINE
8
BLACK
6
CONTINUOUS
10
79
20
-68.9
11
80.6
21
-68.9
0
LINE
8
BLACK
6
CONTINUOUS
10
85
20
-69.4
11
85
21
-69.7
0
LINE
8
BLACK
6
CONTINUOUS
10
79
20
-73.9
11
83.1
21
-73.9
0
LINE
8
BLACK
6
CONTINUOUS
10
79
20
-72.7
11
79
21
-73.9
0
ARC
8
BLACK
10
81.5
20
-67.5
40
0.9
50
-0
51
180
0
ARC
8
BLACK
10
83.1
20
-75.2
40
1.3
50
-0
51
90
0
ARC
8
BLACK
10
86.3
20
-69.7
40
1.3
50
-180
51
-90
0
CIRCLE
8
BLACK
10
92.5
20
-67.5
40
0.9
0
CIRCLE
8
BLACK
10
87
20
-67.5
40
1.75
0
LINE
8
BLACK
6
CONTINUOUS
10
84.5
20
-51.9
11
85
21
-52.4
0
LINE
8
BLACK
6
CONTINUOUS
10
80.6
20
-50.5
11
80.6
21
-51.9
0
LINE
8
BLACK
6
CONTINUOUS
10
84.4
20
-58.5
11
84.4
21
-58.2
0
LINE
8
BLACK
6
CONTINUOUS
10
91.8
20
-57.8
11
91.8
21
-55.1
0
LINE
8
BLACK
6
CONTINUOUS
10
79
20
-51.9
11
79
21
-52.9
0
LINE
8
BLACK
6
CONTINUOUS
10
84.5
20
-51.9
11
82.4
21
-51.9
0
LINE
8
BLACK
6
CONTINUOUS
10
90
20
-59
11
90
21
-57.8
0
LINE
8
BLACK
6
CONTINUOUS
10
90
20
-54
11
86.3
21
-54
0
LINE
8
BLACK
6
CONTINUOUS
10
91.8
20
-55.1
11
90
21
-55.1
0
LINE
8
BLACK
6
CONTINUOUS
10
82.4
20
-50.5
11
82.4
21
-51.9
0
LINE
8
BLACK
6
CONTINUOUS
10
84.9
20
-59
11
84.4
21
-58.5
0
LINE
8
BLACK
6
CONTINUOUS
10
79
20
-52.9
11
77.2
21
-52.9
0
LINE
8
BLACK
6
CONTINUOUS
10
77.2
20
-52.9
11
77.2
21
-55.7
0
LINE
8
BLACK
6
CONTINUOUS
10
84.9
20
-59
11
90
21
-59
0
LINE
8
BLACK
6
CONTINUOUS
10
90
20
-57.8
11
91.8
21
-57.8
0
LINE
8
BLACK
6
CONTINUOUS
10
77.2
20
-55.7
11
79
21
-55.7
0
LINE
8
BLACK
6
CONTINUOUS
10
90
20
-55.1
11
90
21
-54
0
LINE
8
BLACK
6
CONTINUOUS
10
79
20
-51.9
11
80.6
21
-51.9
0
LINE
8
BLACK
6
CONTINUOUS
10
85
20
-52.4
11
85
21
-52.7
0
LINE
8
BLACK
6
CONTINUOUS
10
79
20
-56.9
11
83.1
21
-56.9
0
LINE
8
BLACK
6
CONTINUOUS
10
79
20
-55.7
11
79
21
-56.9
0
ARC
8
BLACK
10
81.5
20
-50.5
40
0.9
50
-0
51
180
0
ARC
8
BLACK
10
83.1
20
-58.2
40
1.3
50
-0
51
90
0
ARC
8
BLACK
10
86.3
20
-52.7
40
1.3
50
-180
51
-90
0
CIRCLE
8
BLACK
10
92.5
20
-50.5
40
0.9
0
CIRCLE
8
BLACK
10
87
20
-50.5
40
1.75
0
LINE
8
BLACK
6
CONTINUOUS
10
30.5
20
-21.4
11
31
21
-21.9
0
LINE
8
BLACK
6
CONTINUOUS
10
26.6
20
-20
11
26.6
21
-21.4
0
LINE
8
BLACK
6
CONTINUOUS
10
30.4
20
-28
11
30.4
21
-27.7
0
LINE
8
BLACK
6
CONTINUOUS
10
37.8
20
-27.3
11
37.8
21
-24.6
0
LINE
8
BLACK
6
CONTINUOUS
10
25
20
-21.4
11
25
21
-22.4
0
LINE
8
BLACK
6
CONTINUOUS
10
30.5
20
-21.4
11
28.4
21
-21.4
0
LINE
8
BLACK
6
CONTINUOUS
10
36
20
-28.5
11
36
21
-27.3
0
LINE
8
BLACK
6
CONTINUOUS
10
36
20
-23.5
11
32.3
21
-23.5
0
LINE
8
BLACK
6
CONTINUOUS
10
37.8
20
-24.6
11
36
21
-24.6
0
LINE
8
BLACK
6
CONTINUOUS
10
28.4
20
-20
11
28.4
21
-21.4
0
LINE
8
BLACK
6
CONTINUOUS
10
30.9
20
-28.5
11
30.4
21
-28
0
LINE
8
BLACK
6
CONTINUOUS
10
25
20
-22.4
11
23.2
21
-22.4
0
LINE
8
BLACK
6
CONTINUOUS
10
23.2
20
-22.4
11
23.2
21
-25.2
0
LINE
8
BLACK
6
CONTINUOUS
10
30.9
20
-28.5
11
36
21
-28.5
0
LINE
8
BLACK
6
CONTINUOUS
10
36
20
-27.3
11
37.8
21
-27.3
0
LINE
8
BLACK
6
CONTINUOUS
10
23.2
20
-25.2
11
25
21
-25.2
0
LINE
8
BLACK
6
CONTINUOUS
10
36
20
-24.6
11
36
21
-23.5
0
LINE
8
BLACK
6
CONTINUOUS
10
25
20
-21.4
11
26.6
21
-21.4
0
LINE
8
BLACK
6
CONTINUOUS
10
31
20
-21.9
11
31
21
-22.2
0
LINE
8
BLACK
6
CONTINUOUS
10
25
20
-26.4
11
29.1
21
-26.4
0
LINE
8
BLACK
6
CONTINUOUS
10
25
20
-25.2
11
25
21
-26.4
0
ARC
8
BLACK
10
27.5
20
-20
40
0.9
50
-0
51
180
0
ARC
8
BLACK
10
29.1
20
-27.7
40
1.3
50
-0
51
90
0
ARC
8
BLACK
10
32.3
20
-22.2
40
1.3
50
-180
51
-90
0
CIRCLE
8
BLACK
10
38.5
20
-20
40
0.9
0
CIRCLE
8
BLACK
10
33
20
-20
40
1.75
0
LINE
8
BLACK
6
CONTINUOUS
10
66.5
20
-17.9
11
67
21
-18.4
0
LINE
8
BLACK
6
CONTINUOUS
10
62.6
20
-16.5
11
62.6
21
-17.9
0
LINE
8
BLACK
6
CONTINUOUS
10
66.4
20
-24.5
11
66.4
21
-24.2
0
LINE
8
BLACK
6
CONTINUOUS
10
73.8
20
-23.8
11
73.8
21
-21.1
0
LINE
8
BLACK
6
CONTINUOUS
10
61
20
-17.9
11
61
21
-18.9
0
LINE
8
BLACK
6
CONTINUOUS
10
66.5
20
-17.9
11
64.4
21
-17.9
0
LINE
8
BLACK
6
CONTINUOUS
10
72
20
-25
11
72
21
-23.8
0
LINE
8
BLACK
6
CONTINUOUS
10
72
20
-20
11
68.3
21
-20
0
LINE
8
BLACK
6
CONTINUOUS
10
73.8
20
-21.1
11
72
21
-21.1
0
LINE
8
BLACK
6
CONTINUOUS
10
64.4
20
-16.5
11
64.4
21
-17.9
0
LINE
8
BLACK
6
CONTINUOUS
10
66.9
20
-25
11
66.4
21
-24.5
0
LINE
8
BLACK
6
CONTINUOUS
10
61
20
-18.9
11
59.2
21
-18.9
0
LINE
8
BLACK
6
CONTINUOUS
10
59.2
20
-18.9
11
59.2
21
-21.7
0
LINE
8
BLACK
6
CONTINUOUS
10
66.9
20
-25
11
72
21
-25
0
LINE
8
BLACK
6
CONTINUOUS
10
72
20
-23.8
11
73.8
21
-23.8
0
LINE
8
BLACK
6
CONTINUOUS
10
59.2
20
-21.7
11
61
21
-21.7
0
LINE
8
BLACK
6
CONTINUOUS
10
72
20
-21.1
11
72
21
-20
0
LINE
8
BLACK
6
CONTINUOUS
10
61
20
-17.9
11
62.6
21
-17.9
0
LINE
8
BLACK
6
CONTINUOUS
10
67
20
-18.4
11
67
21
-18.7
0
LINE
8
BLACK
6
CONTINUOUS
10
61
20
-22.9
11
65.1
21
-22.9
0
LINE
8
BLACK
6
CONTINUOUS
10
61
20
-21.7
11
61
21
-22.9
0
ARC
8
BLACK
10
63.5
20
-16.5
40
0.9
50
-0
51
180
0
ARC
8
BLACK
10
65.1
20
-24.2
40
1.3
50
-0
51
90
0
ARC
8
BLACK
10
68.3
20
-18.7
40
1.3
50
-180
51
-90
0
CIRCLE
8
BLACK
10
74.5
20
-16.5
40
0.9
0
CIRCLE
8
BLACK
10
69
20
-16.5
40
1.75
0
LINE
8
BLACK
6
CONTINUOUS
10
48.5
20
-46.9
11
49
21
-47.4
0
LINE
8
BLACK
6
CONTINUOUS
10
44.6
20
-45.5
11
44.6
21
-46.9
0
LINE
8
BLACK
6
CONTINUOUS
10
48.4
20
-53.5
11
48.4
21
-53.2
0
LINE
8
BLACK
6
CONTINUOUS
10
55.8
20
-52.8
11
55.8
21
-50.1
0
LINE
8
BLACK
6
CONTINUOUS
10
43
20
-46.9
11
43
21
-47.9
0
LINE
8
BLACK
6
CONTINUOUS
10
48.5
20
-46.9
11
46.4
21
-46.9
0
LINE
8
BLACK
6
CONTINUOUS
10
54
20
-54
11
54
21
-52.8
0
LINE
8
BLACK
6
CONTINUOUS
10
54
20
-49
11
50.3
21
-49
0
LINE
8
BLACK
6
CONTINUOUS
10
55.8
20
-50.1
11
54
21
-50.1
0
LINE
8
BLACK
6
CONTINUOUS
10
46.4
20
-45.5
11
46.4
21
-46.9
0
LINE
8
BLACK
6
CONTINUOUS
10
48.9
20
-54
11
48.4
21
-53.5
0
LINE
8
BLACK
6
CONTINUOUS
10
43
20
-47.9
11
41.2
21
-47.9
0
LINE
8
BLACK
6
CONTINUOUS
10
41.2
20
-47.9
11
41.2
21
-50.7
0
LINE
8
BLACK
6
CONTINUOUS
10
48.9
20
-54
11
54
21
-54
0
LINE
8
BLACK
6
CONTINUOUS
10
54
20
-52.8
11
55.8
21
-52.8
0
LINE
8
BLACK
6
CONTINUOUS
10
41.2
20
-50.7
11
43
21
-50.7
0
LINE
8
BLACK
6
CONTINUOUS
10
54
20
-50.1
11
54
21
-49
0
LINE
8
BLACK
6
CONTINUOUS
10
43
20
-46.9
11
44.6
21
-46.9
0
LINE
8
BLACK
6
CONTINUOUS
10
49
20
-47.4
11
49
21
-47.7
0
LINE
8
BLACK
6
CONTINUOUS
10
43
20
-51.9
11
47.1
21
-51.9
0
LINE
8
BLACK
6
CONTINUOUS
10
43
20
-50.7
11
43
21
-51.9
0
ARC
8
BLACK
10
45.5
20
-45.5
40
0.9
50
-0
51
180
0
ARC
8
BLACK
10
47.1
20
-53.2
40
1.3
50
-0
51
90
0
ARC
8
BLACK
10
50.3
20
-47.7
40
1.3
50
-180
51
-90
0
CIRCLE
8
BLACK
10
56.5
20
-45.5
40
0.9
0
CIRCLE
8
BLACK
10
51
20
-45.5
40
1.75
0
LINE
8
BLACK
6
CONTINUOUS
10
48.5
20
-12.9
11
49
21
-13.4
0
LINE
8
BLACK
6
CONTINUOUS
10
44.6
20
-11.5
11
44.6
21
-12.9
0
LINE
8
BLACK
6
CONTINUOUS
10
48.4
20
-19.5
11
48.4
21
-19.2
0
LINE
8
BLACK
6
CONTINUOUS
10
55.8
20
-18.8
11
55.8
21
-16.1
0
LINE
8
BLACK
6
CONTINUOUS
10
43
20
-12.9
11
43
21
-13.9
0
LINE
8
BLACK
6
CONTINUOUS
10
48.5
20
-12.9
11
46.4
21
-12.9
0
LINE
8
BLACK
6
CONTINUOUS
10
54
20
-20
11
54
21
-18.8
0
LINE
8
BLACK
6
CONTINUOUS
10
54
20
-15
11
50.3
21
-15
0
LINE
8
BLACK
6
CONTINUOUS
10
55.8
20
-16.1
11
54
21
-16.1
0
LINE
8
BLACK
6
CONTINUOUS
10
46.4
20
-11.5
11
46.4
21
-12.9
0
LINE
8
BLACK
6
CONTINUOUS
10
48.9
20
-20
11
48.4
21
-19.5
0
LINE
8
BLACK
6
CONTINUOUS
10
43
20
-13.9
11
41.2
21
-13.9
0
LINE
8
BLACK
6
CONTINUOUS
10
41.2
20
-13.9
11
41.2
21
-16.7
0
LINE
8
BLACK
6
CONTINUOUS
10
48.9
20
-20
11
54
21
-20
0
LINE
8
BLACK
6
CONTINUOUS
10
54
20
-18.8
11
55.8
21
-18.8
0
LINE
8
BLACK
6
CONTINUOUS
10
41.2
20
-16.7
11
43
21
-16.7
0
LINE
8
BLACK
6
CONTINUOUS
10
54
20
-16.1
11
54
21
-15
0
LINE
8
BLACK
6
CONTINUOUS
10
43
20
-12.9
11
44.6
21
-12.9
0
LINE
8
BLACK
6
CONTINUOUS
10
49
20
-13.4
11
49
21
-13.7
0
LINE
8
BLACK
6
CONTINUOUS
10
43
20
-17.9
11
47.1
21
-17.9
0
LINE
8
BLACK
6
CONTINUOUS
10
43
20
-16.7
11
43
21
-17.9
0
ARC
8
BLACK
10
45.5
20
-11.5
40
0.9
50
-0
51
180
0
ARC
8
BLACK
10
47.1
20
-19.2
40
1.3
50
-0
51
90
0
ARC
8
BLACK
10
50.3
20
-13.7
40
1.3
50
-180
51
-90
0
CIRCLE
8
BLACK
10
56.5
20
-11.5
40
0.9
0
CIRCLE
8
BLACK
10
51
20
-11.5
40
1.75
0
LINE
8
BLACK
6
CONTINUOUS
10
12.5
20
-55.4
11
13
21
-55.9
0
LINE
8
BLACK
6
CONTINUOUS
10
8.6
20
-54
11
8.6
21
-55.4
0
LINE
8
BLACK
6
CONTINUOUS
10
12.4
20
-62
11
12.4
21
-61.7
0
LINE
8
BLACK
6
CONTINUOUS
10
19.8
20
-61.3
11
19.8
21
-58.6
0
LINE
8
BLACK
6
CONTINUOUS
10
7
20
-55.4
11
7
21
-56.4
0
LINE
8
BLACK
6
CONTINUOUS
10
12.5
20
-55.4
11
10.4
21
-55.4
0
LINE
8
BLACK
6
CONTINUOUS
10
18
20
-62.5
11
18
21
-61.3
0
LINE
8
BLACK
6
CONTINUOUS
10
18
20
-57.5
11
14.3
21
-57.5
0
LINE
8
BLACK
6
CONTINUOUS
10
19.8
20
-58.6
11
18
21
-58.6
0
LINE
8
BLACK
6
CONTINUOUS
10
10.4
20
-54
11
10.4
21
-55.4
0
LINE
8
BLACK
6
CONTINUOUS
10
12.9
20
-62.5
11
12.4
21
-62
0
LINE
8
BLACK
6
CONTINUOUS
10
7
20
-56.4
11
5.2
21
-56.4
0
LINE
8
BLACK
6
CONTINUOUS
10
5.2
20
-56.4
11
5.2
21
-59.2
0
LINE
8
BLACK
6
CONTINUOUS
10
12.9
20
-62.5
11
18
21
-62.5
0
LINE
8
BLACK
6
CONTINUOUS
10
18
20
-61.3
11
19.8
21
-61.3
0
LINE
8
BLACK
6
CONTINUOUS
10
5.2
20
-59.2
11
7
21
-59.2
0
LINE
8
BLACK
6
CONTINUOUS
10
18
20
-58.6
11
18
21
-57.5
0
LINE
8
BLACK
6
CONTINUOUS
10
7
20
-55.4
11
8.6
21
-55.4
0
LINE
8
BLACK
6
CONTINUOUS
10
13
20
-55.9
11
13
21
-56.2
0
LINE
8
BLACK
6
CONTINUOUS
10
7
20
-60.4
11
11.1
21
-60.4
0
LINE
8
BLACK
6
CONTINUOUS
10
7
20
-59.2
11
7
21
-60.4
0
ARC
8
BLACK
10
9.5
20
-54
40
0.9
50
-0
51
180
0
ARC
8
BLACK
10
11.1
20
-61.7
40
1.3
50
-0
51
90
0
ARC
8
BLACK
10
14.3
20
-56.2
40
1.3
50
-180
51
-90
0
CIRCLE
8
BLACK
10
20.5
20
-54
40
0.9
0
CIRCLE
8
BLACK
10
15
20
-54
40
1.75
0
LINE
8
BLACK
6
CONTINUOUS
10
84.5
20
-34.9
11
85
21
-35.4
0
LINE
8
BLACK
6
CONTINUOUS
10
80.6
20
-33.5
11
80.6
21
-34.9
0
LINE
8
BLACK
6
CONTINUOUS
10
84.4
20
-41.5
11
84.4
21
-41.2
0
LINE
8
BLACK
6
CONTINUOUS
10
91.8
20
-40.8
11
91.8
21
-38.1
0
LINE
8
BLACK
6
CONTINUOUS
10
79
20
-34.9
11
79
21
-35.9
0
LINE
8
BLACK
6
CONTINUOUS
10
84.5
20
-34.9
11
82.4
21
-34.9
0
LINE
8
BLACK
6
CONTINUOUS
10
90
20
-42
11
90
21
-40.8
0
LINE
8
BLACK
6
CONTINUOUS
10
90
20
-37
11
86.3
21
-37
0
LINE
8
BLACK
6
CONTINUOUS
10
91.8
20
-38.1
11
90
21
-38.1
0
LINE
8
BLACK
6
CONTINUOUS
10
82.4
20
-33.5
11
82.4
21
-34.9
0
LINE
8
BLACK
6
CONTINUOUS
10
84.9
20
-42
11
84.4
21
-41.5
0
LINE
8
BLACK
6
CONTINUOUS
10
79
20
-35.9
11
77.2
21
-35.9
0
LINE
8
BLACK
6
CONTINUOUS
10
77.2
20
-35.9
11
77.2
21
-38.7
0
LINE
8
BLACK
6
CONTINUOUS
10
84.9
20
-42
11
90
21
-42
0
LINE
8
BLACK
6
CONTINUOUS
10
90
20
-40.8
11
91.8
21
-40.8
0
LINE
8
BLACK
6
CONTINUOUS
10
77.2
20
-38.7
11
79
21
-38.7
0
LINE
8
BLACK
6
CONTINUOUS
10
90
20
-38.1
11
90
21
-37
0
LINE
8
BLACK
6
CONTINUOUS
10
79
20
-34.9
11
80.6
21
-34.9
0
LINE
8
BLACK
6
CONTINUOUS
10
85
20
-35.4
11
85
21
-35.7
0
LINE
8
BLACK
6
CONTINUOUS
10
79
20
-39.9
11
83.1
21
-39.9
0
LINE
8
BLACK
6
CONTINUOUS
10
79
20
-38.7
11
79
21
-39.9
0
ARC
8
BLACK
10
81.5
20
-33.5
40
0.9
50
-0
51
180
0
ARC
8
BLACK
10
83.1
20
-41.2
40
1.3
50
-0
51
90
0
ARC
8
BLACK
10
86.3
20
-35.7
40
1.3
50
-180
51
-90
0
CIRCLE
8
BLACK
10
92.5
20
-33.5
40
0.9
0
CIRCLE
8
BLACK
10
87
20
-33.5
40
1.75
0
LINE
8
BLACK
6
CONTINUOUS
10
30.5
20
-55.4
11
31
21
-55.9
0
LINE
8
BLACK
6
CONTINUOUS
10
26.6
20
-54
11
26.6
21
-55.4
0
LINE
8
BLACK
6
CONTINUOUS
10
30.4
20
-62
11
30.4
21
-61.7
0
LINE
8
BLACK
6
CONTINUOUS
10
37.8
20
-61.3
11
37.8
21
-58.6
0
LINE
8
BLACK
6
CONTINUOUS
10
25
20
-55.4
11
25
21
-56.4
0
LINE
8
BLACK
6
CONTINUOUS
10
30.5
20
-55.4
11
28.4
21
-55.4
0
LINE
8
BLACK
6
CONTINUOUS
10
36
20
-62.5
11
36
21
-61.3
0
LINE
8
BLACK
6
CONTINUOUS
10
36
20
-57.5
11
32.3
21
-57.5
0
LINE
8
BLACK
6
CONTINUOUS
10
37.8
20
-58.6
11
36
21
-58.6
0
LINE
8
BLACK
6
CONTINUOUS
10
28.4
20
-54
11
28.4
21
-55.4
0
LINE
8
BLACK
6
CONTINUOUS
10
30.9
20
-62.5
11
30.4
21
-62
0
LINE
8
BLACK
6
CONTINUOUS
10
25
20
-56.4
11
23.2
21
-56.4
0
LINE
8
BLACK
6
CONTINUOUS
10
23.2
20
-56.4
11
23.2
21
-59.2
0
LINE
8
BLACK
6
CONTINUOUS
10
30.9
20
-62.5
11
36
21
-62.5
0
LINE
8
BLACK
6
CONTINUOUS
10
36
20
-61.3
11
37.8
21
-61.3
0
LINE
8
BLACK
6
CONTINUOUS
10
23.2
20
-59.2
11
25
21
-59.2
0
LINE
8
BLACK
6
CONTINUOUS
10
36
20
-58.6
11
36
21
-57.5
0
LINE
8
BLACK
6
CONTINUOUS
10
25
20
-55.4
11
26.6
21
-55.4
0
LINE
8
BLACK
6
CONTINUOUS
10
31
20
-55.9
11
31
21
-56.2
0
LINE
8
BLACK
6
CONTINUOUS
10
25
20
-60.4
11
29.1
21
-60.4
0
LINE
8
BLACK
6
CONTINUOUS
10
25
20
-59.2
11
25
21
-60.4
0
ARC
8
BLACK
10
27.5
20
-54
40
0.9
50
-0
51
180
0
ARC
8
BLACK
10
29.1
20
-61.7
40
1.3
50
-0
51
90
0
ARC
8
BLACK
10
32.3
20
-56.2
40
1.3
50
-180
51
-90
0
CIRCLE
8
BLACK
10
38.5
20
-54
40
0.9
0
CIRCLE
8
BLACK
10
33
20
-54
40
1.75
0
LINE
8
BLACK
6
CONTINUOUS
10
30.5
20
-38.4
11
31
21
-38.9
0
LINE
8
BLACK
6
CONTINUOUS
10
26.6
20
-37
11
26.6
21
-38.4
0
LINE
8
BLACK
6
CONTINUOUS
10
30.4
20
-45
11
30.4
21
-44.7
0
LINE
8
BLACK
6
CONTINUOUS
10
37.8
20
-44.3
11
37.8
21
-41.6
0
LINE
8
BLACK
6
CONTINUOUS
10
25
20
-38.4
11
25
21
-39.4
0
LINE
8
BLACK
6
CONTINUOUS
10
30.5
20
-38.4
11
28.4
21
-38.4
0
LINE
8
BLACK
6
CONTINUOUS
10
36
20
-45.5
11
36
21
-44.3
0
LINE
8
BLACK
6
CONTINUOUS
10
36
20
-40.5
11
32.3
21
-40.5
0
LINE
8
BLACK
6
CONTINUOUS
10
37.8
20
-41.6
11
36
21
-41.6
0
LINE
8
BLACK
6
CONTINUOUS
10
28.4
20
-37
11
28.4
21
-38.4
0
LINE
8
BLACK
6
CONTINUOUS
10
30.9
20
-45.5
11
30.4
21
-45
0
LINE
8
BLACK
6
CONTINUOUS
10
25
20
-39.4
11
23.2
21
-39.4
0
LINE
8
BLACK
6
CONTINUOUS
10
23.2
20
-39.4
11
23.2
21
-42.2
0
LINE
8
BLACK
6
CONTINUOUS
10
30.9
20
-45.5
11
36
21
-45.5
0
LINE
8
BLACK
6
CONTINUOUS
10
36
20
-44.3
11
37.8
21
-44.3
0
LINE
8
BLACK
6
CONTINUOUS
10
23.2
20
-42.2
11
25
21
-42.2
0
LINE
8
BLACK
6
CONTINUOUS
10
36
20
-41.6
11
36
21
-40.5
0
LINE
8
BLACK
6
CONTINUOUS
10
25
20
-38.4
11
26.6
21
-38.4
0
LINE
8
BLACK
6
CONTINUOUS
10
31
20
-38.9
11
31
21
-39.2
0
LINE
8
BLACK
6
CONTINUOUS
10
25
20
-43.4
11
29.1
21
-43.4
0
LINE
8
BLACK
6
CONTINUOUS
10
25
20
-42.2
11
25
21
-43.4
0
ARC
8
BLACK
10
27.5
20
-37
40
0.9
50
-0
51
180
0
ARC
8
BLACK
10
29.1
20
-44.7
40
1.3
50
-0
51
90
0
ARC
8
BLACK
10
32.3
20
-39.2
40
1.3
50
-180
51
-90
0
CIRCLE
8
BLACK
10
38.5
20
-37
40
0.9
0
CIRCLE
8
BLACK
10
33
20
-37
40
1.75
0
LINE
8
BLACK
6
CONTINUOUS
10
9.94753
20
-78.4993
11
10.5599
21
-78.8529
0
LINE
8
BLACK
6
CONTINUOUS
10
5.81807
20
-78.1564
11
6.18042
21
-79.5087
0
LINE
8
BLACK
6
CONTINUOUS
10
11.5591
20
-84.9003
11
11.4815
21
-84.6106
0
LINE
8
BLACK
6
CONTINUOUS
10
18.5258
20
-82.3089
11
17.827
21
-79.7009
0
LINE
8
BLACK
6
CONTINUOUS
10
4.63494
20
-79.9228
11
4.89376
21
-80.8888
0
LINE
8
BLACK
6
CONTINUOUS
10
9.94753
20
-78.4993
11
7.91909
21
-79.0429
0
LINE
8
BLACK
6
CONTINUOUS
10
17.0977
20
-83.9339
11
16.7872
21
-82.7748
0
LINE
8
BLACK
6
CONTINUOUS
10
15.8036
20
-79.1043
11
12.2297
21
-80.0619
0
LINE
8
BLACK
6
CONTINUOUS
10
17.827
20
-79.7009
11
16.0883
21
-80.1668
0
LINE
8
BLACK
6
CONTINUOUS
10
7.55674
20
-77.6906
11
7.91909
21
-79.0429
0
LINE
8
BLACK
6
CONTINUOUS
10
12.1715
20
-85.2539
11
11.5591
21
-84.9003
0
LINE
8
BLACK
6
CONTINUOUS
10
4.89376
20
-80.8888
11
3.15509
21
-81.3546
0
LINE
8
BLACK
6
CONTINUOUS
10
3.15509
20
-81.3546
11
3.87979
21
-84.0592
0
LINE
8
BLACK
6
CONTINUOUS
10
12.1715
20
-85.2539
11
17.0977
21
-83.9339
0
LINE
8
BLACK
6
CONTINUOUS
10
16.7872
20
-82.7748
11
18.5258
21
-82.3089
0
LINE
8
BLACK
6
CONTINUOUS
10
3.87979
20
-84.0592
11
5.61845
21
-83.5934
0
LINE
8
BLACK
6
CONTINUOUS
10
16.0883
20
-80.1668
11
15.8036
21
-79.1043
0
LINE
8
BLACK
6
CONTINUOUS
10
4.63494
20
-79.9228
11
6.18042
21
-79.5087
0
LINE
8
BLACK
6
CONTINUOUS
10
10.5599
20
-78.8529
11
10.6375
21
-79.1427
0
LINE
8
BLACK
6
CONTINUOUS
10
5.92903
20
-84.7525
11
9.88933
21
-83.6913
0
LINE
8
BLACK
6
CONTINUOUS
10
5.61845
20
-83.5934
11
5.92903
21
-84.7525
0
ARC
8
BLACK
10
6.68741
20
-77.9235
40
0.9
50
-345
51
-165
0
ARC
8
BLACK
10
10.2258
20
-84.947
40
1.3
50
15
51
105
0
ARC
8
BLACK
10
11.8933
20
-78.8062
40
1.3
50
-165
51
-75
0
CIRCLE
8
BLACK
10
17.3126
20
-75.0765
40
0.9
0
CIRCLE
8
BLACK
10
12
20
-76.5
40
1.75
0
LINE
8
BLACK
6
CONTINUOUS
10
12.5
20
-21.4
11
13
21
-21.9
0
LINE
8
BLACK
6
CONTINUOUS
10
8.6
20
-20
11
8.6
21
-21.4
0
LINE
8
BLACK
6
CONTINUOUS
10
12.4
20
-28
11
12.4
21
-27.7
0
LINE
8
BLACK
6
CONTINUOUS
10
19.8
20
-27.3
11
19.8
21
-24.6
0
LINE
8
BLACK
6
CONTINUOUS
10
7
20
-21.4
11
7
21
-22.4
0
LINE
8
BLACK
6
CONTINUOUS
10
12.5
20
-21.4
11
10.4
21
-21.4
0
LINE
8
BLACK
6
CONTINUOUS
10
18
20
-28.5
11
18
21
-27.3
0
LINE
8
BLACK
6
CONTINUOUS
10
18
20
-23.5
11
14.3
21
-23.5
0
LINE
8
BLACK
6
CONTINUOUS
10
19.8
20
-24.6
11
18
21
-24.6
0
LINE
8
BLACK
6
CONTINUOUS
10
10.4
20
-20
11
10.4
21
-21.4
0
LINE
8
BLACK
6
CONTINUOUS
10
12.9
20
-28.5
11
12.4
21
-28
0
LINE
8
BLACK
6
CONTINUOUS
10
7
20
-22.4
11
5.2
21
-22.4
0
LINE
8
BLACK
6
CONTINUOUS
10
5.2
20
-22.4
11
5.2
21
-25.2
0
LINE
8
BLACK
6
CONTINUOUS
10
12.9
20
-28.5
11
18
21
-28.5
0
LINE
8
BLACK
6
CONTINUOUS
10
18
20
-27.3
11
19.8
21
-27.3
0
LINE
8
BLACK
6
CONTINUOUS
10
5.2
20
-25.2
11
7
21
-25.2
0
LINE
8
BLACK
6
CONTINUOUS
10
18
20
-24.6
11
18
21
-23.5
0
LINE
8
BLACK
6
CONTINUOUS
10
7
20
-21.4
11
8.6
21
-21.4
0
LINE
8
BLACK
6
CONTINUOUS
10
13
20
-21.9
11
13
21
-22.2
0
LINE
8
BLACK
6
CONTINUOUS
10
7
20
-26.4
11
11.1
21
-26.4
0
LINE
8
BLACK
6
CONTINUOUS
10
7
20
-25.2
11
7
21
-26.4
0
ARC
8
BLACK
10
9.5
20
-20
40
0.9
50
-0
51
180
0
ARC
8
BLACK
10
11.1
20
-27.7
40
1.3
50
-0
51
90
0
ARC
8
BLACK
10
14.3
20
-22.2
40
1.3
50
-180
51
-90
0
CIRCLE
8
BLACK
10
20.5
20
-20
40
0.9
0
CIRCLE
8
BLACK
10
15
20
-20
40
1.75
0
LINE
8
BLACK
6
CONTINUOUS
10
47.5
20
-75.4
11
48
21
-75.9
0
LINE
8
BLACK
6
CONTINUOUS
10
43.6
20
-74
11
43.6
21
-75.4
0
LINE
8
BLACK
6
CONTINUOUS
10
47.4
20
-82
11
47.4
21
-81.7
0
LINE
8
BLACK
6
CONTINUOUS
10
54.8
20
-81.3
11
54.8
21
-78.6
0
LINE
8
BLACK
6
CONTINUOUS
10
42
20
-75.4
11
42
21
-76.4
0
LINE
8
BLACK
6
CONTINUOUS
10
47.5
20
-75.4
11
45.4
21
-75.4
0
LINE
8
BLACK
6
CONTINUOUS
10
53
20
-82.5
11
53
21
-81.3
0
LINE
8
BLACK
6
CONTINUOUS
10
53
20
-77.5
11
49.3
21
-77.5
0
LINE
8
BLACK
6
CONTINUOUS
10
54.8
20
-78.6
11
53
21
-78.6
0
LINE
8
BLACK
6
CONTINUOUS
10
45.4
20
-74
11
45.4
21
-75.4
0
LINE
8
BLACK
6
CONTINUOUS
10
47.9
20
-82.5
11
47.4
21
-82
0
LINE
8
BLACK
6
CONTINUOUS
10
42
20
-76.4
11
40.2
21
-76.4
0
LINE
8
BLACK
6
CONTINUOUS
10
40.2
20
-76.4
11
40.2
21
-79.2
0
LINE
8
BLACK
6
CONTINUOUS
10
47.9
20
-82.5
11
53
21
-82.5
0
LINE
8
BLACK
6
CONTINUOUS
10
53
20
-81.3
11
54.8
21
-81.3
0
LINE
8
BLACK
6
CONTINUOUS
10
40.2
20
-79.2
11
42
21
-79.2
0
LINE
8
BLACK
6
CONTINUOUS
10
53
20
-78.6
11
53
21
-77.5
0
LINE
8
BLACK
6
CONTINUOUS
10
42
20
-75.4
11
43.6
21
-75.4
0
LINE
8
BLACK
6
CONTINUOUS
10
48
20
-75.9
11
48
21
-76.2
0
LINE
8
BLACK
6
CONTINUOUS
10
42
20
-80.4
11
46.1
21
-80.4
0
LINE
8
BLACK
6
CONTINUOUS
10
42
20
-79.2
11
42
21
-80.4
0
ARC
8
BLACK
10
44.5
20
-74
40
0.9
50
-0
51
180
0
ARC
8
BLACK
10
46.1
20
-81.7
40
1.3
50
-0
51
90
0
ARC
8
BLACK
10
49.3
20
-76.2
40
1.3
50
-180
51
-90
0
CIRCLE
8
BLACK
10
55.5
20
-74
40
0.9
0
CIRCLE
8
BLACK
10
50
20
-74
40
1.75
0
LINE
8
BLACK
6
CONTINUOUS
10
12.5
20
-38.4
11
13
21
-38.9
0
LINE
8
BLACK
6
CONTINUOUS
10
8.6
20
-37
11
8.6
21
-38.4
0
LINE
8
BLACK
6
CONTINUOUS
10
12.4
20
-45
11
12.4
21
-44.7
0
LINE
8
BLACK
6
CONTINUOUS
10
19.8
20
-44.3
11
19.8
21
-41.6
0
LINE
8
BLACK
6
CONTINUOUS
10
7
20
-38.4
11
7
21
-39.4
0
LINE
8
BLACK
6
CONTINUOUS
10
12.5
20
-38.4
11
10.4
21
-38.4
0
LINE
8
BLACK
6
CONTINUOUS
10
18
20
-45.5
11
18
21
-44.3
0
LINE
8
BLACK
6
CONTINUOUS
10
18
20
-40.5
11
14.3
21
-40.5
0
LINE
8
BLACK
6
CONTINUOUS
10
19.8
20
-41.6
11
18
21
-41.6
0
LINE
8
BLACK
6
CONTINUOUS
10
10.4
20
-37
11
10.4
21
-38.4
0
LINE
8
BLACK
6
CONTINUOUS
10
12.9
20
-45.5
11
12.4
21
-45
0
LINE
8
BLACK
6
CONTINUOUS
10
7
20
-39.4
11
5.2
21
-39.4
0
LINE
8
BLACK
6
CONTINUOUS
10
5.2
20
-39.4
11
5.2
21
-42.2
0
LINE
8
BLACK
6
CONTINUOUS
10
12.9
20
-45.5
11
18
21
-45.5
0
LINE
8
BLACK
6
CONTINUOUS
10
18
20
-44.3
11
19.8
21
-44.3
0
LINE
8
BLACK
6
CONTINUOUS
10
5.2
20
-42.2
11
7
21
-42.2
0
LINE
8
BLACK
6
CONTINUOUS
10
18
20
-41.6
11
18
21
-40.5
0
LINE
8
BLACK
6
CONTINUOUS
10
7
20
-38.4
11
8.6
21
-38.4
0
LINE
8
BLACK
6
CONTINUOUS
10
13
20
-38.9
11
13
21
-39.2
0
LINE
8
BLACK
6
CONTINUOUS
10
7
20
-43.4
11
11.1
21
-43.4
0
LINE
8
BLACK
6
CONTINUOUS
10
7
20
-42.2
11
7
21
-43.4
0
ARC
8
BLACK
10
9.5
20
-37
40
0.9
50
-0
51
180
0
ARC
8
BLACK
10
11.1
20
-44.7
40
1.3
50
-0
51
90
0
ARC
8
BLACK
10
14.3
20
-39.2
40
1.3
50
-180
51
-90
0
CIRCLE
8
BLACK
10
20.5
20
-37
40
0.9
0
CIRCLE
8
BLACK
10
15
20
-37
40
1.75
0
LINE
8
BLACK
6
CONTINUOUS
10
66.5
20
-51.9
11
67
21
-52.4
0
LINE
8
BLACK
6
CONTINUOUS
10
62.6
20
-50.5
11
62.6
21
-51.9
0
LINE
8
BLACK
6
CONTINUOUS
10
66.4
20
-58.5
11
66.4
21
-58.2
0
LINE
8
BLACK
6
CONTINUOUS
10
73.8
20
-57.8
11
73.8
21
-55.1
0
LINE
8
BLACK
6
CONTINUOUS
10
61
20
-51.9
11
61
21
-52.9
0
LINE
8
BLACK
6
CONTINUOUS
10
66.5
20
-51.9
11
64.4
21
-51.9
0
LINE
8
BLACK
6
CONTINUOUS
10
72
20
-59
11
72
21
-57.8
0
LINE
8
BLACK
6
CONTINUOUS
10
72
20
-54
11
68.3
21
-54
0
LINE
8
BLACK
6
CONTINUOUS
10
73.8
20
-55.1
11
72
21
-55.1
0
LINE
8
BLACK
6
CONTINUOUS
10
64.4
20
-50.5
11
64.4
21
-51.9
0
LINE
8
BLACK
6
CONTINUOUS
10
66.9
20
-59
11
66.4
21
-58.5
0
LINE
8
BLACK
6
CONTINUOUS
10
61
20
-52.9
11
59.2
21
-52.9
0
LINE
8
BLACK
6
CONTINUOUS
10
59.2
20
-52.9
11
59.2
21
-55.7
0
LINE
8
BLACK
6
CONTINUOUS
10
66.9
20
-59
11
72
21
-59
0
LINE
8
BLACK
6
CONTINUOUS
10
72
20
-57.8
11
73.8
21
-57.8
0
LINE
8
BLACK
6
CONTINUOUS
10
59.2
20
-55.7
11
61
21
-55.7
0
LINE
8
BLACK
6
CONTINUOUS
10
72
20
-55.1
11
72
21
-54
0
LINE
8
BLACK
6
CONTINUOUS
10
61
20
-51.9
11
62.6
21
-51.9
0
LINE
8
BLACK
6
CONTINUOUS
10
67
20
-52.4
11
67
21
-52.7
0
LINE
8
BLACK
6
CONTINUOUS
10
61
20
-56.9
11
65.1
21
-56.9
0
LINE
8
BLACK
6
CONTINUOUS
10
61
20
-55.7
11
61
21
-56.9
0
ARC
8
BLACK
10
63.5
20
-50.5
40
0.9
50
-0
51
180
0
ARC
8
BLACK
10
65.1
20
-58.2
40
1.3
50
-0
51
90
0
ARC
8
BLACK
10
68.3
20
-52.7
40
1.3
50
-180
51
-90
0
CIRCLE
8
BLACK
10
74.5
20
-50.5
40
0.9
0
CIRCLE
8
BLACK
10
69
20
-50.5
40
1.75
0
LINE
8
BLACK
6
CONTINUOUS
10
66.5
20
-34.9
11
67
21
-35.4
0
LINE
8
BLACK
6
CONTINUOUS
10
62.6
20
-33.5
11
62.6
21
-34.9
0
LINE
8
BLACK
6
CONTINUOUS
10
66.4
20
-41.5
11
66.4
21
-41.2
0
LINE
8
BLACK
6
CONTINUOUS
10
73.8
20
-40.8
11
73.8
21
-38.1
0
LINE
8
BLACK
6
CONTINUOUS
10
61
20
-34.9
11
61
21
-35.9
0
LINE
8
BLACK
6
CONTINUOUS
10
66.5
20
-34.9
11
64.4
21
-34.9
0
LINE
8
BLACK
6
CONTINUOUS
10
72
20
-42
11
72
21
-40.8
0
LINE
8
BLACK
6
CONTINUOUS
10
72
20
-37
11
68.3
21
-37
0
LINE
8
BLACK
6
CONTINUOUS
10
73.8
20
-38.1
11
72
21
-38.1
0
LINE
8
BLACK
6
CONTINUOUS
10
64.4
20
-33.5
11
64.4
21
-34.9
0
LINE
8
BLACK
6
CONTINUOUS
10
66.9
20
-42
11
66.4
21
-41.5
0
LINE
8
BLACK
6
CONTINUOUS
10
61
20
-35.9
11
59.2
21
-35.9
0
LINE
8
BLACK
6
CONTINUOUS
10
59.2
20
-35.9
11
59.2
21
-38.7
0
LINE
8
BLACK
6
CONTINUOUS
10
66.9
20
-42
11
72
21
-42
0
LINE
8
BLACK
6
CONTINUOUS
10
72
20
-40.8
11
73.8
21
-40.8
0
LINE
8
BLACK
6
CONTINUOUS
10
59.2
20
-38.7
11
61
21
-38.7
0
LINE
8
BLACK
6
CONTINUOUS
10
72
20
-38.1
11
72
21
-37
0
LINE
8
BLACK
6
CONTINUOUS
10
61
20
-34.9
11
62.6
21
-34.9
0
LINE
8
BLACK
6
CONTINUOUS
10
67
20
-35.4
11
67
21
-35.7
0
LINE
8
BLACK
6
CONTINUOUS
10
61
20
-39.9
11
65.1
21
-39.9
0
LINE
8
BLACK
6
CONTINUOUS
10
61
20
-38.7
11
61
21
-39.9
0
ARC
8
BLACK
10
63.5
20
-33.5
40
0.9
50
-0
51
180
0
ARC
8
BLACK
10
65.1
20
-41.2
40
1.3
50
-0
51
90
0
ARC
8
BLACK
10
68.3
20
-35.7
40
1.3
50
-180
51
-90
0
CIRCLE
8
BLACK
10
74.5
20
-33.5
40
0.9
0
CIRCLE
8
BLACK
10
69
20
-33.5
40
1.75
0
LINE
8
BLACK
6
CONTINUOUS
10
48.5
20
-29.9
11
49
21
-30.4
0
LINE
8
BLACK
6
CONTINUOUS
10
44.6
20
-28.5
11
44.6
21
-29.9
0
LINE
8
BLACK
6
CONTINUOUS
10
48.4
20
-36.5
11
48.4
21
-36.2
0
LINE
8
BLACK
6
CONTINUOUS
10
55.8
20
-35.8
11
55.8
21
-33.1
0
LINE
8
BLACK
6
CONTINUOUS
10
43
20
-29.9
11
43
21
-30.9
0
LINE
8
BLACK
6
CONTINUOUS
10
48.5
20
-29.9
11
46.4
21
-29.9
0
LINE
8
BLACK
6
CONTINUOUS
10
54
20
-37
11
54
21
-35.8
0
LINE
8
BLACK
6
CONTINUOUS
10
54
20
-32
11
50.3
21
-32
0
LINE
8
BLACK
6
CONTINUOUS
10
55.8
20
-33.1
11
54
21
-33.1
0
LINE
8
BLACK
6
CONTINUOUS
10
46.4
20
-28.5
11
46.4
21
-29.9
0
LINE
8
BLACK
6
CONTINUOUS
10
48.9
20
-37
11
48.4
21
-36.5
0
LINE
8
BLACK
6
CONTINUOUS
10
43
20
-30.9
11
41.2
21
-30.9
0
LINE
8
BLACK
6
CONTINUOUS
10
41.2
20
-30.9
11
41.2
21
-33.7
0
LINE
8
BLACK
6
CONTINUOUS
10
48.9
20
-37
11
54
21
-37
0
LINE
8
BLACK
6
CONTINUOUS
10
54
20
-35.8
11
55.8
21
-35.8
0
LINE
8
BLACK
6
CONTINUOUS
10
41.2
20
-33.7
11
43
21
-33.7
0
LINE
8
BLACK
6
CONTINUOUS
10
54
20
-33.1
11
54
21
-32
0
LINE
8
BLACK
6
CONTINUOUS
10
43
20
-29.9
11
44.6
21
-29.9
0
LINE
8
BLACK
6
CONTINUOUS
10
49
20
-30.4
11
49
21
-30.7
0
LINE
8
BLACK
6
CONTINUOUS
10
43
20
-34.9
11
47.1
21
-34.9
0
LINE
8
BLACK
6
CONTINUOUS
10
43
20
-33.7
11
43
21
-34.9
0
ARC
8
BLACK
10
45.5
20
-28.5
40
0.9
50
-0
51
180
0
ARC
8
BLACK
10
47.1
20
-36.2
40
1.3
50
-0
51
90
0
ARC
8
BLACK
10
50.3
20
-30.7
40
1.3
50
-180
51
-90
0
CIRCLE
8
BLACK
10
56.5
20
-28.5
40
0.9
0
CIRCLE
8
BLACK
10
51
20
-28.5
40
1.75
  0
ENDSEC
  0
EOF
