  0
SECTION
  2
HEADER
  9
$ANGBASE
  50
0.0
  9
$ANGDIR
  70
1
  9
$MEASUREMENT
  70
1
  0
ENDSEC
  0
SECTION
  2
TABLES
  0
TABLE
  2
LTYPE
  70
4
  0
LTYPE
  5
40F
  2
CONTINUOUS
  70
0
  3
Solid line
  72
65
  73
0
  40
0.0
  0
LTYPE
  5
410
  2
DASHDOT
 70
0
  3
Dash Dot ____ _ ____ _
 72
65
 73
4
 40
2.0
 49
1.25
 49
-0.25
 49
0.25
 49
-0.25
  0
LTYPE
  5
411
  2
DASHED
 70
0
  3
Dashed __ __ __ __ __
 72
65
 73
2
 40
0.75
 49
0.5
 49
-0.25
  0
LTYPE
  5
43B
  2
DOTTED
 70
0
  3
Dotted .  .  .  .
 72
65
 73
2
 40
0.2
 49
0.0
 49
-0.2
  0
ENDTAB
  0
TABLE
  2
STYLE
  70
4
  0
STYLE
  2
KICAD
  70
0
  40
0
  41
1
  42
1
  50
0
  71
0
  3
isocp.shx
  0
STYLE
  2
KICADB
  70
0
  40
0
  41
1
  42
1
  50
0
  71
0
  3
isocp.shx
  0
STYLE
  2
KICADI
  70
0
  40
0
  41
1
  42
1
  50
15
  71
0
  3
isocp.shx
  0
STYLE
  2
KICADBI
  70
0
  40
0
  41
1
  42
1
  50
15
  71
0
  3
isocp.shx
  0
ENDTAB
  0
TABLE
  2
LAYER
  70
1
  0
LAYER
  2
BLACK
  70
0
  62
7
  6
CONTINUOUS
  0
ENDTAB
  0
ENDSEC
  0
SECTION
  2
ENTITIES
0
LINE
8
BLACK
6
CONTINUOUS
10
0
20
-1
11
0
21
-79
0
LINE
8
BLACK
6
CONTINUOUS
10
100
20
-69.9
11
100
21
-74
0
LINE
8
BLACK
6
CONTINUOUS
10
17.5
20
0
11
64.6
21
0
0
LINE
8
BLACK
6
CONTINUOUS
10
96.3
20
-87.7
11
100
21
-74
0
LINE
8
BLACK
6
CONTINUOUS
10
96
20
-57.5
11
96
21
-1.5
0
LINE
8
BLACK
6
CONTINUOUS
10
96
20
-68
11
99.2
21
-68.8
0
LINE
8
BLACK
6
CONTINUOUS
10
1
20
0
11
5.5
21
0
0
ARC
8
BLACK
10
94.9226
20
-87.2762
40
1.44112
50
-98.8858
51
-17.1021
0
LINE
8
BLACK
6
CONTINUOUS
10
64.6
20
0
11
64.6
21
-6.3
0
LINE
8
BLACK
6
CONTINUOUS
10
17.5
20
-21
11
17.5
21
0
0
LINE
8
BLACK
6
CONTINUOUS
10
39.5
20
-82.5
11
39.5
21
-80.5
0
LINE
8
BLACK
6
CONTINUOUS
10
5.5
20
-21
11
17.5
21
-21
0
LINE
8
BLACK
6
CONTINUOUS
10
77
20
-84
11
94.7
21
-88.7
0
ARC
8
BLACK
10
98.9139
20
-69.849
40
1.08732
50
-2.68846
51
74.7444
0
ARC
8
BLACK
10
1
20
-1
40
1
50
90
51
180
0
LINE
8
BLACK
6
CONTINUOUS
10
64.6
20
-6.3
11
74.2
21
-6.3
0
LINE
8
BLACK
6
CONTINUOUS
10
41
20
-84
11
77
21
-84
0
ARC
8
BLACK
10
94.5
20
-1.5
40
1.5
50
-0
51
90
0
LINE
8
BLACK
6
CONTINUOUS
10
74.2
20
-6.3
11
74.2
21
0
0
LINE
8
BLACK
6
CONTINUOUS
10
96
20
-57.5
11
96
21
-68
0
ARC
8
BLACK
10
1.5
20
-79
40
1.5
50
-180
51
-90
0
ARC
8
BLACK
10
41
20
-82.5
40
1.5
50
-180
51
-90
0
LINE
8
BLACK
6
CONTINUOUS
10
74.2
20
0
11
94.5
21
0
0
LINE
8
BLACK
6
CONTINUOUS
10
39.5
20
-80.5
11
1.5
21
-80.5
0
LINE
8
BLACK
6
CONTINUOUS
10
5.5
20
0
11
5.5
21
-21
0
LINE
8
BLACK
6
CONTINUOUS
10
7
20
-6.75
11
16
21
-6.75
0
LINE
8
BLACK
6
CONTINUOUS
10
16
20
-6.75
11
16
21
0.75
0
LINE
8
BLACK
6
CONTINUOUS
10
16
20
0.75
11
7
21
0.75
0
LINE
8
BLACK
6
CONTINUOUS
10
7
20
0.75
11
7
21
-6.75
0
LINE
8
BLACK
6
CONTINUOUS
10
5.25
20
-14
11
9
21
-14
0
LINE
8
BLACK
6
CONTINUOUS
10
9
20
-14
11
9
21
-18.5
0
LINE
8
BLACK
6
CONTINUOUS
10
9
20
-18.5
11
5.25
21
-18.5
0
LINE
8
BLACK
6
CONTINUOUS
10
5.25
20
-18.5
11
5.25
21
-14
0
LINE
8
BLACK
6
CONTINUOUS
10
17.75
20
-14
11
14
21
-14
0
LINE
8
BLACK
6
CONTINUOUS
10
14
20
-14
11
14
21
-18.5
0
LINE
8
BLACK
6
CONTINUOUS
10
14
20
-18.5
11
17.75
21
-18.5
0
LINE
8
BLACK
6
CONTINUOUS
10
17.75
20
-18.5
11
17.75
21
-14
0
LINE
8
BLACK
6
CONTINUOUS
10
1.5
20
0.5
11
21.5
21
0.5
0
LINE
8
BLACK
6
CONTINUOUS
10
21.5
20
0.5
11
21.5
21
-24
0
LINE
8
BLACK
6
CONTINUOUS
10
21.5
20
-24
11
1.5
21
-24
0
LINE
8
BLACK
6
CONTINUOUS
10
1.5
20
-24
11
1.5
21
0.5
0
CIRCLE
8
BLACK
10
11.5
20
-15.25
40
1.25
0
LINE
8
BLACK
6
CONTINUOUS
10
75.65
20
0.25
11
63.15
21
0.25
0
LINE
8
BLACK
6
CONTINUOUS
10
63.15
20
0.25
11
63.15
21
-8.75
0
LINE
8
BLACK
6
CONTINUOUS
10
63.15
20
-8.75
11
75.65
21
-8.75
0
LINE
8
BLACK
6
CONTINUOUS
10
75.65
20
-8.75
11
75.65
21
0.25
0
LINE
8
BLACK
6
CONTINUOUS
10
38
20
-64.6
11
34.6
21
-64.6
0
LINE
8
BLACK
6
CONTINUOUS
10
34.6
20
-77.4
11
28.6
21
-77.4
0
LINE
8
BLACK
6
CONTINUOUS
10
34.6
20
-64.6
11
28.6
21
-64.6
0
LINE
8
BLACK
6
CONTINUOUS
10
25.2
20
-77.4
11
25.2
21
-64.6
0
LINE
8
BLACK
6
CONTINUOUS
10
34.6
20
-77.4
11
38
21
-77.4
0
LINE
8
BLACK
6
CONTINUOUS
10
38
20
-64.6
11
38
21
-77.4
0
LINE
8
BLACK
6
CONTINUOUS
10
28.6
20
-64.6
11
25.2
21
-64.6
0
LINE
8
BLACK
6
CONTINUOUS
10
25.2
20
-77.4
11
28.6
21
-77.4
0
LINE
8
BLACK
6
CONTINUOUS
10
40
20
-65
11
25.5
21
-65
0
LINE
8
BLACK
6
CONTINUOUS
10
25.5
20
-65
11
25.5
21
-82.5
0
LINE
8
BLACK
6
CONTINUOUS
10
25.5
20
-82.5
11
40
21
-82.5
0
LINE
8
BLACK
6
CONTINUOUS
10
40
20
-82.5
11
40
21
-65
0
CIRCLE
8
BLACK
10
28.5
20
-3.5
40
1.1
0
CIRCLE
8
BLACK
10
80
20
-65
40
1.1
0
CIRCLE
8
BLACK
10
80
20
-3.5
40
1.1
0
CIRCLE
8
BLACK
10
23
20
-75.5
40
1.1
0
LINE
8
BLACK
6
CONTINUOUS
10
97.9
20
-9.65
11
97.9
21
-4.15
0
LINE
8
BLACK
6
CONTINUOUS
10
97.9
20
-4.15
11
95.9
21
-4.15
0
LINE
8
BLACK
6
CONTINUOUS
10
82.9
20
-10.15
11
95.9
21
-10.15
0
LINE
8
BLACK
6
CONTINUOUS
10
95.9
20
-10.15
11
95.9
21
-9.65
0
LINE
8
BLACK
6
CONTINUOUS
10
82.9
20
-3.65
11
82.9
21
-10.15
0
LINE
8
BLACK
6
CONTINUOUS
10
95.9
20
-4.15
11
95.9
21
-3.65
0
LINE
8
BLACK
6
CONTINUOUS
10
95.9
20
-9.65
11
97.9
21
-9.65
0
LINE
8
BLACK
6
CONTINUOUS
10
95.9
20
-3.65
11
82.9
21
-3.65
0
LINE
8
BLACK
6
CONTINUOUS
10
69.95
20
-44.5
11
63.95
21
-44.5
0
LINE
8
BLACK
6
CONTINUOUS
10
63.95
20
-44.5
11
63.95
21
-46.5
0
LINE
8
BLACK
6
CONTINUOUS
10
63.95
20
-46.5
11
69.95
21
-46.5
0
LINE
8
BLACK
6
CONTINUOUS
10
69.95
20
-46.5
11
69.95
21
-44.5
0
LINE
8
BLACK
6
CONTINUOUS
10
34
20
-58
11
28
21
-58
0
LINE
8
BLACK
6
CONTINUOUS
10
28
20
-58
11
28
21
-60
0
LINE
8
BLACK
6
CONTINUOUS
10
28
20
-60
11
34
21
-60
0
LINE
8
BLACK
6
CONTINUOUS
10
34
20
-60
11
34
21
-58
0
LINE
8
BLACK
6
CONTINUOUS
10
16
20
-41
11
10
21
-41
0
LINE
8
BLACK
6
CONTINUOUS
10
10
20
-41
11
10
21
-43
0
LINE
8
BLACK
6
CONTINUOUS
10
10
20
-43
11
16
21
-43
0
LINE
8
BLACK
6
CONTINUOUS
10
16
20
-43
11
16
21
-41
0
LINE
8
BLACK
6
CONTINUOUS
10
71
20
-64.5
11
65
21
-64.5
0
LINE
8
BLACK
6
CONTINUOUS
10
65
20
-64.5
11
65
21
-66.5
0
LINE
8
BLACK
6
CONTINUOUS
10
65
20
-66.5
11
71
21
-66.5
0
LINE
8
BLACK
6
CONTINUOUS
10
71
20
-66.5
11
71
21
-64.5
0
LINE
8
BLACK
6
CONTINUOUS
10
52
20
-53
11
46
21
-53
0
LINE
8
BLACK
6
CONTINUOUS
10
46
20
-53
11
46
21
-55
0
LINE
8
BLACK
6
CONTINUOUS
10
46
20
-55
11
52
21
-55
0
LINE
8
BLACK
6
CONTINUOUS
10
52
20
-55
11
52
21
-53
0
LINE
8
BLACK
6
CONTINUOUS
10
52
20
-19
11
46
21
-19
0
LINE
8
BLACK
6
CONTINUOUS
10
46
20
-19
11
46
21
-21
0
LINE
8
BLACK
6
CONTINUOUS
10
46
20
-21
11
52
21
-21
0
LINE
8
BLACK
6
CONTINUOUS
10
52
20
-21
11
52
21
-19
0
LINE
8
BLACK
6
CONTINUOUS
10
70
20
-61.5
11
64
21
-61.5
0
LINE
8
BLACK
6
CONTINUOUS
10
64
20
-61.5
11
64
21
-63.5
0
LINE
8
BLACK
6
CONTINUOUS
10
64
20
-63.5
11
70
21
-63.5
0
LINE
8
BLACK
6
CONTINUOUS
10
70
20
-63.5
11
70
21
-61.5
0
LINE
8
BLACK
6
CONTINUOUS
10
88
20
-44.5
11
82
21
-44.5
0
LINE
8
BLACK
6
CONTINUOUS
10
82
20
-44.5
11
82
21
-46.5
0
LINE
8
BLACK
6
CONTINUOUS
10
82
20
-46.5
11
88
21
-46.5
0
LINE
8
BLACK
6
CONTINUOUS
10
88
20
-46.5
11
88
21
-44.5
0
LINE
8
BLACK
6
CONTINUOUS
10
94
20
-66.5
11
88
21
-66.5
0
LINE
8
BLACK
6
CONTINUOUS
10
88
20
-66.5
11
88
21
-68.5
0
LINE
8
BLACK
6
CONTINUOUS
10
88
20
-68.5
11
94
21
-68.5
0
LINE
8
BLACK
6
CONTINUOUS
10
94
20
-68.5
11
94
21
-66.5
0
LINE
8
BLACK
6
CONTINUOUS
10
70
20
-27.5
11
64
21
-27.5
0
LINE
8
BLACK
6
CONTINUOUS
10
64
20
-27.5
11
64
21
-29.5
0
LINE
8
BLACK
6
CONTINUOUS
10
64
20
-29.5
11
70
21
-29.5
0
LINE
8
BLACK
6
CONTINUOUS
10
70
20
-29.5
11
70
21
-27.5
0
LINE
8
BLACK
6
CONTINUOUS
10
34
20
-41
11
28
21
-41
0
LINE
8
BLACK
6
CONTINUOUS
10
28
20
-41
11
28
21
-43
0
LINE
8
BLACK
6
CONTINUOUS
10
28
20
-43
11
34
21
-43
0
LINE
8
BLACK
6
CONTINUOUS
10
34
20
-43
11
34
21
-41
0
LINE
8
BLACK
6
CONTINUOUS
10
88
20
-27.5
11
82
21
-27.5
0
LINE
8
BLACK
6
CONTINUOUS
10
82
20
-27.5
11
82
21
-29.5
0
LINE
8
BLACK
6
CONTINUOUS
10
82
20
-29.5
11
88
21
-29.5
0
LINE
8
BLACK
6
CONTINUOUS
10
88
20
-29.5
11
88
21
-27.5
0
LINE
8
BLACK
6
CONTINUOUS
10
88
20
-61.5
11
82
21
-61.5
0
LINE
8
BLACK
6
CONTINUOUS
10
82
20
-61.5
11
82
21
-63.5
0
LINE
8
BLACK
6
CONTINUOUS
10
82
20
-63.5
11
88
21
-63.5
0
LINE
8
BLACK
6
CONTINUOUS
10
88
20
-63.5
11
88
21
-61.5
0
LINE
8
BLACK
6
CONTINUOUS
10
52
20
-36
11
46
21
-36
0
LINE
8
BLACK
6
CONTINUOUS
10
46
20
-36
11
46
21
-38
0
LINE
8
BLACK
6
CONTINUOUS
10
46
20
-38
11
52
21
-38
0
LINE
8
BLACK
6
CONTINUOUS
10
52
20
-38
11
52
21
-36
0
LINE
8
BLACK
6
CONTINUOUS
10
34
20
-24
11
28
21
-24
0
LINE
8
BLACK
6
CONTINUOUS
10
28
20
-24
11
28
21
-26
0
LINE
8
BLACK
6
CONTINUOUS
10
28
20
-26
11
34
21
-26
0
LINE
8
BLACK
6
CONTINUOUS
10
34
20
-26
11
34
21
-24
0
LINE
8
BLACK
6
CONTINUOUS
10
16
20
-58
11
10
21
-58
0
LINE
8
BLACK
6
CONTINUOUS
10
10
20
-58
11
10
21
-60
0
LINE
8
BLACK
6
CONTINUOUS
10
10
20
-60
11
16
21
-60
0
LINE
8
BLACK
6
CONTINUOUS
10
16
20
-60
11
16
21
-58
0
LINE
8
BLACK
6
CONTINUOUS
10
53
20
-64.5
11
47
21
-64.5
0
LINE
8
BLACK
6
CONTINUOUS
10
47
20
-64.5
11
47
21
-66.5
0
LINE
8
BLACK
6
CONTINUOUS
10
47
20
-66.5
11
53
21
-66.5
0
LINE
8
BLACK
6
CONTINUOUS
10
53
20
-66.5
11
53
21
-64.5
0
LINE
8
BLACK
6
CONTINUOUS
10
16
20
-75
11
10
21
-75
0
LINE
8
BLACK
6
CONTINUOUS
10
10
20
-75
11
10
21
-77
0
LINE
8
BLACK
6
CONTINUOUS
10
10
20
-77
11
16
21
-77
0
LINE
8
BLACK
6
CONTINUOUS
10
16
20
-77
11
16
21
-75
0
LINE
8
BLACK
6
CONTINUOUS
10
41.5
20
-61.5
11
35.5
21
-61.5
0
LINE
8
BLACK
6
CONTINUOUS
10
35.5
20
-61.5
11
35.5
21
-63.5
0
LINE
8
BLACK
6
CONTINUOUS
10
35.5
20
-63.5
11
41.5
21
-63.5
0
LINE
8
BLACK
6
CONTINUOUS
10
41.5
20
-63.5
11
41.5
21
-61.5
0
LINE
8
BLACK
6
CONTINUOUS
10
42.1
20
-21.6
11
55.9
21
-21.6
0
LINE
8
BLACK
6
CONTINUOUS
10
55.9
20
-21.6
11
55.9
21
-35.4
0
LINE
8
BLACK
6
CONTINUOUS
10
55.9
20
-35.4
11
42.1
21
-35.4
0
LINE
8
BLACK
6
CONTINUOUS
10
42.1
20
-35.4
11
42.1
21
-21.6
0
LINE
8
BLACK
6
CONTINUOUS
10
41.6
20
-21.6
11
56.4
21
-21.6
0
LINE
8
BLACK
6
CONTINUOUS
10
56.4
20
-21.6
11
56.4
21
-35.4
0
LINE
8
BLACK
6
CONTINUOUS
10
56.4
20
-35.4
11
41.6
21
-35.4
0
LINE
8
BLACK
6
CONTINUOUS
10
41.6
20
-35.4
11
41.6
21
-21.6
0
LINE
8
BLACK
6
CONTINUOUS
10
24.1
20
-26.6
11
37.9
21
-26.6
0
LINE
8
BLACK
6
CONTINUOUS
10
37.9
20
-26.6
11
37.9
21
-40.4
0
LINE
8
BLACK
6
CONTINUOUS
10
37.9
20
-40.4
11
24.1
21
-40.4
0
LINE
8
BLACK
6
CONTINUOUS
10
24.1
20
-40.4
11
24.1
21
-26.6
0
LINE
8
BLACK
6
CONTINUOUS
10
23.6
20
-26.6
11
38.4
21
-26.6
0
LINE
8
BLACK
6
CONTINUOUS
10
38.4
20
-26.6
11
38.4
21
-40.4
0
LINE
8
BLACK
6
CONTINUOUS
10
38.4
20
-40.4
11
23.6
21
-40.4
0
LINE
8
BLACK
6
CONTINUOUS
10
23.6
20
-40.4
11
23.6
21
-26.6
0
LINE
8
BLACK
6
CONTINUOUS
10
24.1
20
-43.6
11
37.9
21
-43.6
0
LINE
8
BLACK
6
CONTINUOUS
10
37.9
20
-43.6
11
37.9
21
-57.4
0
LINE
8
BLACK
6
CONTINUOUS
10
37.9
20
-57.4
11
24.1
21
-57.4
0
LINE
8
BLACK
6
CONTINUOUS
10
24.1
20
-57.4
11
24.1
21
-43.6
0
LINE
8
BLACK
6
CONTINUOUS
10
23.6
20
-43.6
11
38.4
21
-43.6
0
LINE
8
BLACK
6
CONTINUOUS
10
38.4
20
-43.6
11
38.4
21
-57.4
0
LINE
8
BLACK
6
CONTINUOUS
10
38.4
20
-57.4
11
23.6
21
-57.4
0
LINE
8
BLACK
6
CONTINUOUS
10
23.6
20
-57.4
11
23.6
21
-43.6
0
LINE
8
BLACK
6
CONTINUOUS
10
78.1
20
-30.1
11
91.9
21
-30.1
0
LINE
8
BLACK
6
CONTINUOUS
10
91.9
20
-30.1
11
91.9
21
-43.9
0
LINE
8
BLACK
6
CONTINUOUS
10
91.9
20
-43.9
11
78.1
21
-43.9
0
LINE
8
BLACK
6
CONTINUOUS
10
78.1
20
-43.9
11
78.1
21
-30.1
0
LINE
8
BLACK
6
CONTINUOUS
10
77.6
20
-30.1
11
92.4
21
-30.1
0
LINE
8
BLACK
6
CONTINUOUS
10
92.4
20
-30.1
11
92.4
21
-43.9
0
LINE
8
BLACK
6
CONTINUOUS
10
92.4
20
-43.9
11
77.6
21
-43.9
0
LINE
8
BLACK
6
CONTINUOUS
10
77.6
20
-43.9
11
77.6
21
-30.1
0
LINE
8
BLACK
6
CONTINUOUS
10
43.1
20
-67.1
11
56.9
21
-67.1
0
LINE
8
BLACK
6
CONTINUOUS
10
56.9
20
-67.1
11
56.9
21
-80.9
0
LINE
8
BLACK
6
CONTINUOUS
10
56.9
20
-80.9
11
43.1
21
-80.9
0
LINE
8
BLACK
6
CONTINUOUS
10
43.1
20
-80.9
11
43.1
21
-67.1
0
LINE
8
BLACK
6
CONTINUOUS
10
42.6
20
-67.1
11
57.4
21
-67.1
0
LINE
8
BLACK
6
CONTINUOUS
10
57.4
20
-67.1
11
57.4
21
-80.9
0
LINE
8
BLACK
6
CONTINUOUS
10
57.4
20
-80.9
11
42.6
21
-80.9
0
LINE
8
BLACK
6
CONTINUOUS
10
42.6
20
-80.9
11
42.6
21
-67.1
0
LINE
8
BLACK
6
CONTINUOUS
10
78.1
20
-13.1
11
91.9
21
-13.1
0
LINE
8
BLACK
6
CONTINUOUS
10
91.9
20
-13.1
11
91.9
21
-26.9
0
LINE
8
BLACK
6
CONTINUOUS
10
91.9
20
-26.9
11
78.1
21
-26.9
0
LINE
8
BLACK
6
CONTINUOUS
10
78.1
20
-26.9
11
78.1
21
-13.1
0
LINE
8
BLACK
6
CONTINUOUS
10
77.6
20
-13.1
11
92.4
21
-13.1
0
LINE
8
BLACK
6
CONTINUOUS
10
92.4
20
-13.1
11
92.4
21
-26.9
0
LINE
8
BLACK
6
CONTINUOUS
10
92.4
20
-26.9
11
77.6
21
-26.9
0
LINE
8
BLACK
6
CONTINUOUS
10
77.6
20
-26.9
11
77.6
21
-13.1
0
LINE
8
BLACK
6
CONTINUOUS
10
83.121
20
-68.0493
11
96.4507
21
-71.621
0
LINE
8
BLACK
6
CONTINUOUS
10
96.4507
20
-71.621
11
92.879
21
-84.9507
0
LINE
8
BLACK
6
CONTINUOUS
10
92.879
20
-84.9507
11
79.5493
21
-81.379
0
LINE
8
BLACK
6
CONTINUOUS
10
79.5493
20
-81.379
11
83.121
21
-68.0493
0
LINE
8
BLACK
6
CONTINUOUS
10
82.638
20
-67.9199
11
96.9337
21
-71.7504
0
LINE
8
BLACK
6
CONTINUOUS
10
96.9337
20
-71.7504
11
93.362
21
-85.0801
0
LINE
8
BLACK
6
CONTINUOUS
10
93.362
20
-85.0801
11
79.0663
21
-81.2496
0
LINE
8
BLACK
6
CONTINUOUS
10
79.0663
20
-81.2496
11
82.638
21
-67.9199
0
LINE
8
BLACK
6
CONTINUOUS
10
60.1
20
-30.1
11
73.9
21
-30.1
0
LINE
8
BLACK
6
CONTINUOUS
10
73.9
20
-30.1
11
73.9
21
-43.9
0
LINE
8
BLACK
6
CONTINUOUS
10
73.9
20
-43.9
11
60.1
21
-43.9
0
LINE
8
BLACK
6
CONTINUOUS
10
60.1
20
-43.9
11
60.1
21
-30.1
0
LINE
8
BLACK
6
CONTINUOUS
10
59.6
20
-30.1
11
74.4
21
-30.1
0
LINE
8
BLACK
6
CONTINUOUS
10
74.4
20
-30.1
11
74.4
21
-43.9
0
LINE
8
BLACK
6
CONTINUOUS
10
74.4
20
-43.9
11
59.6
21
-43.9
0
LINE
8
BLACK
6
CONTINUOUS
10
59.6
20
-43.9
11
59.6
21
-30.1
0
LINE
8
BLACK
6
CONTINUOUS
10
60.1
20
-47.1
11
73.9
21
-47.1
0
LINE
8
BLACK
6
CONTINUOUS
10
73.9
20
-47.1
11
73.9
21
-60.9
0
LINE
8
BLACK
6
CONTINUOUS
10
73.9
20
-60.9
11
60.1
21
-60.9
0
LINE
8
BLACK
6
CONTINUOUS
10
60.1
20
-60.9
11
60.1
21
-47.1
0
LINE
8
BLACK
6
CONTINUOUS
10
59.6
20
-47.1
11
74.4
21
-47.1
0
LINE
8
BLACK
6
CONTINUOUS
10
74.4
20
-47.1
11
74.4
21
-60.9
0
LINE
8
BLACK
6
CONTINUOUS
10
74.4
20
-60.9
11
59.6
21
-60.9
0
LINE
8
BLACK
6
CONTINUOUS
10
59.6
20
-60.9
11
59.6
21
-47.1
0
LINE
8
BLACK
6
CONTINUOUS
10
6.1
20
-26.6
11
19.9
21
-26.6
0
LINE
8
BLACK
6
CONTINUOUS
10
19.9
20
-26.6
11
19.9
21
-40.4
0
LINE
8
BLACK
6
CONTINUOUS
10
19.9
20
-40.4
11
6.1
21
-40.4
0
LINE
8
BLACK
6
CONTINUOUS
10
6.1
20
-40.4
11
6.1
21
-26.6
0
LINE
8
BLACK
6
CONTINUOUS
10
5.6
20
-26.6
11
20.4
21
-26.6
0
LINE
8
BLACK
6
CONTINUOUS
10
20.4
20
-26.6
11
20.4
21
-40.4
0
LINE
8
BLACK
6
CONTINUOUS
10
20.4
20
-40.4
11
5.6
21
-40.4
0
LINE
8
BLACK
6
CONTINUOUS
10
5.6
20
-40.4
11
5.6
21
-26.6
0
LINE
8
BLACK
6
CONTINUOUS
10
78.1
20
-47.1
11
91.9
21
-47.1
0
LINE
8
BLACK
6
CONTINUOUS
10
91.9
20
-47.1
11
91.9
21
-60.9
0
LINE
8
BLACK
6
CONTINUOUS
10
91.9
20
-60.9
11
78.1
21
-60.9
0
LINE
8
BLACK
6
CONTINUOUS
10
78.1
20
-60.9
11
78.1
21
-47.1
0
LINE
8
BLACK
6
CONTINUOUS
10
77.6
20
-47.1
11
92.4
21
-47.1
0
LINE
8
BLACK
6
CONTINUOUS
10
92.4
20
-47.1
11
92.4
21
-60.9
0
LINE
8
BLACK
6
CONTINUOUS
10
92.4
20
-60.9
11
77.6
21
-60.9
0
LINE
8
BLACK
6
CONTINUOUS
10
77.6
20
-60.9
11
77.6
21
-47.1
0
LINE
8
BLACK
6
CONTINUOUS
10
42.1
20
-4.6
11
55.9
21
-4.6
0
LINE
8
BLACK
6
CONTINUOUS
10
55.9
20
-4.6
11
55.9
21
-18.4
0
LINE
8
BLACK
6
CONTINUOUS
10
55.9
20
-18.4
11
42.1
21
-18.4
0
LINE
8
BLACK
6
CONTINUOUS
10
42.1
20
-18.4
11
42.1
21
-4.6
0
LINE
8
BLACK
6
CONTINUOUS
10
41.6
20
-4.6
11
56.4
21
-4.6
0
LINE
8
BLACK
6
CONTINUOUS
10
56.4
20
-4.6
11
56.4
21
-18.4
0
LINE
8
BLACK
6
CONTINUOUS
10
56.4
20
-18.4
11
41.6
21
-18.4
0
LINE
8
BLACK
6
CONTINUOUS
10
41.6
20
-18.4
11
41.6
21
-4.6
0
LINE
8
BLACK
6
CONTINUOUS
10
42.1
20
-38.6
11
55.9
21
-38.6
0
LINE
8
BLACK
6
CONTINUOUS
10
55.9
20
-38.6
11
55.9
21
-52.4
0
LINE
8
BLACK
6
CONTINUOUS
10
55.9
20
-52.4
11
42.1
21
-52.4
0
LINE
8
BLACK
6
CONTINUOUS
10
42.1
20
-52.4
11
42.1
21
-38.6
0
LINE
8
BLACK
6
CONTINUOUS
10
41.6
20
-38.6
11
56.4
21
-38.6
0
LINE
8
BLACK
6
CONTINUOUS
10
56.4
20
-38.6
11
56.4
21
-52.4
0
LINE
8
BLACK
6
CONTINUOUS
10
56.4
20
-52.4
11
41.6
21
-52.4
0
LINE
8
BLACK
6
CONTINUOUS
10
41.6
20
-52.4
11
41.6
21
-38.6
0
LINE
8
BLACK
6
CONTINUOUS
10
24.1
20
-9.6
11
37.9
21
-9.6
0
LINE
8
BLACK
6
CONTINUOUS
10
37.9
20
-9.6
11
37.9
21
-23.4
0
LINE
8
BLACK
6
CONTINUOUS
10
37.9
20
-23.4
11
24.1
21
-23.4
0
LINE
8
BLACK
6
CONTINUOUS
10
24.1
20
-23.4
11
24.1
21
-9.6
0
LINE
8
BLACK
6
CONTINUOUS
10
23.6
20
-9.6
11
38.4
21
-9.6
0
LINE
8
BLACK
6
CONTINUOUS
10
38.4
20
-9.6
11
38.4
21
-23.4
0
LINE
8
BLACK
6
CONTINUOUS
10
38.4
20
-23.4
11
23.6
21
-23.4
0
LINE
8
BLACK
6
CONTINUOUS
10
23.6
20
-23.4
11
23.6
21
-9.6
0
LINE
8
BLACK
6
CONTINUOUS
10
60.1
20
-13.1
11
73.9
21
-13.1
0
LINE
8
BLACK
6
CONTINUOUS
10
73.9
20
-13.1
11
73.9
21
-26.9
0
LINE
8
BLACK
6
CONTINUOUS
10
73.9
20
-26.9
11
60.1
21
-26.9
0
LINE
8
BLACK
6
CONTINUOUS
10
60.1
20
-26.9
11
60.1
21
-13.1
0
LINE
8
BLACK
6
CONTINUOUS
10
59.6
20
-13.1
11
74.4
21
-13.1
0
LINE
8
BLACK
6
CONTINUOUS
10
74.4
20
-13.1
11
74.4
21
-26.9
0
LINE
8
BLACK
6
CONTINUOUS
10
74.4
20
-26.9
11
59.6
21
-26.9
0
LINE
8
BLACK
6
CONTINUOUS
10
59.6
20
-26.9
11
59.6
21
-13.1
0
LINE
8
BLACK
6
CONTINUOUS
10
6.1
20
-43.6
11
19.9
21
-43.6
0
LINE
8
BLACK
6
CONTINUOUS
10
19.9
20
-43.6
11
19.9
21
-57.4
0
LINE
8
BLACK
6
CONTINUOUS
10
19.9
20
-57.4
11
6.1
21
-57.4
0
LINE
8
BLACK
6
CONTINUOUS
10
6.1
20
-57.4
11
6.1
21
-43.6
0
LINE
8
BLACK
6
CONTINUOUS
10
5.6
20
-43.6
11
20.4
21
-43.6
0
LINE
8
BLACK
6
CONTINUOUS
10
20.4
20
-43.6
11
20.4
21
-57.4
0
LINE
8
BLACK
6
CONTINUOUS
10
20.4
20
-57.4
11
5.6
21
-57.4
0
LINE
8
BLACK
6
CONTINUOUS
10
5.6
20
-57.4
11
5.6
21
-43.6
0
LINE
8
BLACK
6
CONTINUOUS
10
6.1
20
-60.6
11
19.9
21
-60.6
0
LINE
8
BLACK
6
CONTINUOUS
10
19.9
20
-60.6
11
19.9
21
-74.4
0
LINE
8
BLACK
6
CONTINUOUS
10
19.9
20
-74.4
11
6.1
21
-74.4
0
LINE
8
BLACK
6
CONTINUOUS
10
6.1
20
-74.4
11
6.1
21
-60.6
0
LINE
8
BLACK
6
CONTINUOUS
10
5.6
20
-60.6
11
20.4
21
-60.6
0
LINE
8
BLACK
6
CONTINUOUS
10
20.4
20
-60.6
11
20.4
21
-74.4
0
LINE
8
BLACK
6
CONTINUOUS
10
20.4
20
-74.4
11
5.6
21
-74.4
0
LINE
8
BLACK
6
CONTINUOUS
10
5.6
20
-74.4
11
5.6
21
-60.6
0
LINE
8
BLACK
6
CONTINUOUS
10
61.1
20
-67.1
11
74.9
21
-67.1
0
LINE
8
BLACK
6
CONTINUOUS
10
74.9
20
-67.1
11
74.9
21
-80.9
0
LINE
8
BLACK
6
CONTINUOUS
10
74.9
20
-80.9
11
61.1
21
-80.9
0
LINE
8
BLACK
6
CONTINUOUS
10
61.1
20
-80.9
11
61.1
21
-67.1
0
LINE
8
BLACK
6
CONTINUOUS
10
60.6
20
-67.1
11
75.4
21
-67.1
0
LINE
8
BLACK
6
CONTINUOUS
10
75.4
20
-67.1
11
75.4
21
-80.9
0
LINE
8
BLACK
6
CONTINUOUS
10
75.4
20
-80.9
11
60.6
21
-80.9
0
LINE
8
BLACK
6
CONTINUOUS
10
60.6
20
-80.9
11
60.6
21
-67.1
  0
ENDSEC
  0
EOF
